<svg width="425" height="169" viewBox="0 0 425 169" fill="none" xmlns="http://www.w3.org/2000/svg">
<mask id="path-1-inside-1_300_155" fill="white">
<path fill-rule="evenodd" clip-rule="evenodd" d="M40 0C17.9086 0 0 17.9086 0 40V129C0 151.091 17.9086 169 40 169H385C407.091 169 425 151.091 425 129V40C425 17.9086 407.091 0 385 0H40ZM40 16C26.7452 16 16 26.7452 16 40V129C16 142.255 26.7452 153 40 153H176C189.255 153 200 142.255 200 129V40C200 26.7452 189.255 16 176 16H40Z"/>
</mask>
<path fill-rule="evenodd" clip-rule="evenodd" d="M40 0C17.9086 0 0 17.9086 0 40V129C0 151.091 17.9086 169 40 169H385C407.091 169 425 151.091 425 129V40C425 17.9086 407.091 0 385 0H40ZM40 16C26.7452 16 16 26.7452 16 40V129C16 142.255 26.7452 153 40 153H176C189.255 153 200 142.255 200 129V40C200 26.7452 189.255 16 176 16H40Z" fill="#F0EFE6"/>
<path d="M1 40C1 18.4609 18.4609 1 40 1V-1C17.3563 -1 -1 17.3563 -1 40H1ZM1 129V40H-1V129H1ZM40 168C18.4609 168 1 150.539 1 129H-1C-1 151.644 17.3563 170 40 170V168ZM385 168H40V170H385V168ZM424 129C424 150.539 406.539 168 385 168V170C407.644 170 426 151.644 426 129H424ZM424 40V129H426V40H424ZM385 1C406.539 1 424 18.4609 424 40H426C426 17.3563 407.644 -1 385 -1V1ZM40 1H385V-1H40V1ZM17 40C17 27.2974 27.2975 17 40 17V15C26.1929 15 15 26.1929 15 40H17ZM17 129V40H15V129H17ZM40 152C27.2975 152 17 141.703 17 129H15C15 142.807 26.1929 154 40 154V152ZM176 152H40V154H176V152ZM199 129C199 141.703 188.703 152 176 152V154C189.807 154 201 142.807 201 129H199ZM199 40V129H201V40H199ZM176 17C188.703 17 199 27.2974 199 40H201C201 26.1929 189.807 15 176 15V17ZM40 17H176V15H40V17Z" fill="black" mask="url(#path-1-inside-1_300_155)"/>
<path d="M218.799 21.8971C218.86 24.5645 219.944 27.0208 220.451 29.6261C221.269 33.8372 221.67 38.0957 221.891 42.379C222.033 45.1294 222.7 53.3447 222.207 50.6351C221.721 47.9586 220.235 45.5982 219.432 43.0114C217.699 37.4266 215.02 28.5169 219.309 23.4956C223.25 18.8819 227.926 20.0656 231.271 24.5671C233.854 28.0419 236.405 35.0472 233.204 38.901C231.202 41.3104 227.679 41.3394 224.842 40.7981C223.706 40.5814 219.249 38.7418 219.766 36.9336C219.833 36.6973 221.959 38.5458 222.155 38.7078C224.33 40.512 226.24 42.5828 228.303 44.5045C232.285 48.2151 236.455 51.8839 240.3 55.7292" stroke="black" stroke-width="3" stroke-linecap="round"/>
<path d="M243.461 34.8608C244.914 39.9177 246.435 44.9668 247.571 50.1081C247.915 51.6646 248.044 53.6727 246.307 51.935" stroke="black" stroke-width="3" stroke-linecap="round"/>
<path d="M242.197 26.3237C242.392 26.9749 243.417 29.443 242.267 29.4856C241.244 29.5235 239.776 29.1779 239.228 28.2033C238.366 26.6712 239.448 25.1137 240.932 24.7428" stroke="black" stroke-width="3" stroke-linecap="round"/>
<path d="M253.579 31.3828C252.947 31.3038 253.542 40.7315 253.562 41.4481C253.673 45.5728 253.908 49.5809 254.774 53.6214C254.933 54.3669 254.844 53.3717 254.844 53.1822C254.844 51.7651 254.595 50.3649 254.545 48.9488C254.424 45.4794 254.319 41.8203 255.23 38.4443C255.5 37.4459 256.773 32.6889 258.796 34.4744C261.098 36.5056 261.784 41.3302 262.046 44.206C262.201 45.9131 262.346 47.6402 262.415 49.3528C262.464 50.5754 262.239 52.0201 263.1 53.0241C264.852 55.0686 268.307 52.9345 270.021 51.935" stroke="black" stroke-width="3" stroke-linecap="round"/>
<path d="M275.081 41.5008C276.493 45.239 280.319 50.314 284.777 49.3352C287.334 48.7741 290.077 46.1095 291.136 43.7844C293.545 38.4945 288.906 30.4422 282.564 32.2259C275.727 34.149 284.069 42.4767 285.972 44.5573C290.86 49.9026 295.3 57.0003 296.02 64.3366C296.409 68.3085 296.057 71.4722 291.698 72.4872C287.68 73.423 282.047 72.6503 278.418 70.836C273.357 68.3052 271.413 61.6104 275.573 57.4507C282.902 50.1212 293.953 50.4226 303.538 50.9864" stroke="black" stroke-width="3" stroke-linecap="round"/>
<path d="M324.09 27.5885C324.18 26.3165 324.877 24.4082 324.3 23.2146C323.964 22.5174 321.733 22.7985 321.138 22.9335C314.197 24.5112 309.944 33.9592 308.684 40.1306C307.344 46.6982 310.309 51.897 316.536 54.2185C319.379 55.2784 322.422 55.8962 325.46 55.9751C328.529 56.0549 331.49 54.4527 334.137 53.0592C337.819 51.1214 341.568 48.9219 344.905 46.4192C346.591 45.1549 345.806 43.9516 344.097 43.4155C336.703 41.0957 313.238 40.5396 320.928 41.5008" stroke="black" stroke-width="3" stroke-linecap="round"/>
<path d="M350.017 20C348.998 20.7926 349.422 24.7957 349.402 25.9197C349.318 30.6954 349.385 35.4772 349.385 40.2536C349.385 48.7874 349.068 57.3137 349.068 65.8472" stroke="black" stroke-width="3" stroke-linecap="round"/>
<path d="M356.024 22.2134C356.571 24.0605 356.359 26.1995 356.322 28.098C356.242 32.2243 355.795 36.3361 355.462 40.4469C354.782 48.8254 353.811 57.1139 353.811 65.5311" stroke="black" stroke-width="3" stroke-linecap="round"/>
<path d="M358.555 47.8245C358.342 50.9929 357.266 56.6562 359.503 59.4532C361.534 61.9916 364.983 57.2062 365.932 55.7995C367.8 53.0331 368.811 47.4536 365.897 44.9437C363.443 42.8288 359.949 45.4428 359.187 47.8596C358.12 51.2444 359.749 53.4169 363.473 52.743C365.048 52.458 366.197 51.4285 367.355 50.4067C367.51 50.2703 368.588 49.0581 368.427 49.8622C367.912 52.4343 367.943 54.4077 369.621 56.5372C371.563 59.0005 373.056 59.2096 375.629 57.6263" stroke="black" stroke-width="3" stroke-linecap="round"/>
<path d="M378.473 46.8759C376.865 45.6464 377.843 44.7524 379.281 44.5045C381.573 44.1094 384.962 43.9006 387.186 44.6275C388.303 44.9927 391.285 46.6816 389.627 48.1231C387.383 50.0747 383.909 50.9192 381.389 52.5322C380.595 53.0401 377.171 54.9375 379.246 55.9751C381.44 57.0722 384.381 55.9101 386.641 55.7643C387.377 55.7169 391.735 55.1883 391.999 56.1859C392.32 57.4002 390.472 58.7025 389.856 59.5234" stroke="black" stroke-width="3" stroke-linecap="round"/>
<path d="M395.548 44.6627C397.076 44.3409 401.776 43.0559 403.259 44.5397C404.565 45.845 397.187 49.6616 396.426 50.1784C394.206 51.6857 391.907 54.6299 395.899 55.2374C399.484 55.7829 403.306 55.4131 406.931 55.4131" stroke="black" stroke-width="3" stroke-linecap="round"/>
<path d="M406.299 55.0968C402.837 56.6354 400.152 60.1763 397.762 63.0015" stroke="black" stroke-width="3" stroke-linecap="round"/>
<path d="M214.031 95.4289C215.444 91.7448 217.326 87.7413 217.582 83.7479C217.801 80.3178 217.705 76.8388 217.582 73.4073C217.53 71.9795 217.529 70.8055 217.03 69.5229C216.867 69.1043 217.117 71.0572 217.159 71.2687C217.917 75.0239 219.583 78.2303 221.464 81.5207C221.959 82.3866 223.141 84.3221 223.805 82.9513C224.894 80.7066 225.753 78.672 226.046 76.1504C226.263 74.2848 226.351 68.6478 226.374 70.5257C226.416 74.0034 227.247 77.587 227.547 81.0681C227.956 85.8006 228.676 91.1598 231.859 94.8869" stroke="black" stroke-linecap="round"/>
<path d="M232.096 87.7502C230.25 88.0039 232.387 94.5013 234.093 92.0134C234.971 90.7323 235.184 88.2596 234.966 86.7604C234.826 85.8019 233.381 83.4053 232.549 85.0245C231.919 86.25 231.176 88.9971 231.946 90.2741C232.923 91.8952 234.147 89.9152 234.851 89.1938C235.758 88.2647 235.961 89.3701 236.592 90.1454C237.657 91.4529 239.829 90.9204 241.209 90.5574" stroke="black" stroke-linecap="round"/>
<path d="M241.213 90.8816C242.95 88.8794 243.077 84.3714 241.11 82.4519C238.816 80.2127 238.452 85.6227 238.319 86.9536C238.063 89.5035 238.42 92.159 241.237 92.8269" stroke="black" stroke-linecap="round"/>
<path d="M243.024 79.8343C242.291 77.8746 242.347 75.6599 241.903 73.6149C241.828 73.2678 241.264 70.7595 241.31 72.2169C241.354 73.6235 241.692 74.9506 242.008 76.3158C242.553 78.6705 242.621 81.0109 242.887 83.4029C243.266 86.8025 244.114 90.1676 245.135 93.4278" stroke="black" stroke-linecap="round"/>
<path d="M245.737 89.5293C247.174 88.8776 248.156 88.143 248.783 86.7178C249.257 85.6408 248.247 83.2019 246.953 84.3622C245.202 85.9327 244.768 89.8836 246.911 91.2444C249.255 92.7326 252.361 91.341 254.171 89.7506" stroke="black" stroke-linecap="round"/>
<path d="M262.996 95.4796C262.349 92.8711 262.295 90.2911 262 87.6373C261.677 84.7354 261.667 80.5492 263.759 78.2841C267.782 73.9279 272.212 81.8536 272.6 85.3101" stroke="black" stroke-linecap="round"/>
<path d="M262.655 94.1867C261.759 93.4436 259.353 89.6147 261.803 89.3511C264.344 89.0778 266.838 88.9474 269.4 88.9161" stroke="black" stroke-linecap="round"/>
<path d="M270.389 90.2011C270.374 88.9559 270.39 90.2135 270.395 90.6694C270.411 91.9549 270.555 93.1316 270.765 94.394C271.278 97.4757 270.172 92.0484 270.079 91.3579C269.893 89.9626 269.32 87.62 271.402 87.5946C273.141 87.5734 275.208 87.9745 276.854 88.5008" stroke="black" stroke-linecap="round"/>
<path d="M274.964 93.0636C275.062 93.8572 276.354 94.0887 276.996 94.2638C278.536 94.6835 279.874 92.8202 280.278 91.5575C280.775 90.0051 279.865 88.6867 278.155 88.8632C276.22 89.0631 275.276 92.0894 275.296 93.7081" stroke="black" stroke-linecap="round"/>
<path d="M282.385 90.0546C282.808 89.8366 282.734 93.043 282.752 93.545C282.767 93.9745 283.32 96.0199 283.489 94.9412C283.833 92.7587 284.309 90.6719 284.889 88.5468C285.317 86.9732 285.634 90.5579 285.637 90.8436C285.642 91.2085 285.822 94.6723 285.864 94.642C286.988 93.8184 287.408 91.2432 287.735 90.0253C287.937 89.2728 288.884 87.1153 289.182 89.0348C289.328 89.9727 289.498 90.8909 289.541 91.8408C289.62 93.633 290.449 93.8605 291.847 94.8031" stroke="black" stroke-linecap="round"/>
<path d="M300.159 84.9735C300.139 83.3485 300.102 83.9289 299.673 85.0155C298.872 87.042 298.588 89.9891 299.183 92.0833C299.822 94.3355 301.831 95.8636 304.114 96.1305C305.626 96.3073 307.047 95.7869 308.353 95.0699C309.568 94.4024 309.087 94.5501 308.379 94.2769" stroke="black" stroke-linecap="round"/>
<path d="M297.324 91.8178C295.485 90.4932 298.413 90.8317 299.329 90.8205C301.846 90.7898 303.97 90.535 306.378 89.7616" stroke="black" stroke-linecap="round"/>
<path d="M308.544 81.3042C308.264 79.2681 308.313 85.4832 308.871 87.4613C309.606 90.0663 309.844 92.646 310.174 95.3179C310.294 96.2897 311.001 98.9367 310.3 98.2528C309.691 97.6588 309.425 95.9456 309.38 95.2015C309.223 92.576 309.032 89.6753 309.443 87.076C309.797 84.8364 310.734 86.476 311.144 87.6858C312.017 90.2661 311.489 97.771 314.914 98.4126" stroke="black" stroke-linecap="round"/>
<path d="M313.577 95.1863C314.424 94.7833 315.824 93.2602 315.811 92.2407C315.801 91.3857 314.265 92.2837 314.05 92.6044C313.474 93.465 313.381 94.879 313.766 95.8326C314.574 97.8395 318.123 95.8884 319.417 95.4393" stroke="black" stroke-linecap="round"/>
<path d="M323.922 92.4659C323.908 91.3633 323.536 87.4583 323.576 90.6686C323.596 92.3259 323.508 94.0245 323.655 95.6758C323.728 96.4964 323.988 97.8493 323.967 96.1944C323.937 93.6681 323.767 91.4509 325.433 89.3489C326.194 88.3887 326.864 94.3777 326.874 95.1861C326.898 97.2244 326.529 96.5732 327.055 95.328C327.829 93.4998 328.067 90.0812 329.388 88.652C330.077 87.9071 330.051 89.5958 330.069 89.8147C330.182 91.2525 330.633 92.7439 330.914 94.164C331.122 95.215 330.708 96.7229 331.763 97.2342" stroke="black" stroke-linecap="round"/>
<path d="M332.046 93.988C331.015 99.6377 336.92 93.7199 334.533 91.1112C331.412 87.7014 330.256 95.7076 333.694 96.2377" stroke="black" stroke-linecap="round"/>
<path d="M335.257 91.3546C334.67 92.7206 334.094 94.4715 335.631 95.3854C336.947 96.1675 337.925 95.4551 339.192 94.8735" stroke="black" stroke-linecap="round"/>
<path d="M339.8 91.6234C338.577 93.0338 338.948 96.4419 341.454 95.7827C342.338 95.5503 343.614 93.5667 343.687 92.6929C343.811 91.1901 341.964 89.4321 340.493 89.3451C337.247 89.153 342.899 97.9518 343.31 98.7505C344.503 101.065 345.709 103.072 346.294 105.614C346.68 107.29 345.158 106.916 343.873 106.49C339.461 105.026 337.747 101.353 340.538 97.4152C341.554 95.9816 342.044 94.5633 343.681 93.7198C344.797 93.1448 344.884 94.1611 345.354 94.9784C346.93 97.7204 349.16 95.0094 349.711 93.2859C350.409 91.104 350.142 88.7688 350.114 86.5073C350.094 84.8632 350.137 88.8199 350.148 89.2272C350.207 91.5236 351.125 93.6665 351.203 95.9519C351.278 98.1679 351.575 94.9858 351.67 94.4149C352 92.4266 351.916 90.3948 352.264 88.4267C352.335 88.0248 353.616 84.9424 353.682 86.5899C353.752 88.3319 353.577 90.1185 353.819 91.8486C353.896 92.4023 353.94 96.0145 354.121 94.5111C354.304 92.9992 354.536 91.3872 355.165 89.9946C355.254 89.7975 355.925 87.7075 355.979 88.7597C356.037 89.9132 355.918 93.5466 357.52 93.9832C358.799 94.3319 360.054 95.3351 360.902 93.6356C361.628 92.1811 361.308 87.0539 359.232 89.6387C356.046 93.6051 364.592 95.5297 366.782 97.1308" stroke="black" stroke-linecap="round"/>
<path d="M371.266 92.5364C371.119 94.3422 371.3 98.8134 373.645 95.6059C374.585 94.3204 375.77 91.8153 373.448 91.2847C371.598 90.862 371.05 94.7653 371.45 95.8489C372.316 98.1927 373.981 98.0158 376.178 97.9889C379.862 97.944 377.345 92.5754 376.435 90.996C375.564 89.4835 373.545 84.4479 376.711 84.0569C379.55 83.7064 383.422 83.9141 385.772 85.5496" stroke="black" stroke-linecap="round"/>
<path d="M374.199 93.7976C376.569 92.3867 379.861 91.7829 382.605 91.7494" stroke="black" stroke-linecap="round"/>
<path d="M386.812 91.0494C386.465 92.8994 384.789 98.2476 385.654 96.5761C386.599 94.7504 386.248 91.8748 387.921 90.4054C389.082 89.3849 388.343 95.3054 389.212 95.8121C389.928 96.2302 391.236 92.347 391.379 91.8223C391.469 91.4897 392.325 94.138 392.368 94.6206C392.519 96.3204 393.806 96.3566 394.808 95.3294C395.917 94.1934 397.22 93.6258 397.198 91.8954C397.178 90.2251 396.021 88.9657 394.755 90.9885C394.274 91.7582 393.078 95.8516 394.958 94.3368C395.836 93.6296 398.367 90.3675 397.036 93.3746C396.417 94.7735 398.014 96.7347 399.387 95.5437C400.88 94.2489 401.704 92.5886 401.723 90.6152C401.73 89.8826 401.687 87.6852 401.696 88.4177C401.72 90.4113 402.348 92.312 402.74 94.2417C402.766 94.3729 403.424 95.9044 403.657 95.6357C403.975 95.2695 403.721 93.6459 403.7 93.1852C403.673 92.6081 402.471 88.0591 403.477 88.2698C404.729 88.532 405.882 88.5467 407.21 88.5305" stroke="black" stroke-linecap="round"/>
<path d="M411.128 90.7525C410.736 88.6802 410.591 86.8631 408.167 87.2397C406.452 87.5061 407.382 91.0944 407.757 92.0187C407.967 92.5369 409.648 95.6346 408.432 95.6494C406.748 95.67 405.68 95.0436 404.359 94.0778" stroke="black" stroke-linecap="round"/>
<path d="M213.212 110.108C213.332 110.532 215.043 113.962 215.324 112.589C215.539 111.537 215.689 110.24 215.448 109.182C215.332 108.676 215.032 106.921 214.401 106.736C213.471 106.462 213.62 108.661 213.625 109.039C213.636 109.926 213.578 111.151 214.602 111.546C215.449 111.873 215.847 110.364 215.928 109.815C216.048 109.014 216.132 105.196 216.166 107.956C216.174 108.631 216.401 113.595 218.024 112.982C218.574 112.774 218.788 110.966 218.846 110.524C218.899 110.12 218.751 105.665 218.645 105.714C218.268 105.887 218.499 107.524 218.505 107.75C218.547 109.643 218.961 111.536 219.318 113.392C219.332 113.463 219.86 115.398 219.98 115.299C220.553 114.829 220.267 112.607 220.259 111.985C220.244 110.732 220.4 107.013 220.639 108.244C221.011 110.156 220.834 112.627 221.884 114.33C222.626 115.533 223.109 111.291 223.273 110.931C223.358 110.745 223.823 111.704 223.875 111.823C224.136 112.42 224.513 113.702 225.386 113.566C227.39 113.255 225.665 109.262 224.782 108.607C222.706 107.069 222.871 112.516 224.408 110.941C226.499 108.798 224.858 98.9944 225.044 101.982C225.335 106.664 226.936 111.004 228.812 115.239" stroke="black" stroke-linecap="round"/>
<path d="M235.397 100.26C235.273 100.139 234.942 103.544 234.968 103.828C235.212 106.403 235.943 109.196 236.98 111.572C237.701 113.225 240.287 117.399 242.271 114.856" stroke="black" stroke-linecap="round"/>
<path d="M232.933 109.304C235.611 109.361 237.925 109.831 240.394 108.698" stroke="black" stroke-linecap="round"/>
<path d="M243.374 99.6473C243.489 104.48 244.121 109.568 245.098 114.306C245.253 115.059 245.65 117.314 245.641 116.546C245.628 115.512 245.369 114.511 245.346 113.473C245.31 111.887 245.22 110.256 245.43 108.679C245.55 107.78 245.839 105.138 246.027 106.025C246.566 108.559 245.602 112.71 247.934 114.529" stroke="black" stroke-linecap="round"/>
<path d="M247.673 114.275C249.016 113.16 249.76 112.362 250.146 110.639C250.249 110.18 250.494 108.514 249.654 109C248.353 109.753 247.112 112.265 247.78 113.701C248.962 116.245 251.984 114.094 253.586 113.43" stroke="black" stroke-linecap="round"/>
<path d="M259.251 113.361C260.465 113.275 261.524 110.638 261.88 109.609C262.403 108.099 260.974 106.621 260.091 108.371C259.439 109.664 259.08 111.093 259.269 112.545C259.421 113.713 260.867 114.997 262.009 114.286C263.902 113.107 264.862 111.583 265.787 109.675C266.258 108.705 266.911 107.953 266.897 106.829C266.877 105.19 266.248 105.352 265.726 106.986C265.339 108.197 264.991 112.569 267.474 111.916C268.691 111.595 269.315 109.616 269.436 108.544C269.461 108.324 269.483 106.25 268.7 106.864C268.019 107.399 268.596 109.418 268.754 110.054C269.29 112.214 269.719 114.099 270.858 116.038C271.908 117.824 274.138 120.41 271.052 121.315C269.305 121.827 266.371 121.006 265.646 119.206C264.918 117.401 267.621 114.625 268.796 113.502C270.43 111.938 272.522 110.856 274.605 110.026C275.492 109.672 276.257 108.342 276.176 107.431C276.104 106.624 274.846 107.048 274.429 107.309C273.268 108.036 272.295 109.548 272.356 110.94C272.521 114.749 278.149 112.917 280.099 112.334" stroke="black" stroke-linecap="round"/>
<path d="M288.842 111.197C288.152 111.378 288.092 115.087 288.962 115.173C289.785 115.254 290.949 113.353 290.876 112.617C290.83 112.147 290.286 111.595 289.874 111.384C288.612 110.74 288.419 112.67 288.369 113.52C288.3 114.684 289.527 116.608 290.96 115.95C294.065 114.524 292.82 108.695 292.33 106.261C292.096 105.101 291.435 104.022 292.883 103.55C293.704 103.282 294.524 103.477 295.345 103.649C296.727 103.938 297.982 103.905 299.317 104.373" stroke="black" stroke-linecap="round"/>
<path d="M289.885 112.214C290.3 111.277 291.278 111.371 292.19 111.213C294.072 110.887 295.955 110.56 297.845 110.314" stroke="black" stroke-linecap="round"/>
<path d="M302.49 111.03C302.472 109.58 302.239 114.147 303.058 115.344C304.371 117.262 304.723 113.171 304.769 112.548C304.866 111.231 303.533 109.407 303.329 111.735C303.183 113.393 304.594 114.61 306.139 114.591" stroke="black" stroke-linecap="round"/>
<path d="M313.246 106.005C313.001 105.063 312.684 102.163 312.696 103.136C312.714 104.665 312.616 106.176 312.551 107.702C312.442 110.248 312.556 112.809 312.587 115.357C312.591 115.704 312.54 118.776 312.622 117.016C312.653 116.337 313.553 109.509 314.45 109.697C315.151 109.843 315.069 115.294 315.228 116.054C315.394 116.844 315.636 118.056 316.487 118.328" stroke="black" stroke-linecap="round"/>
<path d="M317.497 116.77C318.105 116.059 319.822 114.117 319.212 113.029C318.598 111.936 317.479 112.835 317.143 113.541C316.551 114.786 316.466 117.485 318.268 117.763C319.575 117.964 320.269 117.059 321.096 116.211" stroke="black" stroke-linecap="round"/>
<path d="M322.768 105.374C322.698 104.17 322.491 105.922 322.463 106.208C322.301 107.846 322.315 109.458 322.322 111.103C322.335 113.728 321.363 117.485 322.944 119.794" stroke="black" stroke-linecap="round"/>
<path d="M324.825 105.091C324.811 103.977 324.825 105.127 324.83 105.549C324.854 107.495 324.878 109.44 324.901 111.386C324.925 113.3 324.224 117.412 326.021 118.727" stroke="black" stroke-linecap="round"/>
<path d="M327.684 107.375C328.656 108.038 329.291 110.947 328.252 111.746" stroke="black" stroke-linecap="round"/>
<path d="M334.443 112.443C333.501 111.703 332.48 110.529 331.135 110.995C329.625 111.519 331.174 114.254 331.64 114.895C331.971 115.349 334.474 117.781 333.923 117.843C331.747 118.088 329.679 117.66 327.551 117.42" stroke="black" stroke-linecap="round"/>
<path d="M343.217 113.881C343.227 114.642 342.903 116.284 343.569 116.91C344.153 117.458 344.728 117.116 345.053 116.52C345.893 114.975 346.108 113.266 344.996 111.856C343.83 110.378 342.981 114.994 344.017 116.117C345.305 117.513 346.29 113.84 346.556 113.125C347.331 111.044 346.683 113.382 346.598 114.212C346.472 115.453 347.233 117.543 348.657 116.447C350.109 115.331 350.682 113.503 350.66 111.73C350.631 109.33 351.148 111.124 351.184 112.496C351.225 114.029 351.279 118.6 351.512 117.085C351.622 116.375 352.042 115.724 352.231 115.03C352.529 113.936 352.561 112.825 352.978 111.759C353.325 110.871 353.627 113.912 353.784 114.51C353.898 114.942 354.432 116.07 354.881 115.284C355.496 114.209 355.738 114.275 356.762 114.603C358.017 115.004 359.096 112.897 358.845 111.83C358.719 111.294 357.273 108.834 356.709 110.254C356.344 111.171 356.524 112.962 357.882 112.643C358.198 112.569 358.748 111.854 359.018 111.928C359.164 111.968 359.545 113.617 359.642 113.823C360.71 116.098 361.602 118.615 361.977 121.092C362.402 123.899 359.984 128.028 356.768 125.677C353.521 123.303 354.962 117.329 358.834 116.781C362.132 116.314 365.683 116.469 366.77 112.835C367.134 111.618 366.667 110.379 366.596 109.16C366.44 106.45 364.622 110.4 364.578 111.445C364.484 113.7 364.5 117.637 367.799 116.271C368.771 115.868 369.572 114.275 369.737 113.3C370.225 110.418 370.439 107.47 370.403 104.549C370.401 104.403 370.505 103.532 370.248 103.535C369.549 103.544 369.922 107.522 369.929 107.917C370.003 111.927 369.925 117.353 372.404 120.736" stroke="black" stroke-linecap="round"/>
<path d="M402.5 139.5C402.5 143.366 399.366 146.5 395.5 146.5C391.634 146.5 388.5 143.366 388.5 139.5C388.5 135.634 391.634 132.5 395.5 132.5C399.366 132.5 402.5 135.634 402.5 139.5Z" fill="white" stroke="black"/>
<path d="M223.251 134.963C223.251 134.352 223.626 131.857 222.787 131.67C220.498 131.161 219.057 132.988 217.934 134.792C215.483 138.729 214.963 147.862 220.666 149.451C222.34 149.918 224.826 149.951 226.324 148.987C229.068 147.224 227.789 145.013 225.983 143.012C224.631 141.514 221.216 140.057 219.336 141.561C218.334 142.362 218.381 144.106 219.3 144.841" stroke="black" stroke-linecap="round"/>
<path d="M236.422 136.06C236.487 134.627 236.872 133.613 235.215 133.109C232.591 132.311 231.531 135.217 230.825 137.182C229.951 139.614 228.794 144.423 230.642 146.695C232.117 148.508 233.943 150.245 236.373 149.28C238.711 148.353 242.65 146.384 240.91 143.109C239.025 139.561 233.129 141.11 233.129 145.061" stroke="black" stroke-linecap="round"/>
<path d="M255.959 136.28C255.781 133.793 253.492 133.166 251.227 133.475C248.513 133.845 248.114 136.753 248.861 138.939C249.654 141.259 251.498 142.942 252.654 145.061C253.698 146.975 255.602 150.323 252.081 150.536C249.125 150.715 246.407 148.132 244.105 146.597" stroke="black" stroke-linecap="round"/>
<path d="M254.203 129.256C256.175 125.75 252.029 137.023 250.471 140.731C249.017 144.191 247.421 147.621 245.861 151.036C245.721 151.343 244.764 153.82 244.764 153.183" stroke="black" stroke-linecap="round"/>
<path d="M256.837 128.597C255.554 133.21 254.248 137.838 252.544 142.317C250.724 147.1 248.042 151.602 246.52 156.475" stroke="black" stroke-linecap="round"/>
</svg>
