<svg width="61" height="101" viewBox="0 0 61 101" fill="none" xmlns="http://www.w3.org/2000/svg">
<path d="M1.57482 60.1628C2.06033 56.5484 2.38739 55.7235 2.05932 52.1147C2.05932 50.6658 1.81707 49.1349 1.81707 47.6196C1.81707 46.7303 4.43395 39.0796 4.96631 38.4141C6.58055 34.3785 6.96922 30.2147 6.2314 25.9517C5.17111 19.8256 6.90571 13.2081 11.5071 8.91349C15.7171 4.98414 20.7919 1 26.7688 1C30.0908 1 32.6297 1.60211 35.2341 3.77241C37.6585 5.79279 39.1495 8.50815 40.6981 11.2014C42.4521 14.2517 42.6837 18.5435 43.5917 21.9277C44.0274 23.5515 44.6792 25.1634 44.8837 26.84C45.1468 28.9976 45.5019 30.9918 46.4179 32.9904C47.3438 35.0105 48.869 36.678 50.0382 38.5487C50.9536 40.0133 52.3529 41.0415 53.3086 42.4247C54.2061 43.7237 54.1948 45.4041 54.5064 46.8929C54.7926 48.2603 55.395 49.5692 55.5427 50.9573C55.8748 54.0796 56.6202 57.1909 56.7943 60.3243C56.8694 61.6753 57.2923 62.9212 57.2923 64.281C57.2923 66.1241 57.4784 67.7388 57.7633 69.5432C58.0861 71.5878 58.1715 73.5226 58.2747 75.586C58.3486 77.0639 59.1885 78.2988 59.4187 79.7312C60.0265 83.5131 58.0508 87.1011 55.7849 89.9595C51.812 94.9715 45.9381 96.508 40.5636 99.3534C38.2605 100.573 36.4848 100.249 33.9824 99.8917C32.5088 99.6812 31.1898 99.1111 29.6892 99.1111C28.2897 99.1111 27.1241 99.0764 25.7998 98.6266C21.3407 97.1122 16.7189 97.0819 12.9471 93.8759C10.9003 92.1361 10.3456 89.8303 9.20568 87.5504C8.55524 86.2496 7.60938 85.0835 6.60823 84.0378C4.2928 81.6195 2.31409 78.6411 1.68248 75.3168C0.701941 70.1561 0.87969 65.3376 1.57482 60.1628Z" fill="white" stroke="black" stroke-linecap="round"/>
<path d="M14.9953 59.0754C14.5212 58.9167 14.5211 58.9168 14.5211 58.917L14.5207 58.9181L14.5193 58.9222L14.5137 58.939L14.4915 59.0049C14.472 59.0629 14.4431 59.1483 14.4059 59.258C14.3315 59.4774 14.2236 59.7936 14.0899 60.1804C13.8226 60.9541 13.4527 62.0096 13.0417 63.1373C12.3106 65.1435 11.4657 67.3333 10.841 68.591C10.8768 68.1809 10.9409 67.6594 11.0383 67.0107C11.5294 63.7415 12.8436 57.3992 15.4818 46.2886C18.1197 35.179 20.3548 26.8503 22.4011 21.2981C23.4254 18.5188 24.3915 16.4662 25.3201 15.114C26.2643 13.739 27.081 13.2154 27.7754 13.2071C28.4691 13.1987 29.2966 13.7018 30.2705 15.0582C31.2284 16.3923 32.2393 18.4307 33.3244 21.2043C35.4922 26.7451 37.9101 35.0966 40.7923 46.2977C43.6749 57.5 45.1106 63.8868 45.647 67.1716C45.7666 67.9046 45.8401 68.4746 45.8754 68.9045C45.1843 67.6658 44.2047 65.3172 43.3632 63.1771C42.9142 62.0352 42.51 60.9669 42.2179 60.1839C42.0719 59.7925 41.954 59.4726 41.8727 59.2507C41.832 59.1397 41.8005 59.0532 41.7792 58.9946L41.7549 58.9279L41.7488 58.911L41.7473 58.9068L41.7469 58.9058C41.7468 58.9055 41.7468 58.9055 41.2766 59.0754L41.7468 58.9055L40.778 59.0379L39.8419 71.4777L16.7575 71.4777L15.4928 59.0249L14.5212 58.9167L14.9953 59.0754ZM45.8705 69.7815C45.8704 69.7814 45.8708 69.7803 45.8717 69.7784C45.8709 69.7805 45.8705 69.7815 45.8705 69.7815ZM46.3641 69.6273C46.3703 69.6313 46.3709 69.6324 46.3651 69.6281C46.3648 69.6278 46.3644 69.6275 46.3641 69.6273Z" fill="white" stroke="black"/>
<rect x="21.8062" y="71.4791" width="1" height="14" fill="white" stroke="black"/>
<rect x="33.8059" y="71.4791" width="1" height="14" fill="white" stroke="black"/>
<path d="M23.2253 53.7233C24.0853 52.8772 25.6785 52.4505 27.4052 52.4791C29.1231 52.5076 30.8057 52.9853 31.7842 53.759C32.2321 54.1132 32.624 54.7271 32.9227 55.5207C33.2183 56.3062 33.406 57.224 33.4749 58.1322C33.544 59.0419 33.4922 59.9186 33.3254 60.6231C33.1533 61.3498 32.8831 61.795 32.6006 61.9802C32.2488 62.2109 31.5536 62.4277 30.6117 62.5851C29.6912 62.7389 28.6015 62.8258 27.5152 62.8359C26.4281 62.846 25.36 62.7792 24.4809 62.6317C24.0412 62.5579 23.6587 62.4655 23.3492 62.357C23.0334 62.2464 22.8252 62.1297 22.7068 62.0245C22.4477 61.7944 22.1969 61.3093 22.0248 60.586C21.8572 59.8819 21.7813 59.0248 21.8114 58.1379C21.8414 57.2517 21.9765 56.3541 22.2192 55.5686C22.4637 54.777 22.8061 54.1358 23.2253 53.7233Z" fill="white" stroke="black"/>
<path d="M21.8896 86.7003L20.8057 88.3263V86.9481C20.8057 85.9299 21.3809 84.999 22.2916 84.5437C22.3005 84.5393 22.3109 84.5393 22.3197 84.5437C23.2304 84.999 23.8057 85.9299 23.8057 86.948V88.3263L22.7217 86.7003L22.3057 86.0763L21.8896 86.7003Z" fill="white" stroke="black"/>
<path d="M33.8896 86.7003L32.8057 88.3263V86.9481C32.8057 85.9299 33.3809 84.999 34.2916 84.5437C34.3005 84.5393 34.3109 84.5393 34.3197 84.5437C35.2304 84.999 35.8057 85.9299 35.8057 86.948V88.3263L34.7217 86.7003L34.3057 86.0763L33.8896 86.7003Z" fill="white" stroke="black"/>
<path d="M27.3057 52.707C27.3057 53.3737 27.3057 54.3888 27.3057 55.707C27.3057 57.0252 27.3057 57.707 27.3057 57.707C27.3057 57.707 27.3057 61.3737 27.3057 62.707" stroke="black"/>
<path d="M33.8057 57.9778C32.8723 57.9778 32.9504 57.9778 31.1049 57.9778C29.2595 57.9778 28.3049 57.9778 28.3049 57.9778C28.3049 57.9778 23.1716 57.9778 21.3049 57.9778" stroke="black"/>
<path d="M21.3562 86.4631C21.4777 86.4284 21.5512 86.2389 21.6241 86.1451C21.677 86.0771 21.7135 86.0139 21.7404 85.9331" stroke="black" stroke-linecap="round"/>
<path d="M22.8799 85.9067C22.9606 85.9655 23.0096 86.061 23.0786 86.132C23.131 86.1858 23.1853 86.236 23.242 86.2851C23.3082 86.3424 23.3579 86.4072 23.4099 86.4765" stroke="black" stroke-linecap="round"/>
<path d="M22 85C22.0807 85.0587 22.1297 85.1542 22.1987 85.2252C22.2511 85.2791 22.3055 85.3292 22.3622 85.3784C22.4283 85.4357 22.478 85.5005 22.53 85.5697" stroke="black" stroke-linecap="round"/>
<path d="M33.343 86.425C33.4107 86.4175 33.5007 86.2083 33.5306 86.1592C33.5884 86.0648 33.671 85.9723 33.7183 85.8778" stroke="black" stroke-linecap="round"/>
<path d="M34.5312 85.7683C34.6005 85.7786 34.6508 85.8533 34.7032 85.8969C34.7716 85.9536 34.8356 86.0152 34.9004 86.0758C35.0534 86.2189 35.1696 86.3981 35.3286 86.5344" stroke="black" stroke-linecap="round"/>
<path d="M34 85C34.0693 85.0103 34.1196 85.085 34.172 85.1286C34.2403 85.1853 34.3044 85.2469 34.3692 85.3075C34.5222 85.4506 34.6383 85.6298 34.7974 85.7661" stroke="black" stroke-linecap="round"/>
</svg>
