<svg width="1474" height="262" viewBox="0 0 1474 262" fill="none" xmlns="http://www.w3.org/2000/svg">
<path d="M43.7771 66.8575C59.0482 66.8575 66.6838 74.5501 66.6838 89.9352V100.626C66.6838 107.753 64.7042 113.352 60.745 117.425C56.899 121.497 51.243 123.534 43.7771 123.534H22.9066C15.4408 123.534 9.72825 121.497 5.76908 117.425C1.92303 113.352 0 107.753 0 100.626V89.9352C0 82.4689 1.97959 76.756 5.93876 72.7966C9.89793 68.8372 15.5539 66.8575 22.9066 66.8575H43.7771Z" fill="black"/>
<path d="M118.606 96.2986L132.859 97.8258H134.64C145.896 97.8258 153.588 90.4726 157.716 75.7662H150.42C136.167 75.7662 125.053 72.8815 117.078 67.112C109.103 61.2861 102.26 51.84 96.5473 38.774L83.2275 8.22992C82.266 5.9674 82.2377 4.07254 83.1426 2.54534C84.1041 0.961572 85.6878 0.169689 87.8936 0.169689H105.795C111.224 0.169689 114.986 2.74331 117.078 7.89054L126.835 31.4773C129.719 38.3215 133.339 43.4404 137.694 46.8342C142.049 50.1714 147.79 51.84 154.917 51.84H165.352L180.708 8.06023C181.5 5.62802 182.886 3.70488 184.865 2.2908C186.845 0.876727 188.994 0.169689 191.313 0.169689H208.45C210.656 0.169689 212.183 0.791883 213.032 2.03627C213.88 3.22409 214.304 4.29879 214.304 5.26036C214.304 6.16537 214.163 7.0421 213.88 7.89054L186.223 87.0505C182.376 98.1934 176.579 106.791 168.83 112.843C161.082 118.839 150.251 121.837 136.337 121.837H115.891C113.685 121.837 111.79 121.073 110.206 119.546C108.623 117.962 107.831 116.067 107.831 113.861V104.274C107.831 102.068 108.594 100.201 110.122 98.6742C111.649 97.0905 113.572 96.2986 115.891 96.2986H118.606Z" fill="black"/>
<path d="M354.205 118.104C354.205 120.592 352.734 121.837 349.793 121.837H330.365C328.159 121.837 325.783 121.073 323.238 119.546C320.693 117.962 318.713 116.067 317.299 113.861L302.368 90.1898C298.804 84.4203 295.213 80.0933 291.593 77.2085C287.973 74.2673 283.618 72.7966 278.528 72.7966H260.287V114.031C260.287 116.237 259.496 118.104 257.912 119.631C256.385 121.101 254.518 121.837 252.312 121.837H236.363C234.157 121.837 232.262 121.045 230.678 119.461C229.095 117.821 228.303 115.898 228.303 113.692V8.22992C228.303 6.02396 229.095 4.10082 230.678 2.46049C232.262 0.820164 234.157 0 236.363 0H252.312C254.518 0 256.385 0.820164 257.912 2.46049C259.496 4.10082 260.287 6.02396 260.287 8.22992V48.8705H278.528C283.505 48.8705 287.86 47.513 291.593 44.7979C295.383 42.0829 298.974 37.6993 302.368 31.647L315.518 8.22992C318.515 2.79987 322.588 0.056563 327.735 0H347.333C350.047 0 351.405 1.18782 351.405 3.56347C351.405 4.86442 350.924 6.4199 349.963 8.22992L331.552 41.5738C328.894 46.4383 325.896 50.4542 322.559 53.6218C319.279 56.7893 314.98 59.0235 309.664 60.3245C313.397 61.1164 317.215 63.4637 321.117 67.3666C325.076 71.2694 328.555 75.5117 331.552 80.0933L352.762 113.861C353.724 115.502 354.205 116.916 354.205 118.104Z" fill="black"/>
<path d="M366.421 113.861V8.22992C366.421 6.02396 367.185 4.1291 368.712 2.54534C370.239 0.961572 372.106 0.169689 374.312 0.169689H439.044C473.263 0.169689 490.372 15.9508 490.372 47.513C490.372 79.0186 473.263 94.7714 439.044 94.7714H398.406V113.861C398.406 116.067 397.614 117.962 396.03 119.546C394.503 121.073 392.637 121.837 390.431 121.837H374.481C372.275 121.837 370.381 121.073 368.797 119.546C367.213 117.962 366.421 116.067 366.421 113.861ZM398.406 70.7604H429.372C438.874 70.7604 446.086 69.1766 451.006 66.0091C455.927 62.785 458.387 56.6196 458.387 47.513C458.387 38.3497 455.927 32.1844 451.006 29.0168C446.086 25.7927 438.874 24.1807 429.372 24.1807H398.406V70.7604Z" fill="black"/>
<path d="M493.511 114.031L514.806 33.2591C520.575 11.256 539.352 0.226252 571.139 0.169689H616.867C618.96 0.169689 620.685 0.961572 622.043 2.54534C623.457 4.1291 624.164 5.9674 624.164 8.06023V114.031C624.164 116.237 623.372 118.104 621.788 119.631C620.204 121.101 618.31 121.837 616.104 121.837H600.154C597.835 121.837 595.912 121.101 594.385 119.631C592.914 118.104 592.179 116.18 592.179 113.861V92.4806H531.858L526.174 113.861C525.608 116.18 524.336 118.104 522.356 119.631C520.377 121.101 518.284 121.837 516.078 121.837H499.365C497.159 121.837 495.575 121.215 494.614 119.97C493.652 118.669 493.172 117.538 493.172 116.576C493.228 115.615 493.341 114.766 493.511 114.031ZM538.136 68.4696H592.179V24.1807H568C562.57 24.1807 557.819 25.7362 553.747 28.8472C549.731 31.9016 547.016 36.0307 545.602 41.2345L538.136 68.4696Z" fill="black"/>
<path d="M648.428 113.861V8.22992C648.428 6.02396 649.22 4.1291 650.803 2.54534C652.387 0.961572 654.282 0.169689 656.487 0.169689H672.437C674.643 0.169689 676.51 0.93329 678.037 2.46049C679.62 3.98769 680.412 5.85427 680.412 8.06023V97.8258H717.572V8.06023C717.572 5.85427 718.364 3.98769 719.947 2.46049C721.531 0.93329 723.426 0.169689 725.632 0.169689H741.581C743.787 0.169689 745.654 0.961572 747.181 2.54534C748.764 4.1291 749.556 6.02396 749.556 8.22992V97.8258H786.801V8.06023C786.801 5.85427 787.564 3.98769 789.091 2.46049C790.675 0.93329 792.57 0.169689 794.776 0.169689H810.725C812.931 0.169689 814.798 0.961572 816.325 2.54534C817.909 4.1291 818.7 6.02396 818.7 8.22992V113.861C818.7 116.067 817.909 117.962 816.325 119.546C814.798 121.073 812.931 121.837 810.725 121.837H656.487C654.282 121.837 652.387 121.073 650.803 119.546C649.22 117.962 648.428 116.067 648.428 113.861Z" fill="black"/>
<path d="M843.049 113.692V8.06023C843.049 5.85427 843.841 3.98769 845.425 2.46049C847.008 0.93329 848.903 0.169689 851.109 0.169689H948.929C951.135 0.169689 953.001 0.961572 954.528 2.54534C956.112 4.1291 956.904 6.02396 956.904 8.22992V16.2053C956.904 18.4113 956.112 20.3061 954.528 21.8899C953.001 23.4171 951.135 24.1807 948.929 24.1807H875.034V48.8705H938.663C940.869 48.8705 942.736 49.6623 944.263 51.2461C945.846 52.7733 946.638 54.6399 946.638 56.8459V64.8212C946.638 67.0272 945.846 68.9221 944.263 70.5058C942.736 72.033 940.869 72.7966 938.663 72.7966H875.034V97.8258H948.759C950.908 97.8258 952.747 98.5894 954.274 100.117C955.801 101.644 956.564 103.51 956.564 105.716V113.861C956.564 116.067 955.773 117.962 954.189 119.546C952.605 121.073 950.711 121.837 948.505 121.837H851.109C848.903 121.837 847.008 121.073 845.425 119.546C843.841 117.962 843.049 116.011 843.049 113.692Z" fill="black"/>
<path d="M972.514 113.861V8.22992C972.514 6.02396 973.306 4.1291 974.89 2.54534C976.473 0.961572 978.425 0.169689 980.744 0.169689H996.524C998.73 0.169689 1000.6 0.961572 1002.12 2.54534C1003.71 4.1291 1004.5 6.02396 1004.5 8.22992V46.41H1062.87V8.22992C1062.87 6.02396 1063.66 4.1291 1065.24 2.54534C1066.83 0.961572 1068.72 0.169689 1070.93 0.169689H1086.71C1089.03 0.169689 1090.95 0.961572 1092.48 2.54534C1094.06 4.1291 1094.85 6.02396 1094.85 8.22992V113.861C1094.85 116.067 1094.03 117.962 1092.39 119.546C1090.81 121.073 1088.91 121.837 1086.71 121.837H1070.93C1068.72 121.837 1066.83 121.101 1065.24 119.631C1063.66 118.104 1062.87 116.237 1062.87 114.031V70.421H1004.5V114.031C1004.5 116.237 1003.71 118.104 1002.12 119.631C1000.6 121.101 998.73 121.837 996.524 121.837H980.744C978.538 121.837 976.615 121.073 974.975 119.546C973.334 117.962 972.514 116.067 972.514 113.861Z" fill="black"/>
<path d="M1119.29 113.861V8.22992C1119.29 5.91084 1120.05 3.98769 1121.58 2.46049C1123.1 0.93329 1125.03 0.169689 1127.35 0.169689H1142.28C1144.48 0.169689 1146.35 0.93329 1147.88 2.46049C1149.46 3.98769 1150.25 5.85427 1150.25 8.06023V92.9896L1198.53 8.22992C1199.83 6.02396 1201.61 4.1291 1203.87 2.54534C1206.13 0.961572 1208.23 0.169689 1210.15 0.169689H1235.18C1237.38 0.169689 1239.25 0.961572 1240.78 2.54534C1242.3 4.1291 1243.07 6.02396 1243.07 8.22992V113.861C1243.07 116.067 1242.28 117.962 1240.69 119.546C1239.11 121.073 1237.21 121.837 1235.01 121.837H1220.08C1217.87 121.837 1215.98 121.073 1214.39 119.546C1212.86 117.962 1212.1 116.067 1212.1 113.861V35.1256L1167.81 113.861C1166.51 116.067 1164.68 117.962 1162.3 119.546C1159.92 121.073 1157.63 121.837 1155.43 121.837H1127.35C1125.14 121.837 1123.25 121.073 1121.66 119.546C1120.08 117.962 1119.29 116.067 1119.29 113.861Z" fill="black"/>
<path d="M1260.63 117.001C1260.63 116.096 1261 115.049 1261.73 113.861L1285.15 75.2571C1269.14 68.2999 1261.17 56.4782 1261.22 39.7921C1261.22 27.1785 1265.58 17.4214 1274.29 10.5207C1283.05 3.62003 1294.03 0.169689 1307.21 0.169689H1373.64C1375.73 0.169689 1377.51 0.93329 1378.98 2.46049C1380.51 3.98769 1381.27 5.85427 1381.27 8.06023V114.031C1381.27 116.237 1380.48 118.104 1378.9 119.631C1377.37 121.101 1375.5 121.837 1373.3 121.837H1357.26C1355.06 121.837 1353.16 121.073 1351.58 119.546C1350.05 117.962 1349.29 116.067 1349.29 113.861V78.7358H1318.91L1298.55 114.031C1295.67 119.235 1291.57 121.837 1286.25 121.837H1264.87C1262.04 121.837 1260.63 120.225 1260.63 117.001ZM1307.21 24.1807C1297.82 24.1807 1293.12 29.1582 1293.12 39.1133C1293.12 49.0684 1297.82 54.046 1307.21 54.046H1349.29V24.1807H1307.21Z" fill="black"/>
<path d="M1451.09 66.8575C1466.36 66.8575 1474 74.5501 1474 89.9352V100.626C1474 107.753 1472.02 113.352 1468.06 117.425C1464.22 121.497 1458.56 123.534 1451.09 123.534H1430.22C1422.76 123.534 1417.04 121.497 1413.09 117.425C1409.24 113.352 1407.32 107.753 1407.32 100.626V89.9352C1407.32 82.4689 1409.3 76.756 1413.26 72.7966C1417.21 68.8372 1422.87 66.8575 1430.22 66.8575H1451.09Z" fill="black"/>
<path d="M393.909 205.324C409.181 205.324 416.816 213.016 416.816 228.402V239.092C416.816 246.219 414.836 251.819 410.877 255.891C407.031 259.964 401.375 262 393.909 262H373.039C365.573 262 359.861 259.964 355.901 255.891C352.055 251.819 350.132 246.219 350.132 239.092V228.402C350.132 220.935 352.112 215.222 356.071 211.263C360.03 207.304 365.686 205.324 373.039 205.324H393.909Z" fill="black"/>
<path d="M443.031 252.158V146.866C443.031 144.547 443.795 142.595 445.322 141.012C446.849 139.428 448.716 138.636 450.922 138.636H485.451C487.657 138.636 489.75 139.428 491.729 141.012C493.709 142.595 495.038 144.49 495.717 146.696L520.744 219.153L545.772 146.696C546.451 144.49 547.78 142.595 549.759 141.012C551.739 139.428 553.832 138.636 556.038 138.636H590.567C592.773 138.636 594.611 139.428 596.082 141.012C597.609 142.595 598.372 144.547 598.372 146.866V252.158C598.372 254.477 597.581 256.429 595.997 258.012C594.47 259.54 592.603 260.303 590.398 260.303H575.126C572.921 260.303 571.026 259.54 569.442 258.012C567.915 256.429 567.152 254.477 567.152 252.158V169.265L537.203 252.667C536.411 254.76 535.026 256.57 533.046 258.097C531.066 259.568 528.974 260.303 526.768 260.303H514.636C512.43 260.303 510.337 259.568 508.358 258.097C506.435 256.57 505.049 254.76 504.201 252.667L474.337 169.265V252.158C474.337 254.477 473.545 256.429 471.962 258.012C470.435 259.54 468.568 260.303 466.362 260.303H451.091C448.885 260.303 446.991 259.54 445.407 258.012C443.823 256.429 443.031 254.477 443.031 252.158Z" fill="black"/>
<path d="M612.71 252.497L634.005 171.725C639.774 149.722 658.552 138.693 690.338 138.636H736.067C738.16 138.636 739.885 139.428 741.242 141.012C742.656 142.595 743.363 144.434 743.363 146.527V252.497C743.363 254.703 742.571 256.57 740.987 258.097C739.404 259.568 737.509 260.303 735.303 260.303H719.353C717.034 260.303 715.111 259.568 713.584 258.097C712.114 256.57 711.379 254.647 711.379 252.328V230.947H651.058L645.373 252.328C644.808 254.647 643.535 256.57 641.556 258.097C639.576 259.568 637.483 260.303 635.278 260.303H618.564C616.358 260.303 614.775 259.681 613.813 258.437C612.852 257.136 612.371 256.004 612.371 255.043C612.427 254.081 612.541 253.233 612.71 252.497ZM657.336 206.936H711.379V162.647H687.199C681.77 162.647 677.019 164.203 672.946 167.313C668.931 170.368 666.216 174.497 664.802 179.701L657.336 206.936Z" fill="black"/>
<path d="M767.627 252.328V146.696C767.627 144.49 768.391 142.595 769.918 141.012C771.445 139.428 773.311 138.636 775.517 138.636H840.25C874.468 138.636 891.577 154.417 891.577 185.979C891.577 217.485 874.468 233.238 840.25 233.238H799.612V252.328C799.612 254.534 798.82 256.429 797.236 258.012C795.709 259.54 793.842 260.303 791.637 260.303H775.687C773.481 260.303 771.586 259.54 770.003 258.012C768.419 256.429 767.627 254.534 767.627 252.328ZM799.612 209.227H830.578C840.08 209.227 847.291 207.643 852.212 204.475C857.133 201.251 859.593 195.086 859.593 185.979C859.593 176.816 857.133 170.651 852.212 167.483C847.291 164.259 840.08 162.647 830.578 162.647H799.612V209.227Z" fill="black"/>
<path d="M907.273 252.328V146.696C907.273 144.377 908.036 142.454 909.563 140.927C911.091 139.4 913.014 138.636 915.332 138.636H930.264C932.47 138.636 934.337 139.4 935.864 140.927C937.447 142.454 938.239 144.321 938.239 146.527V231.456L986.513 146.696C987.814 144.49 989.595 142.595 991.858 141.012C994.12 139.428 996.213 138.636 998.136 138.636H1023.16C1025.37 138.636 1027.24 139.428 1028.76 141.012C1030.29 142.595 1031.05 144.49 1031.05 146.696V252.328C1031.05 254.534 1030.26 256.429 1028.68 258.012C1027.09 259.54 1025.2 260.303 1022.99 260.303H1008.06C1005.86 260.303 1003.96 259.54 1002.38 258.012C1000.85 256.429 1000.09 254.534 1000.09 252.328V173.592L955.801 252.328C954.5 254.534 952.662 256.429 950.286 258.012C947.911 259.54 945.62 260.303 943.414 260.303H915.332C913.127 260.303 911.232 259.54 909.648 258.012C908.065 256.429 907.273 254.534 907.273 252.328Z" fill="black"/>
<path d="M1100.96 205.324C1116.23 205.324 1123.87 213.016 1123.87 228.402V239.092C1123.87 246.219 1121.89 251.819 1117.93 255.891C1114.08 259.964 1108.43 262 1100.96 262H1080.09C1072.62 262 1066.91 259.964 1062.95 255.891C1059.11 251.819 1057.18 246.219 1057.18 239.092V228.402C1057.18 220.935 1059.16 215.222 1063.12 211.263C1067.08 207.304 1072.74 205.324 1080.09 205.324H1100.96Z" fill="black"/>
</svg>
