<svg width="340" height="62" viewBox="0 0 340 62" fill="none" xmlns="http://www.w3.org/2000/svg">
<path d="M10.3906 16.3438C13.9062 16.3438 15.6641 18.1146 15.6641 21.6562V24.1172C15.6641 25.7578 15.2083 27.0469 14.2969 27.9844C13.4115 28.9219 12.1094 29.3906 10.3906 29.3906H5.58594C3.86719 29.3906 2.55208 28.9219 1.64062 27.9844C0.755208 27.0469 0.3125 25.7578 0.3125 24.1172V21.6562C0.3125 19.9375 0.768229 18.6224 1.67969 17.7109C2.59115 16.7995 3.89323 16.3438 5.58594 16.3438H10.3906ZM27.6172 23.1211L30.8984 23.4727H31.3086C33.8997 23.4727 35.6706 21.7799 36.6211 18.3945H34.9414C31.6602 18.3945 29.1016 17.7305 27.2656 16.4023C25.4297 15.0612 23.8542 12.8867 22.5391 9.87891L19.4727 2.84766C19.2513 2.32682 19.2448 1.89062 19.4531 1.53906C19.6745 1.17448 20.0391 0.992188 20.5469 0.992188H24.668C25.918 0.992188 26.7839 1.58464 27.2656 2.76953L29.5117 8.19922C30.1758 9.77474 31.0091 10.9531 32.0117 11.7344C33.0143 12.5026 34.3359 12.8867 35.9766 12.8867H38.3789L41.9141 2.80859C42.0964 2.2487 42.4154 1.80599 42.8711 1.48047C43.3268 1.15495 43.8216 0.992188 44.3555 0.992188H48.3008C48.8086 0.992188 49.1602 1.13542 49.3555 1.42188C49.5508 1.69531 49.6484 1.94271 49.6484 2.16406C49.6484 2.3724 49.6159 2.57422 49.5508 2.76953L43.1836 20.9922C42.2982 23.5573 40.9635 25.5365 39.1797 26.9297C37.3958 28.3099 34.9023 29 31.6992 29H26.9922C26.4844 29 26.0482 28.8242 25.6836 28.4727C25.319 28.1081 25.1367 27.6719 25.1367 27.1641V24.957C25.1367 24.4492 25.3125 24.0195 25.6641 23.668C26.0156 23.3034 26.4583 23.1211 26.9922 23.1211H27.6172ZM81.8555 28.1406C81.8555 28.7135 81.5169 29 80.8398 29H76.3672C75.8594 29 75.3125 28.8242 74.7266 28.4727C74.1406 28.1081 73.6849 27.6719 73.3594 27.1641L69.9219 21.7148C69.1016 20.3867 68.2747 19.3906 67.4414 18.7266C66.6081 18.0495 65.6055 17.7109 64.4336 17.7109H60.2344V27.2031C60.2344 27.7109 60.0521 28.1406 59.6875 28.4922C59.3359 28.8307 58.9062 29 58.3984 29H54.7266C54.2188 29 53.7826 28.8177 53.418 28.4531C53.0534 28.0755 52.8711 27.6328 52.8711 27.125V2.84766C52.8711 2.33984 53.0534 1.89714 53.418 1.51953C53.7826 1.14193 54.2188 0.953125 54.7266 0.953125H58.3984C58.9062 0.953125 59.3359 1.14193 59.6875 1.51953C60.0521 1.89714 60.2344 2.33984 60.2344 2.84766V12.2031H64.4336C65.5794 12.2031 66.582 11.8906 67.4414 11.2656C68.3138 10.6406 69.1406 9.63151 69.9219 8.23828L72.9492 2.84766C73.6393 1.59766 74.5768 0.966146 75.7617 0.953125H80.2734C80.8984 0.953125 81.2109 1.22656 81.2109 1.77344C81.2109 2.07292 81.1003 2.43099 80.8789 2.84766L76.6406 10.5234C76.0286 11.6432 75.3385 12.5677 74.5703 13.2969C73.8151 14.026 72.8255 14.5404 71.6016 14.8398C72.4609 15.0221 73.3398 15.5625 74.2383 16.4609C75.1497 17.3594 75.9505 18.3359 76.6406 19.3906L81.5234 27.1641C81.7448 27.5417 81.8555 27.8672 81.8555 28.1406ZM84.668 27.1641V2.84766C84.668 2.33984 84.8438 1.90365 85.1953 1.53906C85.5469 1.17448 85.9766 0.992188 86.4844 0.992188H101.387C109.264 0.992188 113.203 4.625 113.203 11.8906C113.203 19.1432 109.264 22.7695 101.387 22.7695H92.0312V27.1641C92.0312 27.6719 91.849 28.1081 91.4844 28.4727C91.1328 28.8242 90.7031 29 90.1953 29H86.5234C86.0156 29 85.5794 28.8242 85.2148 28.4727C84.8503 28.1081 84.668 27.6719 84.668 27.1641ZM92.0312 17.2422H99.1602C101.348 17.2422 103.008 16.8776 104.141 16.1484C105.273 15.4062 105.84 13.987 105.84 11.8906C105.84 9.78125 105.273 8.36198 104.141 7.63281C103.008 6.89062 101.348 6.51953 99.1602 6.51953H92.0312V17.2422ZM113.926 27.2031L118.828 8.60938C120.156 3.54427 124.479 1.00521 131.797 0.992188H142.324C142.806 0.992188 143.203 1.17448 143.516 1.53906C143.841 1.90365 144.004 2.32682 144.004 2.80859V27.2031C144.004 27.7109 143.822 28.1406 143.457 28.4922C143.092 28.8307 142.656 29 142.148 29H138.477C137.943 29 137.5 28.8307 137.148 28.4922C136.81 28.1406 136.641 27.6979 136.641 27.1641V22.2422H122.754L121.445 27.1641C121.315 27.6979 121.022 28.1406 120.566 28.4922C120.111 28.8307 119.629 29 119.121 29H115.273C114.766 29 114.401 28.8568 114.18 28.5703C113.958 28.2708 113.848 28.0104 113.848 27.7891C113.861 27.5677 113.887 27.3724 113.926 27.2031ZM124.199 16.7148H136.641V6.51953H131.074C129.824 6.51953 128.73 6.8776 127.793 7.59375C126.868 8.29688 126.243 9.2474 125.918 10.4453L124.199 16.7148ZM149.59 27.1641V2.84766C149.59 2.33984 149.772 1.90365 150.137 1.53906C150.501 1.17448 150.938 0.992188 151.445 0.992188H155.117C155.625 0.992188 156.055 1.16797 156.406 1.51953C156.771 1.87109 156.953 2.30078 156.953 2.80859V23.4727H165.508V2.80859C165.508 2.30078 165.69 1.87109 166.055 1.51953C166.419 1.16797 166.855 0.992188 167.363 0.992188H171.035C171.543 0.992188 171.973 1.17448 172.324 1.53906C172.689 1.90365 172.871 2.33984 172.871 2.84766V23.4727H181.445V2.80859C181.445 2.30078 181.621 1.87109 181.973 1.51953C182.337 1.16797 182.773 0.992188 183.281 0.992188H186.953C187.461 0.992188 187.891 1.17448 188.242 1.53906C188.607 1.90365 188.789 2.33984 188.789 2.84766V27.1641C188.789 27.6719 188.607 28.1081 188.242 28.4727C187.891 28.8242 187.461 29 186.953 29H151.445C150.938 29 150.501 28.8242 150.137 28.4727C149.772 28.1081 149.59 27.6719 149.59 27.1641ZM194.395 27.125V2.80859C194.395 2.30078 194.577 1.87109 194.941 1.51953C195.306 1.16797 195.742 0.992188 196.25 0.992188H218.77C219.277 0.992188 219.707 1.17448 220.059 1.53906C220.423 1.90365 220.605 2.33984 220.605 2.84766V4.68359C220.605 5.19141 220.423 5.6276 220.059 5.99219C219.707 6.34375 219.277 6.51953 218.77 6.51953H201.758V12.2031H216.406C216.914 12.2031 217.344 12.3854 217.695 12.75C218.06 13.1016 218.242 13.5312 218.242 14.0391V15.875C218.242 16.3828 218.06 16.819 217.695 17.1836C217.344 17.5352 216.914 17.7109 216.406 17.7109H201.758V23.4727H218.73C219.225 23.4727 219.648 23.6484 220 24C220.352 24.3516 220.527 24.7812 220.527 25.2891V27.1641C220.527 27.6719 220.345 28.1081 219.98 28.4727C219.616 28.8242 219.18 29 218.672 29H196.25C195.742 29 195.306 28.8242 194.941 28.4727C194.577 28.1081 194.395 27.6589 194.395 27.125ZM224.199 27.1641V2.84766C224.199 2.33984 224.382 1.90365 224.746 1.53906C225.111 1.17448 225.56 0.992188 226.094 0.992188H229.727C230.234 0.992188 230.664 1.17448 231.016 1.53906C231.38 1.90365 231.562 2.33984 231.562 2.84766V11.6367H245V2.84766C245 2.33984 245.182 1.90365 245.547 1.53906C245.911 1.17448 246.348 0.992188 246.855 0.992188H250.488C251.022 0.992188 251.465 1.17448 251.816 1.53906C252.181 1.90365 252.363 2.33984 252.363 2.84766V27.1641C252.363 27.6719 252.174 28.1081 251.797 28.4727C251.432 28.8242 250.996 29 250.488 29H246.855C246.348 29 245.911 28.8307 245.547 28.4922C245.182 28.1406 245 27.7109 245 27.2031V17.1641H231.562V27.2031C231.562 27.7109 231.38 28.1406 231.016 28.4922C230.664 28.8307 230.234 29 229.727 29H226.094C225.586 29 225.143 28.8242 224.766 28.4727C224.388 28.1081 224.199 27.6719 224.199 27.1641ZM257.988 27.1641V2.84766C257.988 2.3138 258.164 1.87109 258.516 1.51953C258.867 1.16797 259.31 0.992188 259.844 0.992188H263.281C263.789 0.992188 264.219 1.16797 264.57 1.51953C264.935 1.87109 265.117 2.30078 265.117 2.80859V22.3594L276.23 2.84766C276.53 2.33984 276.94 1.90365 277.461 1.53906C277.982 1.17448 278.464 0.992188 278.906 0.992188H284.668C285.176 0.992188 285.605 1.17448 285.957 1.53906C286.309 1.90365 286.484 2.33984 286.484 2.84766V27.1641C286.484 27.6719 286.302 28.1081 285.938 28.4727C285.573 28.8242 285.137 29 284.629 29H281.191C280.684 29 280.247 28.8242 279.883 28.4727C279.531 28.1081 279.355 27.6719 279.355 27.1641V9.03906L269.16 27.1641C268.861 27.6719 268.438 28.1081 267.891 28.4727C267.344 28.8242 266.816 29 266.309 29H259.844C259.336 29 258.9 28.8242 258.535 28.4727C258.171 28.1081 257.988 27.6719 257.988 27.1641ZM290.527 27.8867C290.527 27.6784 290.612 27.4375 290.781 27.1641L296.172 18.2773C292.487 16.6758 290.651 13.9544 290.664 10.1133C290.664 7.20964 291.667 4.96354 293.672 3.375C295.69 1.78646 298.216 0.992188 301.25 0.992188H316.543C317.025 0.992188 317.435 1.16797 317.773 1.51953C318.125 1.87109 318.301 2.30078 318.301 2.80859V27.2031C318.301 27.7109 318.118 28.1406 317.754 28.4922C317.402 28.8307 316.973 29 316.465 29H312.773C312.266 29 311.829 28.8242 311.465 28.4727C311.113 28.1081 310.938 27.6719 310.938 27.1641V19.0781H303.945L299.258 27.2031C298.594 28.401 297.65 29 296.426 29H291.504C290.853 29 290.527 28.6289 290.527 27.8867ZM301.25 6.51953C299.089 6.51953 298.008 7.66536 298.008 9.95703C298.008 12.2487 299.089 13.3945 301.25 13.3945H310.938V6.51953H301.25ZM334.375 16.3438C337.891 16.3438 339.648 18.1146 339.648 21.6562V24.1172C339.648 25.7578 339.193 27.0469 338.281 27.9844C337.396 28.9219 336.094 29.3906 334.375 29.3906H329.57C327.852 29.3906 326.536 28.9219 325.625 27.9844C324.74 27.0469 324.297 25.7578 324.297 24.1172V21.6562C324.297 19.9375 324.753 18.6224 325.664 17.7109C326.576 16.7995 327.878 16.3438 329.57 16.3438H334.375ZM90.9961 48.3438C94.5117 48.3438 96.2695 50.1146 96.2695 53.6562V56.1172C96.2695 57.7578 95.8138 59.0469 94.9023 59.9844C94.0169 60.9219 92.7148 61.3906 90.9961 61.3906H86.1914C84.4727 61.3906 83.1576 60.9219 82.2461 59.9844C81.3607 59.0469 80.918 57.7578 80.918 56.1172V53.6562C80.918 51.9375 81.3737 50.6224 82.2852 49.7109C83.1966 48.7995 84.4987 48.3438 86.1914 48.3438H90.9961ZM102.305 59.125V34.8867C102.305 34.3529 102.48 33.9036 102.832 33.5391C103.184 33.1745 103.613 32.9922 104.121 32.9922H112.07C112.578 32.9922 113.06 33.1745 113.516 33.5391C113.971 33.9036 114.277 34.3398 114.434 34.8477L120.195 51.5273L125.957 34.8477C126.113 34.3398 126.419 33.9036 126.875 33.5391C127.331 33.1745 127.812 32.9922 128.32 32.9922H136.27C136.777 32.9922 137.201 33.1745 137.539 33.5391C137.891 33.9036 138.066 34.3529 138.066 34.8867V59.125C138.066 59.6589 137.884 60.1081 137.52 60.4727C137.168 60.8242 136.738 61 136.23 61H132.715C132.207 61 131.771 60.8242 131.406 60.4727C131.055 60.1081 130.879 59.6589 130.879 59.125V40.043L123.984 59.2422C123.802 59.724 123.483 60.1406 123.027 60.4922C122.572 60.8307 122.09 61 121.582 61H118.789C118.281 61 117.799 60.8307 117.344 60.4922C116.901 60.1406 116.582 59.724 116.387 59.2422L109.512 40.043V59.125C109.512 59.6589 109.329 60.1081 108.965 60.4727C108.613 60.8242 108.184 61 107.676 61H104.16C103.652 61 103.216 60.8242 102.852 60.4727C102.487 60.1081 102.305 59.6589 102.305 59.125ZM141.367 59.2031L146.27 40.6094C147.598 35.5443 151.921 33.0052 159.238 32.9922H169.766C170.247 32.9922 170.645 33.1745 170.957 33.5391C171.283 33.9036 171.445 34.3268 171.445 34.8086V59.2031C171.445 59.7109 171.263 60.1406 170.898 60.4922C170.534 60.8307 170.098 61 169.59 61H165.918C165.384 61 164.941 60.8307 164.59 60.4922C164.251 60.1406 164.082 59.6979 164.082 59.1641V54.2422H150.195L148.887 59.1641C148.757 59.6979 148.464 60.1406 148.008 60.4922C147.552 60.8307 147.07 61 146.562 61H142.715C142.207 61 141.842 60.8568 141.621 60.5703C141.4 60.2708 141.289 60.0104 141.289 59.7891C141.302 59.5677 141.328 59.3724 141.367 59.2031ZM151.641 48.7148H164.082V38.5195H158.516C157.266 38.5195 156.172 38.8776 155.234 39.5938C154.31 40.2969 153.685 41.2474 153.359 42.4453L151.641 48.7148ZM177.031 59.1641V34.8477C177.031 34.3398 177.207 33.9036 177.559 33.5391C177.91 33.1745 178.34 32.9922 178.848 32.9922H193.75C201.628 32.9922 205.566 36.625 205.566 43.8906C205.566 51.1432 201.628 54.7695 193.75 54.7695H184.395V59.1641C184.395 59.6719 184.212 60.1081 183.848 60.4727C183.496 60.8242 183.066 61 182.559 61H178.887C178.379 61 177.943 60.8242 177.578 60.4727C177.214 60.1081 177.031 59.6719 177.031 59.1641ZM184.395 49.2422H191.523C193.711 49.2422 195.371 48.8776 196.504 48.1484C197.637 47.4062 198.203 45.987 198.203 43.8906C198.203 41.7812 197.637 40.362 196.504 39.6328C195.371 38.8906 193.711 38.5195 191.523 38.5195H184.395V49.2422ZM209.18 59.1641V34.8477C209.18 34.3138 209.355 33.8711 209.707 33.5195C210.059 33.168 210.501 32.9922 211.035 32.9922H214.473C214.98 32.9922 215.41 33.168 215.762 33.5195C216.126 33.8711 216.309 34.3008 216.309 34.8086V54.3594L227.422 34.8477C227.721 34.3398 228.132 33.9036 228.652 33.5391C229.173 33.1745 229.655 32.9922 230.098 32.9922H235.859C236.367 32.9922 236.797 33.1745 237.148 33.5391C237.5 33.9036 237.676 34.3398 237.676 34.8477V59.1641C237.676 59.6719 237.493 60.1081 237.129 60.4727C236.764 60.8242 236.328 61 235.82 61H232.383C231.875 61 231.439 60.8242 231.074 60.4727C230.723 60.1081 230.547 59.6719 230.547 59.1641V41.0391L220.352 59.1641C220.052 59.6719 219.629 60.1081 219.082 60.4727C218.535 60.8242 218.008 61 217.5 61H211.035C210.527 61 210.091 60.8242 209.727 60.4727C209.362 60.1081 209.18 59.6719 209.18 59.1641ZM253.77 48.3438C257.285 48.3438 259.043 50.1146 259.043 53.6562V56.1172C259.043 57.7578 258.587 59.0469 257.676 59.9844C256.79 60.9219 255.488 61.3906 253.77 61.3906H248.965C247.246 61.3906 245.931 60.9219 245.02 59.9844C244.134 59.0469 243.691 57.7578 243.691 56.1172V53.6562C243.691 51.9375 244.147 50.6224 245.059 49.7109C245.97 48.7995 247.272 48.3438 248.965 48.3438H253.77Z" fill="black"/>
</svg>
