<svg width="340" height="61" viewBox="0 0 340 61" fill="none" xmlns="http://www.w3.org/2000/svg">
<mask id="path-1-outside-1_710_269" maskUnits="userSpaceOnUse" x="0" y="0" width="340" height="61" fill="black">
<rect fill="white" width="340" height="61"/>
<path d="M11.0384 16.0557C14.5402 16.0557 16.2911 17.788 16.2911 21.2526V23.66C16.2911 25.2649 15.8372 26.5259 14.9293 27.443C14.0474 28.3601 12.7504 28.8187 11.0384 28.8187H6.25268C4.54069 28.8187 3.23077 28.3601 2.3229 27.443C1.44097 26.5259 1 25.2649 1 23.66V21.2526C1 19.5712 1.45393 18.2848 2.3618 17.3931C3.26967 16.5015 4.56663 16.0557 6.25268 16.0557H11.0384Z"/>
<path d="M28.1972 22.6856L31.4655 23.0295H31.8741C34.455 23.0295 36.2189 21.3736 37.1656 18.0619H35.4926C32.2242 18.0619 29.6757 17.4122 27.847 16.113C26.0183 14.8011 24.449 12.6739 23.1391 9.73154L20.0847 2.8533C19.8642 2.3438 19.8578 1.9171 20.0653 1.57319C20.2858 1.21654 20.6489 1.03821 21.1547 1.03821H25.2596C26.5047 1.03821 27.3671 1.61777 27.847 2.77688L30.0843 8.08841C30.7457 9.62964 31.5758 10.7824 32.5744 11.5466C33.5731 12.2981 34.8895 12.6739 36.5237 12.6739H38.9165L42.4378 2.81509C42.6194 2.26738 42.9371 1.8343 43.391 1.51587C43.845 1.19743 44.3378 1.03821 44.8696 1.03821H48.7994C49.3052 1.03821 49.6553 1.17832 49.8499 1.45855C50.0444 1.72604 50.1417 1.96805 50.1417 2.18459C50.1417 2.38839 50.1093 2.58582 50.0444 2.77688L43.7023 20.603C42.8204 23.1123 41.491 25.0484 39.7142 26.4113C37.9373 27.7614 35.4537 28.4365 32.2632 28.4365H27.5747C27.0688 28.4365 26.6344 28.2646 26.2712 27.9207C25.9081 27.564 25.7265 27.1373 25.7265 26.6405V24.4815C25.7265 23.9848 25.9016 23.5644 26.2518 23.2205C26.6019 22.8639 27.0429 22.6856 27.5747 22.6856H28.1972Z"/>
<path d="M82.2219 27.5959C82.2219 28.1563 81.8847 28.4365 81.2103 28.4365H76.7553C76.2495 28.4365 75.7047 28.2646 75.1211 27.9207C74.5375 27.564 74.0835 27.1373 73.7593 26.6405L70.3353 21.3099C69.5182 20.0107 68.6947 19.0363 67.8646 18.3867C67.0346 17.7243 66.0359 17.3931 64.8687 17.3931H60.686V26.6788C60.686 27.1755 60.5044 27.5959 60.1412 27.9398C59.7911 28.2709 59.3631 28.4365 58.8573 28.4365H55.1998C54.694 28.4365 54.2595 28.2582 53.8964 27.9016C53.5332 27.5322 53.3517 27.0991 53.3517 26.6023V2.8533C53.3517 2.35654 53.5332 1.92347 53.8964 1.55408C54.2595 1.18469 54.694 1 55.1998 1H58.8573C59.3631 1 59.7911 1.18469 60.1412 1.55408C60.5044 1.92347 60.686 2.35654 60.686 2.8533V12.0052H64.8687C66.01 12.0052 67.0086 11.6995 67.8646 11.0881C68.7336 10.4767 69.5572 9.48953 70.3353 8.12662L73.3508 2.8533C74.0381 1.63051 74.9719 1.01274 76.1522 1H80.6461C81.2687 1 81.5799 1.26749 81.5799 1.80246C81.5799 2.09542 81.4697 2.4457 81.2492 2.8533L77.0276 10.362C76.4181 11.4575 75.7307 12.3618 74.9655 13.0751C74.2132 13.7884 73.2275 14.2916 72.0084 14.5845C72.8644 14.7628 73.7398 15.2915 74.6347 16.1703C75.5426 17.0492 76.3402 18.0045 77.0276 19.0363L81.8912 26.6405C82.1117 27.0099 82.2219 27.3284 82.2219 27.5959Z"/>
<path d="M85.0234 26.6405V2.8533C85.0234 2.35654 85.1985 1.92984 85.5486 1.57319C85.8988 1.21654 86.3268 1.03821 86.8326 1.03821H101.676C109.523 1.03821 113.446 4.59197 113.446 11.6995C113.446 18.7943 109.523 22.3416 101.676 22.3416H92.3577V26.6405C92.3577 27.1373 92.1761 27.564 91.8129 27.9207C91.4628 28.2646 91.0348 28.4365 90.5289 28.4365H86.8715C86.3657 28.4365 85.9312 28.2646 85.5681 27.9207C85.2049 27.564 85.0234 27.1373 85.0234 26.6405ZM92.3577 16.9346H99.4585C101.637 16.9346 103.291 16.5779 104.419 15.8646C105.548 15.1386 106.112 13.7502 106.112 11.6995C106.112 9.63601 105.548 8.24762 104.419 7.53433C103.291 6.80829 101.637 6.44527 99.4585 6.44527H92.3577V16.9346Z"/>
<path d="M114.166 26.6788L119.049 8.48964C120.372 3.53476 124.678 1.05095 131.967 1.03821H142.453C142.932 1.03821 143.328 1.21654 143.639 1.57319C143.964 1.92984 144.126 2.3438 144.126 2.81509V26.6788C144.126 27.1755 143.944 27.5959 143.581 27.9398C143.218 28.2709 142.783 28.4365 142.278 28.4365H138.62C138.088 28.4365 137.647 28.2709 137.297 27.9398C136.96 27.5959 136.791 27.1628 136.791 26.6405V21.8258H122.959L121.656 26.6405C121.526 27.1628 121.234 27.5959 120.78 27.9398C120.327 28.2709 119.847 28.4365 119.341 28.4365H115.508C115.003 28.4365 114.639 28.2964 114.419 28.0162C114.198 27.7232 114.088 27.4685 114.088 27.2519C114.101 27.0354 114.127 26.8443 114.166 26.6788ZM124.399 16.4187H136.791V6.44527H131.247C130.002 6.44527 128.912 6.79555 127.979 7.49611C127.058 8.18394 126.435 9.11377 126.111 10.2856L124.399 16.4187Z"/>
<path d="M149.69 26.6405V2.8533C149.69 2.35654 149.871 1.92984 150.234 1.57319C150.598 1.21654 151.032 1.03821 151.538 1.03821H155.195C155.701 1.03821 156.129 1.21017 156.479 1.55408C156.842 1.89799 157.024 2.31833 157.024 2.81509V23.0295H165.545V2.81509C165.545 2.31833 165.727 1.89799 166.09 1.55408C166.453 1.21017 166.887 1.03821 167.393 1.03821H171.051C171.556 1.03821 171.984 1.21654 172.335 1.57319C172.698 1.92984 172.879 2.35654 172.879 2.8533V23.0295H181.42V2.81509C181.42 2.31833 181.595 1.89799 181.945 1.55408C182.308 1.21017 182.743 1.03821 183.248 1.03821H186.906C187.412 1.03821 187.84 1.21654 188.19 1.57319C188.553 1.92984 188.735 2.35654 188.735 2.8533V26.6405C188.735 27.1373 188.553 27.564 188.19 27.9207C187.84 28.2646 187.412 28.4365 186.906 28.4365H151.538C151.032 28.4365 150.598 28.2646 150.234 27.9207C149.871 27.564 149.69 27.1373 149.69 26.6405Z"/>
<path d="M194.318 26.6023V2.81509C194.318 2.31833 194.5 1.89799 194.863 1.55408C195.226 1.21017 195.66 1.03821 196.166 1.03821H218.597C219.103 1.03821 219.531 1.21654 219.881 1.57319C220.244 1.92984 220.426 2.35654 220.426 2.8533V4.64929C220.426 5.14605 220.244 5.57275 219.881 5.9294C219.531 6.27332 219.103 6.44527 218.597 6.44527H201.652V12.0052H216.243C216.749 12.0052 217.177 12.1835 217.527 12.5402C217.89 12.8841 218.072 13.3044 218.072 13.8012V15.5971C218.072 16.0939 217.89 16.5206 217.527 16.8773C217.177 17.2212 216.749 17.3931 216.243 17.3931H201.652V23.0295H218.558C219.051 23.0295 219.472 23.2014 219.823 23.5453C220.173 23.8892 220.348 24.3096 220.348 24.8063V26.6405C220.348 27.1373 220.166 27.564 219.803 27.9207C219.44 28.2646 219.006 28.4365 218.5 28.4365H196.166C195.66 28.4365 195.226 28.2646 194.863 27.9207C194.5 27.564 194.318 27.1246 194.318 26.6023Z"/>
<path d="M224.005 26.6405V2.8533C224.005 2.35654 224.187 1.92984 224.55 1.57319C224.913 1.21654 225.361 1.03821 225.892 1.03821H229.511C230.017 1.03821 230.445 1.21654 230.795 1.57319C231.158 1.92984 231.34 2.35654 231.34 2.8533V11.4511H244.724V2.8533C244.724 2.35654 244.906 1.92984 245.269 1.57319C245.632 1.21654 246.067 1.03821 246.572 1.03821H250.191C250.723 1.03821 251.164 1.21654 251.514 1.57319C251.877 1.92984 252.058 2.35654 252.058 2.8533V26.6405C252.058 27.1373 251.87 27.564 251.494 27.9207C251.131 28.2646 250.697 28.4365 250.191 28.4365H246.572C246.067 28.4365 245.632 28.2709 245.269 27.9398C244.906 27.5959 244.724 27.1755 244.724 26.6788V16.8582H231.34V26.6788C231.34 27.1755 231.158 27.5959 230.795 27.9398C230.445 28.2709 230.017 28.4365 229.511 28.4365H225.892C225.387 28.4365 224.946 28.2646 224.569 27.9207C224.193 27.564 224.005 27.1373 224.005 26.6405Z"/>
<path d="M257.661 26.6405V2.8533C257.661 2.33107 257.836 1.89799 258.187 1.55408C258.537 1.21017 258.978 1.03821 259.509 1.03821H262.933C263.439 1.03821 263.867 1.21017 264.217 1.55408C264.581 1.89799 264.762 2.31833 264.762 2.81509V21.9404L275.832 2.8533C276.13 2.35654 276.539 1.92984 277.057 1.57319C277.576 1.21654 278.056 1.03821 278.497 1.03821H284.236C284.742 1.03821 285.17 1.21654 285.52 1.57319C285.87 1.92984 286.045 2.35654 286.045 2.8533V26.6405C286.045 27.1373 285.864 27.564 285.501 27.9207C285.137 28.2646 284.703 28.4365 284.197 28.4365H280.773C280.267 28.4365 279.833 28.2646 279.47 27.9207C279.119 27.564 278.944 27.1373 278.944 26.6405V8.90997L268.789 26.6405C268.491 27.1373 268.069 27.564 267.525 27.9207C266.98 28.2646 266.455 28.4365 265.949 28.4365H259.509C259.004 28.4365 258.569 28.2646 258.206 27.9207C257.843 27.564 257.661 27.1373 257.661 26.6405Z"/>
<path d="M290.072 27.3475C290.072 27.1437 290.157 26.908 290.325 26.6405L295.695 17.9472C292.024 16.3805 290.195 13.7184 290.208 9.96082C290.208 7.12036 291.207 4.92314 293.204 3.36917C295.215 1.8152 297.731 1.03821 300.753 1.03821H315.985C316.465 1.03821 316.874 1.21017 317.211 1.55408C317.561 1.89799 317.736 2.31833 317.736 2.81509V26.6788C317.736 27.1755 317.555 27.5959 317.192 27.9398C316.841 28.2709 316.413 28.4365 315.908 28.4365H312.231C311.725 28.4365 311.29 28.2646 310.927 27.9207C310.577 27.564 310.402 27.1373 310.402 26.6405V18.7306H303.437L298.768 26.6788C298.107 27.8506 297.167 28.4365 295.947 28.4365H291.045C290.397 28.4365 290.072 28.0735 290.072 27.3475ZM300.753 6.44527C298.6 6.44527 297.523 7.56617 297.523 9.80797C297.523 12.0498 298.6 13.1707 300.753 13.1707H310.402V6.44527H300.753Z"/>
<path d="M333.747 16.0557C337.249 16.0557 339 17.788 339 21.2526V23.66C339 25.2649 338.546 26.5259 337.638 27.443C336.756 28.3601 335.459 28.8187 333.747 28.8187H328.962C327.25 28.8187 325.94 28.3601 325.032 27.443C324.15 26.5259 323.709 25.2649 323.709 23.66V21.2526C323.709 19.5712 324.163 18.2848 325.071 17.3931C325.979 16.5015 327.275 16.0557 328.962 16.0557H333.747Z"/>
<path d="M91.3266 47.237C94.8284 47.237 96.5793 48.9693 96.5793 52.4339V54.8413C96.5793 56.4462 96.1253 57.7073 95.2174 58.6243C94.3355 59.5414 93.0386 60 91.3266 60H86.5408C84.8288 60 83.5189 59.5414 82.611 58.6243C81.7291 57.7073 81.2881 56.4462 81.2881 54.8413V52.4339C81.2881 50.7526 81.7421 49.4661 82.6499 48.5745C83.5578 47.6829 84.8548 47.237 86.5408 47.237H91.3266Z"/>
<path d="M102.591 57.7837V34.0729C102.591 33.5506 102.766 33.1112 103.116 32.7545C103.466 32.3979 103.894 32.2196 104.4 32.2196H112.318C112.824 32.2196 113.304 32.3979 113.757 32.7545C114.211 33.1112 114.516 33.5379 114.672 34.0346L120.411 50.3514L126.15 34.0346C126.306 33.5379 126.61 33.1112 127.064 32.7545C127.518 32.3979 127.998 32.2196 128.504 32.2196H136.422C136.928 32.2196 137.349 32.3979 137.686 32.7545C138.036 33.1112 138.212 33.5506 138.212 34.0729V57.7837C138.212 58.3059 138.03 58.7454 137.667 59.102C137.317 59.4459 136.889 59.6179 136.383 59.6179H132.881C132.375 59.6179 131.941 59.4459 131.578 59.102C131.227 58.7454 131.052 58.3059 131.052 57.7837V39.1169L124.185 57.8983C124.003 58.3696 123.686 58.7772 123.232 59.1211C122.778 59.4523 122.298 59.6179 121.792 59.6179H119.01C118.504 59.6179 118.024 59.4523 117.571 59.1211C117.13 58.7772 116.812 58.3696 116.617 57.8983L109.769 39.1169V57.7837C109.769 58.3059 109.588 58.7454 109.225 59.102C108.874 59.4459 108.446 59.6179 107.941 59.6179H104.439C103.933 59.6179 103.499 59.4459 103.135 59.102C102.772 58.7454 102.591 58.3059 102.591 57.7837Z"/>
<path d="M141.499 57.8601L146.382 39.671C147.705 34.7161 152.011 32.2323 159.3 32.2196H169.786C170.266 32.2196 170.661 32.3979 170.973 32.7545C171.297 33.1112 171.459 33.5251 171.459 33.9964V57.8601C171.459 58.3569 171.277 58.7772 170.914 59.1211C170.551 59.4523 170.117 59.6179 169.611 59.6179H165.953C165.422 59.6179 164.981 59.4523 164.631 59.1211C164.293 58.7772 164.125 58.3441 164.125 57.8219V53.0071H150.293L148.989 57.8219C148.86 58.3441 148.568 58.7772 148.114 59.1211C147.66 59.4523 147.18 59.6179 146.674 59.6179H142.842C142.336 59.6179 141.973 59.4778 141.752 59.1975C141.532 58.9046 141.422 58.6498 141.422 58.4333C141.435 58.2168 141.46 58.0257 141.499 57.8601ZM151.732 47.6001H164.125V37.6266H158.58C157.335 37.6266 156.246 37.9769 155.312 38.6775C154.391 39.3653 153.769 40.2951 153.444 41.467L151.732 47.6001Z"/>
<path d="M177.023 57.8219V34.0346C177.023 33.5379 177.198 33.1112 177.548 32.7545C177.898 32.3979 178.326 32.2196 178.832 32.2196H193.676C201.523 32.2196 205.446 35.7733 205.446 42.8808C205.446 49.9756 201.523 53.523 193.676 53.523H184.357V57.8219C184.357 58.3187 184.176 58.7454 183.813 59.102C183.462 59.4459 183.034 59.6179 182.529 59.6179H178.871C178.365 59.6179 177.931 59.4459 177.568 59.102C177.205 58.7454 177.023 58.3187 177.023 57.8219ZM184.357 48.1159H191.458C193.637 48.1159 195.291 47.7593 196.419 47.046C197.547 46.3199 198.112 44.9316 198.112 42.8808C198.112 40.8174 197.547 39.429 196.419 38.7157C195.291 37.9896 193.637 37.6266 191.458 37.6266H184.357V48.1159Z"/>
<path d="M209.045 57.8219V34.0346C209.045 33.5124 209.22 33.0793 209.57 32.7354C209.92 32.3915 210.361 32.2196 210.893 32.2196H214.317C214.823 32.2196 215.251 32.3915 215.601 32.7354C215.964 33.0793 216.146 33.4997 216.146 33.9964V53.1218L227.215 34.0346C227.514 33.5379 227.922 33.1112 228.441 32.7545C228.96 32.3979 229.44 32.2196 229.881 32.2196H235.62C236.125 32.2196 236.553 32.3979 236.904 32.7545C237.254 33.1112 237.429 33.5379 237.429 34.0346V57.8219C237.429 58.3187 237.247 58.7454 236.884 59.102C236.521 59.4459 236.086 59.6179 235.581 59.6179H232.157C231.651 59.6179 231.216 59.4459 230.853 59.102C230.503 58.7454 230.328 58.3187 230.328 57.8219V40.0913L220.173 57.8219C219.874 58.3187 219.453 58.7454 218.908 59.102C218.364 59.4459 217.838 59.6179 217.332 59.6179H210.893C210.387 59.6179 209.953 59.4459 209.59 59.102C209.226 58.7454 209.045 58.3187 209.045 57.8219Z"/>
<path d="M253.459 47.237C256.961 47.237 258.712 48.9693 258.712 52.4339V54.8413C258.712 56.4462 258.258 57.7073 257.35 58.6243C256.468 59.5414 255.171 60 253.459 60H248.673C246.961 60 245.651 59.5414 244.744 58.6243C243.862 57.7073 243.421 56.4462 243.421 54.8413V52.4339C243.421 50.7526 243.875 49.4661 244.783 48.5745C245.69 47.6829 246.987 47.237 248.673 47.237H253.459Z"/>
</mask>
<path d="M11.0384 16.0557C14.5402 16.0557 16.2911 17.788 16.2911 21.2526V23.66C16.2911 25.2649 15.8372 26.5259 14.9293 27.443C14.0474 28.3601 12.7504 28.8187 11.0384 28.8187H6.25268C4.54069 28.8187 3.23077 28.3601 2.3229 27.443C1.44097 26.5259 1 25.2649 1 23.66V21.2526C1 19.5712 1.45393 18.2848 2.3618 17.3931C3.26967 16.5015 4.56663 16.0557 6.25268 16.0557H11.0384Z" fill="#70966B"/>
<path d="M28.1972 22.6856L31.4655 23.0295H31.8741C34.455 23.0295 36.2189 21.3736 37.1656 18.0619H35.4926C32.2242 18.0619 29.6757 17.4122 27.847 16.113C26.0183 14.8011 24.449 12.6739 23.1391 9.73154L20.0847 2.8533C19.8642 2.3438 19.8578 1.9171 20.0653 1.57319C20.2858 1.21654 20.6489 1.03821 21.1547 1.03821H25.2596C26.5047 1.03821 27.3671 1.61777 27.847 2.77688L30.0843 8.08841C30.7457 9.62964 31.5758 10.7824 32.5744 11.5466C33.5731 12.2981 34.8895 12.6739 36.5237 12.6739H38.9165L42.4378 2.81509C42.6194 2.26738 42.9371 1.8343 43.391 1.51587C43.845 1.19743 44.3378 1.03821 44.8696 1.03821H48.7994C49.3052 1.03821 49.6553 1.17832 49.8499 1.45855C50.0444 1.72604 50.1417 1.96805 50.1417 2.18459C50.1417 2.38839 50.1093 2.58582 50.0444 2.77688L43.7023 20.603C42.8204 23.1123 41.491 25.0484 39.7142 26.4113C37.9373 27.7614 35.4537 28.4365 32.2632 28.4365H27.5747C27.0688 28.4365 26.6344 28.2646 26.2712 27.9207C25.9081 27.564 25.7265 27.1373 25.7265 26.6405V24.4815C25.7265 23.9848 25.9016 23.5644 26.2518 23.2205C26.6019 22.8639 27.0429 22.6856 27.5747 22.6856H28.1972Z" fill="#70966B"/>
<path d="M82.2219 27.5959C82.2219 28.1563 81.8847 28.4365 81.2103 28.4365H76.7553C76.2495 28.4365 75.7047 28.2646 75.1211 27.9207C74.5375 27.564 74.0835 27.1373 73.7593 26.6405L70.3353 21.3099C69.5182 20.0107 68.6947 19.0363 67.8646 18.3867C67.0346 17.7243 66.0359 17.3931 64.8687 17.3931H60.686V26.6788C60.686 27.1755 60.5044 27.5959 60.1412 27.9398C59.7911 28.2709 59.3631 28.4365 58.8573 28.4365H55.1998C54.694 28.4365 54.2595 28.2582 53.8964 27.9016C53.5332 27.5322 53.3517 27.0991 53.3517 26.6023V2.8533C53.3517 2.35654 53.5332 1.92347 53.8964 1.55408C54.2595 1.18469 54.694 1 55.1998 1H58.8573C59.3631 1 59.7911 1.18469 60.1412 1.55408C60.5044 1.92347 60.686 2.35654 60.686 2.8533V12.0052H64.8687C66.01 12.0052 67.0086 11.6995 67.8646 11.0881C68.7336 10.4767 69.5572 9.48953 70.3353 8.12662L73.3508 2.8533C74.0381 1.63051 74.9719 1.01274 76.1522 1H80.6461C81.2687 1 81.5799 1.26749 81.5799 1.80246C81.5799 2.09542 81.4697 2.4457 81.2492 2.8533L77.0276 10.362C76.4181 11.4575 75.7307 12.3618 74.9655 13.0751C74.2132 13.7884 73.2275 14.2916 72.0084 14.5845C72.8644 14.7628 73.7398 15.2915 74.6347 16.1703C75.5426 17.0492 76.3402 18.0045 77.0276 19.0363L81.8912 26.6405C82.1117 27.0099 82.2219 27.3284 82.2219 27.5959Z" fill="#376EAF"/>
<path d="M85.0234 26.6405V2.8533C85.0234 2.35654 85.1985 1.92984 85.5486 1.57319C85.8988 1.21654 86.3268 1.03821 86.8326 1.03821H101.676C109.523 1.03821 113.446 4.59197 113.446 11.6995C113.446 18.7943 109.523 22.3416 101.676 22.3416H92.3577V26.6405C92.3577 27.1373 92.1761 27.564 91.8129 27.9207C91.4628 28.2646 91.0348 28.4365 90.5289 28.4365H86.8715C86.3657 28.4365 85.9312 28.2646 85.5681 27.9207C85.2049 27.564 85.0234 27.1373 85.0234 26.6405ZM92.3577 16.9346H99.4585C101.637 16.9346 103.291 16.5779 104.419 15.8646C105.548 15.1386 106.112 13.7502 106.112 11.6995C106.112 9.63601 105.548 8.24762 104.419 7.53433C103.291 6.80829 101.637 6.44527 99.4585 6.44527H92.3577V16.9346Z" fill="#E46E6A"/>
<path d="M114.166 26.6788L119.049 8.48964C120.372 3.53476 124.678 1.05095 131.967 1.03821H142.453C142.932 1.03821 143.328 1.21654 143.639 1.57319C143.964 1.92984 144.126 2.3438 144.126 2.81509V26.6788C144.126 27.1755 143.944 27.5959 143.581 27.9398C143.218 28.2709 142.783 28.4365 142.278 28.4365H138.62C138.088 28.4365 137.647 28.2709 137.297 27.9398C136.96 27.5959 136.791 27.1628 136.791 26.6405V21.8258H122.959L121.656 26.6405C121.526 27.1628 121.234 27.5959 120.78 27.9398C120.327 28.2709 119.847 28.4365 119.341 28.4365H115.508C115.003 28.4365 114.639 28.2964 114.419 28.0162C114.198 27.7232 114.088 27.4685 114.088 27.2519C114.101 27.0354 114.127 26.8443 114.166 26.6788ZM124.399 16.4187H136.791V6.44527H131.247C130.002 6.44527 128.912 6.79555 127.979 7.49611C127.058 8.18394 126.435 9.11377 126.111 10.2856L124.399 16.4187Z" fill="#388DC6"/>
<path d="M149.69 26.6405V2.8533C149.69 2.35654 149.871 1.92984 150.234 1.57319C150.598 1.21654 151.032 1.03821 151.538 1.03821H155.195C155.701 1.03821 156.129 1.21017 156.479 1.55408C156.842 1.89799 157.024 2.31833 157.024 2.81509V23.0295H165.545V2.81509C165.545 2.31833 165.727 1.89799 166.09 1.55408C166.453 1.21017 166.887 1.03821 167.393 1.03821H171.051C171.556 1.03821 171.984 1.21654 172.335 1.57319C172.698 1.92984 172.879 2.35654 172.879 2.8533V23.0295H181.42V2.81509C181.42 2.31833 181.595 1.89799 181.945 1.55408C182.308 1.21017 182.743 1.03821 183.248 1.03821H186.906C187.412 1.03821 187.84 1.21654 188.19 1.57319C188.553 1.92984 188.735 2.35654 188.735 2.8533V26.6405C188.735 27.1373 188.553 27.564 188.19 27.9207C187.84 28.2646 187.412 28.4365 186.906 28.4365H151.538C151.032 28.4365 150.598 28.2646 150.234 27.9207C149.871 27.564 149.69 27.1373 149.69 26.6405Z" fill="#E5DF54"/>
<path d="M194.318 26.6023V2.81509C194.318 2.31833 194.5 1.89799 194.863 1.55408C195.226 1.21017 195.66 1.03821 196.166 1.03821H218.597C219.103 1.03821 219.531 1.21654 219.881 1.57319C220.244 1.92984 220.426 2.35654 220.426 2.8533V4.64929C220.426 5.14605 220.244 5.57275 219.881 5.9294C219.531 6.27332 219.103 6.44527 218.597 6.44527H201.652V12.0052H216.243C216.749 12.0052 217.177 12.1835 217.527 12.5402C217.89 12.8841 218.072 13.3044 218.072 13.8012V15.5971C218.072 16.0939 217.89 16.5206 217.527 16.8773C217.177 17.2212 216.749 17.3931 216.243 17.3931H201.652V23.0295H218.558C219.051 23.0295 219.472 23.2014 219.823 23.5453C220.173 23.8892 220.348 24.3096 220.348 24.8063V26.6405C220.348 27.1373 220.166 27.564 219.803 27.9207C219.44 28.2646 219.006 28.4365 218.5 28.4365H196.166C195.66 28.4365 195.226 28.2646 194.863 27.9207C194.5 27.564 194.318 27.1246 194.318 26.6023Z" fill="#B4DA83"/>
<path d="M224.005 26.6405V2.8533C224.005 2.35654 224.187 1.92984 224.55 1.57319C224.913 1.21654 225.361 1.03821 225.892 1.03821H229.511C230.017 1.03821 230.445 1.21654 230.795 1.57319C231.158 1.92984 231.34 2.35654 231.34 2.8533V11.4511H244.724V2.8533C244.724 2.35654 244.906 1.92984 245.269 1.57319C245.632 1.21654 246.067 1.03821 246.572 1.03821H250.191C250.723 1.03821 251.164 1.21654 251.514 1.57319C251.877 1.92984 252.058 2.35654 252.058 2.8533V26.6405C252.058 27.1373 251.87 27.564 251.494 27.9207C251.131 28.2646 250.697 28.4365 250.191 28.4365H246.572C246.067 28.4365 245.632 28.2709 245.269 27.9398C244.906 27.5959 244.724 27.1755 244.724 26.6788V16.8582H231.34V26.6788C231.34 27.1755 231.158 27.5959 230.795 27.9398C230.445 28.2709 230.017 28.4365 229.511 28.4365H225.892C225.387 28.4365 224.946 28.2646 224.569 27.9207C224.193 27.564 224.005 27.1373 224.005 26.6405Z" fill="#F0B192"/>
<path d="M257.661 26.6405V2.8533C257.661 2.33107 257.836 1.89799 258.187 1.55408C258.537 1.21017 258.978 1.03821 259.509 1.03821H262.933C263.439 1.03821 263.867 1.21017 264.217 1.55408C264.581 1.89799 264.762 2.31833 264.762 2.81509V21.9404L275.832 2.8533C276.13 2.35654 276.539 1.92984 277.057 1.57319C277.576 1.21654 278.056 1.03821 278.497 1.03821H284.236C284.742 1.03821 285.17 1.21654 285.52 1.57319C285.87 1.92984 286.045 2.35654 286.045 2.8533V26.6405C286.045 27.1373 285.864 27.564 285.501 27.9207C285.137 28.2646 284.703 28.4365 284.197 28.4365H280.773C280.267 28.4365 279.833 28.2646 279.47 27.9207C279.119 27.564 278.944 27.1373 278.944 26.6405V8.90997L268.789 26.6405C268.491 27.1373 268.069 27.564 267.525 27.9207C266.98 28.2646 266.455 28.4365 265.949 28.4365H259.509C259.004 28.4365 258.569 28.2646 258.206 27.9207C257.843 27.564 257.661 27.1373 257.661 26.6405Z" fill="#C1E7FF"/>
<path d="M290.072 27.3475C290.072 27.1437 290.157 26.908 290.325 26.6405L295.695 17.9472C292.024 16.3805 290.195 13.7184 290.208 9.96082C290.208 7.12036 291.207 4.92314 293.204 3.36917C295.215 1.8152 297.731 1.03821 300.753 1.03821H315.985C316.465 1.03821 316.874 1.21017 317.211 1.55408C317.561 1.89799 317.736 2.31833 317.736 2.81509V26.6788C317.736 27.1755 317.555 27.5959 317.192 27.9398C316.841 28.2709 316.413 28.4365 315.908 28.4365H312.231C311.725 28.4365 311.29 28.2646 310.927 27.9207C310.577 27.564 310.402 27.1373 310.402 26.6405V18.7306H303.437L298.768 26.6788C298.107 27.8506 297.167 28.4365 295.947 28.4365H291.045C290.397 28.4365 290.072 28.0735 290.072 27.3475ZM300.753 6.44527C298.6 6.44527 297.523 7.56617 297.523 9.80797C297.523 12.0498 298.6 13.1707 300.753 13.1707H310.402V6.44527H300.753Z" fill="#6EA2BE"/>
<path d="M333.747 16.0557C337.249 16.0557 339 17.788 339 21.2526V23.66C339 25.2649 338.546 26.5259 337.638 27.443C336.756 28.3601 335.459 28.8187 333.747 28.8187H328.962C327.25 28.8187 325.94 28.3601 325.032 27.443C324.15 26.5259 323.709 25.2649 323.709 23.66V21.2526C323.709 19.5712 324.163 18.2848 325.071 17.3931C325.979 16.5015 327.275 16.0557 328.962 16.0557H333.747Z" fill="#6EA2BE"/>
<path d="M91.3266 47.237C94.8284 47.237 96.5793 48.9693 96.5793 52.4339V54.8413C96.5793 56.4462 96.1253 57.7073 95.2174 58.6243C94.3355 59.5414 93.0386 60 91.3266 60H86.5408C84.8288 60 83.5189 59.5414 82.611 58.6243C81.7291 57.7073 81.2881 56.4462 81.2881 54.8413V52.4339C81.2881 50.7526 81.7421 49.4661 82.6499 48.5745C83.5578 47.6829 84.8548 47.237 86.5408 47.237H91.3266Z" fill="#38854F"/>
<path d="M102.591 57.7837V34.0729C102.591 33.5506 102.766 33.1112 103.116 32.7545C103.466 32.3979 103.894 32.2196 104.4 32.2196H112.318C112.824 32.2196 113.304 32.3979 113.757 32.7545C114.211 33.1112 114.516 33.5379 114.672 34.0346L120.411 50.3514L126.15 34.0346C126.306 33.5379 126.61 33.1112 127.064 32.7545C127.518 32.3979 127.998 32.2196 128.504 32.2196H136.422C136.928 32.2196 137.349 32.3979 137.686 32.7545C138.036 33.1112 138.212 33.5506 138.212 34.0729V57.7837C138.212 58.3059 138.03 58.7454 137.667 59.102C137.317 59.4459 136.889 59.6179 136.383 59.6179H132.881C132.375 59.6179 131.941 59.4459 131.578 59.102C131.227 58.7454 131.052 58.3059 131.052 57.7837V39.1169L124.185 57.8983C124.003 58.3696 123.686 58.7772 123.232 59.1211C122.778 59.4523 122.298 59.6179 121.792 59.6179H119.01C118.504 59.6179 118.024 59.4523 117.571 59.1211C117.13 58.7772 116.812 58.3696 116.617 57.8983L109.769 39.1169V57.7837C109.769 58.3059 109.588 58.7454 109.225 59.102C108.874 59.4459 108.446 59.6179 107.941 59.6179H104.439C103.933 59.6179 103.499 59.4459 103.135 59.102C102.772 58.7454 102.591 58.3059 102.591 57.7837Z" fill="#38854F"/>
<path d="M141.499 57.8601L146.382 39.671C147.705 34.7161 152.011 32.2323 159.3 32.2196H169.786C170.266 32.2196 170.661 32.3979 170.973 32.7545C171.297 33.1112 171.459 33.5251 171.459 33.9964V57.8601C171.459 58.3569 171.277 58.7772 170.914 59.1211C170.551 59.4523 170.117 59.6179 169.611 59.6179H165.953C165.422 59.6179 164.981 59.4523 164.631 59.1211C164.293 58.7772 164.125 58.3441 164.125 57.8219V53.0071H150.293L148.989 57.8219C148.86 58.3441 148.568 58.7772 148.114 59.1211C147.66 59.4523 147.18 59.6179 146.674 59.6179H142.842C142.336 59.6179 141.973 59.4778 141.752 59.1975C141.532 58.9046 141.422 58.6498 141.422 58.4333C141.435 58.2168 141.46 58.0257 141.499 57.8601ZM151.732 47.6001H164.125V37.6266H158.58C157.335 37.6266 156.246 37.9769 155.312 38.6775C154.391 39.3653 153.769 40.2951 153.444 41.467L151.732 47.6001Z" fill="#F391A2"/>
<path d="M177.023 57.8219V34.0346C177.023 33.5379 177.198 33.1112 177.548 32.7545C177.898 32.3979 178.326 32.2196 178.832 32.2196H193.676C201.523 32.2196 205.446 35.7733 205.446 42.8808C205.446 49.9756 201.523 53.523 193.676 53.523H184.357V57.8219C184.357 58.3187 184.176 58.7454 183.813 59.102C183.462 59.4459 183.034 59.6179 182.529 59.6179H178.871C178.365 59.6179 177.931 59.4459 177.568 59.102C177.205 58.7454 177.023 58.3187 177.023 57.8219ZM184.357 48.1159H191.458C193.637 48.1159 195.291 47.7593 196.419 47.046C197.547 46.3199 198.112 44.9316 198.112 42.8808C198.112 40.8174 197.547 39.429 196.419 38.7157C195.291 37.9896 193.637 37.6266 191.458 37.6266H184.357V48.1159Z" fill="#FCD866"/>
<path d="M209.045 57.8219V34.0346C209.045 33.5124 209.22 33.0793 209.57 32.7354C209.92 32.3915 210.361 32.2196 210.893 32.2196H214.317C214.823 32.2196 215.251 32.3915 215.601 32.7354C215.964 33.0793 216.146 33.4997 216.146 33.9964V53.1218L227.215 34.0346C227.514 33.5379 227.922 33.1112 228.441 32.7545C228.96 32.3979 229.44 32.2196 229.881 32.2196H235.62C236.125 32.2196 236.553 32.3979 236.904 32.7545C237.254 33.1112 237.429 33.5379 237.429 34.0346V57.8219C237.429 58.3187 237.247 58.7454 236.884 59.102C236.521 59.4459 236.086 59.6179 235.581 59.6179H232.157C231.651 59.6179 231.216 59.4459 230.853 59.102C230.503 58.7454 230.328 58.3187 230.328 57.8219V40.0913L220.173 57.8219C219.874 58.3187 219.453 58.7454 218.908 59.102C218.364 59.4459 217.838 59.6179 217.332 59.6179H210.893C210.387 59.6179 209.953 59.4459 209.59 59.102C209.226 58.7454 209.045 58.3187 209.045 57.8219Z" fill="#F3BDC7"/>
<path d="M253.459 47.237C256.961 47.237 258.712 48.9693 258.712 52.4339V54.8413C258.712 56.4462 258.258 57.7073 257.35 58.6243C256.468 59.5414 255.171 60 253.459 60H248.673C246.961 60 245.651 59.5414 244.744 58.6243C243.862 57.7073 243.421 56.4462 243.421 54.8413V52.4339C243.421 50.7526 243.875 49.4661 244.783 48.5745C245.69 47.6829 246.987 47.237 248.673 47.237H253.459Z" fill="#F3BDC6"/>
<path d="M11.0384 16.0557C14.5402 16.0557 16.2911 17.788 16.2911 21.2526V23.66C16.2911 25.2649 15.8372 26.5259 14.9293 27.443C14.0474 28.3601 12.7504 28.8187 11.0384 28.8187H6.25268C4.54069 28.8187 3.23077 28.3601 2.3229 27.443C1.44097 26.5259 1 25.2649 1 23.66V21.2526C1 19.5712 1.45393 18.2848 2.3618 17.3931C3.26967 16.5015 4.56663 16.0557 6.25268 16.0557H11.0384Z" stroke="#595959" stroke-width="2" mask="url(#path-1-outside-1_710_269)"/>
<path d="M28.1972 22.6856L31.4655 23.0295H31.8741C34.455 23.0295 36.2189 21.3736 37.1656 18.0619H35.4926C32.2242 18.0619 29.6757 17.4122 27.847 16.113C26.0183 14.8011 24.449 12.6739 23.1391 9.73154L20.0847 2.8533C19.8642 2.3438 19.8578 1.9171 20.0653 1.57319C20.2858 1.21654 20.6489 1.03821 21.1547 1.03821H25.2596C26.5047 1.03821 27.3671 1.61777 27.847 2.77688L30.0843 8.08841C30.7457 9.62964 31.5758 10.7824 32.5744 11.5466C33.5731 12.2981 34.8895 12.6739 36.5237 12.6739H38.9165L42.4378 2.81509C42.6194 2.26738 42.9371 1.8343 43.391 1.51587C43.845 1.19743 44.3378 1.03821 44.8696 1.03821H48.7994C49.3052 1.03821 49.6553 1.17832 49.8499 1.45855C50.0444 1.72604 50.1417 1.96805 50.1417 2.18459C50.1417 2.38839 50.1093 2.58582 50.0444 2.77688L43.7023 20.603C42.8204 23.1123 41.491 25.0484 39.7142 26.4113C37.9373 27.7614 35.4537 28.4365 32.2632 28.4365H27.5747C27.0688 28.4365 26.6344 28.2646 26.2712 27.9207C25.9081 27.564 25.7265 27.1373 25.7265 26.6405V24.4815C25.7265 23.9848 25.9016 23.5644 26.2518 23.2205C26.6019 22.8639 27.0429 22.6856 27.5747 22.6856H28.1972Z" stroke="#595959" stroke-width="2" mask="url(#path-1-outside-1_710_269)"/>
<path d="M82.2219 27.5959C82.2219 28.1563 81.8847 28.4365 81.2103 28.4365H76.7553C76.2495 28.4365 75.7047 28.2646 75.1211 27.9207C74.5375 27.564 74.0835 27.1373 73.7593 26.6405L70.3353 21.3099C69.5182 20.0107 68.6947 19.0363 67.8646 18.3867C67.0346 17.7243 66.0359 17.3931 64.8687 17.3931H60.686V26.6788C60.686 27.1755 60.5044 27.5959 60.1412 27.9398C59.7911 28.2709 59.3631 28.4365 58.8573 28.4365H55.1998C54.694 28.4365 54.2595 28.2582 53.8964 27.9016C53.5332 27.5322 53.3517 27.0991 53.3517 26.6023V2.8533C53.3517 2.35654 53.5332 1.92347 53.8964 1.55408C54.2595 1.18469 54.694 1 55.1998 1H58.8573C59.3631 1 59.7911 1.18469 60.1412 1.55408C60.5044 1.92347 60.686 2.35654 60.686 2.8533V12.0052H64.8687C66.01 12.0052 67.0086 11.6995 67.8646 11.0881C68.7336 10.4767 69.5572 9.48953 70.3353 8.12662L73.3508 2.8533C74.0381 1.63051 74.9719 1.01274 76.1522 1H80.6461C81.2687 1 81.5799 1.26749 81.5799 1.80246C81.5799 2.09542 81.4697 2.4457 81.2492 2.8533L77.0276 10.362C76.4181 11.4575 75.7307 12.3618 74.9655 13.0751C74.2132 13.7884 73.2275 14.2916 72.0084 14.5845C72.8644 14.7628 73.7398 15.2915 74.6347 16.1703C75.5426 17.0492 76.3402 18.0045 77.0276 19.0363L81.8912 26.6405C82.1117 27.0099 82.2219 27.3284 82.2219 27.5959Z" stroke="#595959" stroke-width="2" mask="url(#path-1-outside-1_710_269)"/>
<path d="M85.0234 26.6405V2.8533C85.0234 2.35654 85.1985 1.92984 85.5486 1.57319C85.8988 1.21654 86.3268 1.03821 86.8326 1.03821H101.676C109.523 1.03821 113.446 4.59197 113.446 11.6995C113.446 18.7943 109.523 22.3416 101.676 22.3416H92.3577V26.6405C92.3577 27.1373 92.1761 27.564 91.8129 27.9207C91.4628 28.2646 91.0348 28.4365 90.5289 28.4365H86.8715C86.3657 28.4365 85.9312 28.2646 85.5681 27.9207C85.2049 27.564 85.0234 27.1373 85.0234 26.6405ZM92.3577 16.9346H99.4585C101.637 16.9346 103.291 16.5779 104.419 15.8646C105.548 15.1386 106.112 13.7502 106.112 11.6995C106.112 9.63601 105.548 8.24762 104.419 7.53433C103.291 6.80829 101.637 6.44527 99.4585 6.44527H92.3577V16.9346Z" stroke="#595959" stroke-width="2" mask="url(#path-1-outside-1_710_269)"/>
<path d="M114.166 26.6788L119.049 8.48964C120.372 3.53476 124.678 1.05095 131.967 1.03821H142.453C142.932 1.03821 143.328 1.21654 143.639 1.57319C143.964 1.92984 144.126 2.3438 144.126 2.81509V26.6788C144.126 27.1755 143.944 27.5959 143.581 27.9398C143.218 28.2709 142.783 28.4365 142.278 28.4365H138.62C138.088 28.4365 137.647 28.2709 137.297 27.9398C136.96 27.5959 136.791 27.1628 136.791 26.6405V21.8258H122.959L121.656 26.6405C121.526 27.1628 121.234 27.5959 120.78 27.9398C120.327 28.2709 119.847 28.4365 119.341 28.4365H115.508C115.003 28.4365 114.639 28.2964 114.419 28.0162C114.198 27.7232 114.088 27.4685 114.088 27.2519C114.101 27.0354 114.127 26.8443 114.166 26.6788ZM124.399 16.4187H136.791V6.44527H131.247C130.002 6.44527 128.912 6.79555 127.979 7.49611C127.058 8.18394 126.435 9.11377 126.111 10.2856L124.399 16.4187Z" stroke="#595959" stroke-width="2" mask="url(#path-1-outside-1_710_269)"/>
<path d="M149.69 26.6405V2.8533C149.69 2.35654 149.871 1.92984 150.234 1.57319C150.598 1.21654 151.032 1.03821 151.538 1.03821H155.195C155.701 1.03821 156.129 1.21017 156.479 1.55408C156.842 1.89799 157.024 2.31833 157.024 2.81509V23.0295H165.545V2.81509C165.545 2.31833 165.727 1.89799 166.09 1.55408C166.453 1.21017 166.887 1.03821 167.393 1.03821H171.051C171.556 1.03821 171.984 1.21654 172.335 1.57319C172.698 1.92984 172.879 2.35654 172.879 2.8533V23.0295H181.42V2.81509C181.42 2.31833 181.595 1.89799 181.945 1.55408C182.308 1.21017 182.743 1.03821 183.248 1.03821H186.906C187.412 1.03821 187.84 1.21654 188.19 1.57319C188.553 1.92984 188.735 2.35654 188.735 2.8533V26.6405C188.735 27.1373 188.553 27.564 188.19 27.9207C187.84 28.2646 187.412 28.4365 186.906 28.4365H151.538C151.032 28.4365 150.598 28.2646 150.234 27.9207C149.871 27.564 149.69 27.1373 149.69 26.6405Z" stroke="#595959" stroke-width="2" mask="url(#path-1-outside-1_710_269)"/>
<path d="M194.318 26.6023V2.81509C194.318 2.31833 194.5 1.89799 194.863 1.55408C195.226 1.21017 195.66 1.03821 196.166 1.03821H218.597C219.103 1.03821 219.531 1.21654 219.881 1.57319C220.244 1.92984 220.426 2.35654 220.426 2.8533V4.64929C220.426 5.14605 220.244 5.57275 219.881 5.9294C219.531 6.27332 219.103 6.44527 218.597 6.44527H201.652V12.0052H216.243C216.749 12.0052 217.177 12.1835 217.527 12.5402C217.89 12.8841 218.072 13.3044 218.072 13.8012V15.5971C218.072 16.0939 217.89 16.5206 217.527 16.8773C217.177 17.2212 216.749 17.3931 216.243 17.3931H201.652V23.0295H218.558C219.051 23.0295 219.472 23.2014 219.823 23.5453C220.173 23.8892 220.348 24.3096 220.348 24.8063V26.6405C220.348 27.1373 220.166 27.564 219.803 27.9207C219.44 28.2646 219.006 28.4365 218.5 28.4365H196.166C195.66 28.4365 195.226 28.2646 194.863 27.9207C194.5 27.564 194.318 27.1246 194.318 26.6023Z" stroke="#595959" stroke-width="2" mask="url(#path-1-outside-1_710_269)"/>
<path d="M224.005 26.6405V2.8533C224.005 2.35654 224.187 1.92984 224.55 1.57319C224.913 1.21654 225.361 1.03821 225.892 1.03821H229.511C230.017 1.03821 230.445 1.21654 230.795 1.57319C231.158 1.92984 231.34 2.35654 231.34 2.8533V11.4511H244.724V2.8533C244.724 2.35654 244.906 1.92984 245.269 1.57319C245.632 1.21654 246.067 1.03821 246.572 1.03821H250.191C250.723 1.03821 251.164 1.21654 251.514 1.57319C251.877 1.92984 252.058 2.35654 252.058 2.8533V26.6405C252.058 27.1373 251.87 27.564 251.494 27.9207C251.131 28.2646 250.697 28.4365 250.191 28.4365H246.572C246.067 28.4365 245.632 28.2709 245.269 27.9398C244.906 27.5959 244.724 27.1755 244.724 26.6788V16.8582H231.34V26.6788C231.34 27.1755 231.158 27.5959 230.795 27.9398C230.445 28.2709 230.017 28.4365 229.511 28.4365H225.892C225.387 28.4365 224.946 28.2646 224.569 27.9207C224.193 27.564 224.005 27.1373 224.005 26.6405Z" stroke="#595959" stroke-width="2" mask="url(#path-1-outside-1_710_269)"/>
<path d="M257.661 26.6405V2.8533C257.661 2.33107 257.836 1.89799 258.187 1.55408C258.537 1.21017 258.978 1.03821 259.509 1.03821H262.933C263.439 1.03821 263.867 1.21017 264.217 1.55408C264.581 1.89799 264.762 2.31833 264.762 2.81509V21.9404L275.832 2.8533C276.13 2.35654 276.539 1.92984 277.057 1.57319C277.576 1.21654 278.056 1.03821 278.497 1.03821H284.236C284.742 1.03821 285.17 1.21654 285.52 1.57319C285.87 1.92984 286.045 2.35654 286.045 2.8533V26.6405C286.045 27.1373 285.864 27.564 285.501 27.9207C285.137 28.2646 284.703 28.4365 284.197 28.4365H280.773C280.267 28.4365 279.833 28.2646 279.47 27.9207C279.119 27.564 278.944 27.1373 278.944 26.6405V8.90997L268.789 26.6405C268.491 27.1373 268.069 27.564 267.525 27.9207C266.98 28.2646 266.455 28.4365 265.949 28.4365H259.509C259.004 28.4365 258.569 28.2646 258.206 27.9207C257.843 27.564 257.661 27.1373 257.661 26.6405Z" stroke="#595959" stroke-width="2" mask="url(#path-1-outside-1_710_269)"/>
<path d="M290.072 27.3475C290.072 27.1437 290.157 26.908 290.325 26.6405L295.695 17.9472C292.024 16.3805 290.195 13.7184 290.208 9.96082C290.208 7.12036 291.207 4.92314 293.204 3.36917C295.215 1.8152 297.731 1.03821 300.753 1.03821H315.985C316.465 1.03821 316.874 1.21017 317.211 1.55408C317.561 1.89799 317.736 2.31833 317.736 2.81509V26.6788C317.736 27.1755 317.555 27.5959 317.192 27.9398C316.841 28.2709 316.413 28.4365 315.908 28.4365H312.231C311.725 28.4365 311.29 28.2646 310.927 27.9207C310.577 27.564 310.402 27.1373 310.402 26.6405V18.7306H303.437L298.768 26.6788C298.107 27.8506 297.167 28.4365 295.947 28.4365H291.045C290.397 28.4365 290.072 28.0735 290.072 27.3475ZM300.753 6.44527C298.6 6.44527 297.523 7.56617 297.523 9.80797C297.523 12.0498 298.6 13.1707 300.753 13.1707H310.402V6.44527H300.753Z" stroke="#595959" stroke-width="2" mask="url(#path-1-outside-1_710_269)"/>
<path d="M333.747 16.0557C337.249 16.0557 339 17.788 339 21.2526V23.66C339 25.2649 338.546 26.5259 337.638 27.443C336.756 28.3601 335.459 28.8187 333.747 28.8187H328.962C327.25 28.8187 325.94 28.3601 325.032 27.443C324.15 26.5259 323.709 25.2649 323.709 23.66V21.2526C323.709 19.5712 324.163 18.2848 325.071 17.3931C325.979 16.5015 327.275 16.0557 328.962 16.0557H333.747Z" stroke="#595959" stroke-width="2" mask="url(#path-1-outside-1_710_269)"/>
<path d="M91.3266 47.237C94.8284 47.237 96.5793 48.9693 96.5793 52.4339V54.8413C96.5793 56.4462 96.1253 57.7073 95.2174 58.6243C94.3355 59.5414 93.0386 60 91.3266 60H86.5408C84.8288 60 83.5189 59.5414 82.611 58.6243C81.7291 57.7073 81.2881 56.4462 81.2881 54.8413V52.4339C81.2881 50.7526 81.7421 49.4661 82.6499 48.5745C83.5578 47.6829 84.8548 47.237 86.5408 47.237H91.3266Z" stroke="#595959" stroke-width="2" mask="url(#path-1-outside-1_710_269)"/>
<path d="M102.591 57.7837V34.0729C102.591 33.5506 102.766 33.1112 103.116 32.7545C103.466 32.3979 103.894 32.2196 104.4 32.2196H112.318C112.824 32.2196 113.304 32.3979 113.757 32.7545C114.211 33.1112 114.516 33.5379 114.672 34.0346L120.411 50.3514L126.15 34.0346C126.306 33.5379 126.61 33.1112 127.064 32.7545C127.518 32.3979 127.998 32.2196 128.504 32.2196H136.422C136.928 32.2196 137.349 32.3979 137.686 32.7545C138.036 33.1112 138.212 33.5506 138.212 34.0729V57.7837C138.212 58.3059 138.03 58.7454 137.667 59.102C137.317 59.4459 136.889 59.6179 136.383 59.6179H132.881C132.375 59.6179 131.941 59.4459 131.578 59.102C131.227 58.7454 131.052 58.3059 131.052 57.7837V39.1169L124.185 57.8983C124.003 58.3696 123.686 58.7772 123.232 59.1211C122.778 59.4523 122.298 59.6179 121.792 59.6179H119.01C118.504 59.6179 118.024 59.4523 117.571 59.1211C117.13 58.7772 116.812 58.3696 116.617 57.8983L109.769 39.1169V57.7837C109.769 58.3059 109.588 58.7454 109.225 59.102C108.874 59.4459 108.446 59.6179 107.941 59.6179H104.439C103.933 59.6179 103.499 59.4459 103.135 59.102C102.772 58.7454 102.591 58.3059 102.591 57.7837Z" stroke="#595959" stroke-width="2" mask="url(#path-1-outside-1_710_269)"/>
<path d="M141.499 57.8601L146.382 39.671C147.705 34.7161 152.011 32.2323 159.3 32.2196H169.786C170.266 32.2196 170.661 32.3979 170.973 32.7545C171.297 33.1112 171.459 33.5251 171.459 33.9964V57.8601C171.459 58.3569 171.277 58.7772 170.914 59.1211C170.551 59.4523 170.117 59.6179 169.611 59.6179H165.953C165.422 59.6179 164.981 59.4523 164.631 59.1211C164.293 58.7772 164.125 58.3441 164.125 57.8219V53.0071H150.293L148.989 57.8219C148.86 58.3441 148.568 58.7772 148.114 59.1211C147.66 59.4523 147.18 59.6179 146.674 59.6179H142.842C142.336 59.6179 141.973 59.4778 141.752 59.1975C141.532 58.9046 141.422 58.6498 141.422 58.4333C141.435 58.2168 141.46 58.0257 141.499 57.8601ZM151.732 47.6001H164.125V37.6266H158.58C157.335 37.6266 156.246 37.9769 155.312 38.6775C154.391 39.3653 153.769 40.2951 153.444 41.467L151.732 47.6001Z" stroke="#595959" stroke-width="2" mask="url(#path-1-outside-1_710_269)"/>
<path d="M177.023 57.8219V34.0346C177.023 33.5379 177.198 33.1112 177.548 32.7545C177.898 32.3979 178.326 32.2196 178.832 32.2196H193.676C201.523 32.2196 205.446 35.7733 205.446 42.8808C205.446 49.9756 201.523 53.523 193.676 53.523H184.357V57.8219C184.357 58.3187 184.176 58.7454 183.813 59.102C183.462 59.4459 183.034 59.6179 182.529 59.6179H178.871C178.365 59.6179 177.931 59.4459 177.568 59.102C177.205 58.7454 177.023 58.3187 177.023 57.8219ZM184.357 48.1159H191.458C193.637 48.1159 195.291 47.7593 196.419 47.046C197.547 46.3199 198.112 44.9316 198.112 42.8808C198.112 40.8174 197.547 39.429 196.419 38.7157C195.291 37.9896 193.637 37.6266 191.458 37.6266H184.357V48.1159Z" stroke="#595959" stroke-width="2" mask="url(#path-1-outside-1_710_269)"/>
<path d="M209.045 57.8219V34.0346C209.045 33.5124 209.22 33.0793 209.57 32.7354C209.92 32.3915 210.361 32.2196 210.893 32.2196H214.317C214.823 32.2196 215.251 32.3915 215.601 32.7354C215.964 33.0793 216.146 33.4997 216.146 33.9964V53.1218L227.215 34.0346C227.514 33.5379 227.922 33.1112 228.441 32.7545C228.96 32.3979 229.44 32.2196 229.881 32.2196H235.62C236.125 32.2196 236.553 32.3979 236.904 32.7545C237.254 33.1112 237.429 33.5379 237.429 34.0346V57.8219C237.429 58.3187 237.247 58.7454 236.884 59.102C236.521 59.4459 236.086 59.6179 235.581 59.6179H232.157C231.651 59.6179 231.216 59.4459 230.853 59.102C230.503 58.7454 230.328 58.3187 230.328 57.8219V40.0913L220.173 57.8219C219.874 58.3187 219.453 58.7454 218.908 59.102C218.364 59.4459 217.838 59.6179 217.332 59.6179H210.893C210.387 59.6179 209.953 59.4459 209.59 59.102C209.226 58.7454 209.045 58.3187 209.045 57.8219Z" stroke="#595959" stroke-width="2" mask="url(#path-1-outside-1_710_269)"/>
<path d="M253.459 47.237C256.961 47.237 258.712 48.9693 258.712 52.4339V54.8413C258.712 56.4462 258.258 57.7073 257.35 58.6243C256.468 59.5414 255.171 60 253.459 60H248.673C246.961 60 245.651 59.5414 244.744 58.6243C243.862 57.7073 243.421 56.4462 243.421 54.8413V52.4339C243.421 50.7526 243.875 49.4661 244.783 48.5745C245.69 47.6829 246.987 47.237 248.673 47.237H253.459Z" stroke="#595959" stroke-width="2" mask="url(#path-1-outside-1_710_269)"/>
</svg>
