<svg width="1088" height="195" viewBox="0 0 1088 195" fill="none" xmlns="http://www.w3.org/2000/svg">
<mask id="path-1-outside-1_681_909" maskUnits="userSpaceOnUse" x="0" y="0" width="1088" height="195" fill="black">
<rect fill="white" width="1088" height="195"/>
<path d="M33.25 50.25C44.5 50.25 50.125 55.9167 50.125 67.25V75.125C50.125 80.375 48.6667 84.5 45.75 87.5C42.9167 90.5 38.75 92 33.25 92H17.875C12.375 92 8.16667 90.5 5.25 87.5C2.41667 84.5 1 80.375 1 75.125V67.25C1 61.75 2.45833 57.5417 5.375 54.625C8.29167 51.7083 12.4583 50.25 17.875 50.25H33.25Z"/>
<path d="M88.375 71.9375L98.875 73.0625H100.188C108.479 73.0625 114.146 67.6458 117.188 56.8125H111.812C101.312 56.8125 93.125 54.6875 87.25 50.4375C81.375 46.1458 76.3333 39.1875 72.125 29.5625L62.3125 7.0625C61.6042 5.39583 61.5833 4 62.25 2.875C62.9583 1.70833 64.125 1.125 65.75 1.125H78.9375C82.9375 1.125 85.7083 3.02083 87.25 6.8125L94.4375 24.1875C96.5625 29.2292 99.2292 33 102.438 35.5C105.646 37.9583 109.875 39.1875 115.125 39.1875H122.812L134.125 6.9375C134.708 5.14583 135.729 3.72917 137.188 2.6875C138.646 1.64583 140.229 1.125 141.938 1.125H154.562C156.188 1.125 157.312 1.58333 157.938 2.5C158.562 3.375 158.875 4.16667 158.875 4.875C158.875 5.54167 158.771 6.1875 158.562 6.8125L138.188 65.125C135.354 73.3333 131.083 79.6667 125.375 84.125C119.667 88.5417 111.688 90.75 101.438 90.75H86.375C84.75 90.75 83.3542 90.1875 82.1875 89.0625C81.0208 87.8958 80.4375 86.5 80.4375 84.875V77.8125C80.4375 76.1875 81 74.8125 82.125 73.6875C83.25 72.5208 84.6667 71.9375 86.375 71.9375H88.375Z"/>
<path d="M261.938 88C261.938 89.8333 260.854 90.75 258.688 90.75H244.375C242.75 90.75 241 90.1875 239.125 89.0625C237.25 87.8958 235.792 86.5 234.75 84.875L223.75 67.4375C221.125 63.1875 218.479 60 215.812 57.875C213.146 55.7083 209.938 54.625 206.188 54.625H192.75V85C192.75 86.625 192.167 88 191 89.125C189.875 90.2083 188.5 90.75 186.875 90.75H175.125C173.5 90.75 172.104 90.1667 170.938 89C169.771 87.7917 169.188 86.375 169.188 84.75V7.0625C169.188 5.4375 169.771 4.02083 170.938 2.8125C172.104 1.60417 173.5 1 175.125 1H186.875C188.5 1 189.875 1.60417 191 2.8125C192.167 4.02083 192.75 5.4375 192.75 7.0625V37H206.188C209.854 37 213.062 36 215.812 34C218.604 32 221.25 28.7708 223.75 24.3125L233.438 7.0625C235.646 3.0625 238.646 1.04167 242.438 1H256.875C258.875 1 259.875 1.875 259.875 3.625C259.875 4.58333 259.521 5.72917 258.812 7.0625L245.25 31.625C243.292 35.2083 241.083 38.1667 238.625 40.5C236.208 42.8333 233.042 44.4792 229.125 45.4375C231.875 46.0208 234.688 47.75 237.562 50.625C240.479 53.5 243.042 56.625 245.25 60L260.875 84.875C261.583 86.0833 261.938 87.125 261.938 88Z"/>
<path d="M270.938 84.875V7.0625C270.938 5.4375 271.5 4.04167 272.625 2.875C273.75 1.70833 275.125 1.125 276.75 1.125H324.438C349.646 1.125 362.25 12.75 362.25 36C362.25 59.2083 349.646 70.8125 324.438 70.8125H294.5V84.875C294.5 86.5 293.917 87.8958 292.75 89.0625C291.625 90.1875 290.25 90.75 288.625 90.75H276.875C275.25 90.75 273.854 90.1875 272.688 89.0625C271.521 87.8958 270.938 86.5 270.938 84.875ZM294.5 53.125H317.312C324.312 53.125 329.625 51.9583 333.25 49.625C336.875 47.25 338.688 42.7083 338.688 36C338.688 29.25 336.875 24.7083 333.25 22.375C329.625 20 324.312 18.8125 317.312 18.8125H294.5V53.125Z"/>
<path d="M364.562 85L380.25 25.5C384.5 9.29167 398.333 1.16667 421.75 1.125H455.438C456.979 1.125 458.25 1.70833 459.25 2.875C460.292 4.04167 460.812 5.39583 460.812 6.9375V85C460.812 86.625 460.229 88 459.062 89.125C457.896 90.2083 456.5 90.75 454.875 90.75H443.125C441.417 90.75 440 90.2083 438.875 89.125C437.792 88 437.25 86.5833 437.25 84.875V69.125H392.812L388.625 84.875C388.208 86.5833 387.271 88 385.812 89.125C384.354 90.2083 382.812 90.75 381.188 90.75H368.875C367.25 90.75 366.083 90.2917 365.375 89.375C364.667 88.4167 364.312 87.5833 364.312 86.875C364.354 86.1667 364.438 85.5417 364.562 85ZM397.438 51.4375H437.25V18.8125H419.438C415.438 18.8125 411.938 19.9583 408.938 22.25C405.979 24.5 403.979 27.5417 402.938 31.375L397.438 51.4375Z"/>
<path d="M478.688 84.875V7.0625C478.688 5.4375 479.271 4.04167 480.438 2.875C481.604 1.70833 483 1.125 484.625 1.125H496.375C498 1.125 499.375 1.6875 500.5 2.8125C501.667 3.9375 502.25 5.3125 502.25 6.9375V73.0625H529.625V6.9375C529.625 5.3125 530.208 3.9375 531.375 2.8125C532.542 1.6875 533.938 1.125 535.562 1.125H547.312C548.938 1.125 550.312 1.70833 551.438 2.875C552.604 4.04167 553.188 5.4375 553.188 7.0625V73.0625H580.625V6.9375C580.625 5.3125 581.188 3.9375 582.312 2.8125C583.479 1.6875 584.875 1.125 586.5 1.125H598.25C599.875 1.125 601.25 1.70833 602.375 2.875C603.542 4.04167 604.125 5.4375 604.125 7.0625V84.875C604.125 86.5 603.542 87.8958 602.375 89.0625C601.25 90.1875 599.875 90.75 598.25 90.75H484.625C483 90.75 481.604 90.1875 480.438 89.0625C479.271 87.8958 478.688 86.5 478.688 84.875Z"/>
<path d="M622.062 84.75V6.9375C622.062 5.3125 622.646 3.9375 623.812 2.8125C624.979 1.6875 626.375 1.125 628 1.125H700.062C701.688 1.125 703.062 1.70833 704.188 2.875C705.354 4.04167 705.938 5.4375 705.938 7.0625V12.9375C705.938 14.5625 705.354 15.9583 704.188 17.125C703.062 18.25 701.688 18.8125 700.062 18.8125H645.625V37H692.5C694.125 37 695.5 37.5833 696.625 38.75C697.792 39.875 698.375 41.25 698.375 42.875V48.75C698.375 50.375 697.792 51.7708 696.625 52.9375C695.5 54.0625 694.125 54.625 692.5 54.625H645.625V73.0625H699.938C701.521 73.0625 702.875 73.625 704 74.75C705.125 75.875 705.688 77.25 705.688 78.875V84.875C705.688 86.5 705.104 87.8958 703.938 89.0625C702.771 90.1875 701.375 90.75 699.75 90.75H628C626.375 90.75 624.979 90.1875 623.812 89.0625C622.646 87.8958 622.062 86.4583 622.062 84.75Z"/>
<path d="M717.438 84.875V7.0625C717.438 5.4375 718.021 4.04167 719.188 2.875C720.354 1.70833 721.792 1.125 723.5 1.125H735.125C736.75 1.125 738.125 1.70833 739.25 2.875C740.417 4.04167 741 5.4375 741 7.0625V35.1875H784V7.0625C784 5.4375 784.583 4.04167 785.75 2.875C786.917 1.70833 788.312 1.125 789.938 1.125H801.562C803.271 1.125 804.688 1.70833 805.812 2.875C806.979 4.04167 807.562 5.4375 807.562 7.0625V84.875C807.562 86.5 806.958 87.8958 805.75 89.0625C804.583 90.1875 803.188 90.75 801.562 90.75H789.938C788.312 90.75 786.917 90.2083 785.75 89.125C784.583 88 784 86.625 784 85V52.875H741V85C741 86.625 740.417 88 739.25 89.125C738.125 90.2083 736.75 90.75 735.125 90.75H723.5C721.875 90.75 720.458 90.1875 719.25 89.0625C718.042 87.8958 717.438 86.5 717.438 84.875Z"/>
<path d="M825.562 84.875V7.0625C825.562 5.35417 826.125 3.9375 827.25 2.8125C828.375 1.6875 829.792 1.125 831.5 1.125H842.5C844.125 1.125 845.5 1.6875 846.625 2.8125C847.792 3.9375 848.375 5.3125 848.375 6.9375V69.5L883.938 7.0625C884.896 5.4375 886.208 4.04167 887.875 2.875C889.542 1.70833 891.083 1.125 892.5 1.125H910.938C912.562 1.125 913.938 1.70833 915.062 2.875C916.188 4.04167 916.75 5.4375 916.75 7.0625V84.875C916.75 86.5 916.167 87.8958 915 89.0625C913.833 90.1875 912.438 90.75 910.812 90.75H899.812C898.188 90.75 896.792 90.1875 895.625 89.0625C894.5 87.8958 893.938 86.5 893.938 84.875V26.875L861.312 84.875C860.354 86.5 859 87.8958 857.25 89.0625C855.5 90.1875 853.812 90.75 852.188 90.75H831.5C829.875 90.75 828.479 90.1875 827.312 89.0625C826.146 87.8958 825.562 86.5 825.562 84.875Z"/>
<path d="M929.688 87.1875C929.688 86.5208 929.958 85.75 930.5 84.875L947.75 56.4375C935.958 51.3125 930.083 42.6042 930.125 30.3125C930.125 21.0208 933.333 13.8333 939.75 8.75C946.208 3.66667 954.292 1.125 964 1.125H1012.94C1014.48 1.125 1015.79 1.6875 1016.88 2.8125C1018 3.9375 1018.56 5.3125 1018.56 6.9375V85C1018.56 86.625 1017.98 88 1016.81 89.125C1015.69 90.2083 1014.31 90.75 1012.69 90.75H1000.88C999.25 90.75 997.854 90.1875 996.688 89.0625C995.562 87.8958 995 86.5 995 84.875V59H972.625L957.625 85C955.5 88.8333 952.479 90.75 948.562 90.75H932.812C930.729 90.75 929.688 89.5625 929.688 87.1875ZM964 18.8125C957.083 18.8125 953.625 22.4792 953.625 29.8125C953.625 37.1458 957.083 40.8125 964 40.8125H995V18.8125H964Z"/>
<path d="M1070 50.25C1081.25 50.25 1086.88 55.9167 1086.88 67.25V75.125C1086.88 80.375 1085.42 84.5 1082.5 87.5C1079.67 90.5 1075.5 92 1070 92H1054.62C1049.12 92 1044.92 90.5 1042 87.5C1039.17 84.5 1037.75 80.375 1037.75 75.125V67.25C1037.75 61.75 1039.21 57.5417 1042.12 54.625C1045.04 51.7083 1049.21 50.25 1054.62 50.25H1070Z"/>
<path d="M291.188 152.25C302.438 152.25 308.062 157.917 308.062 169.25V177.125C308.062 182.375 306.604 186.5 303.688 189.5C300.854 192.5 296.688 194 291.188 194H275.812C270.312 194 266.104 192.5 263.188 189.5C260.354 186.5 258.938 182.375 258.938 177.125V169.25C258.938 163.75 260.396 159.542 263.312 156.625C266.229 153.708 270.396 152.25 275.812 152.25H291.188Z"/>
<path d="M327.375 186.75V109.188C327.375 107.479 327.938 106.042 329.062 104.875C330.188 103.708 331.562 103.125 333.188 103.125H358.625C360.25 103.125 361.792 103.708 363.25 104.875C364.708 106.042 365.688 107.438 366.188 109.062L384.625 162.438L403.062 109.062C403.562 107.438 404.542 106.042 406 104.875C407.458 103.708 409 103.125 410.625 103.125H436.062C437.688 103.125 439.042 103.708 440.125 104.875C441.25 106.042 441.812 107.479 441.812 109.188V186.75C441.812 188.458 441.229 189.896 440.062 191.062C438.938 192.188 437.562 192.75 435.938 192.75H424.688C423.062 192.75 421.667 192.188 420.5 191.062C419.375 189.896 418.812 188.458 418.812 186.75V125.688L396.75 187.125C396.167 188.667 395.146 190 393.688 191.125C392.229 192.208 390.688 192.75 389.062 192.75H380.125C378.5 192.75 376.958 192.208 375.5 191.125C374.083 190 373.062 188.667 372.438 187.125L350.438 125.688V186.75C350.438 188.458 349.854 189.896 348.688 191.062C347.562 192.188 346.188 192.75 344.562 192.75H333.312C331.688 192.75 330.292 192.188 329.125 191.062C327.958 189.896 327.375 188.458 327.375 186.75Z"/>
<path d="M452.375 187L468.062 127.5C472.312 111.292 486.146 103.167 509.562 103.125H543.25C544.792 103.125 546.062 103.708 547.062 104.875C548.104 106.042 548.625 107.396 548.625 108.938V187C548.625 188.625 548.042 190 546.875 191.125C545.708 192.208 544.312 192.75 542.688 192.75H530.938C529.229 192.75 527.812 192.208 526.688 191.125C525.604 190 525.062 188.583 525.062 186.875V171.125H480.625L476.438 186.875C476.021 188.583 475.083 190 473.625 191.125C472.167 192.208 470.625 192.75 469 192.75H456.688C455.062 192.75 453.896 192.292 453.188 191.375C452.479 190.417 452.125 189.583 452.125 188.875C452.167 188.167 452.25 187.542 452.375 187ZM485.25 153.438H525.062V120.812H507.25C503.25 120.812 499.75 121.958 496.75 124.25C493.792 126.5 491.792 129.542 490.75 133.375L485.25 153.438Z"/>
<path d="M566.5 186.875V109.062C566.5 107.438 567.062 106.042 568.188 104.875C569.312 103.708 570.688 103.125 572.312 103.125H620C645.208 103.125 657.812 114.75 657.812 138C657.812 161.208 645.208 172.812 620 172.812H590.062V186.875C590.062 188.5 589.479 189.896 588.312 191.062C587.188 192.188 585.812 192.75 584.188 192.75H572.438C570.812 192.75 569.417 192.188 568.25 191.062C567.083 189.896 566.5 188.5 566.5 186.875ZM590.062 155.125H612.875C619.875 155.125 625.188 153.958 628.812 151.625C632.438 149.25 634.25 144.708 634.25 138C634.25 131.25 632.438 126.708 628.812 124.375C625.188 122 619.875 120.812 612.875 120.812H590.062V155.125Z"/>
<path d="M669.375 186.875V109.062C669.375 107.354 669.938 105.938 671.062 104.812C672.188 103.688 673.604 103.125 675.312 103.125H686.312C687.938 103.125 689.312 103.688 690.438 104.812C691.604 105.938 692.188 107.312 692.188 108.938V171.5L727.75 109.062C728.708 107.438 730.021 106.042 731.688 104.875C733.354 103.708 734.896 103.125 736.312 103.125H754.75C756.375 103.125 757.75 103.708 758.875 104.875C760 106.042 760.562 107.438 760.562 109.062V186.875C760.562 188.5 759.979 189.896 758.812 191.062C757.646 192.188 756.25 192.75 754.625 192.75H743.625C742 192.75 740.604 192.188 739.438 191.062C738.312 189.896 737.75 188.5 737.75 186.875V128.875L705.125 186.875C704.167 188.5 702.812 189.896 701.062 191.062C699.312 192.188 697.625 192.75 696 192.75H675.312C673.688 192.75 672.292 192.188 671.125 191.062C669.958 189.896 669.375 188.5 669.375 186.875Z"/>
<path d="M812.062 152.25C823.312 152.25 828.938 157.917 828.938 169.25V177.125C828.938 182.375 827.479 186.5 824.562 189.5C821.729 192.5 817.562 194 812.062 194H796.688C791.188 194 786.979 192.5 784.062 189.5C781.229 186.5 779.812 182.375 779.812 177.125V169.25C779.812 163.75 781.271 159.542 784.188 156.625C787.104 153.708 791.271 152.25 796.688 152.25H812.062Z"/>
</mask>
<path d="M33.25 50.25C44.5 50.25 50.125 55.9167 50.125 67.25V75.125C50.125 80.375 48.6667 84.5 45.75 87.5C42.9167 90.5 38.75 92 33.25 92H17.875C12.375 92 8.16667 90.5 5.25 87.5C2.41667 84.5 1 80.375 1 75.125V67.25C1 61.75 2.45833 57.5417 5.375 54.625C8.29167 51.7083 12.4583 50.25 17.875 50.25H33.25Z" fill="#70966B"/>
<path d="M88.375 71.9375L98.875 73.0625H100.188C108.479 73.0625 114.146 67.6458 117.188 56.8125H111.812C101.312 56.8125 93.125 54.6875 87.25 50.4375C81.375 46.1458 76.3333 39.1875 72.125 29.5625L62.3125 7.0625C61.6042 5.39583 61.5833 4 62.25 2.875C62.9583 1.70833 64.125 1.125 65.75 1.125H78.9375C82.9375 1.125 85.7083 3.02083 87.25 6.8125L94.4375 24.1875C96.5625 29.2292 99.2292 33 102.438 35.5C105.646 37.9583 109.875 39.1875 115.125 39.1875H122.812L134.125 6.9375C134.708 5.14583 135.729 3.72917 137.188 2.6875C138.646 1.64583 140.229 1.125 141.938 1.125H154.562C156.188 1.125 157.312 1.58333 157.938 2.5C158.562 3.375 158.875 4.16667 158.875 4.875C158.875 5.54167 158.771 6.1875 158.562 6.8125L138.188 65.125C135.354 73.3333 131.083 79.6667 125.375 84.125C119.667 88.5417 111.688 90.75 101.438 90.75H86.375C84.75 90.75 83.3542 90.1875 82.1875 89.0625C81.0208 87.8958 80.4375 86.5 80.4375 84.875V77.8125C80.4375 76.1875 81 74.8125 82.125 73.6875C83.25 72.5208 84.6667 71.9375 86.375 71.9375H88.375Z" fill="#70966B"/>
<path d="M261.938 88C261.938 89.8333 260.854 90.75 258.688 90.75H244.375C242.75 90.75 241 90.1875 239.125 89.0625C237.25 87.8958 235.792 86.5 234.75 84.875L223.75 67.4375C221.125 63.1875 218.479 60 215.812 57.875C213.146 55.7083 209.938 54.625 206.188 54.625H192.75V85C192.75 86.625 192.167 88 191 89.125C189.875 90.2083 188.5 90.75 186.875 90.75H175.125C173.5 90.75 172.104 90.1667 170.938 89C169.771 87.7917 169.188 86.375 169.188 84.75V7.0625C169.188 5.4375 169.771 4.02083 170.938 2.8125C172.104 1.60417 173.5 1 175.125 1H186.875C188.5 1 189.875 1.60417 191 2.8125C192.167 4.02083 192.75 5.4375 192.75 7.0625V37H206.188C209.854 37 213.062 36 215.812 34C218.604 32 221.25 28.7708 223.75 24.3125L233.438 7.0625C235.646 3.0625 238.646 1.04167 242.438 1H256.875C258.875 1 259.875 1.875 259.875 3.625C259.875 4.58333 259.521 5.72917 258.812 7.0625L245.25 31.625C243.292 35.2083 241.083 38.1667 238.625 40.5C236.208 42.8333 233.042 44.4792 229.125 45.4375C231.875 46.0208 234.688 47.75 237.562 50.625C240.479 53.5 243.042 56.625 245.25 60L260.875 84.875C261.583 86.0833 261.938 87.125 261.938 88Z" fill="#376EAF"/>
<path d="M270.938 84.875V7.0625C270.938 5.4375 271.5 4.04167 272.625 2.875C273.75 1.70833 275.125 1.125 276.75 1.125H324.438C349.646 1.125 362.25 12.75 362.25 36C362.25 59.2083 349.646 70.8125 324.438 70.8125H294.5V84.875C294.5 86.5 293.917 87.8958 292.75 89.0625C291.625 90.1875 290.25 90.75 288.625 90.75H276.875C275.25 90.75 273.854 90.1875 272.688 89.0625C271.521 87.8958 270.938 86.5 270.938 84.875ZM294.5 53.125H317.312C324.312 53.125 329.625 51.9583 333.25 49.625C336.875 47.25 338.688 42.7083 338.688 36C338.688 29.25 336.875 24.7083 333.25 22.375C329.625 20 324.312 18.8125 317.312 18.8125H294.5V53.125Z" fill="#E46E6A"/>
<path d="M364.562 85L380.25 25.5C384.5 9.29167 398.333 1.16667 421.75 1.125H455.438C456.979 1.125 458.25 1.70833 459.25 2.875C460.292 4.04167 460.812 5.39583 460.812 6.9375V85C460.812 86.625 460.229 88 459.062 89.125C457.896 90.2083 456.5 90.75 454.875 90.75H443.125C441.417 90.75 440 90.2083 438.875 89.125C437.792 88 437.25 86.5833 437.25 84.875V69.125H392.812L388.625 84.875C388.208 86.5833 387.271 88 385.812 89.125C384.354 90.2083 382.812 90.75 381.188 90.75H368.875C367.25 90.75 366.083 90.2917 365.375 89.375C364.667 88.4167 364.312 87.5833 364.312 86.875C364.354 86.1667 364.438 85.5417 364.562 85ZM397.438 51.4375H437.25V18.8125H419.438C415.438 18.8125 411.938 19.9583 408.938 22.25C405.979 24.5 403.979 27.5417 402.938 31.375L397.438 51.4375Z" fill="#388DC6"/>
<path d="M478.688 84.875V7.0625C478.688 5.4375 479.271 4.04167 480.438 2.875C481.604 1.70833 483 1.125 484.625 1.125H496.375C498 1.125 499.375 1.6875 500.5 2.8125C501.667 3.9375 502.25 5.3125 502.25 6.9375V73.0625H529.625V6.9375C529.625 5.3125 530.208 3.9375 531.375 2.8125C532.542 1.6875 533.938 1.125 535.562 1.125H547.312C548.938 1.125 550.312 1.70833 551.438 2.875C552.604 4.04167 553.188 5.4375 553.188 7.0625V73.0625H580.625V6.9375C580.625 5.3125 581.188 3.9375 582.312 2.8125C583.479 1.6875 584.875 1.125 586.5 1.125H598.25C599.875 1.125 601.25 1.70833 602.375 2.875C603.542 4.04167 604.125 5.4375 604.125 7.0625V84.875C604.125 86.5 603.542 87.8958 602.375 89.0625C601.25 90.1875 599.875 90.75 598.25 90.75H484.625C483 90.75 481.604 90.1875 480.438 89.0625C479.271 87.8958 478.688 86.5 478.688 84.875Z" fill="#E5DF54"/>
<path d="M622.062 84.75V6.9375C622.062 5.3125 622.646 3.9375 623.812 2.8125C624.979 1.6875 626.375 1.125 628 1.125H700.062C701.688 1.125 703.062 1.70833 704.188 2.875C705.354 4.04167 705.938 5.4375 705.938 7.0625V12.9375C705.938 14.5625 705.354 15.9583 704.188 17.125C703.062 18.25 701.688 18.8125 700.062 18.8125H645.625V37H692.5C694.125 37 695.5 37.5833 696.625 38.75C697.792 39.875 698.375 41.25 698.375 42.875V48.75C698.375 50.375 697.792 51.7708 696.625 52.9375C695.5 54.0625 694.125 54.625 692.5 54.625H645.625V73.0625H699.938C701.521 73.0625 702.875 73.625 704 74.75C705.125 75.875 705.688 77.25 705.688 78.875V84.875C705.688 86.5 705.104 87.8958 703.938 89.0625C702.771 90.1875 701.375 90.75 699.75 90.75H628C626.375 90.75 624.979 90.1875 623.812 89.0625C622.646 87.8958 622.062 86.4583 622.062 84.75Z" fill="#B4DA83"/>
<path d="M717.438 84.875V7.0625C717.438 5.4375 718.021 4.04167 719.188 2.875C720.354 1.70833 721.792 1.125 723.5 1.125H735.125C736.75 1.125 738.125 1.70833 739.25 2.875C740.417 4.04167 741 5.4375 741 7.0625V35.1875H784V7.0625C784 5.4375 784.583 4.04167 785.75 2.875C786.917 1.70833 788.312 1.125 789.938 1.125H801.562C803.271 1.125 804.688 1.70833 805.812 2.875C806.979 4.04167 807.562 5.4375 807.562 7.0625V84.875C807.562 86.5 806.958 87.8958 805.75 89.0625C804.583 90.1875 803.188 90.75 801.562 90.75H789.938C788.312 90.75 786.917 90.2083 785.75 89.125C784.583 88 784 86.625 784 85V52.875H741V85C741 86.625 740.417 88 739.25 89.125C738.125 90.2083 736.75 90.75 735.125 90.75H723.5C721.875 90.75 720.458 90.1875 719.25 89.0625C718.042 87.8958 717.438 86.5 717.438 84.875Z" fill="#F0B192"/>
<path d="M825.562 84.875V7.0625C825.562 5.35417 826.125 3.9375 827.25 2.8125C828.375 1.6875 829.792 1.125 831.5 1.125H842.5C844.125 1.125 845.5 1.6875 846.625 2.8125C847.792 3.9375 848.375 5.3125 848.375 6.9375V69.5L883.938 7.0625C884.896 5.4375 886.208 4.04167 887.875 2.875C889.542 1.70833 891.083 1.125 892.5 1.125H910.938C912.562 1.125 913.938 1.70833 915.062 2.875C916.188 4.04167 916.75 5.4375 916.75 7.0625V84.875C916.75 86.5 916.167 87.8958 915 89.0625C913.833 90.1875 912.438 90.75 910.812 90.75H899.812C898.188 90.75 896.792 90.1875 895.625 89.0625C894.5 87.8958 893.938 86.5 893.938 84.875V26.875L861.312 84.875C860.354 86.5 859 87.8958 857.25 89.0625C855.5 90.1875 853.812 90.75 852.188 90.75H831.5C829.875 90.75 828.479 90.1875 827.312 89.0625C826.146 87.8958 825.562 86.5 825.562 84.875Z" fill="#C1E7FF"/>
<path d="M929.688 87.1875C929.688 86.5208 929.958 85.75 930.5 84.875L947.75 56.4375C935.958 51.3125 930.083 42.6042 930.125 30.3125C930.125 21.0208 933.333 13.8333 939.75 8.75C946.208 3.66667 954.292 1.125 964 1.125H1012.94C1014.48 1.125 1015.79 1.6875 1016.88 2.8125C1018 3.9375 1018.56 5.3125 1018.56 6.9375V85C1018.56 86.625 1017.98 88 1016.81 89.125C1015.69 90.2083 1014.31 90.75 1012.69 90.75H1000.88C999.25 90.75 997.854 90.1875 996.688 89.0625C995.562 87.8958 995 86.5 995 84.875V59H972.625L957.625 85C955.5 88.8333 952.479 90.75 948.562 90.75H932.812C930.729 90.75 929.688 89.5625 929.688 87.1875ZM964 18.8125C957.083 18.8125 953.625 22.4792 953.625 29.8125C953.625 37.1458 957.083 40.8125 964 40.8125H995V18.8125H964Z" fill="#6EA2BE"/>
<path d="M1070 50.25C1081.25 50.25 1086.88 55.9167 1086.88 67.25V75.125C1086.88 80.375 1085.42 84.5 1082.5 87.5C1079.67 90.5 1075.5 92 1070 92H1054.62C1049.12 92 1044.92 90.5 1042 87.5C1039.17 84.5 1037.75 80.375 1037.75 75.125V67.25C1037.75 61.75 1039.21 57.5417 1042.12 54.625C1045.04 51.7083 1049.21 50.25 1054.62 50.25H1070Z" fill="#6EA2BE"/>
<path d="M291.188 152.25C302.438 152.25 308.062 157.917 308.062 169.25V177.125C308.062 182.375 306.604 186.5 303.688 189.5C300.854 192.5 296.688 194 291.188 194H275.812C270.312 194 266.104 192.5 263.188 189.5C260.354 186.5 258.938 182.375 258.938 177.125V169.25C258.938 163.75 260.396 159.542 263.312 156.625C266.229 153.708 270.396 152.25 275.812 152.25H291.188Z" fill="#38854F"/>
<path d="M327.375 186.75V109.188C327.375 107.479 327.938 106.042 329.062 104.875C330.188 103.708 331.562 103.125 333.188 103.125H358.625C360.25 103.125 361.792 103.708 363.25 104.875C364.708 106.042 365.688 107.438 366.188 109.062L384.625 162.438L403.062 109.062C403.562 107.438 404.542 106.042 406 104.875C407.458 103.708 409 103.125 410.625 103.125H436.062C437.688 103.125 439.042 103.708 440.125 104.875C441.25 106.042 441.812 107.479 441.812 109.188V186.75C441.812 188.458 441.229 189.896 440.062 191.062C438.938 192.188 437.562 192.75 435.938 192.75H424.688C423.062 192.75 421.667 192.188 420.5 191.062C419.375 189.896 418.812 188.458 418.812 186.75V125.688L396.75 187.125C396.167 188.667 395.146 190 393.688 191.125C392.229 192.208 390.688 192.75 389.062 192.75H380.125C378.5 192.75 376.958 192.208 375.5 191.125C374.083 190 373.062 188.667 372.438 187.125L350.438 125.688V186.75C350.438 188.458 349.854 189.896 348.688 191.062C347.562 192.188 346.188 192.75 344.562 192.75H333.312C331.688 192.75 330.292 192.188 329.125 191.062C327.958 189.896 327.375 188.458 327.375 186.75Z" fill="#38854F"/>
<path d="M452.375 187L468.062 127.5C472.312 111.292 486.146 103.167 509.562 103.125H543.25C544.792 103.125 546.062 103.708 547.062 104.875C548.104 106.042 548.625 107.396 548.625 108.938V187C548.625 188.625 548.042 190 546.875 191.125C545.708 192.208 544.312 192.75 542.688 192.75H530.938C529.229 192.75 527.812 192.208 526.688 191.125C525.604 190 525.062 188.583 525.062 186.875V171.125H480.625L476.438 186.875C476.021 188.583 475.083 190 473.625 191.125C472.167 192.208 470.625 192.75 469 192.75H456.688C455.062 192.75 453.896 192.292 453.188 191.375C452.479 190.417 452.125 189.583 452.125 188.875C452.167 188.167 452.25 187.542 452.375 187ZM485.25 153.438H525.062V120.812H507.25C503.25 120.812 499.75 121.958 496.75 124.25C493.792 126.5 491.792 129.542 490.75 133.375L485.25 153.438Z" fill="#F391A2"/>
<path d="M566.5 186.875V109.062C566.5 107.438 567.062 106.042 568.188 104.875C569.312 103.708 570.688 103.125 572.312 103.125H620C645.208 103.125 657.812 114.75 657.812 138C657.812 161.208 645.208 172.812 620 172.812H590.062V186.875C590.062 188.5 589.479 189.896 588.312 191.062C587.188 192.188 585.812 192.75 584.188 192.75H572.438C570.812 192.75 569.417 192.188 568.25 191.062C567.083 189.896 566.5 188.5 566.5 186.875ZM590.062 155.125H612.875C619.875 155.125 625.188 153.958 628.812 151.625C632.438 149.25 634.25 144.708 634.25 138C634.25 131.25 632.438 126.708 628.812 124.375C625.188 122 619.875 120.812 612.875 120.812H590.062V155.125Z" fill="#FCD866"/>
<path d="M669.375 186.875V109.062C669.375 107.354 669.938 105.938 671.062 104.812C672.188 103.688 673.604 103.125 675.312 103.125H686.312C687.938 103.125 689.312 103.688 690.438 104.812C691.604 105.938 692.188 107.312 692.188 108.938V171.5L727.75 109.062C728.708 107.438 730.021 106.042 731.688 104.875C733.354 103.708 734.896 103.125 736.312 103.125H754.75C756.375 103.125 757.75 103.708 758.875 104.875C760 106.042 760.562 107.438 760.562 109.062V186.875C760.562 188.5 759.979 189.896 758.812 191.062C757.646 192.188 756.25 192.75 754.625 192.75H743.625C742 192.75 740.604 192.188 739.438 191.062C738.312 189.896 737.75 188.5 737.75 186.875V128.875L705.125 186.875C704.167 188.5 702.812 189.896 701.062 191.062C699.312 192.188 697.625 192.75 696 192.75H675.312C673.688 192.75 672.292 192.188 671.125 191.062C669.958 189.896 669.375 188.5 669.375 186.875Z" fill="#F3BDC7"/>
<path d="M812.062 152.25C823.312 152.25 828.938 157.917 828.938 169.25V177.125C828.938 182.375 827.479 186.5 824.562 189.5C821.729 192.5 817.562 194 812.062 194H796.688C791.188 194 786.979 192.5 784.062 189.5C781.229 186.5 779.812 182.375 779.812 177.125V169.25C779.812 163.75 781.271 159.542 784.188 156.625C787.104 153.708 791.271 152.25 796.688 152.25H812.062Z" fill="#F3BDC6"/>
<path d="M33.25 50.25C44.5 50.25 50.125 55.9167 50.125 67.25V75.125C50.125 80.375 48.6667 84.5 45.75 87.5C42.9167 90.5 38.75 92 33.25 92H17.875C12.375 92 8.16667 90.5 5.25 87.5C2.41667 84.5 1 80.375 1 75.125V67.25C1 61.75 2.45833 57.5417 5.375 54.625C8.29167 51.7083 12.4583 50.25 17.875 50.25H33.25Z" stroke="#595959" stroke-width="2" mask="url(#path-1-outside-1_681_909)"/>
<path d="M88.375 71.9375L98.875 73.0625H100.188C108.479 73.0625 114.146 67.6458 117.188 56.8125H111.812C101.312 56.8125 93.125 54.6875 87.25 50.4375C81.375 46.1458 76.3333 39.1875 72.125 29.5625L62.3125 7.0625C61.6042 5.39583 61.5833 4 62.25 2.875C62.9583 1.70833 64.125 1.125 65.75 1.125H78.9375C82.9375 1.125 85.7083 3.02083 87.25 6.8125L94.4375 24.1875C96.5625 29.2292 99.2292 33 102.438 35.5C105.646 37.9583 109.875 39.1875 115.125 39.1875H122.812L134.125 6.9375C134.708 5.14583 135.729 3.72917 137.188 2.6875C138.646 1.64583 140.229 1.125 141.938 1.125H154.562C156.188 1.125 157.312 1.58333 157.938 2.5C158.562 3.375 158.875 4.16667 158.875 4.875C158.875 5.54167 158.771 6.1875 158.562 6.8125L138.188 65.125C135.354 73.3333 131.083 79.6667 125.375 84.125C119.667 88.5417 111.688 90.75 101.438 90.75H86.375C84.75 90.75 83.3542 90.1875 82.1875 89.0625C81.0208 87.8958 80.4375 86.5 80.4375 84.875V77.8125C80.4375 76.1875 81 74.8125 82.125 73.6875C83.25 72.5208 84.6667 71.9375 86.375 71.9375H88.375Z" stroke="#595959" stroke-width="2" mask="url(#path-1-outside-1_681_909)"/>
<path d="M261.938 88C261.938 89.8333 260.854 90.75 258.688 90.75H244.375C242.75 90.75 241 90.1875 239.125 89.0625C237.25 87.8958 235.792 86.5 234.75 84.875L223.75 67.4375C221.125 63.1875 218.479 60 215.812 57.875C213.146 55.7083 209.938 54.625 206.188 54.625H192.75V85C192.75 86.625 192.167 88 191 89.125C189.875 90.2083 188.5 90.75 186.875 90.75H175.125C173.5 90.75 172.104 90.1667 170.938 89C169.771 87.7917 169.188 86.375 169.188 84.75V7.0625C169.188 5.4375 169.771 4.02083 170.938 2.8125C172.104 1.60417 173.5 1 175.125 1H186.875C188.5 1 189.875 1.60417 191 2.8125C192.167 4.02083 192.75 5.4375 192.75 7.0625V37H206.188C209.854 37 213.062 36 215.812 34C218.604 32 221.25 28.7708 223.75 24.3125L233.438 7.0625C235.646 3.0625 238.646 1.04167 242.438 1H256.875C258.875 1 259.875 1.875 259.875 3.625C259.875 4.58333 259.521 5.72917 258.812 7.0625L245.25 31.625C243.292 35.2083 241.083 38.1667 238.625 40.5C236.208 42.8333 233.042 44.4792 229.125 45.4375C231.875 46.0208 234.688 47.75 237.562 50.625C240.479 53.5 243.042 56.625 245.25 60L260.875 84.875C261.583 86.0833 261.938 87.125 261.938 88Z" stroke="#595959" stroke-width="2" mask="url(#path-1-outside-1_681_909)"/>
<path d="M270.938 84.875V7.0625C270.938 5.4375 271.5 4.04167 272.625 2.875C273.75 1.70833 275.125 1.125 276.75 1.125H324.438C349.646 1.125 362.25 12.75 362.25 36C362.25 59.2083 349.646 70.8125 324.438 70.8125H294.5V84.875C294.5 86.5 293.917 87.8958 292.75 89.0625C291.625 90.1875 290.25 90.75 288.625 90.75H276.875C275.25 90.75 273.854 90.1875 272.688 89.0625C271.521 87.8958 270.938 86.5 270.938 84.875ZM294.5 53.125H317.312C324.312 53.125 329.625 51.9583 333.25 49.625C336.875 47.25 338.688 42.7083 338.688 36C338.688 29.25 336.875 24.7083 333.25 22.375C329.625 20 324.312 18.8125 317.312 18.8125H294.5V53.125Z" stroke="#595959" stroke-width="2" mask="url(#path-1-outside-1_681_909)"/>
<path d="M364.562 85L380.25 25.5C384.5 9.29167 398.333 1.16667 421.75 1.125H455.438C456.979 1.125 458.25 1.70833 459.25 2.875C460.292 4.04167 460.812 5.39583 460.812 6.9375V85C460.812 86.625 460.229 88 459.062 89.125C457.896 90.2083 456.5 90.75 454.875 90.75H443.125C441.417 90.75 440 90.2083 438.875 89.125C437.792 88 437.25 86.5833 437.25 84.875V69.125H392.812L388.625 84.875C388.208 86.5833 387.271 88 385.812 89.125C384.354 90.2083 382.812 90.75 381.188 90.75H368.875C367.25 90.75 366.083 90.2917 365.375 89.375C364.667 88.4167 364.312 87.5833 364.312 86.875C364.354 86.1667 364.438 85.5417 364.562 85ZM397.438 51.4375H437.25V18.8125H419.438C415.438 18.8125 411.938 19.9583 408.938 22.25C405.979 24.5 403.979 27.5417 402.938 31.375L397.438 51.4375Z" stroke="#595959" stroke-width="2" mask="url(#path-1-outside-1_681_909)"/>
<path d="M478.688 84.875V7.0625C478.688 5.4375 479.271 4.04167 480.438 2.875C481.604 1.70833 483 1.125 484.625 1.125H496.375C498 1.125 499.375 1.6875 500.5 2.8125C501.667 3.9375 502.25 5.3125 502.25 6.9375V73.0625H529.625V6.9375C529.625 5.3125 530.208 3.9375 531.375 2.8125C532.542 1.6875 533.938 1.125 535.562 1.125H547.312C548.938 1.125 550.312 1.70833 551.438 2.875C552.604 4.04167 553.188 5.4375 553.188 7.0625V73.0625H580.625V6.9375C580.625 5.3125 581.188 3.9375 582.312 2.8125C583.479 1.6875 584.875 1.125 586.5 1.125H598.25C599.875 1.125 601.25 1.70833 602.375 2.875C603.542 4.04167 604.125 5.4375 604.125 7.0625V84.875C604.125 86.5 603.542 87.8958 602.375 89.0625C601.25 90.1875 599.875 90.75 598.25 90.75H484.625C483 90.75 481.604 90.1875 480.438 89.0625C479.271 87.8958 478.688 86.5 478.688 84.875Z" stroke="#595959" stroke-width="2" mask="url(#path-1-outside-1_681_909)"/>
<path d="M622.062 84.75V6.9375C622.062 5.3125 622.646 3.9375 623.812 2.8125C624.979 1.6875 626.375 1.125 628 1.125H700.062C701.688 1.125 703.062 1.70833 704.188 2.875C705.354 4.04167 705.938 5.4375 705.938 7.0625V12.9375C705.938 14.5625 705.354 15.9583 704.188 17.125C703.062 18.25 701.688 18.8125 700.062 18.8125H645.625V37H692.5C694.125 37 695.5 37.5833 696.625 38.75C697.792 39.875 698.375 41.25 698.375 42.875V48.75C698.375 50.375 697.792 51.7708 696.625 52.9375C695.5 54.0625 694.125 54.625 692.5 54.625H645.625V73.0625H699.938C701.521 73.0625 702.875 73.625 704 74.75C705.125 75.875 705.688 77.25 705.688 78.875V84.875C705.688 86.5 705.104 87.8958 703.938 89.0625C702.771 90.1875 701.375 90.75 699.75 90.75H628C626.375 90.75 624.979 90.1875 623.812 89.0625C622.646 87.8958 622.062 86.4583 622.062 84.75Z" stroke="#595959" stroke-width="2" mask="url(#path-1-outside-1_681_909)"/>
<path d="M717.438 84.875V7.0625C717.438 5.4375 718.021 4.04167 719.188 2.875C720.354 1.70833 721.792 1.125 723.5 1.125H735.125C736.75 1.125 738.125 1.70833 739.25 2.875C740.417 4.04167 741 5.4375 741 7.0625V35.1875H784V7.0625C784 5.4375 784.583 4.04167 785.75 2.875C786.917 1.70833 788.312 1.125 789.938 1.125H801.562C803.271 1.125 804.688 1.70833 805.812 2.875C806.979 4.04167 807.562 5.4375 807.562 7.0625V84.875C807.562 86.5 806.958 87.8958 805.75 89.0625C804.583 90.1875 803.188 90.75 801.562 90.75H789.938C788.312 90.75 786.917 90.2083 785.75 89.125C784.583 88 784 86.625 784 85V52.875H741V85C741 86.625 740.417 88 739.25 89.125C738.125 90.2083 736.75 90.75 735.125 90.75H723.5C721.875 90.75 720.458 90.1875 719.25 89.0625C718.042 87.8958 717.438 86.5 717.438 84.875Z" stroke="#595959" stroke-width="2" mask="url(#path-1-outside-1_681_909)"/>
<path d="M825.562 84.875V7.0625C825.562 5.35417 826.125 3.9375 827.25 2.8125C828.375 1.6875 829.792 1.125 831.5 1.125H842.5C844.125 1.125 845.5 1.6875 846.625 2.8125C847.792 3.9375 848.375 5.3125 848.375 6.9375V69.5L883.938 7.0625C884.896 5.4375 886.208 4.04167 887.875 2.875C889.542 1.70833 891.083 1.125 892.5 1.125H910.938C912.562 1.125 913.938 1.70833 915.062 2.875C916.188 4.04167 916.75 5.4375 916.75 7.0625V84.875C916.75 86.5 916.167 87.8958 915 89.0625C913.833 90.1875 912.438 90.75 910.812 90.75H899.812C898.188 90.75 896.792 90.1875 895.625 89.0625C894.5 87.8958 893.938 86.5 893.938 84.875V26.875L861.312 84.875C860.354 86.5 859 87.8958 857.25 89.0625C855.5 90.1875 853.812 90.75 852.188 90.75H831.5C829.875 90.75 828.479 90.1875 827.312 89.0625C826.146 87.8958 825.562 86.5 825.562 84.875Z" stroke="#595959" stroke-width="2" mask="url(#path-1-outside-1_681_909)"/>
<path d="M929.688 87.1875C929.688 86.5208 929.958 85.75 930.5 84.875L947.75 56.4375C935.958 51.3125 930.083 42.6042 930.125 30.3125C930.125 21.0208 933.333 13.8333 939.75 8.75C946.208 3.66667 954.292 1.125 964 1.125H1012.94C1014.48 1.125 1015.79 1.6875 1016.88 2.8125C1018 3.9375 1018.56 5.3125 1018.56 6.9375V85C1018.56 86.625 1017.98 88 1016.81 89.125C1015.69 90.2083 1014.31 90.75 1012.69 90.75H1000.88C999.25 90.75 997.854 90.1875 996.688 89.0625C995.562 87.8958 995 86.5 995 84.875V59H972.625L957.625 85C955.5 88.8333 952.479 90.75 948.562 90.75H932.812C930.729 90.75 929.688 89.5625 929.688 87.1875ZM964 18.8125C957.083 18.8125 953.625 22.4792 953.625 29.8125C953.625 37.1458 957.083 40.8125 964 40.8125H995V18.8125H964Z" stroke="#595959" stroke-width="2" mask="url(#path-1-outside-1_681_909)"/>
<path d="M1070 50.25C1081.25 50.25 1086.88 55.9167 1086.88 67.25V75.125C1086.88 80.375 1085.42 84.5 1082.5 87.5C1079.67 90.5 1075.5 92 1070 92H1054.62C1049.12 92 1044.92 90.5 1042 87.5C1039.17 84.5 1037.75 80.375 1037.75 75.125V67.25C1037.75 61.75 1039.21 57.5417 1042.12 54.625C1045.04 51.7083 1049.21 50.25 1054.62 50.25H1070Z" stroke="#595959" stroke-width="2" mask="url(#path-1-outside-1_681_909)"/>
<path d="M291.188 152.25C302.438 152.25 308.062 157.917 308.062 169.25V177.125C308.062 182.375 306.604 186.5 303.688 189.5C300.854 192.5 296.688 194 291.188 194H275.812C270.312 194 266.104 192.5 263.188 189.5C260.354 186.5 258.938 182.375 258.938 177.125V169.25C258.938 163.75 260.396 159.542 263.312 156.625C266.229 153.708 270.396 152.25 275.812 152.25H291.188Z" stroke="#595959" stroke-width="2" mask="url(#path-1-outside-1_681_909)"/>
<path d="M327.375 186.75V109.188C327.375 107.479 327.938 106.042 329.062 104.875C330.188 103.708 331.562 103.125 333.188 103.125H358.625C360.25 103.125 361.792 103.708 363.25 104.875C364.708 106.042 365.688 107.438 366.188 109.062L384.625 162.438L403.062 109.062C403.562 107.438 404.542 106.042 406 104.875C407.458 103.708 409 103.125 410.625 103.125H436.062C437.688 103.125 439.042 103.708 440.125 104.875C441.25 106.042 441.812 107.479 441.812 109.188V186.75C441.812 188.458 441.229 189.896 440.062 191.062C438.938 192.188 437.562 192.75 435.938 192.75H424.688C423.062 192.75 421.667 192.188 420.5 191.062C419.375 189.896 418.812 188.458 418.812 186.75V125.688L396.75 187.125C396.167 188.667 395.146 190 393.688 191.125C392.229 192.208 390.688 192.75 389.062 192.75H380.125C378.5 192.75 376.958 192.208 375.5 191.125C374.083 190 373.062 188.667 372.438 187.125L350.438 125.688V186.75C350.438 188.458 349.854 189.896 348.688 191.062C347.562 192.188 346.188 192.75 344.562 192.75H333.312C331.688 192.75 330.292 192.188 329.125 191.062C327.958 189.896 327.375 188.458 327.375 186.75Z" stroke="#595959" stroke-width="2" mask="url(#path-1-outside-1_681_909)"/>
<path d="M452.375 187L468.062 127.5C472.312 111.292 486.146 103.167 509.562 103.125H543.25C544.792 103.125 546.062 103.708 547.062 104.875C548.104 106.042 548.625 107.396 548.625 108.938V187C548.625 188.625 548.042 190 546.875 191.125C545.708 192.208 544.312 192.75 542.688 192.75H530.938C529.229 192.75 527.812 192.208 526.688 191.125C525.604 190 525.062 188.583 525.062 186.875V171.125H480.625L476.438 186.875C476.021 188.583 475.083 190 473.625 191.125C472.167 192.208 470.625 192.75 469 192.75H456.688C455.062 192.75 453.896 192.292 453.188 191.375C452.479 190.417 452.125 189.583 452.125 188.875C452.167 188.167 452.25 187.542 452.375 187ZM485.25 153.438H525.062V120.812H507.25C503.25 120.812 499.75 121.958 496.75 124.25C493.792 126.5 491.792 129.542 490.75 133.375L485.25 153.438Z" stroke="#595959" stroke-width="2" mask="url(#path-1-outside-1_681_909)"/>
<path d="M566.5 186.875V109.062C566.5 107.438 567.062 106.042 568.188 104.875C569.312 103.708 570.688 103.125 572.312 103.125H620C645.208 103.125 657.812 114.75 657.812 138C657.812 161.208 645.208 172.812 620 172.812H590.062V186.875C590.062 188.5 589.479 189.896 588.312 191.062C587.188 192.188 585.812 192.75 584.188 192.75H572.438C570.812 192.75 569.417 192.188 568.25 191.062C567.083 189.896 566.5 188.5 566.5 186.875ZM590.062 155.125H612.875C619.875 155.125 625.188 153.958 628.812 151.625C632.438 149.25 634.25 144.708 634.25 138C634.25 131.25 632.438 126.708 628.812 124.375C625.188 122 619.875 120.812 612.875 120.812H590.062V155.125Z" stroke="#595959" stroke-width="2" mask="url(#path-1-outside-1_681_909)"/>
<path d="M669.375 186.875V109.062C669.375 107.354 669.938 105.938 671.062 104.812C672.188 103.688 673.604 103.125 675.312 103.125H686.312C687.938 103.125 689.312 103.688 690.438 104.812C691.604 105.938 692.188 107.312 692.188 108.938V171.5L727.75 109.062C728.708 107.438 730.021 106.042 731.688 104.875C733.354 103.708 734.896 103.125 736.312 103.125H754.75C756.375 103.125 757.75 103.708 758.875 104.875C760 106.042 760.562 107.438 760.562 109.062V186.875C760.562 188.5 759.979 189.896 758.812 191.062C757.646 192.188 756.25 192.75 754.625 192.75H743.625C742 192.75 740.604 192.188 739.438 191.062C738.312 189.896 737.75 188.5 737.75 186.875V128.875L705.125 186.875C704.167 188.5 702.812 189.896 701.062 191.062C699.312 192.188 697.625 192.75 696 192.75H675.312C673.688 192.75 672.292 192.188 671.125 191.062C669.958 189.896 669.375 188.5 669.375 186.875Z" stroke="#595959" stroke-width="2" mask="url(#path-1-outside-1_681_909)"/>
<path d="M812.062 152.25C823.312 152.25 828.938 157.917 828.938 169.25V177.125C828.938 182.375 827.479 186.5 824.562 189.5C821.729 192.5 817.562 194 812.062 194H796.688C791.188 194 786.979 192.5 784.062 189.5C781.229 186.5 779.812 182.375 779.812 177.125V169.25C779.812 163.75 781.271 159.542 784.188 156.625C787.104 153.708 791.271 152.25 796.688 152.25H812.062Z" stroke="#595959" stroke-width="2" mask="url(#path-1-outside-1_681_909)"/>
</svg>
