<svg width="295" height="80" viewBox="0 0 295 80" fill="none" xmlns="http://www.w3.org/2000/svg">
<rect x="2" y="2" width="291" height="76" rx="38" fill="white" stroke="black" stroke-width="4"/>
<mask id="path-2-outside-1_766_257" maskUnits="userSpaceOnUse" x="104" y="28" width="85" height="25" fill="black">
<rect fill="white" x="104" y="28" width="85" height="25"/>
<path d="M107.676 33.3086C107.676 33.0039 107.785 32.7422 108.004 32.5234C108.223 32.3047 108.484 32.1953 108.789 32.1953H118.316C120.652 32.1953 122.375 32.8672 123.484 34.2109C124.102 34.9531 124.41 35.9023 124.41 37.0586C124.41 38.207 123.883 39.2109 122.828 40.0703C124.328 40.875 125.078 42.125 125.078 43.8203C125.078 45.5156 124.477 46.8047 123.273 47.6875C122.078 48.5625 120.609 49 118.867 49H108.789C108.484 49 108.223 48.8945 108.004 48.6836C107.785 48.4648 107.676 48.2031 107.676 47.8984V33.3086ZM112.094 45.8359H118.797C119.398 45.8359 119.859 45.6562 120.18 45.2969C120.5 44.9375 120.66 44.4453 120.66 43.8203C120.66 43.1953 120.5 42.7031 120.18 42.3438C119.859 41.9844 119.398 41.8047 118.797 41.8047H112.094V45.8359ZM112.094 38.7227H118.363C118.855 38.7227 119.25 38.5781 119.547 38.2891C119.844 37.9922 119.992 37.582 119.992 37.0586C119.992 36.5273 119.844 36.1133 119.547 35.8164C119.25 35.5195 118.855 35.3711 118.363 35.3711H112.094V38.7227ZM128.348 47.5469C127.129 46.4219 126.52 44.7656 126.52 42.5781C126.52 40.3828 127.129 38.7266 128.348 37.6094C129.566 36.4844 131.316 35.9219 133.598 35.9219C135.887 35.9219 137.641 36.4844 138.859 37.6094C140.078 38.7266 140.688 40.3828 140.688 42.5781C140.688 44.7656 140.078 46.4219 138.859 47.5469C137.641 48.6719 135.887 49.2344 133.598 49.2344C131.316 49.2344 129.566 48.6719 128.348 47.5469ZM131.312 39.5312C130.828 40.1641 130.586 41.1758 130.586 42.5664C130.586 43.957 130.828 44.9727 131.312 45.6133C131.797 46.2539 132.559 46.5742 133.598 46.5742C134.645 46.5742 135.41 46.2539 135.895 45.6133C136.387 44.9727 136.633 43.957 136.633 42.5664C136.633 41.1758 136.387 40.1641 135.895 39.5312C135.41 38.8984 134.645 38.582 133.598 38.582C132.559 38.582 131.797 38.8984 131.312 39.5312ZM142.855 48.2852V36.8828C142.855 36.6719 142.922 36.5 143.055 36.3672C143.195 36.2266 143.367 36.1562 143.57 36.1562H146.02C146.23 36.1562 146.402 36.2266 146.535 36.3672C146.676 36.5 146.746 36.6719 146.746 36.8828V44.582L150.871 37C150.996 36.7578 151.188 36.5586 151.445 36.4023C151.703 36.2383 151.953 36.1562 152.195 36.1562H155.477C155.688 36.1562 155.859 36.2266 155.992 36.3672C156.133 36.5 156.203 36.6719 156.203 36.8828V48.2852C156.203 48.4961 156.133 48.668 155.992 48.8008C155.859 48.9336 155.688 49 155.477 49H153.027C152.816 49 152.645 48.9336 152.512 48.8008C152.379 48.6602 152.312 48.4883 152.312 48.2852V40.5977L148.188 48.1562C148.062 48.3828 147.871 48.582 147.613 48.7539C147.355 48.918 147.105 49 146.863 49H143.57C143.359 49 143.188 48.9336 143.055 48.8008C142.922 48.668 142.855 48.4961 142.855 48.2852ZM145.586 31.7148C145.586 31.3164 145.805 31.1172 146.242 31.1172H147.121C147.504 31.1172 147.777 31.3164 147.941 31.7148C148.199 32.3555 148.727 32.6758 149.523 32.6758C150.328 32.6758 150.855 32.3555 151.105 31.7148C151.262 31.3164 151.535 31.1172 151.926 31.1172H152.816C153.246 31.1172 153.461 31.3164 153.461 31.7148C153.461 32.6289 153.098 33.3789 152.371 33.9648C151.645 34.5508 150.695 34.8438 149.523 34.8438C148.359 34.8438 147.41 34.5508 146.676 33.9648C145.949 33.3789 145.586 32.6289 145.586 31.7148ZM157.867 38.2773V36.8828C157.867 36.6719 157.934 36.5 158.066 36.3672C158.207 36.2266 158.383 36.1562 158.594 36.1562H170.137C170.348 36.1562 170.52 36.2266 170.652 36.3672C170.785 36.5 170.852 36.6719 170.852 36.8828V38.2773C170.852 38.4805 170.785 38.6523 170.652 38.793C170.52 38.9258 170.348 38.9922 170.137 38.9922H166.398V48.2852C166.398 48.4883 166.328 48.6602 166.188 48.8008C166.055 48.9336 165.883 49 165.672 49H163.059C162.848 49 162.672 48.9336 162.531 48.8008C162.398 48.6602 162.332 48.4883 162.332 48.2852V38.9922H158.594C158.383 38.9922 158.207 38.9258 158.066 38.793C157.934 38.6523 157.867 38.4805 157.867 38.2773ZM172.551 48.2852V36.8828C172.551 36.6719 172.617 36.5 172.75 36.3672C172.891 36.2266 173.062 36.1562 173.266 36.1562H175.715C175.926 36.1562 176.098 36.2266 176.23 36.3672C176.371 36.5 176.441 36.6719 176.441 36.8828V44.582L180.566 37C180.691 36.7578 180.883 36.5586 181.141 36.4023C181.398 36.2383 181.648 36.1562 181.891 36.1562H185.172C185.383 36.1562 185.555 36.2266 185.688 36.3672C185.828 36.5 185.898 36.6719 185.898 36.8828V48.2852C185.898 48.4961 185.828 48.668 185.688 48.8008C185.555 48.9336 185.383 49 185.172 49H182.723C182.512 49 182.34 48.9336 182.207 48.8008C182.074 48.6602 182.008 48.4883 182.008 48.2852V40.5977L177.883 48.1562C177.758 48.3828 177.566 48.582 177.309 48.7539C177.051 48.918 176.801 49 176.559 49H173.266C173.055 49 172.883 48.9336 172.75 48.8008C172.617 48.668 172.551 48.4961 172.551 48.2852Z"/>
</mask>
<path d="M107.676 33.3086C107.676 33.0039 107.785 32.7422 108.004 32.5234C108.223 32.3047 108.484 32.1953 108.789 32.1953H118.316C120.652 32.1953 122.375 32.8672 123.484 34.2109C124.102 34.9531 124.41 35.9023 124.41 37.0586C124.41 38.207 123.883 39.2109 122.828 40.0703C124.328 40.875 125.078 42.125 125.078 43.8203C125.078 45.5156 124.477 46.8047 123.273 47.6875C122.078 48.5625 120.609 49 118.867 49H108.789C108.484 49 108.223 48.8945 108.004 48.6836C107.785 48.4648 107.676 48.2031 107.676 47.8984V33.3086ZM112.094 45.8359H118.797C119.398 45.8359 119.859 45.6562 120.18 45.2969C120.5 44.9375 120.66 44.4453 120.66 43.8203C120.66 43.1953 120.5 42.7031 120.18 42.3438C119.859 41.9844 119.398 41.8047 118.797 41.8047H112.094V45.8359ZM112.094 38.7227H118.363C118.855 38.7227 119.25 38.5781 119.547 38.2891C119.844 37.9922 119.992 37.582 119.992 37.0586C119.992 36.5273 119.844 36.1133 119.547 35.8164C119.25 35.5195 118.855 35.3711 118.363 35.3711H112.094V38.7227ZM128.348 47.5469C127.129 46.4219 126.52 44.7656 126.52 42.5781C126.52 40.3828 127.129 38.7266 128.348 37.6094C129.566 36.4844 131.316 35.9219 133.598 35.9219C135.887 35.9219 137.641 36.4844 138.859 37.6094C140.078 38.7266 140.688 40.3828 140.688 42.5781C140.688 44.7656 140.078 46.4219 138.859 47.5469C137.641 48.6719 135.887 49.2344 133.598 49.2344C131.316 49.2344 129.566 48.6719 128.348 47.5469ZM131.312 39.5312C130.828 40.1641 130.586 41.1758 130.586 42.5664C130.586 43.957 130.828 44.9727 131.312 45.6133C131.797 46.2539 132.559 46.5742 133.598 46.5742C134.645 46.5742 135.41 46.2539 135.895 45.6133C136.387 44.9727 136.633 43.957 136.633 42.5664C136.633 41.1758 136.387 40.1641 135.895 39.5312C135.41 38.8984 134.645 38.582 133.598 38.582C132.559 38.582 131.797 38.8984 131.312 39.5312ZM142.855 48.2852V36.8828C142.855 36.6719 142.922 36.5 143.055 36.3672C143.195 36.2266 143.367 36.1562 143.57 36.1562H146.02C146.23 36.1562 146.402 36.2266 146.535 36.3672C146.676 36.5 146.746 36.6719 146.746 36.8828V44.582L150.871 37C150.996 36.7578 151.188 36.5586 151.445 36.4023C151.703 36.2383 151.953 36.1562 152.195 36.1562H155.477C155.688 36.1562 155.859 36.2266 155.992 36.3672C156.133 36.5 156.203 36.6719 156.203 36.8828V48.2852C156.203 48.4961 156.133 48.668 155.992 48.8008C155.859 48.9336 155.688 49 155.477 49H153.027C152.816 49 152.645 48.9336 152.512 48.8008C152.379 48.6602 152.312 48.4883 152.312 48.2852V40.5977L148.188 48.1562C148.062 48.3828 147.871 48.582 147.613 48.7539C147.355 48.918 147.105 49 146.863 49H143.57C143.359 49 143.188 48.9336 143.055 48.8008C142.922 48.668 142.855 48.4961 142.855 48.2852ZM145.586 31.7148C145.586 31.3164 145.805 31.1172 146.242 31.1172H147.121C147.504 31.1172 147.777 31.3164 147.941 31.7148C148.199 32.3555 148.727 32.6758 149.523 32.6758C150.328 32.6758 150.855 32.3555 151.105 31.7148C151.262 31.3164 151.535 31.1172 151.926 31.1172H152.816C153.246 31.1172 153.461 31.3164 153.461 31.7148C153.461 32.6289 153.098 33.3789 152.371 33.9648C151.645 34.5508 150.695 34.8438 149.523 34.8438C148.359 34.8438 147.41 34.5508 146.676 33.9648C145.949 33.3789 145.586 32.6289 145.586 31.7148ZM157.867 38.2773V36.8828C157.867 36.6719 157.934 36.5 158.066 36.3672C158.207 36.2266 158.383 36.1562 158.594 36.1562H170.137C170.348 36.1562 170.52 36.2266 170.652 36.3672C170.785 36.5 170.852 36.6719 170.852 36.8828V38.2773C170.852 38.4805 170.785 38.6523 170.652 38.793C170.52 38.9258 170.348 38.9922 170.137 38.9922H166.398V48.2852C166.398 48.4883 166.328 48.6602 166.188 48.8008C166.055 48.9336 165.883 49 165.672 49H163.059C162.848 49 162.672 48.9336 162.531 48.8008C162.398 48.6602 162.332 48.4883 162.332 48.2852V38.9922H158.594C158.383 38.9922 158.207 38.9258 158.066 38.793C157.934 38.6523 157.867 38.4805 157.867 38.2773ZM172.551 48.2852V36.8828C172.551 36.6719 172.617 36.5 172.75 36.3672C172.891 36.2266 173.062 36.1562 173.266 36.1562H175.715C175.926 36.1562 176.098 36.2266 176.23 36.3672C176.371 36.5 176.441 36.6719 176.441 36.8828V44.582L180.566 37C180.691 36.7578 180.883 36.5586 181.141 36.4023C181.398 36.2383 181.648 36.1562 181.891 36.1562H185.172C185.383 36.1562 185.555 36.2266 185.688 36.3672C185.828 36.5 185.898 36.6719 185.898 36.8828V48.2852C185.898 48.4961 185.828 48.668 185.688 48.8008C185.555 48.9336 185.383 49 185.172 49H182.723C182.512 49 182.34 48.9336 182.207 48.8008C182.074 48.6602 182.008 48.4883 182.008 48.2852V40.5977L177.883 48.1562C177.758 48.3828 177.566 48.582 177.309 48.7539C177.051 48.918 176.801 49 176.559 49H173.266C173.055 49 172.883 48.9336 172.75 48.8008C172.617 48.668 172.551 48.4961 172.551 48.2852Z" fill="white"/>
<path d="M123.484 34.2109L121.171 36.1209L121.178 36.1291L123.484 34.2109ZM122.828 40.0703L120.933 37.7446L117.445 40.5869L121.41 42.7139L122.828 40.0703ZM123.273 47.6875L125.045 50.1082L125.048 50.1062L123.273 47.6875ZM108.004 48.6836L105.883 50.8049L105.902 50.8242L105.921 50.8431L108.004 48.6836ZM112.094 45.8359H109.094V48.8359H112.094V45.8359ZM112.094 41.8047V38.8047H109.094V41.8047H112.094ZM112.094 38.7227H109.094V41.7227H112.094V38.7227ZM119.547 38.2891L121.64 40.4385L121.654 40.4245L121.668 40.4104L119.547 38.2891ZM112.094 35.3711V32.3711H109.094V35.3711H112.094ZM110.676 33.3086C110.676 33.5236 110.635 33.7785 110.526 34.0406C110.417 34.3017 110.267 34.503 110.125 34.6448L105.883 30.4021C105.111 31.1738 104.676 32.1947 104.676 33.3086H110.676ZM110.125 34.6448C109.983 34.7865 109.782 34.9362 109.521 35.0454C109.259 35.1549 109.004 35.1953 108.789 35.1953V29.1953C107.675 29.1953 106.654 29.6304 105.883 30.4021L110.125 34.6448ZM108.789 35.1953H118.316V29.1953H108.789V35.1953ZM118.316 35.1953C120.082 35.1953 120.81 35.6837 121.171 36.1209L125.798 32.301C123.94 30.0507 121.223 29.1953 118.316 29.1953V35.1953ZM121.178 36.1291C121.262 36.2309 121.41 36.4585 121.41 37.0586H127.41C127.41 35.3461 126.941 33.6753 125.791 32.2928L121.178 36.1291ZM121.41 37.0586C121.41 37.1349 121.432 37.338 120.933 37.7446L124.723 42.396C126.333 41.0839 127.41 39.2791 127.41 37.0586H121.41ZM121.41 42.7139C121.764 42.9039 121.89 43.0669 121.943 43.1548C121.996 43.2421 122.078 43.4265 122.078 43.8203H128.078C128.078 42.5188 127.786 41.2306 127.088 40.0678C126.391 38.9058 125.392 38.0415 124.246 37.4267L121.41 42.7139ZM122.078 43.8203C122.078 44.7095 121.819 45.034 121.499 45.2688L125.048 50.1062C127.134 48.5754 128.078 46.3217 128.078 43.8203H122.078ZM121.501 45.2668C120.906 45.7023 120.088 46 118.867 46V52C121.131 52 123.25 51.4227 125.045 50.1082L121.501 45.2668ZM118.867 46H108.789V52H118.867V46ZM108.789 46C108.99 46 109.232 46.0363 109.486 46.1383C109.739 46.2404 109.94 46.3828 110.086 46.5241L105.921 50.8431C106.701 51.5948 107.71 52 108.789 52V46ZM110.125 46.5623C110.267 46.704 110.417 46.9053 110.526 47.1665C110.635 47.4285 110.676 47.6834 110.676 47.8984H104.676C104.676 49.0124 105.111 50.0332 105.883 50.8049L110.125 46.5623ZM110.676 47.8984V33.3086H104.676V47.8984H110.676ZM112.094 48.8359H118.797V42.8359H112.094V48.8359ZM118.797 48.8359C120.024 48.8359 121.393 48.4445 122.419 47.293L117.94 43.3008C118.104 43.1171 118.306 42.9832 118.504 42.906C118.687 42.8347 118.803 42.8359 118.797 42.8359V48.8359ZM122.419 47.293C123.361 46.2365 123.66 44.9564 123.66 43.8203H117.66C117.66 43.8808 117.652 43.8383 117.687 43.7299C117.726 43.6116 117.804 43.4535 117.94 43.3008L122.419 47.293ZM123.66 43.8203C123.66 42.6843 123.361 41.4041 122.419 40.3476L117.94 44.3399C117.804 44.1871 117.726 44.0291 117.687 43.9107C117.652 43.8023 117.66 43.7598 117.66 43.8203H123.66ZM122.419 40.3476C121.393 39.1961 120.024 38.8047 118.797 38.8047V44.8047C118.803 44.8047 118.687 44.8059 118.504 44.7346C118.306 44.6574 118.104 44.5235 117.94 44.3399L122.419 40.3476ZM118.797 38.8047H112.094V44.8047H118.797V38.8047ZM109.094 41.8047V45.8359H115.094V41.8047H109.094ZM112.094 41.7227H118.363V35.7227H112.094V41.7227ZM118.363 41.7227C119.48 41.7227 120.679 41.3735 121.64 40.4385L117.454 36.1396C117.613 35.9852 117.803 35.8683 117.996 35.7973C118.181 35.7297 118.316 35.7227 118.363 35.7227V41.7227ZM121.668 40.4104C122.659 39.4194 122.992 38.1701 122.992 37.0586H116.992C116.992 37.0399 116.995 36.9183 117.06 36.7379C117.129 36.5458 117.251 36.3426 117.426 36.1677L121.668 40.4104ZM122.992 37.0586C122.992 35.9538 122.667 34.6942 121.668 33.6951L117.426 37.9377C117.246 37.758 117.125 37.5516 117.057 37.362C116.993 37.1846 116.992 37.0685 116.992 37.0586H122.992ZM121.668 33.6951C120.712 32.7391 119.503 32.3711 118.363 32.3711V38.3711C118.308 38.3711 118.164 38.3625 117.972 38.2903C117.771 38.2147 117.58 38.0926 117.426 37.9377L121.668 33.6951ZM118.363 32.3711H112.094V38.3711H118.363V32.3711ZM109.094 35.3711V38.7227H115.094V35.3711H109.094ZM128.348 37.6094L130.375 39.8209L130.382 39.8138L128.348 37.6094ZM138.859 37.6094L136.825 39.8138L136.832 39.8208L138.859 37.6094ZM135.895 45.6133L133.516 43.7856L133.509 43.7947L133.502 43.804L135.895 45.6133ZM135.895 39.5312L133.512 41.3547L133.519 41.3639L133.526 41.3731L135.895 39.5312ZM130.382 45.3425C129.959 44.9512 129.52 44.2088 129.52 42.5781H123.52C123.52 45.3225 124.299 47.8926 126.313 49.7513L130.382 45.3425ZM129.52 42.5781C129.52 40.9345 129.961 40.2001 130.375 39.8208L126.32 35.3979C124.297 37.2531 123.52 39.8311 123.52 42.5781H129.52ZM130.382 39.8138C130.868 39.3658 131.785 38.9219 133.598 38.9219V32.9219C130.848 32.9219 128.265 33.6029 126.313 35.405L130.382 39.8138ZM133.598 38.9219C135.422 38.9219 136.341 39.3674 136.825 39.8138L140.894 35.405C138.94 33.6014 136.352 32.9219 133.598 32.9219V38.9219ZM136.832 39.8208C137.246 40.2001 137.688 40.9345 137.688 42.5781H143.688C143.688 39.8311 142.91 37.2531 140.887 35.3979L136.832 39.8208ZM137.688 42.5781C137.688 44.2088 137.248 44.9512 136.825 45.3425L140.894 49.7513C142.908 47.8926 143.688 45.3225 143.688 42.5781H137.688ZM136.825 45.3425C136.341 45.7889 135.422 46.2344 133.598 46.2344V52.2344C136.352 52.2344 138.94 51.5549 140.894 49.7513L136.825 45.3425ZM133.598 46.2344C131.785 46.2344 130.868 45.7904 130.382 45.3425L126.313 49.7513C128.265 51.5533 130.848 52.2344 133.598 52.2344V46.2344ZM128.93 37.7078C127.842 39.1295 127.586 40.9557 127.586 42.5664H133.586C133.586 42.0329 133.634 41.6783 133.685 41.4631C133.737 41.2463 133.773 41.2524 133.695 41.3547L128.93 37.7078ZM127.586 42.5664C127.586 44.1821 127.844 46.0001 128.92 47.4226L133.705 43.804C133.776 43.8978 133.738 43.8953 133.686 43.6752C133.634 43.4563 133.586 43.0995 133.586 42.5664H127.586ZM128.92 47.4226C130.131 49.0253 131.921 49.5742 133.598 49.5742V43.5742C133.378 43.5742 133.341 43.5396 133.41 43.5685C133.446 43.5839 133.5 43.6121 133.56 43.658C133.62 43.7043 133.669 43.7557 133.705 43.804L128.92 47.4226ZM133.598 49.5742C135.273 49.5742 137.071 49.0309 138.288 47.4226L133.502 43.804C133.539 43.7541 133.59 43.7018 133.65 43.6553C133.71 43.6091 133.764 43.5812 133.799 43.5664C133.865 43.5387 133.824 43.5742 133.598 43.5742V49.5742ZM138.273 47.441C139.369 46.0154 139.633 44.189 139.633 42.5664H133.633C133.633 43.0968 133.585 43.4497 133.533 43.6646C133.48 43.8799 133.443 43.8796 133.516 43.7856L138.273 47.441ZM139.633 42.5664C139.633 40.9488 139.371 39.1142 138.263 37.6894L133.526 41.3731C133.447 41.2707 133.482 41.2619 133.533 41.4737C133.585 41.6849 133.633 42.0356 133.633 42.5664H139.633ZM138.277 37.7078C137.056 36.1127 135.26 35.582 133.598 35.582V41.582C133.828 41.582 133.874 41.6178 133.811 41.5919C133.777 41.578 133.724 41.5509 133.664 41.5052C133.603 41.459 133.552 41.4063 133.512 41.3547L138.277 37.7078ZM133.598 35.582C131.934 35.582 130.147 36.1183 128.93 37.7078L133.695 41.3547C133.656 41.4047 133.606 41.4565 133.546 41.5024C133.486 41.548 133.433 41.5753 133.398 41.5898C133.333 41.6169 133.374 41.582 133.598 41.582V35.582ZM146.535 36.3672L144.354 38.4271L144.413 38.4894L144.475 38.5482L146.535 36.3672ZM146.746 44.582H143.746L149.381 46.0157L146.746 44.582ZM150.871 37L153.506 38.4337L153.522 38.405L153.537 38.3759L150.871 37ZM151.445 36.4023L153 38.9679L153.028 38.9509L153.056 38.9333L151.445 36.4023ZM155.992 36.3672L153.811 38.4271L153.87 38.4894L153.932 38.5482L155.992 36.3672ZM155.992 48.8008L153.932 46.6197L153.901 46.6492L153.871 46.6795L155.992 48.8008ZM152.512 48.8008L150.331 50.8607L150.36 50.8918L150.39 50.9221L152.512 48.8008ZM152.312 40.5977H155.312L149.679 39.1605L152.312 40.5977ZM148.188 48.1562L150.814 49.6055L150.821 49.5934L148.188 48.1562ZM147.613 48.7539L149.224 51.2849L149.251 51.2678L149.277 51.2501L147.613 48.7539ZM147.941 31.7148L150.724 30.5948L150.72 30.5837L150.715 30.5726L147.941 31.7148ZM151.105 31.7148L148.313 30.6196L148.311 30.6242L151.105 31.7148ZM146.676 33.9648L144.793 36.3001L144.799 36.305L144.805 36.3099L146.676 33.9648ZM145.855 48.2852V36.8828H139.855V48.2852H145.855ZM145.855 36.8828C145.855 37.0941 145.822 37.3718 145.704 37.6769C145.583 37.9888 145.399 38.2651 145.176 38.4885L140.933 34.2459C140.167 35.0126 139.855 35.9831 139.855 36.8828H145.855ZM145.176 38.4885C144.985 38.6797 144.733 38.8595 144.425 38.9856C144.118 39.1113 143.822 39.1562 143.57 39.1562V33.1562C142.591 33.1562 141.65 33.5293 140.933 34.2459L145.176 38.4885ZM143.57 39.1562H146.02V33.1562H143.57V39.1562ZM146.02 39.1562C145.788 39.1562 145.491 39.1167 145.171 38.9856C144.845 38.8523 144.569 38.6541 144.354 38.4271L148.716 34.3073C147.962 33.5088 146.973 33.1562 146.02 33.1562V39.1562ZM144.475 38.5482C144.248 38.3338 144.05 38.0576 143.917 37.7316C143.786 37.4113 143.746 37.1143 143.746 36.8828H149.746C149.746 35.9295 149.394 34.9403 148.595 34.1861L144.475 38.5482ZM143.746 36.8828V44.582H149.746V36.8828H143.746ZM149.381 46.0157L153.506 38.4337L148.236 35.5663L144.111 43.1483L149.381 46.0157ZM153.537 38.3759C153.382 38.6762 153.164 38.869 153 38.9679L149.89 33.8368C149.211 34.2482 148.61 34.8394 148.205 35.6241L153.537 38.3759ZM153.056 38.9333C152.958 38.9959 152.656 39.1562 152.195 39.1562V33.1562C151.25 33.1562 150.449 33.4807 149.835 33.8714L153.056 38.9333ZM152.195 39.1562H155.477V33.1562H152.195V39.1562ZM155.477 39.1562C155.245 39.1562 154.948 39.1167 154.628 38.9856C154.302 38.8523 154.026 38.6541 153.811 38.4271L158.173 34.3073C157.419 33.5088 156.43 33.1562 155.477 33.1562V39.1562ZM153.932 38.5482C153.705 38.3338 153.507 38.0576 153.374 37.7316C153.243 37.4113 153.203 37.1143 153.203 36.8828H159.203C159.203 35.9295 158.851 34.9403 158.052 34.1861L153.932 38.5482ZM153.203 36.8828V48.2852H159.203V36.8828H153.203ZM153.203 48.2852C153.203 48.0537 153.243 47.7567 153.374 47.4364C153.507 47.1103 153.705 46.8342 153.932 46.6197L158.052 50.9818C158.851 50.2277 159.203 49.2384 159.203 48.2852H153.203ZM153.871 46.6795C154.094 46.456 154.371 46.2723 154.682 46.1518C154.988 46.0339 155.265 46 155.477 46V52C156.376 52 157.347 51.6889 158.114 50.9221L153.871 46.6795ZM155.477 46H153.027V52H155.477V46ZM153.027 46C153.239 46 153.516 46.0339 153.821 46.1518C154.133 46.2723 154.41 46.456 154.633 46.6795L150.39 50.9221C151.157 51.6889 152.128 52 153.027 52V46ZM154.693 46.7409C154.88 46.9394 155.047 47.19 155.161 47.4852C155.274 47.7778 155.312 48.0548 155.312 48.2852H149.312C149.312 49.2119 149.644 50.1331 150.331 50.8607L154.693 46.7409ZM155.312 48.2852V40.5977H149.312V48.2852H155.312ZM149.679 39.1605L145.554 46.7191L150.821 49.5934L154.946 42.0348L149.679 39.1605ZM145.561 46.707C145.71 46.437 145.885 46.3003 145.949 46.2578L149.277 51.2501C149.857 50.8637 150.415 50.3286 150.814 49.6055L145.561 46.707ZM146.003 46.2229C146.101 46.1604 146.403 46 146.863 46V52C147.808 52 148.61 51.6756 149.224 51.2849L146.003 46.2229ZM146.863 46H143.57V52H146.863V46ZM143.57 46C143.782 46 144.059 46.0339 144.364 46.1518C144.676 46.2723 144.953 46.456 145.176 46.6795L140.933 50.9221C141.7 51.6889 142.671 52 143.57 52V46ZM145.176 46.6795C145.399 46.9029 145.583 47.1792 145.704 47.4911C145.822 47.7962 145.855 48.0738 145.855 48.2852H139.855C139.855 49.1848 140.167 50.1553 140.933 50.9221L145.176 46.6795ZM148.586 31.7148C148.586 32.0541 148.48 32.8381 147.77 33.4846C147.113 34.0827 146.42 34.1172 146.242 34.1172V28.1172C145.627 28.1172 144.605 28.2513 143.73 29.0486C142.801 29.8943 142.586 30.9772 142.586 31.7148H148.586ZM146.242 34.1172H147.121V28.1172H146.242V34.1172ZM147.121 34.1172C146.765 34.1172 146.289 34.0138 145.847 33.6913C145.428 33.3865 145.239 33.0318 145.167 32.8571L150.715 30.5726C150.479 29.9995 150.072 29.3459 149.38 28.8419C148.664 28.3202 147.86 28.1172 147.121 28.1172V34.1172ZM145.158 32.8349C145.499 33.681 146.09 34.4633 146.973 34.9996C147.824 35.5168 148.733 35.6758 149.523 35.6758V29.6758C149.524 29.6758 149.538 29.6758 149.565 29.6787C149.591 29.6816 149.631 29.6875 149.682 29.6998C149.786 29.725 149.929 29.7753 150.088 29.8715C150.443 30.0875 150.642 30.3893 150.724 30.5948L145.158 32.8349ZM149.523 35.6758C150.312 35.6758 151.224 35.5193 152.08 34.9996C152.971 34.4584 153.565 33.6654 153.9 32.8055L148.311 30.6242C148.396 30.405 148.601 30.0924 148.965 29.8715C149.293 29.6721 149.54 29.6758 149.523 29.6758V35.6758ZM153.898 32.8101C153.823 33.0027 153.627 33.3758 153.194 33.6913C152.741 34.0214 152.264 34.1172 151.926 34.1172V28.1172C151.197 28.1172 150.388 28.3126 149.661 28.8419C148.955 29.3567 148.544 30.0285 148.313 30.6196L153.898 32.8101ZM151.926 34.1172H152.816V28.1172H151.926V34.1172ZM152.816 34.1172C152.623 34.1172 151.918 34.0769 151.26 33.4664C150.559 32.8162 150.461 32.0386 150.461 31.7148H156.461C156.461 30.9926 156.256 29.9162 155.34 29.0668C154.466 28.257 153.44 28.1172 152.816 28.1172V34.1172ZM150.461 31.7148C150.461 31.7438 150.458 31.7467 150.462 31.7298C150.466 31.7119 150.474 31.685 150.489 31.6551C150.503 31.6253 150.517 31.6059 150.523 31.5982C150.529 31.5914 150.521 31.603 150.488 31.6296L154.254 36.3001C155.67 35.1586 156.461 33.5582 156.461 31.7148H150.461ZM150.488 31.6296C150.419 31.685 150.189 31.8438 149.523 31.8438V37.8438C151.201 37.8438 152.87 37.4166 154.254 36.3001L150.488 31.6296ZM149.523 31.8438C148.873 31.8438 148.633 31.6883 148.547 31.6198L144.805 36.3099C146.188 37.4133 147.846 37.8438 149.523 37.8438V31.8438ZM148.559 31.6296C148.526 31.603 148.518 31.5914 148.524 31.5982C148.53 31.6059 148.544 31.6253 148.558 31.6551C148.573 31.685 148.581 31.7119 148.585 31.7298C148.589 31.7467 148.586 31.7438 148.586 31.7148H142.586C142.586 33.5582 143.377 35.1586 144.793 36.3001L148.559 31.6296ZM170.652 36.3672L168.471 38.4271L168.501 38.4582L168.531 38.4885L170.652 36.3672ZM170.652 38.793L172.774 40.9143L172.804 40.884L172.833 40.8528L170.652 38.793ZM166.398 38.9922V35.9922H163.398V38.9922H166.398ZM162.531 48.8008L160.35 50.8607L160.409 50.923L160.471 50.9818L162.531 48.8008ZM162.332 38.9922H165.332V35.9922H162.332V38.9922ZM158.066 38.793L155.885 40.8528L155.944 40.9152L156.007 40.974L158.066 38.793ZM160.867 38.2773V36.8828H154.867V38.2773H160.867ZM160.867 36.8828C160.867 37.0941 160.833 37.3718 160.715 37.6769C160.595 37.9888 160.411 38.2651 160.188 38.4885L155.945 34.2459C155.178 35.0126 154.867 35.9831 154.867 36.8828H160.867ZM160.188 38.4885C159.986 38.6907 159.726 38.8711 159.418 38.9944C159.113 39.1163 158.826 39.1562 158.594 39.1562V33.1562C157.641 33.1562 156.685 33.5059 155.945 34.2459L160.188 38.4885ZM158.594 39.1562H170.137V33.1562H158.594V39.1562ZM170.137 39.1562C169.905 39.1562 169.608 39.1167 169.288 38.9856C168.962 38.8523 168.686 38.6541 168.471 38.4271L172.833 34.3073C172.079 33.5088 171.09 33.1562 170.137 33.1562V39.1562ZM168.531 38.4885C168.308 38.2651 168.124 37.9888 168.003 37.6769C167.885 37.3718 167.852 37.0941 167.852 36.8828H173.852C173.852 35.9831 173.54 35.0126 172.774 34.2459L168.531 38.4885ZM167.852 36.8828V38.2773H173.852V36.8828H167.852ZM167.852 38.2773C167.852 38.047 167.89 37.77 168.003 37.4774C168.117 37.1822 168.284 36.9315 168.471 36.7331L172.833 40.8528C173.521 40.1253 173.852 39.2041 173.852 38.2773H167.852ZM168.531 36.6716C168.754 36.4482 169.031 36.2645 169.343 36.144C169.648 36.0261 169.925 35.9922 170.137 35.9922V41.9922C171.036 41.9922 172.007 41.6811 172.774 40.9143L168.531 36.6716ZM170.137 35.9922H166.398V41.9922H170.137V35.9922ZM163.398 38.9922V48.2852H169.398V38.9922H163.398ZM163.398 48.2852C163.398 48.0339 163.443 47.7376 163.569 47.4305C163.695 47.1221 163.875 46.8706 164.066 46.6795L168.309 50.9221C169.025 50.2055 169.398 49.2649 169.398 48.2852H163.398ZM164.066 46.6795C164.29 46.456 164.566 46.2723 164.878 46.1518C165.183 46.0339 165.461 46 165.672 46V52C166.572 52 167.542 51.6889 168.309 50.9221L164.066 46.6795ZM165.672 46H163.059V52H165.672V46ZM163.059 46C163.271 46 163.539 46.0343 163.829 46.1438C164.123 46.255 164.382 46.4218 164.591 46.6197L160.471 50.9818C161.222 51.6904 162.157 52 163.059 52V46ZM164.712 46.7409C164.9 46.9394 165.066 47.19 165.18 47.4852C165.293 47.7778 165.332 48.0548 165.332 48.2852H159.332C159.332 49.2119 159.663 50.1331 160.35 50.8607L164.712 46.7409ZM165.332 48.2852V38.9922H159.332V48.2852H165.332ZM162.332 35.9922H158.594V41.9922H162.332V35.9922ZM158.594 35.9922C158.806 35.9922 159.074 36.0265 159.364 36.136C159.658 36.2472 159.917 36.414 160.126 36.6119L156.007 40.974C156.757 41.6825 157.693 41.9922 158.594 41.9922V35.9922ZM160.247 36.7331C160.435 36.9315 160.601 37.1822 160.715 37.4774C160.828 37.77 160.867 38.047 160.867 38.2773H154.867C154.867 39.2041 155.198 40.1253 155.885 40.8528L160.247 36.7331ZM176.23 36.3672L174.049 38.4271L174.108 38.4894L174.171 38.5482L176.23 36.3672ZM176.441 44.582H173.441L179.077 46.0157L176.441 44.582ZM180.566 37L183.202 38.4337L183.217 38.405L183.232 38.3759L180.566 37ZM181.141 36.4023L182.696 38.9679L182.724 38.9509L182.751 38.9333L181.141 36.4023ZM185.688 36.3672L183.506 38.4271L183.565 38.4894L183.628 38.5482L185.688 36.3672ZM185.688 48.8008L183.628 46.6197L183.596 46.6492L183.566 46.6795L185.688 48.8008ZM182.207 48.8008L180.026 50.8607L180.055 50.8918L180.086 50.9221L182.207 48.8008ZM182.008 40.5977H185.008L179.374 39.1605L182.008 40.5977ZM177.883 48.1562L180.51 49.6055L180.516 49.5934L177.883 48.1562ZM177.309 48.7539L178.919 51.2849L178.946 51.2678L178.973 51.2501L177.309 48.7539ZM175.551 48.2852V36.8828H169.551V48.2852H175.551ZM175.551 36.8828C175.551 37.0941 175.517 37.3718 175.399 37.6769C175.278 37.9888 175.095 38.2651 174.871 38.4885L170.629 34.2459C169.862 35.0126 169.551 35.9831 169.551 36.8828H175.551ZM174.871 38.4885C174.68 38.6797 174.429 38.8595 174.12 38.9856C173.813 39.1113 173.517 39.1562 173.266 39.1562V33.1562C172.286 33.1562 171.345 33.5293 170.629 34.2459L174.871 38.4885ZM173.266 39.1562H175.715V33.1562H173.266V39.1562ZM175.715 39.1562C175.483 39.1562 175.186 39.1167 174.866 38.9856C174.54 38.8523 174.264 38.6541 174.049 38.4271L178.412 34.3073C177.657 33.5088 176.668 33.1562 175.715 33.1562V39.1562ZM174.171 38.5482C173.944 38.3338 173.745 38.0576 173.612 37.7316C173.481 37.4113 173.441 37.1143 173.441 36.8828H179.441C179.441 35.9295 179.089 34.9403 178.29 34.1861L174.171 38.5482ZM173.441 36.8828V44.582H179.441V36.8828H173.441ZM179.077 46.0157L183.202 38.4337L177.931 35.5663L173.806 43.1483L179.077 46.0157ZM183.232 38.3759C183.077 38.6762 182.859 38.869 182.696 38.9679L179.586 33.8368C178.907 34.2482 178.306 34.8394 177.901 35.6241L183.232 38.3759ZM182.751 38.9333C182.653 38.9959 182.351 39.1562 181.891 39.1562V33.1562C180.946 33.1562 180.144 33.4807 179.53 33.8714L182.751 38.9333ZM181.891 39.1562H185.172V33.1562H181.891V39.1562ZM185.172 39.1562C184.94 39.1562 184.643 39.1167 184.323 38.9856C183.997 38.8523 183.721 38.6541 183.506 38.4271L187.869 34.3073C187.114 33.5088 186.125 33.1562 185.172 33.1562V39.1562ZM183.628 38.5482C183.401 38.3338 183.202 38.0576 183.069 37.7316C182.938 37.4113 182.898 37.1143 182.898 36.8828H188.898C188.898 35.9295 188.546 34.9403 187.747 34.1861L183.628 38.5482ZM182.898 36.8828V48.2852H188.898V36.8828H182.898ZM182.898 48.2852C182.898 48.0537 182.938 47.7567 183.069 47.4364C183.202 47.1103 183.401 46.8342 183.628 46.6197L187.747 50.9818C188.546 50.2277 188.898 49.2384 188.898 48.2852H182.898ZM183.566 46.6795C183.79 46.456 184.066 46.2723 184.378 46.1518C184.683 46.0339 184.961 46 185.172 46V52C186.072 52 187.042 51.6889 187.809 50.9221L183.566 46.6795ZM185.172 46H182.723V52H185.172V46ZM182.723 46C182.934 46 183.212 46.0339 183.517 46.1518C183.829 46.2723 184.105 46.456 184.328 46.6795L180.086 50.9221C180.852 51.6889 181.823 52 182.723 52V46ZM184.388 46.7409C184.575 46.9394 184.742 47.19 184.856 47.4852C184.969 47.7778 185.008 48.0548 185.008 48.2852H179.008C179.008 49.2119 179.339 50.1331 180.026 50.8607L184.388 46.7409ZM185.008 48.2852V40.5977H179.008V48.2852H185.008ZM179.374 39.1605L175.249 46.7191L180.516 49.5934L184.641 42.0348L179.374 39.1605ZM175.256 46.707C175.405 46.437 175.581 46.3003 175.644 46.2578L178.973 51.2501C179.552 50.8637 180.111 50.3286 180.51 49.6055L175.256 46.707ZM175.698 46.2229C175.796 46.1604 176.098 46 176.559 46V52C177.504 52 178.305 51.6756 178.919 51.2849L175.698 46.2229ZM176.559 46H173.266V52H176.559V46ZM173.266 46C173.477 46 173.755 46.0339 174.06 46.1518C174.372 46.2723 174.648 46.456 174.871 46.6795L170.629 50.9221C171.395 51.6889 172.366 52 173.266 52V46ZM174.871 46.6795C175.095 46.9029 175.278 47.1792 175.399 47.4911C175.517 47.7962 175.551 48.0738 175.551 48.2852H169.551C169.551 49.1848 169.862 50.1553 170.629 50.9221L174.871 46.6795Z" fill="black" mask="url(#path-2-outside-1_766_257)"/>
</svg>
