<svg width="415" height="116" viewBox="0 0 415 116" fill="none" xmlns="http://www.w3.org/2000/svg">
<rect x="2.57129" y="2" width="410.286" height="112" rx="38" fill="white" stroke="black" stroke-width="4"/>
<mask id="path-2-outside-1_761_139" maskUnits="userSpaceOnUse" x="137.771" y="38.0859" width="139" height="39" fill="black">
<rect fill="white" x="137.771" y="38.0859" width="139" height="39"/>
<path d="M142.548 46.083C142.548 45.5781 142.729 45.1444 143.092 44.7819C143.454 44.4194 143.888 44.2382 144.393 44.2382H160.181C164.052 44.2382 166.907 45.3516 168.745 47.5783C169.768 48.8083 170.279 50.3812 170.279 52.2973C170.279 54.2004 169.405 55.8641 167.658 57.2882C170.143 58.6217 171.386 60.6931 171.386 63.5025C171.386 66.3118 170.389 68.448 168.396 69.9109C166.415 71.3609 163.981 72.0859 161.094 72.0859H144.393C143.888 72.0859 143.454 71.9112 143.092 71.5616C142.729 71.1991 142.548 70.7654 142.548 70.2605V46.083ZM149.869 66.8426H160.977C161.974 66.8426 162.738 66.5449 163.269 65.9493C163.8 65.3538 164.065 64.5382 164.065 63.5025C164.065 62.4667 163.8 61.6511 163.269 61.0556C162.738 60.46 161.974 60.1623 160.977 60.1623H149.869V66.8426ZM149.869 55.0549H160.259C161.074 55.0549 161.728 54.8154 162.22 54.3364C162.712 53.8444 162.958 53.1647 162.958 52.2973C162.958 51.417 162.712 50.7308 162.22 50.2388C161.728 49.7469 161.074 49.5009 160.259 49.5009H149.869V55.0549ZM176.804 69.6779C174.785 67.8136 173.775 65.069 173.775 61.444C173.775 57.806 174.785 55.0614 176.804 53.21C178.824 51.3458 181.724 50.4136 185.504 50.4136C189.298 50.4136 192.204 51.3458 194.224 53.21C196.243 55.0614 197.253 57.806 197.253 61.444C197.253 65.069 196.243 67.8136 194.224 69.6779C192.204 71.5422 189.298 72.4743 185.504 72.4743C181.724 72.4743 178.824 71.5422 176.804 69.6779ZM181.717 56.3949C180.915 57.4435 180.513 59.1201 180.513 61.4246C180.513 63.729 180.915 65.4121 181.717 66.4737C182.52 67.5353 183.782 68.0661 185.504 68.0661C187.239 68.0661 188.508 67.5353 189.311 66.4737C190.126 65.4121 190.534 63.729 190.534 61.4246C190.534 59.1201 190.126 57.4435 189.311 56.3949C188.508 55.3462 187.239 54.8219 185.504 54.8219C183.782 54.8219 182.52 55.3462 181.717 56.3949ZM200.846 70.9013V52.006C200.846 51.6565 200.956 51.3717 201.176 51.1516C201.409 50.9185 201.694 50.802 202.03 50.802H206.089C206.439 50.802 206.723 50.9185 206.944 51.1516C207.177 51.3717 207.293 51.6565 207.293 52.006V64.7647L214.129 52.2002C214.336 51.7989 214.653 51.4687 215.08 51.2098C215.508 50.9379 215.922 50.802 216.323 50.802H221.761C222.11 50.802 222.395 50.9185 222.615 51.1516C222.848 51.3717 222.965 51.6565 222.965 52.006V70.9013C222.965 71.2509 222.848 71.5357 222.615 71.7558C222.395 71.9759 222.11 72.0859 221.761 72.0859H217.702C217.352 72.0859 217.068 71.9759 216.848 71.7558C216.627 71.5228 216.517 71.2379 216.517 70.9013V58.1621L209.682 70.6877C209.475 71.0632 209.157 71.3933 208.73 71.6781C208.303 71.95 207.889 72.0859 207.487 72.0859H202.03C201.681 72.0859 201.396 71.9759 201.176 71.7558C200.956 71.5357 200.846 71.2509 200.846 70.9013ZM205.371 43.442C205.371 42.7817 205.733 42.4516 206.458 42.4516H207.915C208.549 42.4516 209.002 42.7817 209.274 43.442C209.701 44.5036 210.575 45.0344 211.896 45.0344C213.229 45.0344 214.103 44.5036 214.517 43.442C214.776 42.7817 215.229 42.4516 215.877 42.4516H217.352C218.065 42.4516 218.421 42.7817 218.421 43.442C218.421 44.9567 217.819 46.1996 216.615 47.1705C215.411 48.1415 213.838 48.627 211.896 48.627C209.967 48.627 208.394 48.1415 207.177 47.1705C205.973 46.1996 205.371 44.9567 205.371 43.442ZM225.722 54.317V52.006C225.722 51.6565 225.832 51.3717 226.052 51.1516C226.286 50.9185 226.577 50.802 226.926 50.802H246.055C246.404 50.802 246.689 50.9185 246.909 51.1516C247.129 51.3717 247.239 51.6565 247.239 52.006V54.317C247.239 54.6536 247.129 54.9384 246.909 55.1714C246.689 55.3915 246.404 55.5016 246.055 55.5016H239.86V70.9013C239.86 71.2379 239.743 71.5228 239.51 71.7558C239.29 71.9759 239.005 72.0859 238.656 72.0859H234.325C233.976 72.0859 233.684 71.9759 233.451 71.7558C233.231 71.5228 233.121 71.2379 233.121 70.9013V55.5016H226.926C226.577 55.5016 226.286 55.3915 226.052 55.1714C225.832 54.9384 225.722 54.6536 225.722 54.317ZM250.055 70.9013V52.006C250.055 51.6565 250.165 51.3717 250.385 51.1516C250.618 50.9185 250.903 50.802 251.24 50.802H255.298C255.648 50.802 255.933 50.9185 256.153 51.1516C256.386 51.3717 256.502 51.6565 256.502 52.006V64.7647L263.338 52.2002C263.545 51.7989 263.863 51.4687 264.29 51.2098C264.717 50.9379 265.131 50.802 265.533 50.802H270.97C271.32 50.802 271.604 50.9185 271.825 51.1516C272.058 51.3717 272.174 51.6565 272.174 52.006V70.9013C272.174 71.2509 272.058 71.5357 271.825 71.7558C271.604 71.9759 271.32 72.0859 270.97 72.0859H266.911C266.562 72.0859 266.277 71.9759 266.057 71.7558C265.837 71.5228 265.727 71.2379 265.727 70.9013V58.1621L258.891 70.6877C258.684 71.0632 258.367 71.3933 257.94 71.6781C257.512 71.95 257.098 72.0859 256.697 72.0859H251.24C250.89 72.0859 250.605 71.9759 250.385 71.7558C250.165 71.5357 250.055 71.2509 250.055 70.9013Z"/>
</mask>
<path d="M142.548 46.083C142.548 45.5781 142.729 45.1444 143.092 44.7819C143.454 44.4194 143.888 44.2382 144.393 44.2382H160.181C164.052 44.2382 166.907 45.3516 168.745 47.5783C169.768 48.8083 170.279 50.3812 170.279 52.2973C170.279 54.2004 169.405 55.8641 167.658 57.2882C170.143 58.6217 171.386 60.6931 171.386 63.5025C171.386 66.3118 170.389 68.448 168.396 69.9109C166.415 71.3609 163.981 72.0859 161.094 72.0859H144.393C143.888 72.0859 143.454 71.9112 143.092 71.5616C142.729 71.1991 142.548 70.7654 142.548 70.2605V46.083ZM149.869 66.8426H160.977C161.974 66.8426 162.738 66.5449 163.269 65.9493C163.8 65.3538 164.065 64.5382 164.065 63.5025C164.065 62.4667 163.8 61.6511 163.269 61.0556C162.738 60.46 161.974 60.1623 160.977 60.1623H149.869V66.8426ZM149.869 55.0549H160.259C161.074 55.0549 161.728 54.8154 162.22 54.3364C162.712 53.8444 162.958 53.1647 162.958 52.2973C162.958 51.417 162.712 50.7308 162.22 50.2388C161.728 49.7469 161.074 49.5009 160.259 49.5009H149.869V55.0549ZM176.804 69.6779C174.785 67.8136 173.775 65.069 173.775 61.444C173.775 57.806 174.785 55.0614 176.804 53.21C178.824 51.3458 181.724 50.4136 185.504 50.4136C189.298 50.4136 192.204 51.3458 194.224 53.21C196.243 55.0614 197.253 57.806 197.253 61.444C197.253 65.069 196.243 67.8136 194.224 69.6779C192.204 71.5422 189.298 72.4743 185.504 72.4743C181.724 72.4743 178.824 71.5422 176.804 69.6779ZM181.717 56.3949C180.915 57.4435 180.513 59.1201 180.513 61.4246C180.513 63.729 180.915 65.4121 181.717 66.4737C182.52 67.5353 183.782 68.0661 185.504 68.0661C187.239 68.0661 188.508 67.5353 189.311 66.4737C190.126 65.4121 190.534 63.729 190.534 61.4246C190.534 59.1201 190.126 57.4435 189.311 56.3949C188.508 55.3462 187.239 54.8219 185.504 54.8219C183.782 54.8219 182.52 55.3462 181.717 56.3949ZM200.846 70.9013V52.006C200.846 51.6565 200.956 51.3717 201.176 51.1516C201.409 50.9185 201.694 50.802 202.03 50.802H206.089C206.439 50.802 206.723 50.9185 206.944 51.1516C207.177 51.3717 207.293 51.6565 207.293 52.006V64.7647L214.129 52.2002C214.336 51.7989 214.653 51.4687 215.08 51.2098C215.508 50.9379 215.922 50.802 216.323 50.802H221.761C222.11 50.802 222.395 50.9185 222.615 51.1516C222.848 51.3717 222.965 51.6565 222.965 52.006V70.9013C222.965 71.2509 222.848 71.5357 222.615 71.7558C222.395 71.9759 222.11 72.0859 221.761 72.0859H217.702C217.352 72.0859 217.068 71.9759 216.848 71.7558C216.627 71.5228 216.517 71.2379 216.517 70.9013V58.1621L209.682 70.6877C209.475 71.0632 209.157 71.3933 208.73 71.6781C208.303 71.95 207.889 72.0859 207.487 72.0859H202.03C201.681 72.0859 201.396 71.9759 201.176 71.7558C200.956 71.5357 200.846 71.2509 200.846 70.9013ZM205.371 43.442C205.371 42.7817 205.733 42.4516 206.458 42.4516H207.915C208.549 42.4516 209.002 42.7817 209.274 43.442C209.701 44.5036 210.575 45.0344 211.896 45.0344C213.229 45.0344 214.103 44.5036 214.517 43.442C214.776 42.7817 215.229 42.4516 215.877 42.4516H217.352C218.065 42.4516 218.421 42.7817 218.421 43.442C218.421 44.9567 217.819 46.1996 216.615 47.1705C215.411 48.1415 213.838 48.627 211.896 48.627C209.967 48.627 208.394 48.1415 207.177 47.1705C205.973 46.1996 205.371 44.9567 205.371 43.442ZM225.722 54.317V52.006C225.722 51.6565 225.832 51.3717 226.052 51.1516C226.286 50.9185 226.577 50.802 226.926 50.802H246.055C246.404 50.802 246.689 50.9185 246.909 51.1516C247.129 51.3717 247.239 51.6565 247.239 52.006V54.317C247.239 54.6536 247.129 54.9384 246.909 55.1714C246.689 55.3915 246.404 55.5016 246.055 55.5016H239.86V70.9013C239.86 71.2379 239.743 71.5228 239.51 71.7558C239.29 71.9759 239.005 72.0859 238.656 72.0859H234.325C233.976 72.0859 233.684 71.9759 233.451 71.7558C233.231 71.5228 233.121 71.2379 233.121 70.9013V55.5016H226.926C226.577 55.5016 226.286 55.3915 226.052 55.1714C225.832 54.9384 225.722 54.6536 225.722 54.317ZM250.055 70.9013V52.006C250.055 51.6565 250.165 51.3717 250.385 51.1516C250.618 50.9185 250.903 50.802 251.24 50.802H255.298C255.648 50.802 255.933 50.9185 256.153 51.1516C256.386 51.3717 256.502 51.6565 256.502 52.006V64.7647L263.338 52.2002C263.545 51.7989 263.863 51.4687 264.29 51.2098C264.717 50.9379 265.131 50.802 265.533 50.802H270.97C271.32 50.802 271.604 50.9185 271.825 51.1516C272.058 51.3717 272.174 51.6565 272.174 52.006V70.9013C272.174 71.2509 272.058 71.5357 271.825 71.7558C271.604 71.9759 271.32 72.0859 270.97 72.0859H266.911C266.562 72.0859 266.277 71.9759 266.057 71.7558C265.837 71.5228 265.727 71.2379 265.727 70.9013V58.1621L258.891 70.6877C258.684 71.0632 258.367 71.3933 257.94 71.6781C257.512 71.95 257.098 72.0859 256.697 72.0859H251.24C250.89 72.0859 250.605 71.9759 250.385 71.7558C250.165 71.5357 250.055 71.2509 250.055 70.9013Z" fill="white"/>
<path d="M168.745 47.5783L165.66 50.1249L165.665 50.1304L165.67 50.1359L168.745 47.5783ZM167.658 57.2882L165.131 54.1872L160.48 57.9769L165.767 60.813L167.658 57.2882ZM168.396 69.9109L170.758 73.1386L170.762 73.1359L168.396 69.9109ZM143.092 71.5616L140.263 74.39L140.289 74.4157L140.315 74.441L143.092 71.5616ZM149.869 66.8426H145.869V70.8426H149.869V66.8426ZM149.869 60.1623V56.1623H145.869V60.1623H149.869ZM149.869 55.0549H145.869V59.0549H149.869V55.0549ZM162.22 54.3364L165.011 57.2023L165.03 57.1837L165.049 57.1648L162.22 54.3364ZM149.869 49.5009V45.5009H145.869V49.5009H149.869ZM146.548 46.083C146.548 46.3204 146.503 46.6144 146.375 46.9214C146.247 47.2273 146.074 47.4567 145.92 47.6103L140.263 41.9535C139.164 43.0532 138.548 44.4991 138.548 46.083H146.548ZM145.92 47.6103C145.767 47.7639 145.537 47.937 145.231 48.0648C144.924 48.1931 144.63 48.2382 144.393 48.2382V40.2382C142.809 40.2382 141.363 40.8538 140.263 41.9535L145.92 47.6103ZM144.393 48.2382H160.181V40.2382H144.393V48.2382ZM160.181 48.2382C163.291 48.2382 164.82 49.1069 165.66 50.1249L171.83 45.0317C168.993 41.5962 164.813 40.2382 160.181 40.2382V48.2382ZM165.67 50.1359C165.982 50.512 166.279 51.1228 166.279 52.2973H174.279C174.279 49.6396 173.553 47.1045 171.821 45.0208L165.67 50.1359ZM166.279 52.2973C166.279 52.771 166.138 53.3668 165.131 54.1872L170.184 60.3891C172.673 58.3613 174.279 55.6299 174.279 52.2973H166.279ZM165.767 60.813C166.482 61.1965 166.832 61.5802 167.024 61.8998C167.215 62.2186 167.386 62.7029 167.386 63.5025H175.386C175.386 61.4926 174.936 59.5365 173.884 57.7839C172.833 56.0321 171.319 54.7133 169.549 53.7633L165.767 60.813ZM167.386 63.5025C167.386 65.237 166.845 66.087 166.029 66.686L170.762 73.1359C173.933 70.809 175.386 67.3867 175.386 63.5025H167.386ZM166.033 66.6833C164.852 67.5474 163.286 68.0859 161.094 68.0859V76.0859C164.676 76.0859 167.977 75.1745 170.758 73.1386L166.033 66.6833ZM161.094 68.0859H144.393V76.0859H161.094V68.0859ZM144.393 68.0859C144.612 68.0859 144.889 68.1259 145.184 68.2448C145.479 68.3638 145.708 68.5281 145.868 68.6822L140.315 74.441C141.425 75.5116 142.855 76.0859 144.393 76.0859V68.0859ZM145.92 68.7332C146.074 68.8868 146.247 69.1162 146.375 69.4221C146.503 69.7292 146.548 70.0231 146.548 70.2605H138.548C138.548 71.8444 139.164 73.2903 140.263 74.39L145.92 68.7332ZM146.548 70.2605V46.083H138.548V70.2605H146.548ZM149.869 70.8426H160.977V62.8426H149.869V70.8426ZM160.977 70.8426C162.808 70.8426 164.783 70.2626 166.255 68.6108L160.283 63.2878C160.449 63.1012 160.656 62.9662 160.845 62.8925C161.014 62.8265 161.083 62.8426 160.977 62.8426V70.8426ZM166.255 68.6108C167.614 67.0858 168.065 65.2196 168.065 63.5025H160.065C160.065 63.6843 160.041 63.7181 160.062 63.6532C160.073 63.6192 160.095 63.5639 160.133 63.4958C160.172 63.427 160.222 63.3558 160.283 63.2878L166.255 68.6108ZM168.065 63.5025C168.065 61.7854 167.614 59.9191 166.255 58.3941L160.283 63.7171C160.222 63.6491 160.172 63.5779 160.133 63.5091C160.095 63.441 160.073 63.3857 160.062 63.3517C160.041 63.2868 160.065 63.3206 160.065 63.5025H168.065ZM166.255 58.3941C164.783 56.7423 162.808 56.1623 160.977 56.1623V64.1623C161.083 64.1623 161.014 64.1784 160.845 64.1124C160.656 64.0387 160.449 63.9037 160.283 63.7171L166.255 58.3941ZM160.977 56.1623H149.869V64.1623H160.977V56.1623ZM145.869 60.1623V66.8426H153.869V60.1623H145.869ZM149.869 59.0549H160.259V51.0549H149.869V59.0549ZM160.259 59.0549C161.907 59.0549 163.634 58.5425 165.011 57.2023L159.43 51.4705C159.593 51.3114 159.79 51.1906 159.985 51.1194C160.167 51.0526 160.276 51.0549 160.259 51.0549V59.0549ZM165.049 57.1648C166.466 55.7474 166.958 53.9489 166.958 52.2973H158.958C158.958 52.3571 158.949 52.2705 159.012 52.0964C159.081 51.9068 159.207 51.693 159.392 51.508L165.049 57.1648ZM166.958 52.2973C166.958 50.6522 166.477 48.8388 165.049 47.4104L159.392 53.0673C159.2 52.8757 159.075 52.658 159.008 52.4723C158.947 52.3028 158.958 52.2245 158.958 52.2973H166.958ZM165.049 47.4104C163.678 46.0396 161.938 45.5009 160.259 45.5009V53.5009C160.265 53.5009 160.144 53.5014 159.952 53.4292C159.748 53.3524 159.55 53.2257 159.392 53.0673L165.049 47.4104ZM160.259 45.5009H149.869V53.5009H160.259V45.5009ZM145.869 49.5009V55.0549H153.869V49.5009H145.869ZM176.804 53.21L179.507 56.1587L179.517 56.1493L176.804 53.21ZM194.224 53.21L191.511 56.1493L191.521 56.1587L194.224 53.21ZM181.717 66.4737L178.527 68.8861L181.717 66.4737ZM189.311 66.4737L186.139 64.0367L186.129 64.0489L186.12 64.0612L189.311 66.4737ZM189.311 56.3949L186.134 58.8261L186.144 58.8384L186.153 58.8506L189.311 56.3949ZM179.517 66.7387C178.558 65.8527 177.775 64.3265 177.775 61.444H169.775C169.775 65.8114 171.012 69.7746 174.091 72.6171L179.517 66.7387ZM177.775 61.444C177.775 58.5416 178.561 57.026 179.507 56.1587L174.101 50.2614C171.008 53.0967 169.775 57.0704 169.775 61.444H177.775ZM179.517 56.1493C180.559 55.1877 182.348 54.4136 185.504 54.4136V46.4136C181.099 46.4136 177.089 47.5039 174.091 50.2708L179.517 56.1493ZM185.504 54.4136C188.677 54.4136 190.471 55.1898 191.511 56.1493L196.937 50.2708C193.937 47.5017 189.918 46.4136 185.504 46.4136V54.4136ZM191.521 56.1587C192.467 57.026 193.253 58.5416 193.253 61.444H201.253C201.253 57.0704 200.02 53.0967 196.927 50.2614L191.521 56.1587ZM193.253 61.444C193.253 64.3265 192.47 65.8527 191.511 66.7387L196.937 72.6171C200.016 69.7746 201.253 65.8114 201.253 61.444H193.253ZM191.511 66.7387C190.471 67.6982 188.677 68.4743 185.504 68.4743V76.4743C189.918 76.4743 193.937 75.3862 196.937 72.6171L191.511 66.7387ZM185.504 68.4743C182.348 68.4743 180.559 67.7003 179.517 66.7387L174.091 72.6171C177.089 75.3841 181.099 76.4743 185.504 76.4743V68.4743ZM178.541 53.9636C176.933 56.0642 176.513 58.8266 176.513 61.4246H184.513C184.513 60.4881 184.597 59.8208 184.705 59.37C184.813 58.9172 184.92 58.7923 184.894 58.8261L178.541 53.9636ZM176.513 61.4246C176.513 64.0291 176.936 66.782 178.527 68.8861L184.908 64.0612C184.924 64.0826 184.815 63.9453 184.705 63.4873C184.596 63.031 184.513 62.3606 184.513 61.4246H176.513ZM178.527 68.8861C180.299 71.2305 182.932 72.0661 185.504 72.0661V64.0661C185.044 64.0661 184.848 63.994 184.817 63.9807C184.804 63.9753 184.819 63.9805 184.848 64.0028C184.878 64.0256 184.899 64.0487 184.908 64.0612L178.527 68.8861ZM185.504 72.0661C188.077 72.0661 190.723 71.238 192.501 68.8861L186.12 64.0612C186.131 64.0466 186.153 64.0223 186.183 63.9991C186.213 63.9764 186.228 63.9717 186.213 63.9779C186.177 63.9928 185.975 64.0661 185.504 64.0661V72.0661ZM192.482 68.9106C194.102 66.8024 194.534 64.0383 194.534 61.4246H186.534C186.534 62.3569 186.45 63.0223 186.341 63.4732C186.231 63.9246 186.122 64.0584 186.139 64.0367L192.482 68.9106ZM194.534 61.4246C194.534 58.8175 194.105 56.0436 192.468 53.9391L186.153 58.8506C186.127 58.8165 186.233 58.938 186.341 59.3842C186.45 59.8295 186.534 60.4917 186.534 61.4246H194.534ZM192.487 53.9636C190.702 51.6319 188.06 50.8219 185.504 50.8219V58.8219C185.98 58.8219 186.189 58.8951 186.229 58.9119C186.246 58.9189 186.232 58.9149 186.202 58.8923C186.172 58.8691 186.148 58.8437 186.134 58.8261L192.487 53.9636ZM185.504 50.8219C182.949 50.8219 180.32 51.6393 178.541 53.9636L184.894 58.8261C184.882 58.8416 184.859 58.8658 184.829 58.8886C184.8 58.9109 184.785 58.9154 184.801 58.9091C184.837 58.894 185.038 58.8219 185.504 58.8219V50.8219ZM201.176 51.1516L204.004 53.98L201.176 51.1516ZM206.944 51.1516L204.035 53.8981L204.114 53.9811L204.197 54.0596L206.944 51.1516ZM207.293 64.7647H203.293L210.807 66.6763L207.293 64.7647ZM214.129 52.2002L217.642 54.1118L217.663 54.0735L217.683 54.0348L214.129 52.2002ZM215.08 51.2098L217.154 54.6306L217.191 54.6079L217.228 54.5845L215.08 51.2098ZM222.615 51.1516L219.707 53.8981L219.786 53.9811L219.869 54.0596L222.615 51.1516ZM222.615 71.7558L219.869 68.8478L219.827 68.887L219.787 68.9274L222.615 71.7558ZM216.848 71.7558L213.94 74.5023L213.979 74.5438L214.019 74.5842L216.848 71.7558ZM216.517 58.1621H220.517L213.006 56.2459L216.517 58.1621ZM209.682 70.6877L213.184 72.62L213.188 72.612L213.193 72.6039L209.682 70.6877ZM208.73 71.6781L210.878 75.0528L210.914 75.0299L210.949 75.0063L208.73 71.6781ZM209.274 43.442L212.985 41.9486L212.979 41.9338L212.973 41.919L209.274 43.442ZM214.517 43.442L210.793 41.9816L210.791 41.9878L214.517 43.442ZM207.177 47.1705L204.666 50.2842L204.674 50.2907L204.682 50.2973L207.177 47.1705ZM204.846 70.9013V52.006H196.846V70.9013H204.846ZM204.846 52.006C204.846 52.2536 204.806 52.5928 204.66 52.9718C204.51 53.3598 204.281 53.7036 204.004 53.98L198.347 48.3231C197.282 49.3885 196.846 50.7382 196.846 52.006H204.846ZM204.004 53.98C203.772 54.2121 203.462 54.4348 203.079 54.5916C202.697 54.7477 202.332 54.802 202.03 54.802V46.802C200.658 46.802 199.348 47.3222 198.347 48.3231L204.004 53.98ZM202.03 54.802H206.089V46.802H202.03V54.802ZM206.089 54.802C205.815 54.802 205.45 54.7549 205.05 54.5916C204.643 54.4251 204.3 54.1781 204.035 53.8981L209.852 48.4051C208.803 47.2949 207.428 46.802 206.089 46.802V54.802ZM204.197 54.0596C203.917 53.7952 203.67 53.4516 203.504 53.0448C203.34 52.6455 203.293 52.2805 203.293 52.006H211.293C211.293 50.6667 210.8 49.292 209.69 48.2435L204.197 54.0596ZM203.293 52.006V64.7647H211.293V52.006H203.293ZM210.807 66.6763L217.642 54.1118L210.615 50.2886L203.779 62.8531L210.807 66.6763ZM217.683 54.0348C217.607 54.1818 217.512 54.3136 217.406 54.4229C217.303 54.5304 217.211 54.5961 217.154 54.6306L213.007 47.789C212.018 48.3883 211.155 49.241 210.574 50.3657L217.683 54.0348ZM217.228 54.5845C217.18 54.6147 216.859 54.802 216.323 54.802V46.802C214.985 46.802 213.835 47.2611 212.933 47.8352L217.228 54.5845ZM216.323 54.802H221.761V46.802H216.323V54.802ZM221.761 54.802C221.486 54.802 221.121 54.7549 220.722 54.5916C220.315 54.4251 219.972 54.1781 219.707 53.8981L225.523 48.4051C224.475 47.2949 223.1 46.802 221.761 46.802V54.802ZM219.869 54.0596C219.589 53.7952 219.342 53.4516 219.175 53.0448C219.012 52.6455 218.965 52.2805 218.965 52.006H226.965C226.965 50.6667 226.472 49.292 225.362 48.2435L219.869 54.0596ZM218.965 52.006V70.9013H226.965V52.006H218.965ZM218.965 70.9013C218.965 70.6269 219.012 70.2618 219.175 69.8626C219.342 69.4557 219.589 69.1122 219.869 68.8478L225.362 74.6639C226.472 73.6153 226.965 72.2407 226.965 70.9013H218.965ZM219.787 68.9274C220.063 68.651 220.407 68.4221 220.795 68.2722C221.174 68.1258 221.513 68.0859 221.761 68.0859V76.0859C223.029 76.0859 224.378 75.6496 225.444 74.5842L219.787 68.9274ZM221.761 68.0859H217.702V76.0859H221.761V68.0859ZM217.702 68.0859C217.95 68.0859 218.289 68.1258 218.668 68.2722C219.056 68.4221 219.4 68.651 219.676 68.9274L214.019 74.5842C215.085 75.6496 216.434 76.0859 217.702 76.0859V68.0859ZM219.756 69.0093C219.984 69.2511 220.19 69.5601 220.331 69.9258C220.471 70.2881 220.517 70.6271 220.517 70.9013H212.517C212.517 72.2028 212.98 73.4867 213.94 74.5023L219.756 69.0093ZM220.517 70.9013V58.1621H212.517V70.9013H220.517ZM213.006 56.2459L206.171 68.7716L213.193 72.6039L220.029 60.0782L213.006 56.2459ZM206.179 68.7554C206.255 68.6178 206.337 68.5151 206.404 68.4456C206.469 68.378 206.512 68.3493 206.511 68.3499L210.949 75.0063C211.805 74.4356 212.612 73.6576 213.184 72.62L206.179 68.7554ZM206.583 68.3035C206.63 68.2732 206.952 68.0859 207.487 68.0859V76.0859C208.826 76.0859 209.976 75.6268 210.878 75.0528L206.583 68.3035ZM207.487 68.0859H202.03V76.0859H207.487V68.0859ZM202.03 68.0859C202.278 68.0859 202.617 68.1258 202.996 68.2722C203.384 68.4221 203.728 68.651 204.004 68.9274L198.347 74.5842C199.413 75.6496 200.763 76.0859 202.03 76.0859V68.0859ZM204.004 68.9274C204.281 69.2038 204.51 69.5475 204.66 69.9355C204.806 70.3145 204.846 70.6537 204.846 70.9013H196.846C196.846 72.1692 197.282 73.5189 198.347 74.5842L204.004 68.9274ZM209.371 43.442C209.371 43.8298 209.247 44.8268 208.336 45.6565C207.496 46.4217 206.624 46.4516 206.458 46.4516V38.4516C205.567 38.4516 204.152 38.6465 202.949 39.7418C201.675 40.9017 201.371 42.3939 201.371 43.442H209.371ZM206.458 46.4516H207.915V38.4516H206.458V46.4516ZM207.915 46.4516C207.501 46.4516 206.921 46.3298 206.375 45.9321C205.861 45.558 205.645 45.1333 205.575 44.965L212.973 41.919C212.631 41.0903 212.052 40.1705 211.086 39.4662C210.087 38.7383 208.962 38.4516 207.915 38.4516V46.4516ZM205.563 44.9353C206.059 46.1672 206.911 47.2881 208.173 48.055C209.394 48.7964 210.713 49.0344 211.896 49.0344V41.0344C211.758 41.0344 211.98 41.0069 212.326 41.2175C212.498 41.322 212.652 41.457 212.776 41.6077C212.896 41.7547 212.957 41.881 212.985 41.9486L205.563 44.9353ZM211.896 49.0344C213.077 49.0344 214.402 48.7998 215.628 48.055C216.901 47.2815 217.756 46.1464 218.244 44.8961L210.791 41.9878C210.82 41.9125 210.885 41.7778 211.01 41.6229C211.139 41.4643 211.298 41.3245 211.475 41.2175C211.827 41.0036 212.048 41.0344 211.896 41.0344V49.0344ZM218.241 44.9023C218.166 45.0946 217.94 45.5436 217.407 45.9321C216.847 46.3399 216.264 46.4516 215.877 46.4516V38.4516C214.842 38.4516 213.709 38.7283 212.696 39.4662C211.709 40.1848 211.128 41.129 210.793 41.9816L218.241 44.9023ZM215.877 46.4516H217.352V38.4516H215.877V46.4516ZM217.352 46.4516C217.164 46.4516 216.277 46.414 215.434 45.6322C214.534 44.7976 214.421 43.8091 214.421 43.442H222.421C222.421 42.4145 222.129 40.9309 220.873 39.7661C219.674 38.6542 218.253 38.4516 217.352 38.4516V46.4516ZM214.421 43.442C214.421 43.6547 214.382 43.7396 214.369 43.7664C214.355 43.7958 214.301 43.8973 214.104 44.0569L219.126 50.2842C221.248 48.5725 222.421 46.1958 222.421 43.442H214.421ZM214.104 44.0569C213.777 44.3205 213.163 44.627 211.896 44.627V52.627C214.512 52.627 217.044 51.9626 219.126 50.2842L214.104 44.0569ZM211.896 44.627C210.651 44.627 210.024 44.3248 209.671 44.0438L204.682 50.2973C206.764 51.9582 209.282 52.627 211.896 52.627V44.627ZM209.688 44.0569C209.49 43.8973 209.436 43.7958 209.422 43.7664C209.409 43.7396 209.371 43.6547 209.371 43.442H201.371C201.371 46.1958 202.543 48.5725 204.666 50.2842L209.688 44.0569ZM226.052 51.1516L228.881 53.98L226.052 51.1516ZM246.909 51.1516L244.001 53.8981L244.04 53.9396L244.081 53.98L246.909 51.1516ZM246.909 55.1714L249.738 57.9999L249.778 57.9595L249.817 57.9179L246.909 55.1714ZM239.86 55.5016V51.5016H235.86V55.5016H239.86ZM239.51 71.7558L242.339 74.5842L239.51 71.7558ZM233.451 71.7558L230.543 74.5023L230.622 74.5854L230.705 74.6639L233.451 71.7558ZM233.121 55.5016H237.121V51.5016H233.121V55.5016ZM226.052 55.1714L223.144 57.9179L223.223 58.001L223.306 58.0795L226.052 55.1714ZM229.722 54.317V52.006H221.722V54.317H229.722ZM229.722 52.006C229.722 52.2536 229.682 52.5928 229.536 52.9718C229.386 53.3598 229.157 53.7036 228.881 53.98L223.224 48.3231C222.159 49.3885 221.722 50.7382 221.722 52.006H229.722ZM228.881 53.98C228.634 54.2268 228.314 54.4503 227.931 54.6033C227.553 54.7544 227.202 54.802 226.926 54.802V46.802C225.587 46.802 224.256 47.2909 223.224 48.3231L228.881 53.98ZM226.926 54.802H246.055V46.802H226.926V54.802ZM246.055 54.802C245.78 54.802 245.415 54.7549 245.016 54.5916C244.609 54.4251 244.266 54.1781 244.001 53.8981L249.817 48.4051C248.769 47.2949 247.394 46.802 246.055 46.802V54.802ZM244.081 53.98C243.804 53.7036 243.575 53.3598 243.426 52.9718C243.279 52.5928 243.239 52.2536 243.239 52.006H251.239C251.239 50.7382 250.803 49.3885 249.738 48.3231L244.081 53.98ZM243.239 52.006V54.317H251.239V52.006H243.239ZM243.239 54.317C243.239 54.0427 243.286 53.7037 243.426 53.3414C243.567 52.9757 243.773 52.6668 244.001 52.4249L249.817 57.9179C250.776 56.9023 251.239 55.6184 251.239 54.317H243.239ZM244.081 52.343C244.357 52.0666 244.701 51.8377 245.089 51.6878C245.468 51.5414 245.807 51.5016 246.055 51.5016V59.5016C247.323 59.5016 248.672 59.0652 249.738 57.9999L244.081 52.343ZM246.055 51.5016H239.86V59.5016H246.055V51.5016ZM235.86 55.5016V70.9013H243.86V55.5016H235.86ZM235.86 70.9013C235.86 70.5992 235.914 70.2345 236.07 69.8529C236.227 69.4695 236.45 69.1595 236.682 68.9274L242.339 74.5842C243.34 73.5833 243.86 72.2734 243.86 70.9013H235.86ZM236.682 68.9274C236.958 68.651 237.302 68.4221 237.69 68.2722C238.069 68.1258 238.408 68.0859 238.656 68.0859V76.0859C239.924 76.0859 241.273 75.6496 242.339 74.5842L236.682 68.9274ZM238.656 68.0859H234.325V76.0859H238.656V68.0859ZM234.325 68.0859C234.575 68.0859 234.9 68.1263 235.258 68.2615C235.622 68.3991 235.941 68.6053 236.198 68.8478L230.705 74.6639C231.751 75.6516 233.055 76.0859 234.325 76.0859V68.0859ZM236.359 69.0093C236.588 69.2511 236.794 69.5601 236.935 69.9258C237.075 70.2881 237.121 70.6271 237.121 70.9013H229.121C229.121 72.2028 229.584 73.4867 230.543 74.5023L236.359 69.0093ZM237.121 70.9013V55.5016H229.121V70.9013H237.121ZM233.121 51.5016H226.926V59.5016H233.121V51.5016ZM226.926 51.5016C227.176 51.5016 227.501 51.5419 227.859 51.6771C228.223 51.8147 228.542 52.021 228.799 52.2634L223.306 58.0795C224.352 59.0672 225.656 59.5016 226.926 59.5016V51.5016ZM228.961 52.4249C229.189 52.6668 229.395 52.9757 229.536 53.3414C229.676 53.7037 229.722 54.0427 229.722 54.317H221.722C221.722 55.6184 222.185 56.9023 223.144 57.9179L228.961 52.4249ZM250.385 51.1516L253.214 53.98L250.385 51.1516ZM256.153 51.1516L253.245 53.8981L253.323 53.9811L253.406 54.0596L256.153 51.1516ZM256.502 64.7647H252.502L260.016 66.6763L256.502 64.7647ZM263.338 52.2002L266.852 54.1118L266.873 54.0735L266.893 54.0348L263.338 52.2002ZM264.29 51.2098L266.363 54.6306L266.4 54.6079L266.437 54.5845L264.29 51.2098ZM271.825 51.1516L268.917 53.8981L268.995 53.9811L269.078 54.0596L271.825 51.1516ZM271.825 71.7558L269.078 68.8478L269.037 68.887L268.996 68.9274L271.825 71.7558ZM266.057 71.7558L263.149 74.5023L263.188 74.5438L263.229 74.5842L266.057 71.7558ZM265.727 58.1621H269.727L262.216 56.2459L265.727 58.1621ZM258.891 70.6877L262.393 72.62L262.398 72.612L262.402 72.6039L258.891 70.6877ZM257.94 71.6781L260.087 75.0528L260.123 75.0299L260.158 75.0063L257.94 71.6781ZM254.055 70.9013V52.006H246.055V70.9013H254.055ZM254.055 52.006C254.055 52.2536 254.015 52.5928 253.869 52.9718C253.719 53.3598 253.49 53.7036 253.214 53.98L247.557 48.3231C246.491 49.3885 246.055 50.7382 246.055 52.006H254.055ZM253.214 53.98C252.982 54.2121 252.672 54.4348 252.288 54.5916C251.907 54.7477 251.542 54.802 251.24 54.802V46.802C249.868 46.802 248.558 47.3222 247.557 48.3231L253.214 53.98ZM251.24 54.802H255.298V46.802H251.24V54.802ZM255.298 54.802C255.024 54.802 254.659 54.7549 254.26 54.5916C253.853 54.4251 253.509 54.1781 253.245 53.8981L259.061 48.4051C258.012 47.2949 256.638 46.802 255.298 46.802V54.802ZM253.406 54.0596C253.126 53.7952 252.879 53.4516 252.713 53.0448C252.55 52.6455 252.502 52.2805 252.502 52.006H260.502C260.502 50.6667 260.01 49.292 258.899 48.2435L253.406 54.0596ZM252.502 52.006V64.7647H260.502V52.006H252.502ZM260.016 66.6763L266.852 54.1118L259.825 50.2886L252.989 62.8531L260.016 66.6763ZM266.893 54.0348C266.817 54.1818 266.721 54.3136 266.616 54.4229C266.513 54.5304 266.42 54.5961 266.363 54.6306L262.217 47.789C261.228 48.3883 260.364 49.241 259.784 50.3657L266.893 54.0348ZM266.437 54.5845C266.39 54.6147 266.068 54.802 265.533 54.802V46.802C264.194 46.802 263.044 47.2611 262.142 47.8352L266.437 54.5845ZM265.533 54.802H270.97V46.802H265.533V54.802ZM270.97 54.802C270.696 54.802 270.331 54.7549 269.931 54.5916C269.524 54.4251 269.181 54.1781 268.917 53.8981L274.733 48.4051C273.684 47.2949 272.309 46.802 270.97 46.802V54.802ZM269.078 54.0596C268.798 53.7952 268.551 53.4516 268.385 53.0448C268.221 52.6455 268.174 52.2805 268.174 52.006H276.174C276.174 50.6667 275.681 49.292 274.571 48.2435L269.078 54.0596ZM268.174 52.006V70.9013H276.174V52.006H268.174ZM268.174 70.9013C268.174 70.6269 268.221 70.2618 268.385 69.8626C268.551 69.4557 268.798 69.1122 269.078 68.8478L274.571 74.6639C275.681 73.6153 276.174 72.2407 276.174 70.9013H268.174ZM268.996 68.9274C269.273 68.651 269.616 68.4221 270.004 68.2722C270.383 68.1258 270.722 68.0859 270.97 68.0859V76.0859C272.238 76.0859 273.588 75.6496 274.653 74.5842L268.996 68.9274ZM270.97 68.0859H266.911V76.0859H270.97V68.0859ZM266.911 68.0859C267.159 68.0859 267.498 68.1258 267.877 68.2722C268.265 68.4221 268.609 68.651 268.885 68.9274L263.229 74.5842C264.294 75.6496 265.644 76.0859 266.911 76.0859V68.0859ZM268.965 69.0093C269.193 69.2511 269.399 69.5601 269.541 69.9258C269.681 70.2881 269.727 70.6271 269.727 70.9013H261.727C261.727 72.2028 262.19 73.4867 263.149 74.5023L268.965 69.0093ZM269.727 70.9013V58.1621H261.727V70.9013H269.727ZM262.216 56.2459L255.38 68.7716L262.402 72.6039L269.238 60.0782L262.216 56.2459ZM255.389 68.7554C255.465 68.6178 255.547 68.5151 255.613 68.4456C255.678 68.378 255.722 68.3493 255.721 68.3499L260.158 75.0063C261.014 74.4356 261.821 73.6576 262.393 72.62L255.389 68.7554ZM255.792 68.3035C255.84 68.2732 256.161 68.0859 256.697 68.0859V76.0859C258.035 76.0859 259.185 75.6268 260.087 75.0528L255.792 68.3035ZM256.697 68.0859H251.24V76.0859H256.697V68.0859ZM251.24 68.0859C251.487 68.0859 251.827 68.1258 252.206 68.2722C252.594 68.4221 252.937 68.651 253.214 68.9274L247.557 74.5842C248.622 75.6496 249.972 76.0859 251.24 76.0859V68.0859ZM253.214 68.9274C253.49 69.2038 253.719 69.5475 253.869 69.9355C254.015 70.3145 254.055 70.6537 254.055 70.9013H246.055C246.055 72.1692 246.491 73.5189 247.557 74.5842L253.214 68.9274Z" fill="black" mask="url(#path-2-outside-1_761_139)"/>
</svg>
