<svg width="415" height="116" viewBox="0 0 415 116" fill="none" xmlns="http://www.w3.org/2000/svg">
<rect x="2.28564" y="2" width="410.286" height="112" rx="38" fill="white" stroke="black" stroke-width="4"/>
<mask id="path-2-outside-1_761_136" maskUnits="userSpaceOnUse" x="110.972" y="40.0859" width="194" height="37" fill="black">
<rect fill="white" x="110.972" y="40.0859" width="194" height="37"/>
<path d="M115.749 70.2217V46.1219C115.749 45.5911 115.923 45.1444 116.273 44.7819C116.623 44.4194 117.05 44.2382 117.555 44.2382H125.459C125.963 44.2382 126.442 44.4194 126.896 44.7819C127.349 45.1444 127.653 45.5781 127.808 46.083L133.537 62.6674L139.266 46.083C139.421 45.5781 139.725 45.1444 140.179 44.7819C140.632 44.4194 141.111 44.2382 141.616 44.2382H149.519C150.024 44.2382 150.445 44.4194 150.782 44.7819C151.131 45.1444 151.306 45.5911 151.306 46.1219V70.2217C151.306 70.7525 151.125 71.1991 150.762 71.5616C150.413 71.9112 149.986 72.0859 149.481 72.0859H145.985C145.48 72.0859 145.046 71.9112 144.684 71.5616C144.334 71.1991 144.16 70.7525 144.16 70.2217V51.2487L137.304 70.3382C137.123 70.8172 136.806 71.2315 136.353 71.581C135.9 71.9176 135.421 72.0859 134.916 72.0859H132.139C131.634 72.0859 131.155 71.9176 130.702 71.581C130.262 71.2315 129.944 70.8172 129.75 70.3382L122.915 51.2487V70.2217C122.915 70.7525 122.733 71.1991 122.371 71.5616C122.021 71.9112 121.594 72.0859 121.089 72.0859H117.594C117.089 72.0859 116.655 71.9112 116.292 71.5616C115.93 71.1991 115.749 70.7525 115.749 70.2217ZM157.85 70.6877C156.142 69.4967 155.287 67.8136 155.287 65.6386C155.287 63.4636 156.142 61.7935 157.85 60.6283C159.572 59.4632 161.786 58.8806 164.492 58.8806H170.92C170.92 57.3658 170.603 56.3107 169.968 55.7152C169.334 55.1196 168.221 54.8219 166.628 54.8219C165.049 54.8219 163.935 55.2167 163.288 56.0065C162.654 56.7833 161.87 57.1717 160.938 57.1717H158.045C157.695 57.1717 157.404 57.0616 157.171 56.8415C156.951 56.6085 156.841 56.3237 156.841 55.9871C156.841 52.2714 160.369 50.4136 167.424 50.4136C170.506 50.4136 172.978 51.1062 174.843 52.4915C176.707 53.8638 177.639 55.9935 177.639 58.8806V70.9013C177.639 71.2509 177.529 71.5357 177.309 71.7558C177.089 71.9759 176.804 72.0859 176.454 72.0859H172.707C172.357 72.0859 172.072 71.9759 171.852 71.7558C171.632 71.5228 171.522 71.2379 171.522 70.9013V70.2993C169.476 71.7623 167.114 72.4873 164.434 72.4743C161.767 72.4743 159.572 71.8788 157.85 70.6877ZM164.958 63.2888C164.052 63.2888 163.333 63.5089 162.802 63.9491C162.285 64.3893 162.026 64.9589 162.026 65.658C162.026 66.3571 162.298 66.9333 162.841 67.3864C163.385 67.8395 164.155 68.0661 165.152 68.0661C167.146 68.0661 169.069 67.4835 170.92 66.3183V63.2888H164.958ZM182.436 70.9013V52.006C182.436 51.6565 182.546 51.3717 182.766 51.1516C182.999 50.9185 183.284 50.802 183.62 50.802H198.146C198.483 50.802 198.761 50.9185 198.981 51.1516C199.214 51.3717 199.331 51.6565 199.331 52.006V54.317C199.331 54.6536 199.214 54.9384 198.981 55.1714C198.761 55.3915 198.483 55.5016 198.146 55.5016H189.155V70.9013C189.155 71.2379 189.038 71.5228 188.805 71.7558C188.585 71.9759 188.307 72.0859 187.97 72.0859H183.62C183.284 72.0859 182.999 71.9759 182.766 71.7558C182.546 71.5228 182.436 71.2379 182.436 70.9013ZM203.098 70.6877C201.389 69.4967 200.535 67.8136 200.535 65.6386C200.535 63.4636 201.389 61.7935 203.098 60.6283C204.82 59.4632 207.034 58.8806 209.74 58.8806H216.168C216.168 57.3658 215.85 56.3107 215.216 55.7152C214.582 55.1196 213.468 54.8219 211.876 54.8219C210.296 54.8219 209.183 55.2167 208.536 56.0065C207.901 56.7833 207.118 57.1717 206.186 57.1717H203.292C202.943 57.1717 202.652 57.0616 202.419 56.8415C202.198 56.6085 202.088 56.3237 202.088 55.9871C202.088 52.2714 205.616 50.4136 212.672 50.4136C215.753 50.4136 218.226 51.1062 220.09 52.4915C221.955 53.8638 222.887 55.9935 222.887 58.8806V70.9013C222.887 71.2509 222.777 71.5357 222.557 71.7558C222.337 71.9759 222.052 72.0859 221.702 72.0859H217.954C217.605 72.0859 217.32 71.9759 217.1 71.7558C216.88 71.5228 216.77 71.2379 216.77 70.9013V70.2993C214.724 71.7623 212.361 72.4873 209.682 72.4743C207.015 72.4743 204.82 71.8788 203.098 70.6877ZM210.206 63.2888C209.3 63.2888 208.581 63.5089 208.05 63.9491C207.532 64.3893 207.273 64.9589 207.273 65.658C207.273 66.3571 207.545 66.9333 208.089 67.3864C208.633 67.8395 209.403 68.0661 210.4 68.0661C212.394 68.0661 214.316 67.4835 216.168 66.3183V63.2888H210.206ZM226.091 66.629C226.091 66.2795 226.201 65.9946 226.421 65.7746C226.654 65.5545 226.939 65.4444 227.276 65.4444H230.189C231.069 65.4444 231.755 65.8846 232.247 66.765C232.752 67.6324 233.71 68.0661 235.121 68.0661H239.063C240.941 68.0661 241.879 67.2958 241.879 65.7551C241.879 64.2145 240.941 63.4507 239.063 63.4636H234.247C233.898 63.4636 233.607 63.3536 233.373 63.1335C233.153 62.9004 233.043 62.6092 233.043 62.2596V60.24C233.043 59.8904 233.153 59.6056 233.373 59.3855C233.607 59.1525 233.898 59.0359 234.247 59.0359H238.694C239.549 59.0359 240.19 58.8482 240.617 58.4728C241.057 58.0844 241.277 57.573 241.277 56.9386C241.277 56.3042 241.057 55.7929 240.617 55.4045C240.19 55.0161 239.549 54.8219 238.694 54.8219H235.121C234.668 54.8219 234.202 54.9384 233.723 55.1714C233.244 55.3915 232.888 55.7152 232.655 56.1424C232.15 57.0228 231.457 57.4565 230.577 57.4435H227.684C227.334 57.4435 227.043 57.3335 226.81 57.1134C226.59 56.8933 226.479 56.6085 226.479 56.2589C226.479 54.5112 227.327 53.1 229.023 52.0254C230.732 50.9509 232.791 50.4136 235.199 50.4136H239.102C241.834 50.4136 243.996 50.9185 245.588 51.9283C247.194 52.9252 247.996 54.4464 247.996 56.492C247.996 58.5375 247.071 60.0134 245.219 60.9196C247.472 62.0589 248.598 63.8585 248.598 66.3183C248.598 68.4674 247.835 70.0339 246.307 71.0179C244.792 71.9888 242.533 72.4743 239.529 72.4743H235.199C232.597 72.4743 230.428 71.9435 228.693 70.8819C226.959 69.8203 226.091 68.4027 226.091 66.629ZM251.997 70.9013V52.006C251.997 51.6565 252.107 51.3717 252.327 51.1516C252.56 50.9185 252.845 50.802 253.182 50.802H257.24C257.59 50.802 257.875 50.9185 258.095 51.1516C258.328 51.3717 258.444 51.6565 258.444 52.006V64.7647L265.28 52.2002C265.487 51.7989 265.804 51.4687 266.232 51.2098C266.659 50.9379 267.073 50.802 267.474 50.802H272.912C273.261 50.802 273.546 50.9185 273.766 51.1516C273.999 51.3717 274.116 51.6565 274.116 52.006V70.9013C274.116 71.2509 273.999 71.5357 273.766 71.7558C273.546 71.9759 273.261 72.0859 272.912 72.0859H268.853C268.504 72.0859 268.219 71.9759 267.999 71.7558C267.779 71.5228 267.669 71.2379 267.669 70.9013V58.1621L260.833 70.6877C260.626 71.0632 260.309 71.3933 259.881 71.6781C259.454 71.95 259.04 72.0859 258.638 72.0859H253.182C252.832 72.0859 252.547 71.9759 252.327 71.7558C252.107 71.5357 251.997 71.2509 251.997 70.9013ZM278.874 70.9013V52.006C278.874 51.6565 278.984 51.3717 279.204 51.1516C279.437 50.9185 279.722 50.802 280.058 50.802H284.408C284.758 50.802 285.043 50.9185 285.263 51.1516C285.483 51.3717 285.593 51.6565 285.593 52.006V58.9583H294.099V52.006C294.099 51.6565 294.209 51.3717 294.429 51.1516C294.662 50.9185 294.953 50.802 295.303 50.802H299.633C299.983 50.802 300.268 50.9185 300.488 51.1516C300.708 51.3717 300.818 51.6565 300.818 52.006V70.9013C300.818 71.2509 300.708 71.5357 300.488 71.7558C300.268 71.9759 299.983 72.0859 299.633 72.0859H295.303C294.953 72.0859 294.662 71.9759 294.429 71.7558C294.209 71.5228 294.099 71.2379 294.099 70.9013V63.6578H285.593V70.9013C285.593 71.2509 285.476 71.5357 285.243 71.7558C285.023 71.9759 284.745 72.0859 284.408 72.0859H280.058C279.709 72.0859 279.424 71.9759 279.204 71.7558C278.984 71.5357 278.874 71.2509 278.874 70.9013Z"/>
</mask>
<path d="M115.749 70.2217V46.1219C115.749 45.5911 115.923 45.1444 116.273 44.7819C116.623 44.4194 117.05 44.2382 117.555 44.2382H125.459C125.963 44.2382 126.442 44.4194 126.896 44.7819C127.349 45.1444 127.653 45.5781 127.808 46.083L133.537 62.6674L139.266 46.083C139.421 45.5781 139.725 45.1444 140.179 44.7819C140.632 44.4194 141.111 44.2382 141.616 44.2382H149.519C150.024 44.2382 150.445 44.4194 150.782 44.7819C151.131 45.1444 151.306 45.5911 151.306 46.1219V70.2217C151.306 70.7525 151.125 71.1991 150.762 71.5616C150.413 71.9112 149.986 72.0859 149.481 72.0859H145.985C145.48 72.0859 145.046 71.9112 144.684 71.5616C144.334 71.1991 144.16 70.7525 144.16 70.2217V51.2487L137.304 70.3382C137.123 70.8172 136.806 71.2315 136.353 71.581C135.9 71.9176 135.421 72.0859 134.916 72.0859H132.139C131.634 72.0859 131.155 71.9176 130.702 71.581C130.262 71.2315 129.944 70.8172 129.75 70.3382L122.915 51.2487V70.2217C122.915 70.7525 122.733 71.1991 122.371 71.5616C122.021 71.9112 121.594 72.0859 121.089 72.0859H117.594C117.089 72.0859 116.655 71.9112 116.292 71.5616C115.93 71.1991 115.749 70.7525 115.749 70.2217ZM157.85 70.6877C156.142 69.4967 155.287 67.8136 155.287 65.6386C155.287 63.4636 156.142 61.7935 157.85 60.6283C159.572 59.4632 161.786 58.8806 164.492 58.8806H170.92C170.92 57.3658 170.603 56.3107 169.968 55.7152C169.334 55.1196 168.221 54.8219 166.628 54.8219C165.049 54.8219 163.935 55.2167 163.288 56.0065C162.654 56.7833 161.87 57.1717 160.938 57.1717H158.045C157.695 57.1717 157.404 57.0616 157.171 56.8415C156.951 56.6085 156.841 56.3237 156.841 55.9871C156.841 52.2714 160.369 50.4136 167.424 50.4136C170.506 50.4136 172.978 51.1062 174.843 52.4915C176.707 53.8638 177.639 55.9935 177.639 58.8806V70.9013C177.639 71.2509 177.529 71.5357 177.309 71.7558C177.089 71.9759 176.804 72.0859 176.454 72.0859H172.707C172.357 72.0859 172.072 71.9759 171.852 71.7558C171.632 71.5228 171.522 71.2379 171.522 70.9013V70.2993C169.476 71.7623 167.114 72.4873 164.434 72.4743C161.767 72.4743 159.572 71.8788 157.85 70.6877ZM164.958 63.2888C164.052 63.2888 163.333 63.5089 162.802 63.9491C162.285 64.3893 162.026 64.9589 162.026 65.658C162.026 66.3571 162.298 66.9333 162.841 67.3864C163.385 67.8395 164.155 68.0661 165.152 68.0661C167.146 68.0661 169.069 67.4835 170.92 66.3183V63.2888H164.958ZM182.436 70.9013V52.006C182.436 51.6565 182.546 51.3717 182.766 51.1516C182.999 50.9185 183.284 50.802 183.62 50.802H198.146C198.483 50.802 198.761 50.9185 198.981 51.1516C199.214 51.3717 199.331 51.6565 199.331 52.006V54.317C199.331 54.6536 199.214 54.9384 198.981 55.1714C198.761 55.3915 198.483 55.5016 198.146 55.5016H189.155V70.9013C189.155 71.2379 189.038 71.5228 188.805 71.7558C188.585 71.9759 188.307 72.0859 187.97 72.0859H183.62C183.284 72.0859 182.999 71.9759 182.766 71.7558C182.546 71.5228 182.436 71.2379 182.436 70.9013ZM203.098 70.6877C201.389 69.4967 200.535 67.8136 200.535 65.6386C200.535 63.4636 201.389 61.7935 203.098 60.6283C204.82 59.4632 207.034 58.8806 209.74 58.8806H216.168C216.168 57.3658 215.85 56.3107 215.216 55.7152C214.582 55.1196 213.468 54.8219 211.876 54.8219C210.296 54.8219 209.183 55.2167 208.536 56.0065C207.901 56.7833 207.118 57.1717 206.186 57.1717H203.292C202.943 57.1717 202.652 57.0616 202.419 56.8415C202.198 56.6085 202.088 56.3237 202.088 55.9871C202.088 52.2714 205.616 50.4136 212.672 50.4136C215.753 50.4136 218.226 51.1062 220.09 52.4915C221.955 53.8638 222.887 55.9935 222.887 58.8806V70.9013C222.887 71.2509 222.777 71.5357 222.557 71.7558C222.337 71.9759 222.052 72.0859 221.702 72.0859H217.954C217.605 72.0859 217.32 71.9759 217.1 71.7558C216.88 71.5228 216.77 71.2379 216.77 70.9013V70.2993C214.724 71.7623 212.361 72.4873 209.682 72.4743C207.015 72.4743 204.82 71.8788 203.098 70.6877ZM210.206 63.2888C209.3 63.2888 208.581 63.5089 208.05 63.9491C207.532 64.3893 207.273 64.9589 207.273 65.658C207.273 66.3571 207.545 66.9333 208.089 67.3864C208.633 67.8395 209.403 68.0661 210.4 68.0661C212.394 68.0661 214.316 67.4835 216.168 66.3183V63.2888H210.206ZM226.091 66.629C226.091 66.2795 226.201 65.9946 226.421 65.7746C226.654 65.5545 226.939 65.4444 227.276 65.4444H230.189C231.069 65.4444 231.755 65.8846 232.247 66.765C232.752 67.6324 233.71 68.0661 235.121 68.0661H239.063C240.941 68.0661 241.879 67.2958 241.879 65.7551C241.879 64.2145 240.941 63.4507 239.063 63.4636H234.247C233.898 63.4636 233.607 63.3536 233.373 63.1335C233.153 62.9004 233.043 62.6092 233.043 62.2596V60.24C233.043 59.8904 233.153 59.6056 233.373 59.3855C233.607 59.1525 233.898 59.0359 234.247 59.0359H238.694C239.549 59.0359 240.19 58.8482 240.617 58.4728C241.057 58.0844 241.277 57.573 241.277 56.9386C241.277 56.3042 241.057 55.7929 240.617 55.4045C240.19 55.0161 239.549 54.8219 238.694 54.8219H235.121C234.668 54.8219 234.202 54.9384 233.723 55.1714C233.244 55.3915 232.888 55.7152 232.655 56.1424C232.15 57.0228 231.457 57.4565 230.577 57.4435H227.684C227.334 57.4435 227.043 57.3335 226.81 57.1134C226.59 56.8933 226.479 56.6085 226.479 56.2589C226.479 54.5112 227.327 53.1 229.023 52.0254C230.732 50.9509 232.791 50.4136 235.199 50.4136H239.102C241.834 50.4136 243.996 50.9185 245.588 51.9283C247.194 52.9252 247.996 54.4464 247.996 56.492C247.996 58.5375 247.071 60.0134 245.219 60.9196C247.472 62.0589 248.598 63.8585 248.598 66.3183C248.598 68.4674 247.835 70.0339 246.307 71.0179C244.792 71.9888 242.533 72.4743 239.529 72.4743H235.199C232.597 72.4743 230.428 71.9435 228.693 70.8819C226.959 69.8203 226.091 68.4027 226.091 66.629ZM251.997 70.9013V52.006C251.997 51.6565 252.107 51.3717 252.327 51.1516C252.56 50.9185 252.845 50.802 253.182 50.802H257.24C257.59 50.802 257.875 50.9185 258.095 51.1516C258.328 51.3717 258.444 51.6565 258.444 52.006V64.7647L265.28 52.2002C265.487 51.7989 265.804 51.4687 266.232 51.2098C266.659 50.9379 267.073 50.802 267.474 50.802H272.912C273.261 50.802 273.546 50.9185 273.766 51.1516C273.999 51.3717 274.116 51.6565 274.116 52.006V70.9013C274.116 71.2509 273.999 71.5357 273.766 71.7558C273.546 71.9759 273.261 72.0859 272.912 72.0859H268.853C268.504 72.0859 268.219 71.9759 267.999 71.7558C267.779 71.5228 267.669 71.2379 267.669 70.9013V58.1621L260.833 70.6877C260.626 71.0632 260.309 71.3933 259.881 71.6781C259.454 71.95 259.04 72.0859 258.638 72.0859H253.182C252.832 72.0859 252.547 71.9759 252.327 71.7558C252.107 71.5357 251.997 71.2509 251.997 70.9013ZM278.874 70.9013V52.006C278.874 51.6565 278.984 51.3717 279.204 51.1516C279.437 50.9185 279.722 50.802 280.058 50.802H284.408C284.758 50.802 285.043 50.9185 285.263 51.1516C285.483 51.3717 285.593 51.6565 285.593 52.006V58.9583H294.099V52.006C294.099 51.6565 294.209 51.3717 294.429 51.1516C294.662 50.9185 294.953 50.802 295.303 50.802H299.633C299.983 50.802 300.268 50.9185 300.488 51.1516C300.708 51.3717 300.818 51.6565 300.818 52.006V70.9013C300.818 71.2509 300.708 71.5357 300.488 71.7558C300.268 71.9759 299.983 72.0859 299.633 72.0859H295.303C294.953 72.0859 294.662 71.9759 294.429 71.7558C294.209 71.5228 294.099 71.2379 294.099 70.9013V63.6578H285.593V70.9013C285.593 71.2509 285.476 71.5357 285.243 71.7558C285.023 71.9759 284.745 72.0859 284.408 72.0859H280.058C279.709 72.0859 279.424 71.9759 279.204 71.7558C278.984 71.5357 278.874 71.2509 278.874 70.9013Z" fill="white"/>
<path d="M127.808 46.083L123.985 47.2594L124.005 47.3246L124.028 47.389L127.808 46.083ZM133.537 62.6674L129.756 63.9734L133.537 74.9185L137.318 63.9734L133.537 62.6674ZM139.266 46.083L143.047 47.389L143.069 47.3246L143.089 47.2594L139.266 46.083ZM150.782 44.7819L147.851 47.5037L147.876 47.5313L147.902 47.5585L150.782 44.7819ZM150.762 71.5616L147.934 68.7332L150.762 71.5616ZM144.684 71.5616L141.805 74.3382L141.855 74.3905L141.907 74.441L144.684 71.5616ZM144.16 51.2487H148.16L140.395 49.8968L144.16 51.2487ZM137.304 70.3382L141.046 71.7537L141.058 71.722L141.069 71.6901L137.304 70.3382ZM136.353 71.581L138.738 74.792L138.767 74.7703L138.796 74.7482L136.353 71.581ZM130.702 71.581L128.214 74.7135L128.265 74.7536L128.317 74.792L130.702 71.581ZM129.75 70.3382L125.984 71.6867L126.012 71.7644L126.043 71.841L129.75 70.3382ZM122.915 51.2487L126.68 49.9002L118.915 51.2487H122.915ZM122.371 71.5616L119.542 68.7332L122.371 71.5616ZM116.292 71.5616L113.464 74.39L113.49 74.4157L113.516 74.441L116.292 71.5616ZM119.749 70.2217V46.1219H111.749V70.2217H119.749ZM119.749 46.1219C119.749 46.3021 119.718 46.5582 119.605 46.8464C119.49 47.1385 119.325 47.3794 119.152 47.5585L113.394 42.0054C112.283 43.1568 111.749 44.6173 111.749 46.1219H119.749ZM119.152 47.5585C118.986 47.7314 118.741 47.9195 118.418 48.0564C118.095 48.1933 117.791 48.2382 117.555 48.2382V40.2382C115.967 40.2382 114.499 40.8587 113.394 42.0054L119.152 47.5585ZM117.555 48.2382H125.459V40.2382H117.555V48.2382ZM125.459 48.2382C125.22 48.2382 124.987 48.1933 124.781 48.1153C124.581 48.0397 124.454 47.9512 124.397 47.9054L129.394 41.6584C128.343 40.8175 127.005 40.2382 125.459 40.2382V48.2382ZM124.397 47.9054C124.355 47.8718 124.275 47.7983 124.189 47.6762C124.101 47.5514 124.031 47.4081 123.985 47.2594L131.631 44.9067C131.217 43.5593 130.41 42.4708 129.394 41.6584L124.397 47.9054ZM124.028 47.389L129.756 63.9734L137.318 61.3614L131.589 44.777L124.028 47.389ZM137.318 63.9734L143.047 47.389L135.485 44.777L129.756 61.3614L137.318 63.9734ZM143.089 47.2594C143.043 47.4081 142.973 47.5514 142.885 47.6762C142.8 47.7983 142.719 47.8718 142.677 47.9054L137.68 41.6584C136.664 42.4708 135.857 43.5593 135.443 44.9067L143.089 47.2594ZM142.677 47.9054C142.62 47.9512 142.493 48.0397 142.293 48.1153C142.087 48.1933 141.854 48.2382 141.616 48.2382V40.2382C140.07 40.2382 138.731 40.8175 137.68 41.6584L142.677 47.9054ZM141.616 48.2382H149.519V40.2382H141.616V48.2382ZM149.519 48.2382C149.284 48.2382 148.97 48.1935 148.631 48.0478C148.291 47.9012 148.03 47.6972 147.851 47.5037L153.713 42.0601C152.602 40.8636 151.111 40.2382 149.519 40.2382V48.2382ZM147.902 47.5585C147.73 47.3794 147.564 47.1385 147.45 46.8464C147.337 46.5582 147.306 46.3021 147.306 46.1219H155.306C155.306 44.6173 154.771 43.1568 153.661 42.0054L147.902 47.5585ZM147.306 46.1219V70.2217H155.306V46.1219H147.306ZM147.306 70.2217C147.306 70.0238 147.342 69.7513 147.464 69.4507C147.587 69.1473 147.761 68.9058 147.934 68.7332L153.591 74.39C154.733 73.2482 155.306 71.7714 155.306 70.2217H147.306ZM147.934 68.7332C148.108 68.5593 148.353 68.3804 148.665 68.2527C148.976 68.1257 149.263 68.0859 149.481 68.0859V76.0859C151.021 76.0859 152.473 75.5075 153.591 74.39L147.934 68.7332ZM149.481 68.0859H145.985V76.0859H149.481V68.0859ZM145.985 68.0859C146.204 68.0859 146.481 68.1259 146.776 68.2448C147.072 68.3638 147.301 68.5281 147.46 68.6822L141.907 74.441C143.018 75.5116 144.448 76.0859 145.985 76.0859V68.0859ZM147.563 68.7851C147.736 68.9641 147.901 69.205 148.016 69.4971C148.128 69.7854 148.16 70.0415 148.16 70.2217H140.16C140.16 71.7263 140.694 73.1867 141.805 74.3382L147.563 68.7851ZM148.16 70.2217V51.2487H140.16V70.2217H148.16ZM140.395 49.8968L133.54 68.9863L141.069 71.6901L147.924 52.6006L140.395 49.8968ZM133.563 68.9226C133.613 68.7909 133.681 68.6729 133.755 68.5765C133.827 68.4825 133.887 68.4311 133.91 68.4139L138.796 74.7482C139.765 74.0008 140.572 73.0047 141.046 71.7537L133.563 68.9226ZM133.968 68.3701C134.028 68.3251 134.148 68.249 134.328 68.1859C134.512 68.1212 134.714 68.0859 134.916 68.0859V76.0859C136.381 76.0859 137.681 75.5775 138.738 74.792L133.968 68.3701ZM134.916 68.0859H132.139V76.0859H134.916V68.0859ZM132.139 68.0859C132.341 68.0859 132.543 68.1212 132.727 68.1859C132.907 68.249 133.027 68.3251 133.087 68.3701L128.317 74.792C129.374 75.5775 130.674 76.0859 132.139 76.0859V68.0859ZM133.189 68.4486C133.207 68.4626 133.254 68.5034 133.31 68.5765C133.367 68.6511 133.418 68.7397 133.457 68.8354L126.043 71.841C126.519 73.0144 127.283 73.9735 128.214 74.7135L133.189 68.4486ZM133.516 68.9897L126.68 49.9002L119.149 52.5972L125.984 71.6867L133.516 68.9897ZM118.915 51.2487V70.2217H126.915V51.2487H118.915ZM118.915 70.2217C118.915 70.0238 118.95 69.7513 119.072 69.4507C119.195 69.1473 119.37 68.9058 119.542 68.7332L125.199 74.39C126.341 73.2482 126.915 71.7714 126.915 70.2217H118.915ZM119.542 68.7332C119.716 68.5593 119.962 68.3804 120.274 68.2527C120.584 68.1257 120.871 68.0859 121.089 68.0859V76.0859C122.629 76.0859 124.082 75.5075 125.199 74.39L119.542 68.7332ZM121.089 68.0859H117.594V76.0859H121.089V68.0859ZM117.594 68.0859C117.812 68.0859 118.09 68.1259 118.385 68.2448C118.68 68.3638 118.909 68.5281 119.069 68.6822L113.516 74.441C114.626 75.5116 116.056 76.0859 117.594 76.0859V68.0859ZM119.121 68.7332C119.294 68.9058 119.468 69.1473 119.591 69.4507C119.713 69.7513 119.749 70.0238 119.749 70.2217H111.749C111.749 71.7714 112.322 73.2482 113.464 74.39L119.121 68.7332ZM157.85 70.6877L155.563 73.9693L155.569 73.9734L155.575 73.9774L157.85 70.6877ZM157.85 60.6283L155.609 57.3155L155.597 57.3234L157.85 60.6283ZM170.92 58.8806V62.8806H174.92V58.8806H170.92ZM169.968 55.7152L172.706 52.7989L169.968 55.7152ZM163.288 56.0065L160.194 53.4708L160.19 53.4763L163.288 56.0065ZM157.171 56.8415L154.263 59.588L154.341 59.6711L154.424 59.7496L157.171 56.8415ZM174.843 52.4915L172.457 55.7022L172.464 55.7075L172.471 55.7129L174.843 52.4915ZM171.852 71.7558L168.944 74.5023L168.983 74.5438L169.024 74.5842L171.852 71.7558ZM171.522 70.2993H175.522V62.5209L169.195 67.0458L171.522 70.2993ZM164.434 72.4743L164.453 68.4744L164.443 68.4743H164.434V72.4743ZM162.802 63.9491L160.249 60.8701L160.23 60.8856L160.212 60.9014L162.802 63.9491ZM162.841 67.3864L165.402 64.3135L162.841 67.3864ZM170.92 66.3183L173.051 69.7036L174.92 68.5271V66.3183H170.92ZM170.92 63.2888H174.92V59.2888H170.92V63.2888ZM160.138 67.4061C159.557 67.0014 159.287 66.574 159.287 65.6386H151.287C151.287 69.0532 152.726 71.9919 155.563 73.9693L160.138 67.4061ZM159.287 65.6386C159.287 64.7051 159.553 64.3088 160.104 63.9333L155.597 57.3234C152.73 59.2783 151.287 62.2221 151.287 65.6386H159.287ZM160.092 63.9411C160.979 63.341 162.347 62.8806 164.492 62.8806V54.8806C161.226 54.8806 158.166 55.5853 155.609 57.3156L160.092 63.9411ZM164.492 62.8806H170.92V54.8806H164.492V62.8806ZM174.92 58.8806C174.92 57.0274 174.572 54.5505 172.706 52.7989L167.231 58.6315C166.915 58.3352 166.842 58.0747 166.851 58.1047C166.856 58.1187 166.874 58.1858 166.891 58.3207C166.907 58.4548 166.92 58.6389 166.92 58.8806H174.92ZM172.706 52.7989C170.918 51.1206 168.48 50.8219 166.628 50.8219V58.8219C167.198 58.8219 167.505 58.8776 167.624 58.9094C167.742 58.9411 167.525 58.9082 167.231 58.6315L172.706 52.7989ZM166.628 50.8219C164.511 50.8219 161.939 51.3422 160.194 53.4708L166.382 58.5422C166.287 58.658 166.184 58.746 166.094 58.807C166.006 58.8661 165.948 58.887 165.946 58.888C165.945 58.8883 165.994 58.8707 166.111 58.8536C166.228 58.8365 166.397 58.8219 166.628 58.8219V50.8219ZM160.19 53.4763C160.18 53.4882 160.259 53.3903 160.448 53.2967C160.645 53.1991 160.83 53.1717 160.938 53.1717V61.1716C163.172 61.1716 165.058 60.1628 166.386 58.5366L160.19 53.4763ZM160.938 53.1717H158.045V61.1716H160.938V53.1717ZM158.045 53.1717C158.294 53.1717 158.62 53.212 158.978 53.3472C159.342 53.4848 159.661 53.691 159.917 53.9335L154.424 59.7496C155.47 60.7373 156.775 61.1716 158.045 61.1716V53.1717ZM160.079 54.095C160.307 54.3368 160.513 54.6458 160.654 55.0115C160.794 55.3738 160.841 55.7128 160.841 55.9871H152.841C152.841 57.2885 153.304 58.5724 154.263 59.588L160.079 54.095ZM160.841 55.9871C160.841 55.8404 160.858 55.76 160.866 55.728C160.874 55.6993 160.88 55.6912 160.882 55.688C160.885 55.6837 160.905 55.6522 160.968 55.5971C161.033 55.5395 161.152 55.4509 161.35 55.3462C162.253 54.871 164.117 54.4136 167.424 54.4136V46.4136C163.676 46.4136 160.248 46.8851 157.623 48.2677C156.251 48.9902 155.009 50.0093 154.122 51.4093C153.226 52.8246 152.841 54.3994 152.841 55.9871H160.841ZM167.424 54.4136C169.925 54.4136 171.477 54.974 172.457 55.7022L177.228 49.2808C174.48 47.2385 171.086 46.4136 167.424 46.4136V54.4136ZM172.471 55.7129C173.059 56.1454 173.639 56.9151 173.639 58.8806H181.639C181.639 55.0719 180.355 51.5822 177.214 49.2702L172.471 55.7129ZM173.639 58.8806V70.9013H181.639V58.8806H173.639ZM173.639 70.9013C173.639 70.6537 173.679 70.3145 173.825 69.9355C173.975 69.5475 174.204 69.2038 174.481 68.9274L180.137 74.5842C181.203 73.5189 181.639 72.1692 181.639 70.9013H173.639ZM174.481 68.9274C174.757 68.651 175.101 68.4221 175.489 68.2722C175.868 68.1258 176.207 68.0859 176.454 68.0859V76.0859C177.722 76.0859 179.072 75.6496 180.137 74.5842L174.481 68.9274ZM176.454 68.0859H172.707V76.0859H176.454V68.0859ZM172.707 68.0859C172.954 68.0859 173.293 68.1258 173.672 68.2722C174.06 68.4221 174.404 68.651 174.68 68.9274L169.024 74.5842C170.089 75.6496 171.439 76.0859 172.707 76.0859V68.0859ZM174.76 69.0093C174.988 69.2511 175.194 69.5601 175.336 69.9258C175.476 70.2881 175.522 70.6271 175.522 70.9013H167.522C167.522 72.2028 167.985 73.4867 168.944 74.5023L174.76 69.0093ZM175.522 70.9013V70.2993H167.522V70.9013H175.522ZM169.195 67.0458C167.88 67.9865 166.35 68.4835 164.453 68.4744L164.414 76.4743C167.877 76.491 171.073 75.5381 173.849 73.5529L169.195 67.0458ZM164.434 68.4743C162.357 68.4743 161.017 68.0144 160.126 67.3981L155.575 73.9774C158.128 75.7432 161.176 76.4743 164.434 76.4743V68.4743ZM164.958 59.2888C163.416 59.2888 161.697 59.6697 160.249 60.8701L165.356 67.0281C165.179 67.1746 165.011 67.2478 164.911 67.2785C164.822 67.3058 164.823 67.2888 164.958 67.2888V59.2888ZM160.212 60.9014C158.771 62.1262 158.026 63.8241 158.026 65.658H166.026C166.026 65.8122 165.995 66.0687 165.861 66.3617C165.727 66.6577 165.543 66.8691 165.393 66.9969L160.212 60.9014ZM158.026 65.658C158.026 67.5613 158.838 69.2571 160.281 70.4593L165.402 64.3135C165.528 64.4181 165.708 64.6127 165.847 64.9074C165.987 65.2034 166.026 65.4755 166.026 65.658H158.026ZM160.281 70.4593C161.788 71.7151 163.597 72.0661 165.152 72.0661V64.0661C164.948 64.0661 164.898 64.0418 164.956 64.0587C165.025 64.079 165.201 64.1459 165.402 64.3135L160.281 70.4593ZM165.152 72.0661C167.972 72.0661 170.625 71.23 173.051 69.7036L168.789 62.933C167.512 63.737 166.32 64.0661 165.152 64.0661V72.0661ZM174.92 66.3183V63.2888H166.92V66.3183H174.92ZM170.92 59.2888H164.958V67.2888H170.92V59.2888ZM182.766 51.1516L185.594 53.98L182.766 51.1516ZM198.981 51.1516L196.073 53.8981L196.152 53.9811L196.235 54.0596L198.981 51.1516ZM189.155 55.5016V51.5016H185.155V55.5016H189.155ZM188.805 71.7558L185.977 68.9274L188.805 71.7558ZM182.766 71.7558L179.858 74.5023L179.936 74.5854L180.019 74.6639L182.766 71.7558ZM186.436 70.9013V52.006H178.436V70.9013H186.436ZM186.436 52.006C186.436 52.2536 186.396 52.5928 186.249 52.9718C186.1 53.3598 185.871 53.7036 185.594 53.98L179.937 48.3231C178.872 49.3885 178.436 50.7382 178.436 52.006H186.436ZM185.594 53.98C185.362 54.2121 185.052 54.4348 184.669 54.5916C184.287 54.7477 183.922 54.802 183.62 54.802V46.802C182.248 46.802 180.938 47.3222 179.937 48.3231L185.594 53.98ZM183.62 54.802H198.146V46.802H183.62V54.802ZM198.146 54.802C197.846 54.802 197.466 54.7481 197.063 54.5792C196.655 54.4084 196.323 54.162 196.073 53.8981L201.889 48.4051C200.872 47.328 199.521 46.802 198.146 46.802V54.802ZM196.235 54.0596C195.955 53.7952 195.708 53.4516 195.541 53.0448C195.378 52.6455 195.331 52.2805 195.331 52.006H203.331C203.331 50.6667 202.838 49.292 201.728 48.2435L196.235 54.0596ZM195.331 52.006V54.317H203.331V52.006H195.331ZM195.331 54.317C195.331 54.0148 195.385 53.6501 195.541 53.2685C195.698 52.8852 195.921 52.5751 196.153 52.343L201.81 57.9999C202.811 56.9989 203.331 55.689 203.331 54.317H195.331ZM196.153 52.343C196.414 52.0819 196.747 51.8534 197.137 51.6992C197.521 51.5475 197.874 51.5016 198.146 51.5016V59.5016C199.448 59.5016 200.775 59.035 201.81 57.9999L196.153 52.343ZM198.146 51.5016H189.155V59.5016H198.146V51.5016ZM185.155 55.5016V70.9013H193.155V55.5016H185.155ZM185.155 70.9013C185.155 70.5992 185.209 70.2345 185.365 69.8529C185.522 69.4695 185.745 69.1595 185.977 68.9274L191.634 74.5842C192.635 73.5833 193.155 72.2734 193.155 70.9013H185.155ZM185.977 68.9274C186.238 68.6663 186.571 68.4377 186.961 68.2836C187.345 68.1318 187.698 68.0859 187.97 68.0859V76.0859C189.272 76.0859 190.599 75.6193 191.634 74.5842L185.977 68.9274ZM187.97 68.0859H183.62V76.0859H187.97V68.0859ZM183.62 68.0859C183.895 68.0859 184.234 68.1322 184.596 68.2722C184.962 68.4135 185.271 68.6194 185.512 68.8478L180.019 74.6639C181.035 75.6231 182.319 76.0859 183.62 76.0859V68.0859ZM185.674 69.0093C185.902 69.2511 186.108 69.5601 186.249 69.9258C186.389 70.2881 186.436 70.6271 186.436 70.9013H178.436C178.436 72.2028 178.899 73.4867 179.858 74.5023L185.674 69.0093ZM203.098 70.6877L200.811 73.9693L200.817 73.9734L200.823 73.9774L203.098 70.6877ZM203.098 60.6283L200.856 57.3155L200.845 57.3234L203.098 60.6283ZM216.168 58.8806V62.8806H220.168V58.8806H216.168ZM215.216 55.7152L217.954 52.7989L215.216 55.7152ZM208.536 56.0065L205.442 53.4708L205.438 53.4763L208.536 56.0065ZM202.419 56.8415L199.511 59.588L199.589 59.6711L199.672 59.7496L202.419 56.8415ZM220.09 52.4915L217.705 55.7022L217.712 55.7075L217.719 55.7129L220.09 52.4915ZM217.1 71.7558L214.192 74.5023L214.231 74.5438L214.271 74.5842L217.1 71.7558ZM216.77 70.2993H220.77V62.5209L214.443 67.0458L216.77 70.2993ZM209.682 72.4743L209.701 68.4744L209.691 68.4743H209.682V72.4743ZM208.05 63.9491L205.497 60.8701L205.478 60.8856L205.46 60.9014L208.05 63.9491ZM208.089 67.3864L210.65 64.3135L208.089 67.3864ZM216.168 66.3183L218.298 69.7036L220.168 68.5271V66.3183H216.168ZM216.168 63.2888H220.168V59.2888H216.168V63.2888ZM205.385 67.4061C204.805 67.0014 204.535 66.574 204.535 65.6386H196.535C196.535 69.0532 197.974 71.9919 200.811 73.9693L205.385 67.4061ZM204.535 65.6386C204.535 64.7051 204.801 64.3088 205.352 63.9333L200.845 57.3234C197.978 59.2783 196.535 62.2221 196.535 65.6386H204.535ZM205.34 63.9411C206.227 63.341 207.595 62.8806 209.74 62.8806V54.8806C206.473 54.8806 203.413 55.5853 200.857 57.3156L205.34 63.9411ZM209.74 62.8806H216.168V54.8806H209.74V62.8806ZM220.168 58.8806C220.168 57.0274 219.82 54.5505 217.954 52.7989L212.478 58.6315C212.163 58.3352 212.09 58.0747 212.099 58.1047C212.103 58.1187 212.122 58.1858 212.138 58.3207C212.155 58.4548 212.168 58.6389 212.168 58.8806H220.168ZM217.954 52.7989C216.166 51.1206 213.727 50.8219 211.876 50.8219V58.8219C212.446 58.8219 212.753 58.8776 212.872 58.9094C212.99 58.9411 212.773 58.9082 212.478 58.6315L217.954 52.7989ZM211.876 50.8219C209.758 50.8219 207.187 51.3422 205.442 53.4708L211.629 58.5422C211.534 58.658 211.432 58.746 211.341 58.807C211.254 58.8661 211.196 58.887 211.193 58.888C211.192 58.8883 211.242 58.8707 211.359 58.8536C211.476 58.8365 211.645 58.8219 211.876 58.8219V50.8219ZM205.438 53.4763C205.428 53.4882 205.507 53.3903 205.696 53.2967C205.892 53.1991 206.077 53.1717 206.186 53.1717V61.1716C208.42 61.1716 210.306 60.1628 211.634 58.5366L205.438 53.4763ZM206.186 53.1717H203.292V61.1716H206.186V53.1717ZM203.292 53.1717C203.542 53.1717 203.867 53.212 204.225 53.3472C204.59 53.4848 204.908 53.691 205.165 53.9335L199.672 59.7496C200.718 60.7373 202.022 61.1716 203.292 61.1716V53.1717ZM205.327 54.095C205.555 54.3368 205.761 54.6458 205.902 55.0115C206.042 55.3738 206.088 55.7128 206.088 55.9871H198.088C198.088 57.2885 198.551 58.5724 199.511 59.588L205.327 54.095ZM206.088 55.9871C206.088 55.8404 206.106 55.76 206.114 55.728C206.122 55.6993 206.128 55.6912 206.13 55.688C206.132 55.6837 206.152 55.6522 206.215 55.5971C206.281 55.5395 206.399 55.4509 206.598 55.3462C207.501 54.871 209.365 54.4136 212.672 54.4136V46.4136C208.924 46.4136 205.496 46.8851 202.871 48.2677C201.499 48.9902 200.256 50.0093 199.37 51.4093C198.474 52.8246 198.088 54.3994 198.088 55.9871H206.088ZM212.672 54.4136C215.173 54.4136 216.725 54.974 217.705 55.7022L222.476 49.2808C219.728 47.2385 216.334 46.4136 212.672 46.4136V54.4136ZM217.719 55.7129C218.307 56.1454 218.887 56.9151 218.887 58.8806H226.887C226.887 55.0719 225.603 51.5822 222.462 49.2702L217.719 55.7129ZM218.887 58.8806V70.9013H226.887V58.8806H218.887ZM218.887 70.9013C218.887 70.6537 218.927 70.3145 219.073 69.9355C219.223 69.5475 219.452 69.2038 219.728 68.9274L225.385 74.5842C226.451 73.5189 226.887 72.1692 226.887 70.9013H218.887ZM219.728 68.9274C220.005 68.651 220.348 68.4221 220.736 68.2722C221.115 68.1258 221.455 68.0859 221.702 68.0859V76.0859C222.97 76.0859 224.32 75.6496 225.385 74.5842L219.728 68.9274ZM221.702 68.0859H217.954V76.0859H221.702V68.0859ZM217.954 68.0859C218.202 68.0859 218.541 68.1258 218.92 68.2722C219.308 68.4221 219.652 68.651 219.928 68.9274L214.271 74.5842C215.337 75.6496 216.686 76.0859 217.954 76.0859V68.0859ZM220.008 69.0093C220.236 69.2511 220.442 69.5601 220.583 69.9258C220.723 70.2881 220.77 70.6271 220.77 70.9013H212.77C212.77 72.2028 213.233 73.4867 214.192 74.5023L220.008 69.0093ZM220.77 70.9013V70.2993H212.77V70.9013H220.77ZM214.443 67.0458C213.128 67.9865 211.598 68.4835 209.701 68.4744L209.662 76.4743C213.125 76.491 216.321 75.5381 219.097 73.5529L214.443 67.0458ZM209.682 68.4743C207.605 68.4743 206.265 68.0144 205.374 67.3981L200.823 73.9774C203.375 75.7432 206.424 76.4743 209.682 76.4743V68.4743ZM210.206 59.2888C208.663 59.2888 206.944 59.6697 205.497 60.8701L210.604 67.0281C210.427 67.1746 210.259 67.2478 210.159 67.2785C210.07 67.3058 210.071 67.2888 210.206 67.2888V59.2888ZM205.46 60.9014C204.019 62.1262 203.273 63.8241 203.273 65.658H211.273C211.273 65.8122 211.242 66.0687 211.109 66.3617C210.975 66.6577 210.791 66.8691 210.641 66.9969L205.46 60.9014ZM203.273 65.658C203.273 67.5613 204.086 69.2571 205.528 70.4593L210.65 64.3135C210.775 64.4181 210.956 64.6127 211.095 64.9074C211.235 65.2034 211.273 65.4755 211.273 65.658H203.273ZM205.528 70.4593C207.035 71.7151 208.844 72.0661 210.4 72.0661V64.0661C210.196 64.0661 210.146 64.0418 210.203 64.0587C210.272 64.079 210.449 64.1459 210.65 64.3135L205.528 70.4593ZM210.4 72.0661C213.22 72.0661 215.873 71.23 218.298 69.7036L214.037 62.933C212.76 63.737 211.567 64.0661 210.4 64.0661V72.0661ZM220.168 66.3183V63.2888H212.168V66.3183H220.168ZM216.168 59.2888H210.206V67.2888H216.168V59.2888ZM226.421 65.7746L223.675 62.8665L223.633 62.9057L223.593 62.9461L226.421 65.7746ZM232.247 66.765L228.755 68.7162L228.772 68.7469L228.79 68.7772L232.247 66.765ZM239.063 63.4636V67.4636H239.077L239.091 67.4635L239.063 63.4636ZM233.373 63.1335L230.465 65.88L230.544 65.9631L230.627 66.0415L233.373 63.1335ZM233.373 59.3855L230.545 56.5571L233.373 59.3855ZM240.617 58.4728L243.257 61.4774L243.263 61.4721L240.617 58.4728ZM240.617 55.4045L237.926 58.3642L237.948 58.3842L237.971 58.4038L240.617 55.4045ZM233.723 55.1714L235.393 58.8061L235.433 58.7877L235.473 58.7684L233.723 55.1714ZM232.655 56.1424L236.125 58.1325L236.146 58.0954L236.167 58.0578L232.655 56.1424ZM230.577 57.4435L230.636 53.444L230.606 53.4435H230.577V57.4435ZM226.81 57.1134L223.981 59.9418L224.022 59.9822L224.063 60.0214L226.81 57.1134ZM229.023 52.0254L226.894 48.6392L226.883 48.6466L229.023 52.0254ZM245.588 51.9283L243.446 55.3064L243.462 55.3165L243.478 55.3265L245.588 51.9283ZM245.219 60.9196L243.461 57.327L236.241 60.8612L243.414 64.4891L245.219 60.9196ZM246.307 71.0179L248.466 74.3854L248.473 74.3807L246.307 71.0179ZM230.091 66.629C230.091 66.8766 230.051 67.2158 229.905 67.5948C229.755 67.9828 229.526 68.3266 229.25 68.603L223.593 62.9461C222.527 64.0115 222.091 65.3612 222.091 66.629H230.091ZM229.168 68.6826C228.926 68.911 228.617 69.1168 228.251 69.2581C227.889 69.3981 227.55 69.4444 227.276 69.4444V61.4444C225.974 61.4444 224.69 61.9073 223.675 62.8665L229.168 68.6826ZM227.276 69.4444H230.189V61.4444H227.276V69.4444ZM230.189 69.4444C229.927 69.4444 229.557 69.3678 229.204 69.1413C229.045 69.0393 228.931 68.9331 228.857 68.8501C228.785 68.7694 228.755 68.7165 228.755 68.7162L235.739 64.8137C234.664 62.8903 232.756 61.4444 230.189 61.4444V69.4444ZM228.79 68.7772C230.285 71.3456 232.93 72.0661 235.121 72.0661V64.0661C234.8 64.0661 234.81 64.0133 234.994 64.0968C235.095 64.1423 235.229 64.2208 235.369 64.3453C235.51 64.471 235.623 64.6131 235.704 64.7527L228.79 68.7772ZM235.121 72.0661H239.063V64.0661H235.121V72.0661ZM239.063 72.0661C240.448 72.0661 242.229 71.7981 243.713 70.5804C245.348 69.2384 245.879 67.3735 245.879 65.7551H237.879C237.879 65.7419 237.881 65.5482 237.997 65.2609C238.124 64.9492 238.342 64.6387 238.638 64.3963C239.183 63.9489 239.556 64.0661 239.063 64.0661V72.0661ZM245.879 65.7551C245.879 64.1384 245.348 62.2656 243.7 60.9243C242.206 59.7088 240.418 59.4542 239.036 59.4637L239.091 67.4635C239.587 67.4601 239.206 67.5809 238.651 67.1293C238.349 66.8842 238.127 66.5697 237.999 66.2542C237.881 65.9638 237.879 65.768 237.879 65.7551H245.879ZM239.063 59.4636H234.247V67.4636H239.063V59.4636ZM234.247 59.4636C234.497 59.4636 234.822 59.5039 235.18 59.6392C235.544 59.7767 235.863 59.983 236.12 60.2254L230.627 66.0415C231.673 67.0293 232.977 67.4636 234.247 67.4636V59.4636ZM236.282 60.387C236.524 60.6437 236.73 60.9625 236.868 61.3266C237.003 61.6847 237.043 62.0103 237.043 62.2596H229.043C229.043 63.5296 229.478 64.8342 230.465 65.88L236.282 60.387ZM237.043 62.2596V60.24H229.043V62.2596H237.043ZM237.043 60.24C237.043 60.4876 237.003 60.8268 236.857 61.2058C236.707 61.5938 236.478 61.9375 236.202 62.2139L230.545 56.5571C229.48 57.6224 229.043 58.9721 229.043 60.24H237.043ZM236.202 62.2139C235.955 62.4608 235.635 62.6842 235.252 62.8372C234.874 62.9884 234.523 63.0359 234.247 63.0359V55.0359C232.908 55.0359 231.577 55.5248 230.545 56.5571L236.202 62.2139ZM234.247 63.0359H238.694V55.0359H234.247V63.0359ZM238.694 63.0359C240.048 63.0359 241.81 62.7498 243.257 61.4774L237.977 55.4681C238.271 55.2091 238.548 55.0983 238.691 55.0564C238.822 55.0183 238.842 55.0359 238.694 55.0359V63.0359ZM243.263 61.4721C244.639 60.258 245.277 58.6163 245.277 56.9386H237.277C237.277 56.7876 237.305 56.5254 237.438 56.2166C237.574 55.9001 237.772 55.6484 237.971 55.4734L243.263 61.4721ZM245.277 56.9386C245.277 55.2609 244.639 53.6192 243.263 52.4051L237.971 58.4038C237.772 58.2288 237.574 57.9771 237.438 57.6606C237.305 57.3518 237.277 57.0897 237.277 56.9386H245.277ZM243.308 52.4447C241.859 51.1277 240.076 50.8219 238.694 50.8219V58.8219C238.831 58.8219 238.799 58.8389 238.656 58.7956C238.498 58.7479 238.217 58.6286 237.926 58.3642L243.308 52.4447ZM238.694 50.8219H235.121V58.8219H238.694V50.8219ZM235.121 50.8219C233.964 50.8219 232.902 51.1225 231.973 51.5745L235.473 58.7684C235.502 58.7543 235.372 58.8219 235.121 58.8219V50.8219ZM232.053 51.5367C230.86 52.0849 229.824 52.9792 229.143 54.227L236.167 58.0578C236.072 58.2311 235.943 58.3974 235.787 58.539C235.634 58.6782 235.491 58.7612 235.393 58.8061L232.053 51.5367ZM229.185 54.1524C229.182 54.1579 229.304 53.9444 229.634 53.7377C229.992 53.5137 230.368 53.44 230.636 53.444L230.518 61.4431C233.102 61.4811 235.029 60.0422 236.125 58.1325L229.185 54.1524ZM230.577 53.4435H227.684V61.4435H230.577V53.4435ZM227.684 53.4435C227.933 53.4435 228.258 53.4838 228.616 53.6191C228.981 53.7567 229.299 53.9629 229.556 54.2053L224.063 60.0214C225.109 61.0092 226.414 61.4435 227.684 61.4435V53.4435ZM229.638 54.285C229.914 54.5614 230.143 54.9051 230.293 55.2931C230.44 55.6721 230.479 56.0113 230.479 56.2589H222.479C222.479 57.5268 222.916 58.8765 223.981 59.9418L229.638 54.285ZM230.479 56.2589C230.479 56.0644 230.517 55.9947 230.544 55.95C230.584 55.8828 230.729 55.6804 231.164 55.4043L226.883 48.6466C224.232 50.3263 222.479 52.9171 222.479 56.2589H230.479ZM231.153 55.4117C232.11 54.8097 233.397 54.4136 235.199 54.4136V46.4136C232.184 46.4136 229.355 47.0921 226.894 48.6392L231.153 55.4117ZM235.199 54.4136H239.102V46.4136H235.199V54.4136ZM239.102 54.4136C241.397 54.4136 242.721 54.8464 243.446 55.3064L247.731 48.5503C245.271 46.9907 242.27 46.4136 239.102 46.4136V54.4136ZM243.478 55.3265C243.739 55.4883 243.819 55.612 243.857 55.6836C243.902 55.7693 243.996 55.9971 243.996 56.492H251.996C251.996 53.2002 250.591 50.3263 247.699 48.5302L243.478 55.3265ZM243.996 56.492C243.996 56.7018 243.973 56.8321 243.954 56.9024C243.937 56.9687 243.92 56.997 243.914 57.0077C243.907 57.0186 243.887 57.0485 243.83 57.0971C243.77 57.1485 243.657 57.2309 243.461 57.327L246.978 64.5123C248.449 63.7922 249.765 62.7354 250.691 61.2584C251.618 59.7796 251.996 58.1336 251.996 56.492H243.996ZM243.414 64.4891C244.014 64.7925 244.254 65.072 244.363 65.246C244.468 65.4139 244.598 65.7176 244.598 66.3183H252.598C252.598 64.4592 252.166 62.6332 251.144 61.0016C250.127 59.3759 248.678 58.1861 247.025 57.3502L243.414 64.4891ZM244.598 66.3183C244.598 67.3962 244.302 67.5511 244.141 67.655L248.473 74.3807C251.367 72.5167 252.598 69.5386 252.598 66.3183H244.598ZM244.148 67.6503C243.578 68.0161 242.226 68.4743 239.529 68.4743V76.4743C242.84 76.4743 246.007 75.9616 248.466 74.3854L244.148 67.6503ZM239.529 68.4743H235.199V76.4743H239.529V68.4743ZM235.199 68.4743C233.131 68.4743 231.734 68.0534 230.781 67.4701L226.605 74.2938C229.122 75.8337 232.063 76.4743 235.199 76.4743V68.4743ZM230.781 67.4701C230.335 67.1968 230.191 66.996 230.154 66.9348C230.131 66.897 230.091 66.8306 230.091 66.629H222.091C222.091 70.0213 223.889 72.6316 226.605 74.2938L230.781 67.4701ZM252.327 51.1516L255.155 53.98L252.327 51.1516ZM258.095 51.1516L255.187 53.8981L255.265 53.9811L255.348 54.0596L258.095 51.1516ZM258.444 64.7647H254.444L261.958 66.6763L258.444 64.7647ZM265.28 52.2002L268.794 54.1118L268.814 54.0735L268.834 54.0348L265.28 52.2002ZM266.232 51.2098L268.305 54.6306L268.342 54.6079L268.379 54.5845L266.232 51.2098ZM273.766 51.1516L270.858 53.8981L270.937 53.9811L271.02 54.0596L273.766 51.1516ZM273.766 71.7558L271.02 68.8478L270.978 68.887L270.938 68.9274L273.766 71.7558ZM267.999 71.7558L265.091 74.5023L265.13 74.5438L265.17 74.5842L267.999 71.7558ZM267.669 58.1621H271.669L264.157 56.2459L267.669 58.1621ZM260.833 70.6877L264.335 72.62L264.34 72.612L264.344 72.6039L260.833 70.6877ZM259.881 71.6781L262.029 75.0528L262.065 75.0299L262.1 75.0063L259.881 71.6781ZM255.997 70.9013V52.006H247.997V70.9013H255.997ZM255.997 52.006C255.997 52.2536 255.957 52.5928 255.811 52.9718C255.661 53.3598 255.432 53.7036 255.155 53.98L249.499 48.3231C248.433 49.3885 247.997 50.7382 247.997 52.006H255.997ZM255.155 53.98C254.923 54.2121 254.613 54.4348 254.23 54.5916C253.848 54.7477 253.484 54.802 253.182 54.802V46.802C251.809 46.802 250.5 47.3222 249.499 48.3231L255.155 53.98ZM253.182 54.802H257.24V46.802H253.182V54.802ZM257.24 54.802C256.966 54.802 256.601 54.7549 256.201 54.5916C255.795 54.4251 255.451 54.1781 255.187 53.8981L261.003 48.4051C259.954 47.2949 258.58 46.802 257.24 46.802V54.802ZM255.348 54.0596C255.068 53.7952 254.821 53.4516 254.655 53.0448C254.491 52.6455 254.444 52.2805 254.444 52.006H262.444C262.444 50.6667 261.951 49.292 260.841 48.2435L255.348 54.0596ZM254.444 52.006V64.7647H262.444V52.006H254.444ZM261.958 66.6763L268.794 54.1118L261.766 50.2886L254.931 62.8531L261.958 66.6763ZM268.834 54.0348C268.759 54.1818 268.663 54.3136 268.558 54.4229C268.454 54.5304 268.362 54.5961 268.305 54.6306L264.158 47.789C263.17 48.3883 262.306 49.241 261.725 50.3657L268.834 54.0348ZM268.379 54.5845C268.331 54.6147 268.01 54.802 267.474 54.802V46.802C266.136 46.802 264.986 47.2611 264.084 47.8352L268.379 54.5845ZM267.474 54.802H272.912V46.802H267.474V54.802ZM272.912 54.802C272.637 54.802 272.272 54.7549 271.873 54.5916C271.466 54.4251 271.123 54.1781 270.858 53.8981L276.674 48.4051C275.626 47.2949 274.251 46.802 272.912 46.802V54.802ZM271.02 54.0596C270.74 53.7952 270.493 53.4516 270.326 53.0448C270.163 52.6455 270.116 52.2805 270.116 52.006H278.116C278.116 50.6667 277.623 49.292 276.513 48.2435L271.02 54.0596ZM270.116 52.006V70.9013H278.116V52.006H270.116ZM270.116 70.9013C270.116 70.6269 270.163 70.2618 270.326 69.8626C270.493 69.4557 270.74 69.1122 271.02 68.8478L276.513 74.6639C277.623 73.6153 278.116 72.2407 278.116 70.9013H270.116ZM270.938 68.9274C271.214 68.651 271.558 68.4221 271.946 68.2722C272.325 68.1258 272.664 68.0859 272.912 68.0859V76.0859C274.18 76.0859 275.529 75.6496 276.595 74.5842L270.938 68.9274ZM272.912 68.0859H268.853V76.0859H272.912V68.0859ZM268.853 68.0859C269.101 68.0859 269.44 68.1258 269.819 68.2722C270.207 68.4221 270.551 68.651 270.827 68.9274L265.17 74.5842C266.236 75.6496 267.585 76.0859 268.853 76.0859V68.0859ZM270.907 69.0093C271.135 69.2511 271.341 69.5601 271.482 69.9258C271.622 70.2881 271.669 70.6271 271.669 70.9013H263.669C263.669 72.2028 264.131 73.4867 265.091 74.5023L270.907 69.0093ZM271.669 70.9013V58.1621H263.669V70.9013H271.669ZM264.157 56.2459L257.322 68.7716L264.344 72.6039L271.18 60.0782L264.157 56.2459ZM257.331 68.7554C257.406 68.6178 257.488 68.5151 257.555 68.4456C257.62 68.378 257.663 68.3493 257.662 68.3499L262.1 75.0063C262.956 74.4356 263.763 73.6576 264.335 72.62L257.331 68.7554ZM257.734 68.3035C257.781 68.2732 258.103 68.0859 258.638 68.0859V76.0859C259.977 76.0859 261.127 75.6268 262.029 75.0528L257.734 68.3035ZM258.638 68.0859H253.182V76.0859H258.638V68.0859ZM253.182 68.0859C253.429 68.0859 253.768 68.1258 254.147 68.2722C254.535 68.4221 254.879 68.651 255.155 68.9274L249.499 74.5842C250.564 75.6496 251.914 76.0859 253.182 76.0859V68.0859ZM255.155 68.9274C255.432 69.2038 255.661 69.5475 255.811 69.9355C255.957 70.3145 255.997 70.6537 255.997 70.9013H247.997C247.997 72.1692 248.433 73.5189 249.499 74.5842L255.155 68.9274ZM279.204 51.1516L282.032 53.98L279.204 51.1516ZM285.263 51.1516L282.355 53.8981L282.394 53.9396L282.434 53.98L285.263 51.1516ZM285.593 58.9583H281.593V62.9583H285.593V58.9583ZM294.099 58.9583V62.9583H298.099V58.9583H294.099ZM294.429 51.1516L297.257 53.98L294.429 51.1516ZM300.488 51.1516L297.58 53.8981L297.619 53.9396L297.659 53.98L300.488 51.1516ZM294.429 71.7558L291.521 74.5023L291.599 74.5854L291.682 74.6639L294.429 71.7558ZM294.099 63.6578H298.099V59.6578H294.099V63.6578ZM285.593 63.6578V59.6578H281.593V63.6578H285.593ZM285.243 71.7558L282.497 68.8478L282.455 68.887L282.415 68.9274L285.243 71.7558ZM282.874 70.9013V52.006H274.874V70.9013H282.874ZM282.874 52.006C282.874 52.2536 282.834 52.5928 282.687 52.9718C282.538 53.3598 282.309 53.7036 282.032 53.98L276.375 48.3231C275.31 49.3885 274.874 50.7382 274.874 52.006H282.874ZM282.032 53.98C281.8 54.2121 281.49 54.4348 281.107 54.5916C280.725 54.7477 280.36 54.802 280.058 54.802V46.802C278.686 46.802 277.376 47.3222 276.375 48.3231L282.032 53.98ZM280.058 54.802H284.408V46.802H280.058V54.802ZM284.408 54.802C284.134 54.802 283.769 54.7549 283.37 54.5916C282.963 54.4251 282.619 54.1781 282.355 53.8981L288.171 48.4051C287.122 47.2949 285.748 46.802 284.408 46.802V54.802ZM282.434 53.98C282.158 53.7036 281.929 53.3598 281.779 52.9718C281.633 52.5928 281.593 52.2536 281.593 52.006H289.593C289.593 50.7382 289.157 49.3885 288.091 48.3231L282.434 53.98ZM281.593 52.006V58.9583H289.593V52.006H281.593ZM285.593 62.9583H294.099V54.9583H285.593V62.9583ZM298.099 58.9583V52.006H290.099V58.9583H298.099ZM298.099 52.006C298.099 52.2536 298.059 52.5928 297.912 52.9718C297.763 53.3598 297.534 53.7036 297.257 53.98L291.6 48.3231C290.535 49.3885 290.099 50.7382 290.099 52.006H298.099ZM297.257 53.98C297.01 54.2268 296.69 54.4503 296.308 54.6033C295.93 54.7544 295.579 54.802 295.303 54.802V46.802C293.964 46.802 292.633 47.2909 291.6 48.3231L297.257 53.98ZM295.303 54.802H299.633V46.802H295.303V54.802ZM299.633 54.802C299.359 54.802 298.994 54.7549 298.595 54.5916C298.188 54.4251 297.844 54.1781 297.58 53.8981L303.396 48.4051C302.347 47.2949 300.973 46.802 299.633 46.802V54.802ZM297.659 53.98C297.383 53.7036 297.154 53.3598 297.004 52.9718C296.858 52.5928 296.818 52.2536 296.818 52.006H304.818C304.818 50.7382 304.382 49.3885 303.316 48.3231L297.659 53.98ZM296.818 52.006V70.9013H304.818V52.006H296.818ZM296.818 70.9013C296.818 70.6537 296.858 70.3145 297.004 69.9355C297.154 69.5475 297.383 69.2038 297.659 68.9274L303.316 74.5842C304.382 73.5189 304.818 72.1692 304.818 70.9013H296.818ZM297.659 68.9274C297.936 68.651 298.279 68.4221 298.667 68.2722C299.046 68.1258 299.386 68.0859 299.633 68.0859V76.0859C300.901 76.0859 302.251 75.6496 303.316 74.5842L297.659 68.9274ZM299.633 68.0859H295.303V76.0859H299.633V68.0859ZM295.303 68.0859C295.552 68.0859 295.878 68.1263 296.236 68.2615C296.6 68.3991 296.919 68.6053 297.175 68.8478L291.682 74.6639C292.728 75.6516 294.033 76.0859 295.303 76.0859V68.0859ZM297.337 69.0093C297.565 69.2511 297.771 69.5601 297.912 69.9258C298.052 70.2881 298.099 70.6271 298.099 70.9013H290.099C290.099 72.2028 290.562 73.4867 291.521 74.5023L297.337 69.0093ZM298.099 70.9013V63.6578H290.099V70.9013H298.099ZM294.099 59.6578H285.593V67.6578H294.099V59.6578ZM281.593 63.6578V70.9013H289.593V63.6578H281.593ZM281.593 70.9013C281.593 70.6269 281.64 70.2618 281.803 69.8626C281.97 69.4557 282.217 69.1122 282.497 68.8478L287.99 74.6639C289.1 73.6153 289.593 72.2407 289.593 70.9013H281.593ZM282.415 68.9274C282.676 68.6663 283.009 68.4377 283.399 68.2836C283.783 68.1318 284.136 68.0859 284.408 68.0859V76.0859C285.71 76.0859 287.037 75.6193 288.072 74.5842L282.415 68.9274ZM284.408 68.0859H280.058V76.0859H284.408V68.0859ZM280.058 68.0859C280.306 68.0859 280.645 68.1258 281.024 68.2722C281.412 68.4221 281.756 68.651 282.032 68.9274L276.375 74.5842C277.441 75.6496 278.79 76.0859 280.058 76.0859V68.0859ZM282.032 68.9274C282.309 69.2038 282.538 69.5475 282.687 69.9355C282.834 70.3145 282.874 70.6537 282.874 70.9013H274.874C274.874 72.1692 275.31 73.5189 276.375 74.5842L282.032 68.9274Z" fill="black" mask="url(#path-2-outside-1_761_136)"/>
</svg>
