<svg width="295" height="80" viewBox="0 0 295 80" fill="none" xmlns="http://www.w3.org/2000/svg">
<rect x="2" y="2" width="291" height="76" rx="38" fill="white" stroke="black" stroke-width="4"/>
<mask id="path-2-outside-1_762_207" maskUnits="userSpaceOnUse" x="88" y="29" width="119" height="24" fill="black">
<rect fill="white" x="88" y="29" width="119" height="24"/>
<path d="M91.6758 47.875V33.332C91.6758 33.0117 91.7812 32.7422 91.9922 32.5234C92.2031 32.3047 92.4609 32.1953 92.7656 32.1953H97.5352C97.8398 32.1953 98.1289 32.3047 98.4023 32.5234C98.6758 32.7422 98.8594 33.0039 98.9531 33.3086L102.41 43.3164L105.867 33.3086C105.961 33.0039 106.145 32.7422 106.418 32.5234C106.691 32.3047 106.98 32.1953 107.285 32.1953H112.055C112.359 32.1953 112.613 32.3047 112.816 32.5234C113.027 32.7422 113.133 33.0117 113.133 33.332V47.875C113.133 48.1953 113.023 48.4648 112.805 48.6836C112.594 48.8945 112.336 49 112.031 49H109.922C109.617 49 109.355 48.8945 109.137 48.6836C108.926 48.4648 108.82 48.1953 108.82 47.875V36.4258L104.684 47.9453C104.574 48.2344 104.383 48.4844 104.109 48.6953C103.836 48.8984 103.547 49 103.242 49H101.566C101.262 49 100.973 48.8984 100.699 48.6953C100.434 48.4844 100.242 48.2344 100.125 47.9453L96 36.4258V47.875C96 48.1953 95.8906 48.4648 95.6719 48.6836C95.4609 48.8945 95.2031 49 94.8984 49H92.7891C92.4844 49 92.2227 48.8945 92.0039 48.6836C91.7852 48.4648 91.6758 48.1953 91.6758 47.875ZM117.082 48.1562C116.051 47.4375 115.535 46.4219 115.535 45.1094C115.535 43.7969 116.051 42.7891 117.082 42.0859C118.121 41.3828 119.457 41.0312 121.09 41.0312H124.969C124.969 40.1172 124.777 39.4805 124.395 39.1211C124.012 38.7617 123.34 38.582 122.379 38.582C121.426 38.582 120.754 38.8203 120.363 39.2969C119.98 39.7656 119.508 40 118.945 40H117.199C116.988 40 116.812 39.9336 116.672 39.8008C116.539 39.6602 116.473 39.4883 116.473 39.2852C116.473 37.043 118.602 35.9219 122.859 35.9219C124.719 35.9219 126.211 36.3398 127.336 37.1758C128.461 38.0039 129.023 39.2891 129.023 41.0312V48.2852C129.023 48.4961 128.957 48.668 128.824 48.8008C128.691 48.9336 128.52 49 128.309 49H126.047C125.836 49 125.664 48.9336 125.531 48.8008C125.398 48.6602 125.332 48.4883 125.332 48.2852V47.9219C124.098 48.8047 122.672 49.2422 121.055 49.2344C119.445 49.2344 118.121 48.875 117.082 48.1562ZM121.371 43.6914C120.824 43.6914 120.391 43.8242 120.07 44.0898C119.758 44.3555 119.602 44.6992 119.602 45.1211C119.602 45.543 119.766 45.8906 120.094 46.1641C120.422 46.4375 120.887 46.5742 121.488 46.5742C122.691 46.5742 123.852 46.2227 124.969 45.5195V43.6914H121.371ZM131.918 48.2852V36.8828C131.918 36.6719 131.984 36.5 132.117 36.3672C132.258 36.2266 132.43 36.1562 132.633 36.1562H141.398C141.602 36.1562 141.77 36.2266 141.902 36.3672C142.043 36.5 142.113 36.6719 142.113 36.8828V38.2773C142.113 38.4805 142.043 38.6523 141.902 38.793C141.77 38.9258 141.602 38.9922 141.398 38.9922H135.973V48.2852C135.973 48.4883 135.902 48.6602 135.762 48.8008C135.629 48.9336 135.461 49 135.258 49H132.633C132.43 49 132.258 48.9336 132.117 48.8008C131.984 48.6602 131.918 48.4883 131.918 48.2852ZM144.387 48.1562C143.355 47.4375 142.84 46.4219 142.84 45.1094C142.84 43.7969 143.355 42.7891 144.387 42.0859C145.426 41.3828 146.762 41.0312 148.395 41.0312H152.273C152.273 40.1172 152.082 39.4805 151.699 39.1211C151.316 38.7617 150.645 38.582 149.684 38.582C148.73 38.582 148.059 38.8203 147.668 39.2969C147.285 39.7656 146.812 40 146.25 40H144.504C144.293 40 144.117 39.9336 143.977 39.8008C143.844 39.6602 143.777 39.4883 143.777 39.2852C143.777 37.043 145.906 35.9219 150.164 35.9219C152.023 35.9219 153.516 36.3398 154.641 37.1758C155.766 38.0039 156.328 39.2891 156.328 41.0312V48.2852C156.328 48.4961 156.262 48.668 156.129 48.8008C155.996 48.9336 155.824 49 155.613 49H153.352C153.141 49 152.969 48.9336 152.836 48.8008C152.703 48.6602 152.637 48.4883 152.637 48.2852V47.9219C151.402 48.8047 149.977 49.2422 148.359 49.2344C146.75 49.2344 145.426 48.875 144.387 48.1562ZM148.676 43.6914C148.129 43.6914 147.695 43.8242 147.375 44.0898C147.062 44.3555 146.906 44.6992 146.906 45.1211C146.906 45.543 147.07 45.8906 147.398 46.1641C147.727 46.4375 148.191 46.5742 148.793 46.5742C149.996 46.5742 151.156 46.2227 152.273 45.5195V43.6914H148.676ZM158.262 45.707C158.262 45.4961 158.328 45.3242 158.461 45.1914C158.602 45.0586 158.773 44.9922 158.977 44.9922H160.734C161.266 44.9922 161.68 45.2578 161.977 45.7891C162.281 46.3125 162.859 46.5742 163.711 46.5742H166.09C167.223 46.5742 167.789 46.1094 167.789 45.1797C167.789 44.25 167.223 43.7891 166.09 43.7969H163.184C162.973 43.7969 162.797 43.7305 162.656 43.5977C162.523 43.457 162.457 43.2812 162.457 43.0703V41.8516C162.457 41.6406 162.523 41.4688 162.656 41.3359C162.797 41.1953 162.973 41.125 163.184 41.125H165.867C166.383 41.125 166.77 41.0117 167.027 40.7852C167.293 40.5508 167.426 40.2422 167.426 39.8594C167.426 39.4766 167.293 39.168 167.027 38.9336C166.77 38.6992 166.383 38.582 165.867 38.582H163.711C163.438 38.582 163.156 38.6523 162.867 38.793C162.578 38.9258 162.363 39.1211 162.223 39.3789C161.918 39.9102 161.5 40.1719 160.969 40.1641H159.223C159.012 40.1641 158.836 40.0977 158.695 39.9648C158.562 39.832 158.496 39.6602 158.496 39.4492C158.496 38.3945 159.008 37.543 160.031 36.8945C161.062 36.2461 162.305 35.9219 163.758 35.9219H166.113C167.762 35.9219 169.066 36.2266 170.027 36.8359C170.996 37.4375 171.48 38.3555 171.48 39.5898C171.48 40.8242 170.922 41.7148 169.805 42.2617C171.164 42.9492 171.844 44.0352 171.844 45.5195C171.844 46.8164 171.383 47.7617 170.461 48.3555C169.547 48.9414 168.184 49.2344 166.371 49.2344H163.758C162.188 49.2344 160.879 48.9141 159.832 48.2734C158.785 47.6328 158.262 46.7773 158.262 45.707ZM173.895 48.2852V36.8828C173.895 36.6719 173.961 36.5 174.094 36.3672C174.234 36.2266 174.406 36.1562 174.609 36.1562H177.059C177.27 36.1562 177.441 36.2266 177.574 36.3672C177.715 36.5 177.785 36.6719 177.785 36.8828V44.582L181.91 37C182.035 36.7578 182.227 36.5586 182.484 36.4023C182.742 36.2383 182.992 36.1562 183.234 36.1562H186.516C186.727 36.1562 186.898 36.2266 187.031 36.3672C187.172 36.5 187.242 36.6719 187.242 36.8828V48.2852C187.242 48.4961 187.172 48.668 187.031 48.8008C186.898 48.9336 186.727 49 186.516 49H184.066C183.855 49 183.684 48.9336 183.551 48.8008C183.418 48.6602 183.352 48.4883 183.352 48.2852V40.5977L179.227 48.1562C179.102 48.3828 178.91 48.582 178.652 48.7539C178.395 48.918 178.145 49 177.902 49H174.609C174.398 49 174.227 48.9336 174.094 48.8008C173.961 48.668 173.895 48.4961 173.895 48.2852ZM190.113 48.2852V36.8828C190.113 36.6719 190.18 36.5 190.312 36.3672C190.453 36.2266 190.625 36.1562 190.828 36.1562H193.453C193.664 36.1562 193.836 36.2266 193.969 36.3672C194.102 36.5 194.168 36.6719 194.168 36.8828V41.0781H199.301V36.8828C199.301 36.6719 199.367 36.5 199.5 36.3672C199.641 36.2266 199.816 36.1562 200.027 36.1562H202.641C202.852 36.1562 203.023 36.2266 203.156 36.3672C203.289 36.5 203.355 36.6719 203.355 36.8828V48.2852C203.355 48.4961 203.289 48.668 203.156 48.8008C203.023 48.9336 202.852 49 202.641 49H200.027C199.816 49 199.641 48.9336 199.5 48.8008C199.367 48.6602 199.301 48.4883 199.301 48.2852V43.9141H194.168V48.2852C194.168 48.4961 194.098 48.668 193.957 48.8008C193.824 48.9336 193.656 49 193.453 49H190.828C190.617 49 190.445 48.9336 190.312 48.8008C190.18 48.668 190.113 48.4961 190.113 48.2852Z"/>
</mask>
<path d="M91.6758 47.875V33.332C91.6758 33.0117 91.7812 32.7422 91.9922 32.5234C92.2031 32.3047 92.4609 32.1953 92.7656 32.1953H97.5352C97.8398 32.1953 98.1289 32.3047 98.4023 32.5234C98.6758 32.7422 98.8594 33.0039 98.9531 33.3086L102.41 43.3164L105.867 33.3086C105.961 33.0039 106.145 32.7422 106.418 32.5234C106.691 32.3047 106.98 32.1953 107.285 32.1953H112.055C112.359 32.1953 112.613 32.3047 112.816 32.5234C113.027 32.7422 113.133 33.0117 113.133 33.332V47.875C113.133 48.1953 113.023 48.4648 112.805 48.6836C112.594 48.8945 112.336 49 112.031 49H109.922C109.617 49 109.355 48.8945 109.137 48.6836C108.926 48.4648 108.82 48.1953 108.82 47.875V36.4258L104.684 47.9453C104.574 48.2344 104.383 48.4844 104.109 48.6953C103.836 48.8984 103.547 49 103.242 49H101.566C101.262 49 100.973 48.8984 100.699 48.6953C100.434 48.4844 100.242 48.2344 100.125 47.9453L96 36.4258V47.875C96 48.1953 95.8906 48.4648 95.6719 48.6836C95.4609 48.8945 95.2031 49 94.8984 49H92.7891C92.4844 49 92.2227 48.8945 92.0039 48.6836C91.7852 48.4648 91.6758 48.1953 91.6758 47.875ZM117.082 48.1562C116.051 47.4375 115.535 46.4219 115.535 45.1094C115.535 43.7969 116.051 42.7891 117.082 42.0859C118.121 41.3828 119.457 41.0312 121.09 41.0312H124.969C124.969 40.1172 124.777 39.4805 124.395 39.1211C124.012 38.7617 123.34 38.582 122.379 38.582C121.426 38.582 120.754 38.8203 120.363 39.2969C119.98 39.7656 119.508 40 118.945 40H117.199C116.988 40 116.812 39.9336 116.672 39.8008C116.539 39.6602 116.473 39.4883 116.473 39.2852C116.473 37.043 118.602 35.9219 122.859 35.9219C124.719 35.9219 126.211 36.3398 127.336 37.1758C128.461 38.0039 129.023 39.2891 129.023 41.0312V48.2852C129.023 48.4961 128.957 48.668 128.824 48.8008C128.691 48.9336 128.52 49 128.309 49H126.047C125.836 49 125.664 48.9336 125.531 48.8008C125.398 48.6602 125.332 48.4883 125.332 48.2852V47.9219C124.098 48.8047 122.672 49.2422 121.055 49.2344C119.445 49.2344 118.121 48.875 117.082 48.1562ZM121.371 43.6914C120.824 43.6914 120.391 43.8242 120.07 44.0898C119.758 44.3555 119.602 44.6992 119.602 45.1211C119.602 45.543 119.766 45.8906 120.094 46.1641C120.422 46.4375 120.887 46.5742 121.488 46.5742C122.691 46.5742 123.852 46.2227 124.969 45.5195V43.6914H121.371ZM131.918 48.2852V36.8828C131.918 36.6719 131.984 36.5 132.117 36.3672C132.258 36.2266 132.43 36.1562 132.633 36.1562H141.398C141.602 36.1562 141.77 36.2266 141.902 36.3672C142.043 36.5 142.113 36.6719 142.113 36.8828V38.2773C142.113 38.4805 142.043 38.6523 141.902 38.793C141.77 38.9258 141.602 38.9922 141.398 38.9922H135.973V48.2852C135.973 48.4883 135.902 48.6602 135.762 48.8008C135.629 48.9336 135.461 49 135.258 49H132.633C132.43 49 132.258 48.9336 132.117 48.8008C131.984 48.6602 131.918 48.4883 131.918 48.2852ZM144.387 48.1562C143.355 47.4375 142.84 46.4219 142.84 45.1094C142.84 43.7969 143.355 42.7891 144.387 42.0859C145.426 41.3828 146.762 41.0312 148.395 41.0312H152.273C152.273 40.1172 152.082 39.4805 151.699 39.1211C151.316 38.7617 150.645 38.582 149.684 38.582C148.73 38.582 148.059 38.8203 147.668 39.2969C147.285 39.7656 146.812 40 146.25 40H144.504C144.293 40 144.117 39.9336 143.977 39.8008C143.844 39.6602 143.777 39.4883 143.777 39.2852C143.777 37.043 145.906 35.9219 150.164 35.9219C152.023 35.9219 153.516 36.3398 154.641 37.1758C155.766 38.0039 156.328 39.2891 156.328 41.0312V48.2852C156.328 48.4961 156.262 48.668 156.129 48.8008C155.996 48.9336 155.824 49 155.613 49H153.352C153.141 49 152.969 48.9336 152.836 48.8008C152.703 48.6602 152.637 48.4883 152.637 48.2852V47.9219C151.402 48.8047 149.977 49.2422 148.359 49.2344C146.75 49.2344 145.426 48.875 144.387 48.1562ZM148.676 43.6914C148.129 43.6914 147.695 43.8242 147.375 44.0898C147.062 44.3555 146.906 44.6992 146.906 45.1211C146.906 45.543 147.07 45.8906 147.398 46.1641C147.727 46.4375 148.191 46.5742 148.793 46.5742C149.996 46.5742 151.156 46.2227 152.273 45.5195V43.6914H148.676ZM158.262 45.707C158.262 45.4961 158.328 45.3242 158.461 45.1914C158.602 45.0586 158.773 44.9922 158.977 44.9922H160.734C161.266 44.9922 161.68 45.2578 161.977 45.7891C162.281 46.3125 162.859 46.5742 163.711 46.5742H166.09C167.223 46.5742 167.789 46.1094 167.789 45.1797C167.789 44.25 167.223 43.7891 166.09 43.7969H163.184C162.973 43.7969 162.797 43.7305 162.656 43.5977C162.523 43.457 162.457 43.2812 162.457 43.0703V41.8516C162.457 41.6406 162.523 41.4688 162.656 41.3359C162.797 41.1953 162.973 41.125 163.184 41.125H165.867C166.383 41.125 166.77 41.0117 167.027 40.7852C167.293 40.5508 167.426 40.2422 167.426 39.8594C167.426 39.4766 167.293 39.168 167.027 38.9336C166.77 38.6992 166.383 38.582 165.867 38.582H163.711C163.438 38.582 163.156 38.6523 162.867 38.793C162.578 38.9258 162.363 39.1211 162.223 39.3789C161.918 39.9102 161.5 40.1719 160.969 40.1641H159.223C159.012 40.1641 158.836 40.0977 158.695 39.9648C158.562 39.832 158.496 39.6602 158.496 39.4492C158.496 38.3945 159.008 37.543 160.031 36.8945C161.062 36.2461 162.305 35.9219 163.758 35.9219H166.113C167.762 35.9219 169.066 36.2266 170.027 36.8359C170.996 37.4375 171.48 38.3555 171.48 39.5898C171.48 40.8242 170.922 41.7148 169.805 42.2617C171.164 42.9492 171.844 44.0352 171.844 45.5195C171.844 46.8164 171.383 47.7617 170.461 48.3555C169.547 48.9414 168.184 49.2344 166.371 49.2344H163.758C162.188 49.2344 160.879 48.9141 159.832 48.2734C158.785 47.6328 158.262 46.7773 158.262 45.707ZM173.895 48.2852V36.8828C173.895 36.6719 173.961 36.5 174.094 36.3672C174.234 36.2266 174.406 36.1562 174.609 36.1562H177.059C177.27 36.1562 177.441 36.2266 177.574 36.3672C177.715 36.5 177.785 36.6719 177.785 36.8828V44.582L181.91 37C182.035 36.7578 182.227 36.5586 182.484 36.4023C182.742 36.2383 182.992 36.1562 183.234 36.1562H186.516C186.727 36.1562 186.898 36.2266 187.031 36.3672C187.172 36.5 187.242 36.6719 187.242 36.8828V48.2852C187.242 48.4961 187.172 48.668 187.031 48.8008C186.898 48.9336 186.727 49 186.516 49H184.066C183.855 49 183.684 48.9336 183.551 48.8008C183.418 48.6602 183.352 48.4883 183.352 48.2852V40.5977L179.227 48.1562C179.102 48.3828 178.91 48.582 178.652 48.7539C178.395 48.918 178.145 49 177.902 49H174.609C174.398 49 174.227 48.9336 174.094 48.8008C173.961 48.668 173.895 48.4961 173.895 48.2852ZM190.113 48.2852V36.8828C190.113 36.6719 190.18 36.5 190.312 36.3672C190.453 36.2266 190.625 36.1562 190.828 36.1562H193.453C193.664 36.1562 193.836 36.2266 193.969 36.3672C194.102 36.5 194.168 36.6719 194.168 36.8828V41.0781H199.301V36.8828C199.301 36.6719 199.367 36.5 199.5 36.3672C199.641 36.2266 199.816 36.1562 200.027 36.1562H202.641C202.852 36.1562 203.023 36.2266 203.156 36.3672C203.289 36.5 203.355 36.6719 203.355 36.8828V48.2852C203.355 48.4961 203.289 48.668 203.156 48.8008C203.023 48.9336 202.852 49 202.641 49H200.027C199.816 49 199.641 48.9336 199.5 48.8008C199.367 48.6602 199.301 48.4883 199.301 48.2852V43.9141H194.168V48.2852C194.168 48.4961 194.098 48.668 193.957 48.8008C193.824 48.9336 193.656 49 193.453 49H190.828C190.617 49 190.445 48.9336 190.312 48.8008C190.18 48.668 190.113 48.4961 190.113 48.2852Z" fill="white"/>
<path d="M98.9531 33.3086L96.0858 34.1909L96.1008 34.2397L96.1175 34.2881L98.9531 33.3086ZM102.41 43.3164L99.5746 44.2959L102.41 52.5047L105.246 44.2959L102.41 43.3164ZM105.867 33.3086L108.703 34.2881L108.719 34.2397L108.735 34.1909L105.867 33.3086ZM112.816 32.5234L110.618 34.5648L110.637 34.5855L110.657 34.6058L112.816 32.5234ZM109.137 48.6836L106.977 50.766L107.015 50.8053L107.054 50.8431L109.137 48.6836ZM108.82 36.4258H111.82L105.997 35.4119L108.82 36.4258ZM104.684 47.9453L107.489 49.007L107.498 48.9832L107.507 48.9592L104.684 47.9453ZM104.109 48.6953L105.898 51.1035L105.92 51.0873L105.942 51.0707L104.109 48.6953ZM100.699 48.6953L98.8336 51.0446L98.8714 51.0747L98.9102 51.1035L100.699 48.6953ZM100.125 47.9453L97.3006 48.9567L97.3215 49.015L97.3448 49.0724L100.125 47.9453ZM96 36.4258L98.8244 35.4144L93 36.4258H96ZM92.0039 48.6836L89.8826 50.8049L89.9019 50.8242L89.9215 50.8431L92.0039 48.6836ZM94.6758 47.875V33.332H88.6758V47.875H94.6758ZM94.6758 33.332C94.6758 33.5061 94.646 33.734 94.5486 33.9828C94.4501 34.2347 94.3068 34.445 94.1517 34.6058L89.8327 30.441C89.0512 31.2515 88.6758 32.2814 88.6758 33.332H94.6758ZM94.1517 34.6058C94.001 34.7621 93.7888 34.9231 93.5154 35.0391C93.2422 35.155 92.9802 35.1953 92.7656 35.1953V29.1953C91.6488 29.1953 90.6107 29.6342 89.8327 30.441L94.1517 34.6058ZM92.7656 35.1953H97.5352V29.1953H92.7656V35.1953ZM97.5352 35.1953C97.3195 35.1953 97.1085 35.155 96.9188 35.0832C96.7339 35.0132 96.6044 34.9269 96.5283 34.866L100.276 30.1808C99.5545 29.6033 98.6207 29.1953 97.5352 29.1953V35.1953ZM96.5283 34.866C96.4636 34.8143 96.3757 34.73 96.2891 34.6066C96.2012 34.4813 96.1315 34.3394 96.0858 34.1909L101.82 32.4263C101.532 31.4898 100.972 30.737 100.276 30.1808L96.5283 34.866ZM96.1175 34.2881L99.5746 44.2959L105.246 42.3369L101.789 32.3291L96.1175 34.2881ZM105.246 44.2959L108.703 34.2881L103.032 32.3291L99.5746 42.3369L105.246 44.2959ZM108.735 34.1909C108.689 34.3394 108.619 34.4813 108.531 34.6066C108.445 34.73 108.357 34.8143 108.292 34.866L104.544 30.1808C103.849 30.737 103.288 31.4898 103 32.4263L108.735 34.1909ZM108.292 34.866C108.216 34.9269 108.086 35.0132 107.902 35.0832C107.712 35.155 107.501 35.1953 107.285 35.1953V29.1953C106.2 29.1953 105.266 29.6033 104.544 30.1808L108.292 34.866ZM107.285 35.1953H112.055V29.1953H107.285V35.1953ZM112.055 35.1953C111.841 35.1953 111.571 35.1552 111.287 35.0326C111.001 34.9094 110.777 34.7364 110.618 34.5648L115.015 30.4821C114.231 29.6378 113.174 29.1953 112.055 29.1953V35.1953ZM110.657 34.6058C110.502 34.445 110.359 34.2347 110.26 33.9828C110.163 33.734 110.133 33.5061 110.133 33.332H116.133C116.133 32.2814 115.757 31.2515 114.976 30.441L110.657 34.6058ZM110.133 33.332V47.875H116.133V33.332H110.133ZM110.133 47.875C110.133 47.6877 110.166 47.4475 110.271 47.1893C110.377 46.9291 110.527 46.7183 110.683 46.5623L114.926 50.8049C115.729 50.0017 116.133 48.9595 116.133 47.875H110.133ZM110.683 46.5623C110.839 46.4063 111.052 46.2528 111.317 46.1443C111.581 46.0362 111.831 46 112.031 46V52C113.113 52 114.139 51.5918 114.926 50.8049L110.683 46.5623ZM112.031 46H109.922V52H112.031V46ZM109.922 46C110.123 46 110.365 46.0363 110.618 46.1383C110.872 46.2404 111.073 46.3828 111.219 46.5241L107.054 50.8431C107.834 51.5948 108.843 52 109.922 52V46ZM111.296 46.6012C111.451 46.7621 111.595 46.9724 111.693 47.2242C111.791 47.4731 111.82 47.701 111.82 47.875H105.82C105.82 48.9257 106.196 49.9556 106.977 50.766L111.296 46.6012ZM111.82 47.875V36.4258H105.82V47.875H111.82ZM105.997 35.4119L101.86 46.9314L107.507 48.9592L111.644 37.4397L105.997 35.4119ZM101.878 46.8836C101.987 46.5938 102.164 46.4074 102.277 46.32L105.942 51.0707C106.602 50.5614 107.161 49.875 107.489 49.007L101.878 46.8836ZM102.32 46.2871C102.399 46.2287 102.523 46.1531 102.693 46.0934C102.866 46.0326 103.054 46 103.242 46V52C104.267 52 105.172 51.6434 105.898 51.1035L102.32 46.2871ZM103.242 46H101.566V52H103.242V46ZM101.566 46C101.755 46 101.942 46.0326 102.116 46.0934C102.285 46.1531 102.41 46.2287 102.488 46.2871L98.9102 51.1035C99.6369 51.6434 100.542 52 101.566 52V46ZM102.565 46.346C102.61 46.3821 102.673 46.4407 102.738 46.5259C102.805 46.6122 102.862 46.7114 102.905 46.8182L97.3448 49.0724C97.6731 49.8823 98.1992 50.5409 98.8336 51.0446L102.565 46.346ZM102.949 46.9339L98.8244 35.4144L93.1756 37.4372L97.3006 48.9567L102.949 46.9339ZM93 36.4258V47.875H99V36.4258H93ZM93 47.875C93 47.6877 93.0334 47.4475 93.1381 47.1893C93.2437 46.9291 93.3945 46.7183 93.5506 46.5623L97.7932 50.8049C98.5964 50.0017 99 48.9595 99 47.875H93ZM93.5506 46.5623C93.7066 46.4063 93.919 46.2528 94.1844 46.1443C94.4485 46.0362 94.698 46 94.8984 46V52C95.9797 52 97.0063 51.5918 97.7932 50.8049L93.5506 46.5623ZM94.8984 46H92.7891V52H94.8984V46ZM92.7891 46C92.9901 46 93.2325 46.0363 93.4856 46.1383C93.7389 46.2404 93.9398 46.3828 94.0863 46.5241L89.9215 50.8431C90.7011 51.5948 91.7099 52 92.7891 52V46ZM94.1252 46.5623C94.2813 46.7183 94.432 46.9291 94.5377 47.1893C94.6424 47.4475 94.6758 47.6877 94.6758 47.875H88.6758C88.6758 48.9595 89.0794 50.0017 89.8826 50.8049L94.1252 46.5623ZM117.082 48.1562L115.367 50.6175L115.375 50.6235L117.082 48.1562ZM117.082 42.0859L115.401 39.6013L115.392 39.6073L117.082 42.0859ZM124.969 41.0312V44.0312H127.969V41.0312H124.969ZM120.363 39.2969L118.043 37.3951L118.04 37.3993L120.363 39.2969ZM116.672 39.8008L114.491 41.8607L114.55 41.923L114.612 41.9818L116.672 39.8008ZM127.336 37.1758L125.547 39.5838L125.557 39.5918L127.336 37.1758ZM125.531 48.8008L123.35 50.8607L123.38 50.8918L123.41 50.9221L125.531 48.8008ZM125.332 47.9219H128.332V42.088L123.587 45.4817L125.332 47.9219ZM121.055 49.2344L121.069 46.2344L121.062 46.2344H121.055V49.2344ZM120.07 44.0898L118.155 41.7806L118.141 41.7922L118.127 41.804L120.07 44.0898ZM124.969 45.5195L126.567 48.0585L127.969 47.1761V45.5195H124.969ZM124.969 43.6914H127.969V40.6914H124.969V43.6914ZM118.797 45.6951C118.645 45.5887 118.608 45.5196 118.597 45.4974C118.583 45.4703 118.535 45.3658 118.535 45.1094H112.535C112.535 47.3516 113.489 49.3089 115.367 50.6174L118.797 45.6951ZM118.535 45.1094C118.535 44.8524 118.583 44.7538 118.593 44.7356C118.599 44.7232 118.628 44.663 118.772 44.5646L115.392 39.6073C113.492 40.9026 112.535 42.8657 112.535 45.1094H118.535ZM118.763 44.5705C119.176 44.2912 119.878 44.0312 121.09 44.0312V38.0312C119.037 38.0312 117.066 38.4744 115.401 39.6013L118.763 44.5705ZM121.09 44.0312H124.969V38.0312H121.09V44.0312ZM127.969 41.0312C127.969 39.8634 127.754 38.1603 126.448 36.9339L122.341 41.3083C122.058 41.0424 121.969 40.7866 121.952 40.7318C121.939 40.6873 121.969 40.7655 121.969 41.0312H127.969ZM126.448 36.9339C125.2 35.7624 123.534 35.582 122.379 35.582V41.582C122.527 41.582 122.639 41.5891 122.717 41.5977C122.797 41.6065 122.831 41.6155 122.828 41.6149C122.827 41.6144 122.773 41.6003 122.688 41.5566C122.6 41.5118 122.475 41.4342 122.341 41.3083L126.448 36.9339ZM122.379 35.582C121.022 35.582 119.257 35.9144 118.043 37.3951L122.683 41.1987C122.589 41.3144 122.484 41.4057 122.384 41.4732C122.285 41.5392 122.206 41.573 122.163 41.5882C122.089 41.6145 122.136 41.582 122.379 41.582V35.582ZM118.04 37.3993C118.079 37.3513 118.19 37.2351 118.389 37.1365C118.594 37.0348 118.796 37 118.945 37V43C120.484 43 121.784 42.3003 122.687 41.1945L118.04 37.3993ZM118.945 37H117.199V43H118.945V37ZM117.199 37C117.412 37 117.68 37.0343 117.969 37.1438C118.264 37.255 118.522 37.4218 118.732 37.6197L114.612 41.9818C115.362 42.6904 116.298 43 117.199 43V37ZM118.853 37.7409C119.04 37.9394 119.207 38.19 119.321 38.4852C119.434 38.7778 119.473 39.0548 119.473 39.2852H113.473C113.473 40.2119 113.804 41.1331 114.491 41.8607L118.853 37.7409ZM119.473 39.2852C119.473 39.2187 119.482 39.2997 119.407 39.4182C119.339 39.5254 119.302 39.5039 119.467 39.4171C119.885 39.1969 120.896 38.9219 122.859 38.9219V32.9219C120.565 32.9219 118.382 33.2074 116.671 34.1083C115.772 34.582 114.937 35.2613 114.337 36.2092C113.73 37.1685 113.473 38.2305 113.473 39.2852H119.473ZM122.859 38.9219C124.283 38.9219 125.085 39.2407 125.547 39.5838L129.125 34.7678C127.337 33.439 125.154 32.9219 122.859 32.9219V38.9219ZM125.557 39.5918C125.725 39.7151 126.023 39.9802 126.023 41.0312H132.023C132.023 38.5979 131.197 36.2927 129.114 34.7598L125.557 39.5918ZM126.023 41.0312V48.2852H132.023V41.0312H126.023ZM126.023 48.2852C126.023 48.0738 126.057 47.7962 126.175 47.4911C126.296 47.1792 126.479 46.9029 126.703 46.6795L130.946 50.9221C131.712 50.1553 132.023 49.1848 132.023 48.2852H126.023ZM126.703 46.6795C126.926 46.456 127.203 46.2723 127.515 46.1518C127.82 46.0339 128.097 46 128.309 46V52C129.208 52 130.179 51.6889 130.946 50.9221L126.703 46.6795ZM128.309 46H126.047V52H128.309V46ZM126.047 46C126.258 46 126.536 46.0339 126.841 46.1518C127.153 46.2723 127.429 46.456 127.653 46.6795L123.41 50.9221C124.177 51.6889 125.147 52 126.047 52V46ZM127.712 46.7409C127.9 46.9394 128.066 47.19 128.18 47.4852C128.293 47.7778 128.332 48.0548 128.332 48.2852H122.332C122.332 49.2119 122.663 50.1331 123.35 50.8607L127.712 46.7409ZM128.332 48.2852V47.9219H122.332V48.2852H128.332ZM123.587 45.4817C122.9 45.9728 122.099 46.2394 121.069 46.2344L121.04 52.2343C123.244 52.245 125.295 51.6366 127.077 50.362L123.587 45.4817ZM121.055 46.2344C119.888 46.2344 119.205 45.9767 118.789 45.689L115.375 50.6235C117.038 51.7733 119.002 52.2344 121.055 52.2344V46.2344ZM121.371 40.6914C120.347 40.6914 119.163 40.9448 118.155 41.7806L121.985 46.3991C121.618 46.7037 121.301 46.6914 121.371 46.6914V40.6914ZM118.127 41.804C117.123 42.6581 116.602 43.8481 116.602 45.1211H122.602C122.602 45.288 122.569 45.5268 122.45 45.7883C122.33 46.052 122.164 46.2476 122.013 46.3757L118.127 41.804ZM116.602 45.1211C116.602 46.4461 117.171 47.6335 118.173 48.4687L122.014 43.8594C122.148 43.971 122.313 44.1547 122.438 44.4179C122.562 44.6822 122.602 44.933 122.602 45.1211H116.602ZM118.173 48.4687C119.224 49.3442 120.468 49.5742 121.488 49.5742V43.5742C121.306 43.5742 121.62 43.5308 122.014 43.8594L118.173 48.4687ZM121.488 49.5742C123.311 49.5742 125.019 49.0325 126.567 48.0585L123.371 42.9805C122.684 43.4128 122.072 43.5742 121.488 43.5742V49.5742ZM127.969 45.5195V43.6914H121.969V45.5195H127.969ZM124.969 40.6914H121.371V46.6914H124.969V40.6914ZM141.902 36.3672L139.721 38.4271L139.78 38.4894L139.842 38.5482L141.902 36.3672ZM135.973 38.9922V35.9922H132.973V38.9922H135.973ZM132.117 48.8008L129.936 50.8607L129.995 50.923L130.057 50.9818L132.117 48.8008ZM134.918 48.2852V36.8828H128.918V48.2852H134.918ZM134.918 36.8828C134.918 37.0941 134.884 37.3718 134.766 37.6769C134.646 37.9888 134.462 38.2651 134.239 38.4885L129.996 34.2459C129.229 35.0126 128.918 35.9831 128.918 36.8828H134.918ZM134.239 38.4885C134.047 38.6797 133.796 38.8595 133.487 38.9856C133.18 39.1113 132.884 39.1562 132.633 39.1562V33.1562C131.653 33.1562 130.712 33.5293 129.996 34.2459L134.239 38.4885ZM132.633 39.1562H141.398V33.1562H132.633V39.1562ZM141.398 39.1562C141.148 39.1562 140.841 39.1115 140.518 38.9763C140.192 38.8397 139.924 38.6421 139.721 38.4271L144.083 34.3073C143.353 33.5337 142.38 33.1562 141.398 33.1562V39.1562ZM139.842 38.5482C139.615 38.3338 139.417 38.0576 139.284 37.7316C139.153 37.4113 139.113 37.1143 139.113 36.8828H145.113C145.113 35.9295 144.761 34.9403 143.962 34.1861L139.842 38.5482ZM139.113 36.8828V38.2773H145.113V36.8828H139.113ZM139.113 38.2773C139.113 38.0261 139.158 37.7298 139.284 37.4227C139.41 37.1143 139.59 36.8628 139.781 36.6716L144.024 40.9143C144.74 40.1977 145.113 39.2571 145.113 38.2773H139.113ZM139.781 36.6716C139.993 36.4597 140.261 36.2762 140.574 36.1525C140.882 36.0306 141.169 35.9922 141.398 35.9922V41.9922C142.326 41.9922 143.28 41.6584 144.024 40.9143L139.781 36.6716ZM141.398 35.9922H135.973V41.9922H141.398V35.9922ZM132.973 38.9922V48.2852H138.973V38.9922H132.973ZM132.973 48.2852C132.973 48.0339 133.018 47.7376 133.143 47.4305C133.269 47.1221 133.449 46.8706 133.64 46.6795L137.883 50.9221C138.6 50.2055 138.973 49.2649 138.973 48.2852H132.973ZM133.64 46.6795C133.852 46.4675 134.12 46.284 134.433 46.1603C134.741 46.0385 135.029 46 135.258 46V52C136.185 52 137.139 51.6662 137.883 50.9221L133.64 46.6795ZM135.258 46H132.633V52H135.258V46ZM132.633 46C132.863 46 133.14 46.0388 133.433 46.1518C133.728 46.2658 133.979 46.4323 134.177 46.6197L130.057 50.9818C130.785 51.669 131.706 52 132.633 52V46ZM134.298 46.7409C134.486 46.9394 134.652 47.19 134.766 47.4852C134.879 47.7778 134.918 48.0548 134.918 48.2852H128.918C128.918 49.2119 129.249 50.1331 129.936 50.8607L134.298 46.7409ZM144.387 48.1562L142.671 50.6175L142.68 50.6235L144.387 48.1562ZM144.387 42.0859L142.705 39.6013L142.697 39.6073L144.387 42.0859ZM152.273 41.0312V44.0312H155.273V41.0312H152.273ZM147.668 39.2969L145.348 37.3951L145.344 37.3993L147.668 39.2969ZM143.977 39.8008L141.796 41.8607L141.854 41.923L141.917 41.9818L143.977 39.8008ZM154.641 37.1758L152.851 39.5838L152.862 39.5918L154.641 37.1758ZM152.836 48.8008L150.655 50.8607L150.684 50.8918L150.715 50.9221L152.836 48.8008ZM152.637 47.9219H155.637V42.088L150.892 45.4817L152.637 47.9219ZM148.359 49.2344L148.374 46.2344L148.367 46.2344H148.359V49.2344ZM147.375 44.0898L145.46 41.7806L145.446 41.7922L145.432 41.804L147.375 44.0898ZM152.273 45.5195L153.871 48.0585L155.273 47.1761V45.5195H152.273ZM152.273 43.6914H155.273V40.6914H152.273V43.6914ZM146.102 45.6951C145.95 45.5887 145.913 45.5196 145.902 45.4974C145.888 45.4703 145.84 45.3658 145.84 45.1094H139.84C139.84 47.3516 140.794 49.3089 142.671 50.6174L146.102 45.6951ZM145.84 45.1094C145.84 44.8524 145.888 44.7538 145.897 44.7356C145.904 44.7232 145.932 44.663 146.077 44.5646L142.697 39.6073C140.797 40.9026 139.84 42.8657 139.84 45.1094H145.84ZM146.068 44.5705C146.481 44.2912 147.182 44.0312 148.395 44.0312V38.0312C146.341 38.0312 144.371 38.4744 142.705 39.6013L146.068 44.5705ZM148.395 44.0312H152.273V38.0312H148.395V44.0312ZM155.273 41.0312C155.273 39.8634 155.059 38.1603 153.753 36.9339L149.646 41.3083C149.363 41.0424 149.273 40.7866 149.257 40.7318C149.243 40.6873 149.273 40.7655 149.273 41.0312H155.273ZM153.753 36.9339C152.505 35.7624 150.839 35.582 149.684 35.582V41.582C149.832 41.582 149.943 41.5891 150.022 41.5977C150.101 41.6065 150.135 41.6155 150.133 41.6149C150.131 41.6144 150.078 41.6003 149.993 41.5566C149.905 41.5118 149.78 41.4342 149.646 41.3083L153.753 36.9339ZM149.684 35.582C148.327 35.582 146.561 35.9144 145.348 37.3951L149.988 41.1987C149.893 41.3144 149.789 41.4057 149.688 41.4732C149.59 41.5392 149.51 41.573 149.468 41.5882C149.393 41.6145 149.441 41.582 149.684 41.582V35.582ZM145.344 37.3993C145.384 37.3513 145.495 37.2351 145.694 37.1365C145.899 37.0348 146.1 37 146.25 37V43C147.789 43 149.088 42.3003 149.992 41.1945L145.344 37.3993ZM146.25 37H144.504V43H146.25V37ZM144.504 37C144.717 37 144.984 37.0343 145.274 37.1438C145.568 37.255 145.827 37.4218 146.036 37.6197L141.917 41.9818C142.667 42.6904 143.603 43 144.504 43V37ZM146.158 37.7409C146.345 37.9394 146.511 38.19 146.626 38.4852C146.739 38.7778 146.777 39.0548 146.777 39.2852H140.777C140.777 40.2119 141.108 41.1331 141.796 41.8607L146.158 37.7409ZM146.777 39.2852C146.777 39.2187 146.786 39.2997 146.711 39.4182C146.644 39.5254 146.607 39.5039 146.772 39.4171C147.19 39.1969 148.201 38.9219 150.164 38.9219V32.9219C147.87 32.9219 145.687 33.2074 143.976 34.1083C143.076 34.582 142.242 35.2613 141.642 36.2092C141.034 37.1685 140.777 38.2305 140.777 39.2852H146.777ZM150.164 38.9219C151.588 38.9219 152.39 39.2407 152.851 39.5838L156.43 34.7678C154.642 33.439 152.459 32.9219 150.164 32.9219V38.9219ZM152.862 39.5918C153.03 39.7151 153.328 39.9802 153.328 41.0312H159.328C159.328 38.5979 158.502 36.2927 156.419 34.7598L152.862 39.5918ZM153.328 41.0312V48.2852H159.328V41.0312H153.328ZM153.328 48.2852C153.328 48.0738 153.362 47.7962 153.48 47.4911C153.6 47.1792 153.784 46.9029 154.008 46.6795L158.25 50.9221C159.017 50.1553 159.328 49.1848 159.328 48.2852H153.328ZM154.008 46.6795C154.231 46.456 154.507 46.2723 154.819 46.1518C155.124 46.0339 155.402 46 155.613 46V52C156.513 52 157.483 51.6889 158.25 50.9221L154.008 46.6795ZM155.613 46H153.352V52H155.613V46ZM153.352 46C153.563 46 153.841 46.0339 154.146 46.1518C154.458 46.2723 154.734 46.456 154.957 46.6795L150.715 50.9221C151.481 51.6889 152.452 52 153.352 52V46ZM155.017 46.7409C155.204 46.9394 155.371 47.19 155.485 47.4852C155.598 47.7778 155.637 48.0548 155.637 48.2852H149.637C149.637 49.2119 149.968 50.1331 150.655 50.8607L155.017 46.7409ZM155.637 48.2852V47.9219H149.637V48.2852H155.637ZM150.892 45.4817C150.205 45.9728 149.404 46.2394 148.374 46.2344L148.345 52.2343C150.549 52.245 152.6 51.6366 154.382 50.362L150.892 45.4817ZM148.359 46.2344C147.193 46.2344 146.509 45.9767 146.093 45.689L142.68 50.6235C144.342 51.7733 146.307 52.2344 148.359 52.2344V46.2344ZM148.676 40.6914C147.652 40.6914 146.468 40.9448 145.46 41.7806L149.29 46.3991C148.923 46.7037 148.606 46.6914 148.676 46.6914V40.6914ZM145.432 41.804C144.427 42.6581 143.906 43.8481 143.906 45.1211H149.906C149.906 45.288 149.873 45.5268 149.755 45.7883C149.635 46.052 149.469 46.2476 149.318 46.3757L145.432 41.804ZM143.906 45.1211C143.906 46.4461 144.476 47.6335 145.478 48.4687L149.319 43.8594C149.453 43.971 149.618 44.1547 149.742 44.4179C149.867 44.6822 149.906 44.933 149.906 45.1211H143.906ZM145.478 48.4687C146.528 49.3442 147.772 49.5742 148.793 49.5742V43.5742C148.61 43.5742 148.925 43.5308 149.319 43.8594L145.478 48.4687ZM148.793 49.5742C150.616 49.5742 152.324 49.0325 153.871 48.0585L150.675 42.9805C149.989 43.4128 149.376 43.5742 148.793 43.5742V49.5742ZM155.273 45.5195V43.6914H149.273V45.5195H155.273ZM152.273 40.6914H148.676V46.6914H152.273V40.6914ZM158.461 45.1914L156.401 43.0104L156.37 43.0398L156.34 43.0701L158.461 45.1914ZM161.977 45.7891L159.358 47.2525L159.371 47.2755L159.384 47.2983L161.977 45.7891ZM166.09 43.7969V46.7969H166.1L166.111 46.7968L166.09 43.7969ZM162.656 43.5977L160.475 45.6575L160.534 45.7198L160.596 45.7787L162.656 43.5977ZM167.027 40.7852L169.008 43.0387L169.012 43.0347L167.027 40.7852ZM167.027 38.9336L165.009 41.1534L165.026 41.1684L165.042 41.1831L167.027 38.9336ZM162.867 38.793L164.12 41.519L164.15 41.5052L164.18 41.4907L162.867 38.793ZM162.223 39.3789L164.825 40.8714L164.841 40.8436L164.856 40.8155L162.223 39.3789ZM160.969 40.1641L161.013 37.1644L160.991 37.1641H160.969V40.1641ZM158.695 39.9648L156.574 42.0862L156.604 42.1165L156.635 42.1459L158.695 39.9648ZM160.031 36.8945L158.434 34.3549L158.426 34.3604L160.031 36.8945ZM170.027 36.8359L168.421 39.3695L168.433 39.3771L168.445 39.3845L170.027 36.8359ZM169.805 42.2617L168.486 39.5672L163.071 42.2179L168.451 44.9388L169.805 42.2617ZM170.461 48.3555L172.08 50.8811L172.085 50.8776L170.461 48.3555ZM161.262 45.707C161.262 45.9184 161.228 46.196 161.11 46.5011C160.989 46.813 160.806 47.0893 160.582 47.3127L156.34 43.0701C155.573 43.8369 155.262 44.8074 155.262 45.707H161.262ZM160.521 47.3724C160.322 47.5599 160.072 47.7263 159.777 47.8404C159.484 47.9534 159.207 47.9922 158.977 47.9922V41.9922C158.05 41.9922 157.129 42.3232 156.401 43.0104L160.521 47.3724ZM158.977 47.9922H160.734V41.9922H158.977V47.9922ZM160.734 47.9922C160.474 47.9922 160.139 47.9186 159.823 47.7165C159.528 47.527 159.394 47.3169 159.358 47.2525L164.595 44.3256C163.861 43.0121 162.531 41.9922 160.734 41.9922V47.9922ZM159.384 47.2983C160.431 49.0974 162.274 49.5742 163.711 49.5742V43.5742C163.574 43.5742 163.667 43.5506 163.876 43.6449C163.986 43.695 164.118 43.7737 164.25 43.8909C164.383 44.009 164.49 44.1434 164.569 44.2799L159.384 47.2983ZM163.711 49.5742H166.09V43.5742H163.711V49.5742ZM166.09 49.5742C166.99 49.5742 168.223 49.4015 169.267 48.5446C170.425 47.5946 170.789 46.2805 170.789 45.1797H164.789C164.789 45.1133 164.799 44.9187 164.903 44.6609C165.016 44.3847 165.205 44.1166 165.461 43.9066C165.939 43.5145 166.322 43.5742 166.09 43.5742V49.5742ZM170.789 45.1797C170.789 44.08 170.425 42.7599 169.258 41.8099C168.206 40.9542 166.968 40.7907 166.069 40.7969L166.111 46.7968C166.345 46.7952 165.956 46.8583 165.471 46.4636C165.21 46.2518 165.018 45.9808 164.904 45.702C164.799 45.4419 164.789 45.2458 164.789 45.1797H170.789ZM166.09 40.7969H163.184V46.7969H166.09V40.7969ZM163.184 40.7969C163.396 40.7969 163.664 40.8311 163.954 40.9407C164.248 41.0519 164.507 41.2187 164.716 41.4166L160.596 45.7787C161.347 46.4872 162.282 46.7969 163.184 46.7969V40.7969ZM164.837 41.5378C165.035 41.7474 165.202 42.0057 165.313 42.3001C165.423 42.59 165.457 42.8577 165.457 43.0703H159.457C159.457 43.9716 159.767 44.9073 160.475 45.6575L164.837 41.5378ZM165.457 43.0703V41.8516H159.457V43.0703H165.457ZM165.457 41.8516C165.457 42.0629 165.423 42.3405 165.305 42.6457C165.185 42.9575 165.001 43.2338 164.778 43.4573L160.535 39.2146C159.768 39.9814 159.457 40.9519 159.457 41.8516H165.457ZM164.778 43.4573C164.575 43.6595 164.316 43.8399 164.008 43.9632C163.703 44.0851 163.416 44.125 163.184 44.125V38.125C162.231 38.125 161.275 38.4746 160.535 39.2146L164.778 43.4573ZM163.184 44.125H165.867V38.125H163.184V44.125ZM165.867 44.125C166.757 44.125 167.984 43.9379 169.008 43.0387L165.047 38.5317C165.555 38.0855 166.009 38.125 165.867 38.125V44.125ZM169.012 43.0347C169.98 42.181 170.426 41.0247 170.426 39.8594H164.426C164.426 39.6996 164.455 39.461 164.571 39.192C164.689 38.9171 164.861 38.6954 165.042 38.5356L169.012 43.0347ZM170.426 39.8594C170.426 38.6941 169.98 37.5377 169.012 36.6841L165.042 41.1831C164.861 41.0234 164.689 40.8017 164.571 40.5268C164.455 40.2577 164.426 40.0192 164.426 39.8594H170.426ZM169.045 36.7138C168.021 35.783 166.778 35.582 165.867 35.582V41.582C165.987 41.582 165.518 41.6155 165.009 41.1534L169.045 36.7138ZM165.867 35.582H163.711V41.582H165.867V35.582ZM163.711 35.582C162.91 35.582 162.181 35.7904 161.555 36.0953L164.18 41.4907C164.131 41.5142 163.965 41.582 163.711 41.582V35.582ZM161.615 36.0669C160.79 36.4458 160.065 37.0691 159.589 37.9423L164.856 40.8155C164.768 40.9767 164.65 41.129 164.507 41.2589C164.366 41.387 164.228 41.4691 164.12 41.519L161.615 36.0669ZM159.62 37.8864C159.655 37.826 159.79 37.6177 160.089 37.431C160.408 37.2311 160.747 37.1605 161.013 37.1644L160.925 43.1637C162.733 43.1903 164.078 42.1747 164.825 40.8714L159.62 37.8864ZM160.969 37.1641H159.223V43.1641H160.969V37.1641ZM159.223 37.1641C159.435 37.1641 159.703 37.1983 159.993 37.3078C160.287 37.4191 160.546 37.5859 160.755 37.7838L156.635 42.1459C157.386 42.8544 158.321 43.1641 159.223 43.1641V37.1641ZM160.817 37.8435C161.04 38.067 161.224 38.3433 161.344 38.6551C161.462 38.9603 161.496 39.2379 161.496 39.4492H155.496C155.496 40.3489 155.807 41.3194 156.574 42.0862L160.817 37.8435ZM161.496 39.4492C161.496 39.4302 161.498 39.4419 161.489 39.4741C161.481 39.5074 161.466 39.5399 161.451 39.5648C161.437 39.5883 161.433 39.5874 161.456 39.5647C161.481 39.5408 161.536 39.4929 161.637 39.4287L158.426 34.3604C156.686 35.4627 155.496 37.199 155.496 39.4492H161.496ZM161.628 39.4342C162.096 39.1402 162.76 38.9219 163.758 38.9219V32.9219C161.85 32.9219 160.029 33.352 158.434 34.3549L161.628 39.4342ZM163.758 38.9219H166.113V32.9219H163.758V38.9219ZM166.113 38.9219C167.434 38.9219 168.11 39.1724 168.421 39.3695L171.634 34.3024C170.023 33.2807 168.089 32.9219 166.113 32.9219V38.9219ZM168.445 39.3845C168.491 39.413 168.502 39.427 168.495 39.4199C168.487 39.4115 168.474 39.3952 168.464 39.3756C168.454 39.3569 168.457 39.3549 168.463 39.3821C168.469 39.4111 168.48 39.477 168.48 39.5898H174.48C174.48 37.4208 173.544 35.4883 171.61 34.2873L168.445 39.3845ZM168.48 39.5898C168.48 39.6722 168.471 39.7003 168.474 39.6885C168.476 39.6827 168.48 39.6694 168.488 39.6507C168.496 39.6319 168.507 39.611 168.52 39.5896C168.533 39.5682 168.547 39.5499 168.56 39.5353C168.573 39.5208 168.582 39.5126 168.585 39.5101C168.591 39.5049 168.565 39.5284 168.486 39.5672L171.124 44.9562C172.091 44.4826 172.976 43.7772 173.603 42.7776C174.231 41.7766 174.48 40.6712 174.48 39.5898H168.48ZM168.451 44.9388C168.597 45.0128 168.682 45.0758 168.728 45.1157C168.772 45.1536 168.787 45.1765 168.791 45.1834C168.795 45.19 168.805 45.2069 168.816 45.2479C168.828 45.2918 168.844 45.3776 168.844 45.5195H174.844C174.844 44.3055 174.56 43.092 173.877 42.0002C173.196 40.9128 172.233 40.1281 171.159 39.5846L168.451 44.9388ZM168.844 45.5195C168.844 45.8164 168.791 45.9075 168.802 45.8863C168.806 45.8763 168.818 45.8576 168.834 45.8392C168.85 45.8214 168.856 45.8208 168.837 45.8333L172.085 50.8776C174.032 49.6238 174.844 47.6198 174.844 45.5195H168.844ZM168.842 45.8298C168.636 45.9619 167.953 46.2344 166.371 46.2344V52.2344C168.414 52.2344 170.458 51.921 172.08 50.8811L168.842 45.8298ZM166.371 46.2344H163.758V52.2344H166.371V46.2344ZM163.758 46.2344C162.588 46.2344 161.859 45.9964 161.398 45.7145L158.266 50.8323C159.899 51.8317 161.787 52.2344 163.758 52.2344V46.2344ZM161.398 45.7145C161.294 45.6509 161.238 45.6036 161.214 45.5807C161.192 45.5591 161.197 45.5597 161.213 45.5856C161.23 45.6129 161.245 45.6477 161.255 45.6826C161.264 45.7163 161.262 45.728 161.262 45.707H155.262C155.262 47.9913 156.483 49.7413 158.266 50.8323L161.398 45.7145ZM177.574 36.3672L175.393 38.4271L175.452 38.4894L175.514 38.5482L177.574 36.3672ZM177.785 44.582H174.785L180.42 46.0157L177.785 44.582ZM181.91 37L184.545 38.4337L184.561 38.405L184.576 38.3759L181.91 37ZM182.484 36.4023L184.039 38.9679L184.067 38.9509L184.095 38.9333L182.484 36.4023ZM187.031 36.3672L184.85 38.4271L184.909 38.4894L184.971 38.5482L187.031 36.3672ZM187.031 48.8008L184.971 46.6197L184.94 46.6492L184.91 46.6795L187.031 48.8008ZM183.551 48.8008L181.37 50.8607L181.399 50.8918L181.429 50.9221L183.551 48.8008ZM183.352 40.5977H186.352L180.718 39.1605L183.352 40.5977ZM179.227 48.1562L181.853 49.6055L181.86 49.5934L179.227 48.1562ZM178.652 48.7539L180.263 51.2849L180.29 51.2678L180.316 51.2501L178.652 48.7539ZM176.895 48.2852V36.8828H170.895V48.2852H176.895ZM176.895 36.8828C176.895 37.0941 176.861 37.3718 176.743 37.6769C176.622 37.9888 176.438 38.2651 176.215 38.4885L171.972 34.2459C171.206 35.0126 170.895 35.9831 170.895 36.8828H176.895ZM176.215 38.4885C176.024 38.6797 175.772 38.8595 175.464 38.9856C175.157 39.1113 174.861 39.1562 174.609 39.1562V33.1562C173.63 33.1562 172.689 33.5293 171.972 34.2459L176.215 38.4885ZM174.609 39.1562H177.059V33.1562H174.609V39.1562ZM177.059 39.1562C176.827 39.1562 176.53 39.1167 176.21 38.9856C175.884 38.8523 175.608 38.6541 175.393 38.4271L179.755 34.3073C179.001 33.5088 178.012 33.1562 177.059 33.1562V39.1562ZM175.514 38.5482C175.287 38.3338 175.089 38.0576 174.956 37.7316C174.825 37.4113 174.785 37.1143 174.785 36.8828H180.785C180.785 35.9295 180.433 34.9403 179.634 34.1861L175.514 38.5482ZM174.785 36.8828V44.582H180.785V36.8828H174.785ZM180.42 46.0157L184.545 38.4337L179.275 35.5663L175.15 43.1483L180.42 46.0157ZM184.576 38.3759C184.421 38.6762 184.203 38.869 184.039 38.9679L180.929 33.8368C180.251 34.2482 179.649 34.8394 179.244 35.6241L184.576 38.3759ZM184.095 38.9333C183.997 38.9959 183.695 39.1562 183.234 39.1562V33.1562C182.289 33.1562 181.488 33.4807 180.874 33.8714L184.095 38.9333ZM183.234 39.1562H186.516V33.1562H183.234V39.1562ZM186.516 39.1562C186.284 39.1562 185.987 39.1167 185.667 38.9856C185.341 38.8523 185.065 38.6541 184.85 38.4271L189.212 34.3073C188.458 33.5088 187.469 33.1562 186.516 33.1562V39.1562ZM184.971 38.5482C184.744 38.3338 184.546 38.0576 184.413 37.7316C184.282 37.4113 184.242 37.1143 184.242 36.8828H190.242C190.242 35.9295 189.89 34.9403 189.091 34.1861L184.971 38.5482ZM184.242 36.8828V48.2852H190.242V36.8828H184.242ZM184.242 48.2852C184.242 48.0537 184.282 47.7567 184.413 47.4364C184.546 47.1103 184.744 46.8342 184.971 46.6197L189.091 50.9818C189.89 50.2277 190.242 49.2384 190.242 48.2852H184.242ZM184.91 46.6795C185.133 46.456 185.41 46.2723 185.722 46.1518C186.027 46.0339 186.304 46 186.516 46V52C187.415 52 188.386 51.6889 189.153 50.9221L184.91 46.6795ZM186.516 46H184.066V52H186.516V46ZM184.066 46C184.278 46 184.555 46.0339 184.86 46.1518C185.172 46.2723 185.449 46.456 185.672 46.6795L181.429 50.9221C182.196 51.6889 183.167 52 184.066 52V46ZM185.732 46.7409C185.919 46.9394 186.086 47.19 186.2 47.4852C186.313 47.7778 186.352 48.0548 186.352 48.2852H180.352C180.352 49.2119 180.683 50.1331 181.37 50.8607L185.732 46.7409ZM186.352 48.2852V40.5977H180.352V48.2852H186.352ZM180.718 39.1605L176.593 46.7191L181.86 49.5934L185.985 42.0348L180.718 39.1605ZM176.6 46.707C176.749 46.437 176.924 46.3003 176.988 46.2578L180.316 51.2501C180.896 50.8637 181.454 50.3286 181.853 49.6055L176.6 46.707ZM177.042 46.2229C177.14 46.1604 177.442 46 177.902 46V52C178.847 52 179.649 51.6756 180.263 51.2849L177.042 46.2229ZM177.902 46H174.609V52H177.902V46ZM174.609 46C174.821 46 175.098 46.0339 175.403 46.1518C175.715 46.2723 175.992 46.456 176.215 46.6795L171.972 50.9221C172.739 51.6889 173.71 52 174.609 52V46ZM176.215 46.6795C176.438 46.9029 176.622 47.1792 176.743 47.4911C176.861 47.7962 176.895 48.0738 176.895 48.2852H170.895C170.895 49.1848 171.206 50.1553 171.972 50.9221L176.215 46.6795ZM193.969 36.3672L191.788 38.4271L191.817 38.4582L191.847 38.4885L193.969 36.3672ZM194.168 41.0781H191.168V44.0781H194.168V41.0781ZM199.301 41.0781V44.0781H202.301V41.0781H199.301ZM203.156 36.3672L200.975 38.4271L201.005 38.4582L201.035 38.4885L203.156 36.3672ZM199.5 48.8008L197.319 50.8607L197.378 50.923L197.44 50.9818L199.5 48.8008ZM199.301 43.9141H202.301V40.9141H199.301V43.9141ZM194.168 43.9141V40.9141H191.168V43.9141H194.168ZM193.957 48.8008L191.897 46.6197L191.866 46.6492L191.836 46.6795L193.957 48.8008ZM193.113 48.2852V36.8828H187.113V48.2852H193.113ZM193.113 36.8828C193.113 37.0941 193.079 37.3718 192.961 37.6769C192.841 37.9888 192.657 38.2651 192.434 38.4885L188.191 34.2459C187.424 35.0126 187.113 35.9831 187.113 36.8828H193.113ZM192.434 38.4885C192.243 38.6797 191.991 38.8595 191.683 38.9856C191.376 39.1113 191.079 39.1562 190.828 39.1562V33.1562C189.848 33.1562 188.908 33.5293 188.191 34.2459L192.434 38.4885ZM190.828 39.1562H193.453V33.1562H190.828V39.1562ZM193.453 39.1562C193.222 39.1562 192.925 39.1167 192.604 38.9856C192.278 38.8523 192.002 38.6541 191.788 38.4271L196.15 34.3073C195.396 33.5088 194.406 33.1562 193.453 33.1562V39.1562ZM191.847 38.4885C191.624 38.2651 191.44 37.9888 191.32 37.6769C191.202 37.3718 191.168 37.0941 191.168 36.8828H197.168C197.168 35.9831 196.857 35.0126 196.09 34.2459L191.847 38.4885ZM191.168 36.8828V41.0781H197.168V36.8828H191.168ZM194.168 44.0781H199.301V38.0781H194.168V44.0781ZM202.301 41.0781V36.8828H196.301V41.0781H202.301ZM202.301 36.8828C202.301 37.0941 202.267 37.3718 202.149 37.6769C202.028 37.9888 201.845 38.2651 201.621 38.4885L197.379 34.2459C196.612 35.0126 196.301 35.9831 196.301 36.8828H202.301ZM201.621 38.4885C201.419 38.6907 201.16 38.8711 200.851 38.9944C200.547 39.1163 200.26 39.1562 200.027 39.1562V33.1562C199.074 33.1562 198.119 33.5059 197.379 34.2459L201.621 38.4885ZM200.027 39.1562H202.641V33.1562H200.027V39.1562ZM202.641 39.1562C202.409 39.1562 202.112 39.1167 201.792 38.9856C201.466 38.8523 201.19 38.6541 200.975 38.4271L205.337 34.3073C204.583 33.5088 203.594 33.1562 202.641 33.1562V39.1562ZM201.035 38.4885C200.812 38.2651 200.628 37.9888 200.507 37.6769C200.389 37.3718 200.355 37.0941 200.355 36.8828H206.355C206.355 35.9831 206.044 35.0126 205.278 34.2459L201.035 38.4885ZM200.355 36.8828V48.2852H206.355V36.8828H200.355ZM200.355 48.2852C200.355 48.0738 200.389 47.7962 200.507 47.4911C200.628 47.1792 200.812 46.9029 201.035 46.6795L205.278 50.9221C206.044 50.1553 206.355 49.1848 206.355 48.2852H200.355ZM201.035 46.6795C201.258 46.456 201.535 46.2723 201.847 46.1518C202.152 46.0339 202.429 46 202.641 46V52C203.54 52 204.511 51.6889 205.278 50.9221L201.035 46.6795ZM202.641 46H200.027V52H202.641V46ZM200.027 46C200.24 46 200.508 46.0343 200.798 46.1438C201.092 46.255 201.35 46.4218 201.56 46.6197L197.44 50.9818C198.19 51.6904 199.126 52 200.027 52V46ZM201.681 46.7409C201.868 46.9394 202.035 47.19 202.149 47.4852C202.262 47.7778 202.301 48.0548 202.301 48.2852H196.301C196.301 49.2119 196.632 50.1331 197.319 50.8607L201.681 46.7409ZM202.301 48.2852V43.9141H196.301V48.2852H202.301ZM199.301 40.9141H194.168V46.9141H199.301V40.9141ZM191.168 43.9141V48.2852H197.168V43.9141H191.168ZM191.168 48.2852C191.168 48.0537 191.208 47.7567 191.339 47.4364C191.472 47.1103 191.67 46.8342 191.897 46.6197L196.017 50.9818C196.815 50.2277 197.168 49.2384 197.168 48.2852H191.168ZM191.836 46.6795C192.048 46.4675 192.316 46.284 192.628 46.1603C192.937 46.0385 193.224 46 193.453 46V52C194.38 52 195.334 51.6662 196.078 50.9221L191.836 46.6795ZM193.453 46H190.828V52H193.453V46ZM190.828 46C191.039 46 191.317 46.0339 191.622 46.1518C191.934 46.2723 192.21 46.456 192.434 46.6795L188.191 50.9221C188.958 51.6889 189.928 52 190.828 52V46ZM192.434 46.6795C192.657 46.9029 192.841 47.1792 192.961 47.4911C193.079 47.7962 193.113 48.0738 193.113 48.2852H187.113C187.113 49.1848 187.424 50.1553 188.191 50.9221L192.434 46.6795Z" fill="black" mask="url(#path-2-outside-1_762_207)"/>
</svg>
