<svg width="415" height="116" viewBox="0 0 415 116" fill="none" xmlns="http://www.w3.org/2000/svg">
<rect x="2" y="2" width="410.286" height="112" rx="38" fill="white" stroke="black" stroke-width="4"/>
<mask id="path-2-outside-1_761_133" maskUnits="userSpaceOnUse" x="141.171" y="39.0859" width="132" height="38" fill="black">
<rect fill="white" x="141.171" y="39.0859" width="132" height="38"/>
<path d="M172.641 69.2118C170 71.5292 166.116 72.6879 160.989 72.6879C155.875 72.6879 151.991 71.5292 149.337 69.2118C146.683 66.8815 145.356 63.1982 145.356 58.1621C145.356 53.1259 146.683 49.4491 149.337 47.1317C151.991 44.8143 155.875 43.6556 160.989 43.6556C166.116 43.6556 170 44.8143 172.641 47.1317C175.295 49.4491 176.622 53.1259 176.622 58.1621C176.622 63.1982 175.295 66.8815 172.641 69.2118ZM167.339 51.2292C166.031 49.6757 163.915 48.8989 160.989 48.8989C158.076 48.8989 155.959 49.6757 154.639 51.2292C153.331 52.7828 152.677 55.1002 152.677 58.1815C152.677 61.2498 153.331 63.5607 154.639 65.1143C155.959 66.6549 158.076 67.4252 160.989 67.4252C163.915 67.4252 166.031 66.6549 167.339 65.1143C168.647 63.5607 169.3 61.2498 169.3 58.1815C169.3 55.1002 168.647 52.7828 167.339 51.2292ZM194.177 70.9013V52.006C194.177 51.6565 194.287 51.3717 194.507 51.1516C194.74 50.9185 195.025 50.802 195.362 50.802H199.712C200.061 50.802 200.346 50.9185 200.566 51.1516C200.786 51.3717 200.896 51.6565 200.896 52.006V58.9583H209.402V52.006C209.402 51.6565 209.512 51.3717 209.732 51.1516C209.965 50.9185 210.256 50.802 210.606 50.802H214.937C215.286 50.802 215.571 50.9185 215.791 51.1516C216.011 51.3717 216.121 51.6565 216.121 52.006V70.9013C216.121 71.2509 216.011 71.5357 215.791 71.7558C215.571 71.9759 215.286 72.0859 214.937 72.0859H210.606C210.256 72.0859 209.965 71.9759 209.732 71.7558C209.512 71.5228 209.402 71.2379 209.402 70.9013V63.6578H200.896V70.9013C200.896 71.2509 200.78 71.5357 200.547 71.7558C200.327 71.9759 200.048 72.0859 199.712 72.0859H195.362C195.012 72.0859 194.727 71.9759 194.507 71.7558C194.287 71.5357 194.177 71.2509 194.177 70.9013ZM222.258 70.6877C220.549 69.4967 219.694 67.8136 219.694 65.6386C219.694 63.4636 220.549 61.7935 222.258 60.6283C223.98 59.4632 226.193 58.8806 228.899 58.8806H235.327C235.327 57.3658 235.01 56.3107 234.376 55.7152C233.741 55.1196 232.628 54.8219 231.035 54.8219C229.456 54.8219 228.343 55.2167 227.695 56.0065C227.061 56.7833 226.278 57.1717 225.345 57.1717H222.452C222.102 57.1717 221.811 57.0616 221.578 56.8415C221.358 56.6085 221.248 56.3237 221.248 55.9871C221.248 52.2714 224.776 50.4136 231.832 50.4136C234.913 50.4136 237.386 51.1062 239.25 52.4915C241.114 53.8638 242.046 55.9935 242.046 58.8806V70.9013C242.046 71.2509 241.936 71.5357 241.716 71.7558C241.496 71.9759 241.211 72.0859 240.862 72.0859H237.114C236.764 72.0859 236.479 71.9759 236.259 71.7558C236.039 71.5228 235.929 71.2379 235.929 70.9013V70.2993C233.884 71.7623 231.521 72.4873 228.841 72.4743C226.174 72.4743 223.98 71.8788 222.258 70.6877ZM229.365 63.2888C228.459 63.2888 227.741 63.5089 227.21 63.9491C226.692 64.3893 226.433 64.9589 226.433 65.658C226.433 66.3571 226.705 66.9333 227.249 67.3864C227.792 67.8395 228.563 68.0661 229.56 68.0661C231.553 68.0661 233.476 67.4835 235.327 66.3183V63.2888H229.365ZM257.135 72.4743C253.51 72.4743 250.688 71.5422 248.668 69.6779C246.649 67.8136 245.639 65.0754 245.639 61.4634C245.639 57.8384 246.642 55.0937 248.649 53.2295C250.656 51.3522 253.446 50.4136 257.019 50.4136C260.605 50.4136 263.356 50.9833 265.272 52.1225C267.201 53.2618 268.166 54.9449 268.166 57.1717C268.166 57.5212 268.049 57.806 267.816 58.0261C267.596 58.2462 267.311 58.3562 266.962 58.3562H264.068C263.188 58.3562 262.443 57.8837 261.835 56.9386C261.071 55.7217 259.718 55.1132 257.776 55.1132C255.847 55.1132 254.494 55.6116 253.718 56.6085C252.954 57.5924 252.572 59.2042 252.572 61.444C252.572 63.6837 252.967 65.302 253.756 66.2989C254.559 67.2958 255.944 67.7942 257.912 67.7942C259.893 67.7942 261.265 67.1857 262.029 65.9687C262.638 65.0107 263.382 64.5317 264.262 64.5317H267.156C267.506 64.5317 267.79 64.6482 268.01 64.8812C268.243 65.1013 268.36 65.3797 268.36 65.7163C268.36 67.9431 267.396 69.6261 265.466 70.7654C263.55 71.9047 260.773 72.4743 257.135 72.4743Z"/>
</mask>
<path d="M172.641 69.2118C170 71.5292 166.116 72.6879 160.989 72.6879C155.875 72.6879 151.991 71.5292 149.337 69.2118C146.683 66.8815 145.356 63.1982 145.356 58.1621C145.356 53.1259 146.683 49.4491 149.337 47.1317C151.991 44.8143 155.875 43.6556 160.989 43.6556C166.116 43.6556 170 44.8143 172.641 47.1317C175.295 49.4491 176.622 53.1259 176.622 58.1621C176.622 63.1982 175.295 66.8815 172.641 69.2118ZM167.339 51.2292C166.031 49.6757 163.915 48.8989 160.989 48.8989C158.076 48.8989 155.959 49.6757 154.639 51.2292C153.331 52.7828 152.677 55.1002 152.677 58.1815C152.677 61.2498 153.331 63.5607 154.639 65.1143C155.959 66.6549 158.076 67.4252 160.989 67.4252C163.915 67.4252 166.031 66.6549 167.339 65.1143C168.647 63.5607 169.3 61.2498 169.3 58.1815C169.3 55.1002 168.647 52.7828 167.339 51.2292ZM194.177 70.9013V52.006C194.177 51.6565 194.287 51.3717 194.507 51.1516C194.74 50.9185 195.025 50.802 195.362 50.802H199.712C200.061 50.802 200.346 50.9185 200.566 51.1516C200.786 51.3717 200.896 51.6565 200.896 52.006V58.9583H209.402V52.006C209.402 51.6565 209.512 51.3717 209.732 51.1516C209.965 50.9185 210.256 50.802 210.606 50.802H214.937C215.286 50.802 215.571 50.9185 215.791 51.1516C216.011 51.3717 216.121 51.6565 216.121 52.006V70.9013C216.121 71.2509 216.011 71.5357 215.791 71.7558C215.571 71.9759 215.286 72.0859 214.937 72.0859H210.606C210.256 72.0859 209.965 71.9759 209.732 71.7558C209.512 71.5228 209.402 71.2379 209.402 70.9013V63.6578H200.896V70.9013C200.896 71.2509 200.78 71.5357 200.547 71.7558C200.327 71.9759 200.048 72.0859 199.712 72.0859H195.362C195.012 72.0859 194.727 71.9759 194.507 71.7558C194.287 71.5357 194.177 71.2509 194.177 70.9013ZM222.258 70.6877C220.549 69.4967 219.694 67.8136 219.694 65.6386C219.694 63.4636 220.549 61.7935 222.258 60.6283C223.98 59.4632 226.193 58.8806 228.899 58.8806H235.327C235.327 57.3658 235.01 56.3107 234.376 55.7152C233.741 55.1196 232.628 54.8219 231.035 54.8219C229.456 54.8219 228.343 55.2167 227.695 56.0065C227.061 56.7833 226.278 57.1717 225.345 57.1717H222.452C222.102 57.1717 221.811 57.0616 221.578 56.8415C221.358 56.6085 221.248 56.3237 221.248 55.9871C221.248 52.2714 224.776 50.4136 231.832 50.4136C234.913 50.4136 237.386 51.1062 239.25 52.4915C241.114 53.8638 242.046 55.9935 242.046 58.8806V70.9013C242.046 71.2509 241.936 71.5357 241.716 71.7558C241.496 71.9759 241.211 72.0859 240.862 72.0859H237.114C236.764 72.0859 236.479 71.9759 236.259 71.7558C236.039 71.5228 235.929 71.2379 235.929 70.9013V70.2993C233.884 71.7623 231.521 72.4873 228.841 72.4743C226.174 72.4743 223.98 71.8788 222.258 70.6877ZM229.365 63.2888C228.459 63.2888 227.741 63.5089 227.21 63.9491C226.692 64.3893 226.433 64.9589 226.433 65.658C226.433 66.3571 226.705 66.9333 227.249 67.3864C227.792 67.8395 228.563 68.0661 229.56 68.0661C231.553 68.0661 233.476 67.4835 235.327 66.3183V63.2888H229.365ZM257.135 72.4743C253.51 72.4743 250.688 71.5422 248.668 69.6779C246.649 67.8136 245.639 65.0754 245.639 61.4634C245.639 57.8384 246.642 55.0937 248.649 53.2295C250.656 51.3522 253.446 50.4136 257.019 50.4136C260.605 50.4136 263.356 50.9833 265.272 52.1225C267.201 53.2618 268.166 54.9449 268.166 57.1717C268.166 57.5212 268.049 57.806 267.816 58.0261C267.596 58.2462 267.311 58.3562 266.962 58.3562H264.068C263.188 58.3562 262.443 57.8837 261.835 56.9386C261.071 55.7217 259.718 55.1132 257.776 55.1132C255.847 55.1132 254.494 55.6116 253.718 56.6085C252.954 57.5924 252.572 59.2042 252.572 61.444C252.572 63.6837 252.967 65.302 253.756 66.2989C254.559 67.2958 255.944 67.7942 257.912 67.7942C259.893 67.7942 261.265 67.1857 262.029 65.9687C262.638 65.0107 263.382 64.5317 264.262 64.5317H267.156C267.506 64.5317 267.79 64.6482 268.01 64.8812C268.243 65.1013 268.36 65.3797 268.36 65.7163C268.36 67.9431 267.396 69.6261 265.466 70.7654C263.55 71.9047 260.773 72.4743 257.135 72.4743Z" fill="white"/>
<path d="M172.641 69.2118L175.279 72.2185L175.28 72.2176L172.641 69.2118ZM149.337 69.2118L146.698 72.2176L146.706 72.2249L149.337 69.2118ZM172.641 47.1317L170.002 50.1384L170.01 50.1447L172.641 47.1317ZM154.639 51.2292L151.591 48.6386L151.585 48.646L151.578 48.6535L154.639 51.2292ZM154.639 65.1143L151.578 67.69L151.59 67.7038L151.602 67.7175L154.639 65.1143ZM167.339 65.1143L170.389 67.7026L170.394 67.6964L170.399 67.69L167.339 65.1143ZM170.002 66.2052C168.363 67.6433 165.582 68.6879 160.989 68.6879V76.6879C166.65 76.6879 171.636 75.4152 175.279 72.2185L170.002 66.2052ZM160.989 68.6879C156.414 68.6879 153.625 67.6454 151.968 66.1988L146.706 72.2249C150.357 75.4131 155.336 76.6879 160.989 76.6879V68.6879ZM151.976 66.2061C150.505 64.9144 149.356 62.5517 149.356 58.1621H141.356C141.356 63.8447 142.861 68.8485 146.698 72.2176L151.976 66.2061ZM149.356 58.1621C149.356 53.7705 150.506 51.4213 151.968 50.1447L146.706 44.1187C142.86 47.4769 141.356 52.4813 141.356 58.1621H149.356ZM151.968 50.1447C153.625 48.6981 156.414 47.6556 160.989 47.6556V39.6556C155.336 39.6556 150.357 40.9305 146.706 44.1187L151.968 50.1447ZM160.989 47.6556C165.582 47.6556 168.363 48.7002 170.002 50.1383L175.279 44.125C171.636 40.9283 166.65 39.6556 160.989 39.6556V47.6556ZM170.01 50.1447C171.472 51.4213 172.622 53.7705 172.622 58.1621H180.622C180.622 52.4813 179.118 47.4769 175.271 44.1187L170.01 50.1447ZM172.622 58.1621C172.622 62.5517 171.472 64.9144 170.001 66.2061L175.28 72.2176C179.117 68.8485 180.622 63.8447 180.622 58.1621H172.622ZM170.399 48.6535C168.043 45.8539 164.558 44.8989 160.989 44.8989V52.8989C163.272 52.8989 164.02 53.4974 164.279 53.805L170.399 48.6535ZM160.989 44.8989C157.422 44.8989 153.954 45.8588 151.591 48.6386L157.686 53.8198C157.965 53.4925 158.729 52.8989 160.989 52.8989V44.8989ZM151.578 48.6535C149.418 51.2196 148.677 54.6258 148.677 58.1815H156.677C156.677 55.5746 157.243 54.3461 157.699 53.805L151.578 48.6535ZM148.677 58.1815C148.677 61.7292 149.421 65.1265 151.578 67.69L157.699 62.5385C157.241 61.9949 156.677 60.7704 156.677 58.1815H148.677ZM151.602 67.7175C153.967 70.4774 157.432 71.4252 160.989 71.4252V63.4252C158.719 63.4252 157.951 62.8324 157.676 62.5111L151.602 67.7175ZM160.989 71.4252C164.548 71.4252 168.029 70.4824 170.389 67.7026L164.289 62.5259C164.033 62.8275 163.282 63.4252 160.989 63.4252V71.4252ZM170.399 67.69C172.557 65.1265 173.3 61.7292 173.3 58.1815H165.3C165.3 60.7704 164.736 61.9949 164.279 62.5385L170.399 67.69ZM173.3 58.1815C173.3 54.6258 172.559 51.2196 170.399 48.6535L164.279 53.805C164.734 54.3461 165.3 55.5746 165.3 58.1815H173.3ZM194.507 51.1516L197.336 53.98L194.507 51.1516ZM200.566 51.1516L197.658 53.8981L197.697 53.9396L197.738 53.98L200.566 51.1516ZM200.896 58.9583H196.896V62.9583H200.896V58.9583ZM209.402 58.9583V62.9583H213.402V58.9583H209.402ZM209.732 51.1516L212.561 53.98L209.732 51.1516ZM215.791 51.1516L212.883 53.8981L212.922 53.9396L212.963 53.98L215.791 51.1516ZM209.732 71.7558L206.824 74.5023L206.903 74.5854L206.986 74.6639L209.732 71.7558ZM209.402 63.6578H213.402V59.6578H209.402V63.6578ZM200.896 63.6578V59.6578H196.896V63.6578H200.896ZM200.547 71.7558L197.8 68.8478L197.759 68.887L197.718 68.9274L200.547 71.7558ZM198.177 70.9013V52.006H190.177V70.9013H198.177ZM198.177 52.006C198.177 52.2536 198.137 52.5928 197.991 52.9718C197.841 53.3598 197.612 53.7036 197.336 53.98L191.679 48.3231C190.613 49.3885 190.177 50.7382 190.177 52.006H198.177ZM197.336 53.98C197.103 54.2121 196.793 54.4348 196.41 54.5916C196.028 54.7477 195.664 54.802 195.362 54.802V46.802C193.99 46.802 192.68 47.3222 191.679 48.3231L197.336 53.98ZM195.362 54.802H199.712V46.802H195.362V54.802ZM199.712 54.802C199.437 54.802 199.072 54.7549 198.673 54.5916C198.266 54.4251 197.922 54.1781 197.658 53.8981L203.474 48.4051C202.426 47.2949 201.051 46.802 199.712 46.802V54.802ZM197.738 53.98C197.461 53.7036 197.232 53.3598 197.082 52.9718C196.936 52.5928 196.896 52.2536 196.896 52.006H204.896C204.896 50.7382 204.46 49.3885 203.394 48.3231L197.738 53.98ZM196.896 52.006V58.9583H204.896V52.006H196.896ZM200.896 62.9583H209.402V54.9583H200.896V62.9583ZM213.402 58.9583V52.006H205.402V58.9583H213.402ZM213.402 52.006C213.402 52.2536 213.362 52.5928 213.216 52.9718C213.066 53.3598 212.837 53.7036 212.561 53.98L206.904 48.3231C205.838 49.3885 205.402 50.7382 205.402 52.006H213.402ZM212.561 53.98C212.314 54.2268 211.993 54.4503 211.611 54.6033C211.233 54.7544 210.882 54.802 210.606 54.802V46.802C209.267 46.802 207.936 47.2909 206.904 48.3231L212.561 53.98ZM210.606 54.802H214.937V46.802H210.606V54.802ZM214.937 54.802C214.662 54.802 214.297 54.7549 213.898 54.5916C213.491 54.4251 213.147 54.1781 212.883 53.8981L218.699 48.4051C217.651 47.2949 216.276 46.802 214.937 46.802V54.802ZM212.963 53.98C212.686 53.7036 212.457 53.3598 212.307 52.9718C212.161 52.5928 212.121 52.2536 212.121 52.006H220.121C220.121 50.7382 219.685 49.3885 218.619 48.3231L212.963 53.98ZM212.121 52.006V70.9013H220.121V52.006H212.121ZM212.121 70.9013C212.121 70.6537 212.161 70.3145 212.307 69.9355C212.457 69.5475 212.686 69.2038 212.963 68.9274L218.619 74.5842C219.685 73.5189 220.121 72.1692 220.121 70.9013H212.121ZM212.963 68.9274C213.239 68.651 213.583 68.4221 213.971 68.2722C214.35 68.1258 214.689 68.0859 214.937 68.0859V76.0859C216.204 76.0859 217.554 75.6496 218.619 74.5842L212.963 68.9274ZM214.937 68.0859H210.606V76.0859H214.937V68.0859ZM210.606 68.0859C210.855 68.0859 211.181 68.1263 211.539 68.2615C211.903 68.3991 212.222 68.6053 212.479 68.8478L206.986 74.6639C208.031 75.6516 209.336 76.0859 210.606 76.0859V68.0859ZM212.64 69.0093C212.869 69.2511 213.074 69.5601 213.216 69.9258C213.356 70.2881 213.402 70.6271 213.402 70.9013H205.402C205.402 72.2028 205.865 73.4867 206.824 74.5023L212.64 69.0093ZM213.402 70.9013V63.6578H205.402V70.9013H213.402ZM209.402 59.6578H200.896V67.6578H209.402V59.6578ZM196.896 63.6578V70.9013H204.896V63.6578H196.896ZM196.896 70.9013C196.896 70.6269 196.943 70.2618 197.107 69.8626C197.273 69.4557 197.52 69.1122 197.8 68.8478L203.293 74.6639C204.403 73.6153 204.896 72.2407 204.896 70.9013H196.896ZM197.718 68.9274C197.979 68.6663 198.312 68.4377 198.702 68.2836C199.086 68.1318 199.439 68.0859 199.712 68.0859V76.0859C201.014 76.0859 202.34 75.6193 203.375 74.5842L197.718 68.9274ZM199.712 68.0859H195.362V76.0859H199.712V68.0859ZM195.362 68.0859C195.609 68.0859 195.948 68.1258 196.327 68.2722C196.715 68.4221 197.059 68.651 197.336 68.9274L191.679 74.5842C192.744 75.6496 194.094 76.0859 195.362 76.0859V68.0859ZM197.336 68.9274C197.612 69.2038 197.841 69.5475 197.991 69.9355C198.137 70.3145 198.177 70.6537 198.177 70.9013H190.177C190.177 72.1692 190.613 73.5189 191.679 74.5842L197.336 68.9274ZM222.258 70.6877L219.971 73.9693L219.976 73.9734L219.982 73.9774L222.258 70.6877ZM222.258 60.6283L220.016 57.3155L220.004 57.3234L222.258 60.6283ZM235.327 58.8806V62.8806H239.327V58.8806H235.327ZM234.376 55.7152L237.113 52.7989L234.376 55.7152ZM227.695 56.0065L224.602 53.4708L224.597 53.4763L227.695 56.0065ZM221.578 56.8415L218.67 59.588L218.749 59.6711L218.832 59.7496L221.578 56.8415ZM239.25 52.4915L236.864 55.7022L236.871 55.7075L236.879 55.7129L239.25 52.4915ZM236.259 71.7558L233.351 74.5023L233.391 74.5438L233.431 74.5842L236.259 71.7558ZM235.929 70.2993H239.929V62.5209L233.602 67.0458L235.929 70.2993ZM228.841 72.4743L228.86 68.4744L228.851 68.4743H228.841V72.4743ZM227.21 63.9491L224.656 60.8701L224.638 60.8856L224.619 60.9014L227.21 63.9491ZM227.249 67.3864L229.809 64.3135L227.249 67.3864ZM235.327 66.3183L237.458 69.7036L239.327 68.5271V66.3183H235.327ZM235.327 63.2888H239.327V59.2888H235.327V63.2888ZM224.545 67.4061C223.964 67.0014 223.694 66.574 223.694 65.6386H215.694C215.694 69.0532 217.133 71.9919 219.971 73.9693L224.545 67.4061ZM223.694 65.6386C223.694 64.7051 223.96 64.3088 224.511 63.9333L220.004 57.3234C217.137 59.2783 215.694 62.2221 215.694 65.6386H223.694ZM224.5 63.9411C225.386 63.341 226.754 62.8806 228.899 62.8806V54.8806C225.633 54.8806 222.573 55.5853 220.016 57.3156L224.5 63.9411ZM228.899 62.8806H235.327V54.8806H228.899V62.8806ZM239.327 58.8806C239.327 57.0274 238.979 54.5505 237.113 52.7989L231.638 58.6315C231.322 58.3352 231.25 58.0747 231.259 58.1047C231.263 58.1187 231.281 58.1858 231.298 58.3207C231.314 58.4548 231.327 58.6389 231.327 58.8806H239.327ZM237.113 52.7989C235.326 51.1206 232.887 50.8219 231.035 50.8219V58.8219C231.605 58.8219 231.912 58.8776 232.031 58.9094C232.15 58.9411 231.933 58.9082 231.638 58.6315L237.113 52.7989ZM231.035 50.8219C228.918 50.8219 226.346 51.3422 224.602 53.4708L230.789 58.5422C230.694 58.658 230.592 58.746 230.501 58.807C230.413 58.8661 230.356 58.887 230.353 58.888C230.352 58.8883 230.402 58.8707 230.519 58.8536C230.635 58.8365 230.805 58.8219 231.035 58.8219V50.8219ZM224.597 53.4763C224.587 53.4882 224.666 53.3903 224.855 53.2967C225.052 53.1991 225.237 53.1717 225.345 53.1717V61.1716C227.579 61.1716 229.465 60.1628 230.793 58.5366L224.597 53.4763ZM225.345 53.1717H222.452V61.1716H225.345V53.1717ZM222.452 53.1717C222.701 53.1717 223.027 53.212 223.385 53.3472C223.749 53.4848 224.068 53.691 224.325 53.9335L218.832 59.7496C219.877 60.7373 221.182 61.1716 222.452 61.1716V53.1717ZM224.486 54.095C224.715 54.3368 224.92 54.6458 225.062 55.0115C225.202 55.3738 225.248 55.7128 225.248 55.9871H217.248C217.248 57.2885 217.711 58.5724 218.67 59.588L224.486 54.095ZM225.248 55.9871C225.248 55.8404 225.265 55.76 225.274 55.728C225.282 55.6993 225.287 55.6912 225.289 55.688C225.292 55.6837 225.312 55.6522 225.375 55.5971C225.44 55.5395 225.559 55.4509 225.758 55.3462C226.66 54.871 228.524 54.4136 231.832 54.4136V46.4136C228.083 46.4136 224.656 46.8851 222.03 48.2677C220.658 48.9902 219.416 50.0093 218.53 51.4093C217.634 52.8246 217.248 54.3994 217.248 55.9871H225.248ZM231.832 54.4136C234.332 54.4136 235.884 54.974 236.864 55.7022L241.636 49.2808C238.887 47.2385 235.493 46.4136 231.832 46.4136V54.4136ZM236.879 55.7129C237.466 56.1454 238.046 56.9151 238.046 58.8806H246.046C246.046 55.0719 244.762 51.5822 241.621 49.2702L236.879 55.7129ZM238.046 58.8806V70.9013H246.046V58.8806H238.046ZM238.046 70.9013C238.046 70.6537 238.086 70.3145 238.233 69.9355C238.383 69.5475 238.611 69.2038 238.888 68.9274L244.545 74.5842C245.61 73.5189 246.046 72.1692 246.046 70.9013H238.046ZM238.888 68.9274C239.164 68.651 239.508 68.4221 239.896 68.2722C240.275 68.1258 240.614 68.0859 240.862 68.0859V76.0859C242.13 76.0859 243.479 75.6496 244.545 74.5842L238.888 68.9274ZM240.862 68.0859H237.114V76.0859H240.862V68.0859ZM237.114 68.0859C237.361 68.0859 237.701 68.1258 238.08 68.2722C238.468 68.4221 238.811 68.651 239.088 68.9274L233.431 74.5842C234.496 75.6496 235.846 76.0859 237.114 76.0859V68.0859ZM239.167 69.0093C239.396 69.2511 239.602 69.5601 239.743 69.9258C239.883 70.2881 239.929 70.6271 239.929 70.9013H231.929C231.929 72.2028 232.392 73.4867 233.351 74.5023L239.167 69.0093ZM239.929 70.9013V70.2993H231.929V70.9013H239.929ZM233.602 67.0458C232.287 67.9865 230.758 68.4835 228.86 68.4744L228.822 76.4743C232.284 76.491 235.48 75.5381 238.256 73.5529L233.602 67.0458ZM228.841 68.4743C226.765 68.4743 225.424 68.0144 224.533 67.3981L219.982 73.9774C222.535 75.7432 225.583 76.4743 228.841 76.4743V68.4743ZM229.365 59.2888C227.823 59.2888 226.104 59.6697 224.656 60.8701L229.763 67.0281C229.586 67.1746 229.419 67.2478 229.318 67.2785C229.229 67.3058 229.23 67.2888 229.365 67.2888V59.2888ZM224.619 60.9014C223.178 62.1262 222.433 63.8241 222.433 65.658H230.433C230.433 65.8122 230.402 66.0687 230.269 66.3617C230.134 66.6577 229.951 66.8691 229.8 66.9969L224.619 60.9014ZM222.433 65.658C222.433 67.5613 223.245 69.2571 224.688 70.4593L229.809 64.3135C229.935 64.4181 230.115 64.6127 230.254 64.9074C230.394 65.2034 230.433 65.4755 230.433 65.658H222.433ZM224.688 70.4593C226.195 71.7151 228.004 72.0661 229.56 72.0661V64.0661C229.355 64.0661 229.306 64.0418 229.363 64.0587C229.432 64.079 229.608 64.1459 229.809 64.3135L224.688 70.4593ZM229.56 72.0661C232.38 72.0661 235.033 71.23 237.458 69.7036L233.197 62.933C231.919 63.737 230.727 64.0661 229.56 64.0661V72.0661ZM239.327 66.3183V63.2888H231.327V66.3183H239.327ZM235.327 59.2888H229.365V67.2888H235.327V59.2888ZM248.649 53.2295L251.372 56.16L251.382 56.1505L248.649 53.2295ZM265.272 52.1225L263.228 55.5607L263.238 55.5667L265.272 52.1225ZM267.816 58.0261L265.07 55.1181L265.028 55.1573L264.988 55.1977L267.816 58.0261ZM261.835 56.9386L258.447 59.0651L258.459 59.0846L258.472 59.104L261.835 56.9386ZM253.718 56.6085L250.562 54.1499L250.558 54.1556L253.718 56.6085ZM253.756 66.2989L250.621 68.7827L250.631 68.7952L250.641 68.8075L253.756 66.2989ZM262.029 65.9688L258.653 63.8242L258.647 63.8332L258.641 63.8423L262.029 65.9688ZM268.01 64.8813L265.102 67.6277L265.181 67.7108L265.264 67.7893L268.01 64.8813ZM265.466 70.7654L263.432 67.3212L263.422 67.3273L265.466 70.7654ZM257.135 68.4743C254.187 68.4743 252.452 67.7267 251.382 66.7387L245.955 72.6171C248.924 75.3577 252.833 76.4743 257.135 76.4743V68.4743ZM251.382 66.7387C250.419 65.8501 249.639 64.3279 249.639 61.4634H241.639C241.639 65.823 242.879 69.7772 245.955 72.6171L251.382 66.7387ZM249.639 61.4634C249.639 58.5734 250.42 57.0442 251.372 56.16L245.927 50.299C242.865 53.1433 241.639 57.1034 241.639 61.4634H249.639ZM251.382 56.1505C252.446 55.1551 254.146 54.4136 257.019 54.4136V46.4136C252.745 46.4136 248.866 47.5494 245.916 50.3084L251.382 56.1505ZM257.019 54.4136C260.281 54.4136 262.199 54.949 263.228 55.5607L267.317 48.6844C264.513 47.0175 260.929 46.4136 257.019 46.4136V54.4136ZM263.238 55.5667C263.958 55.9919 264.166 56.3704 264.166 57.1717H272.166C272.166 53.5193 270.445 50.5318 267.306 48.6784L263.238 55.5667ZM264.166 57.1717C264.166 56.8972 264.213 56.5321 264.376 56.1329C264.543 55.726 264.79 55.3825 265.07 55.1181L270.563 60.9342C271.673 59.8856 272.166 58.511 272.166 57.1717H264.166ZM264.988 55.1977C265.264 54.9213 265.608 54.6924 265.996 54.5425C266.375 54.3961 266.714 54.3562 266.962 54.3562V62.3562C268.23 62.3562 269.579 61.9199 270.645 60.8545L264.988 55.1977ZM266.962 54.3562H264.068V62.3562H266.962V54.3562ZM264.068 54.3562C264.389 54.3562 264.726 54.4549 264.993 54.6248C265.226 54.7723 265.272 54.8877 265.198 54.7733L258.472 59.104C259.586 60.8341 261.45 62.3562 264.068 62.3562V54.3562ZM265.223 54.8121C263.48 52.0358 260.555 51.1132 257.776 51.1132V59.1132C258.349 59.1132 258.579 59.2052 258.607 59.2175C258.615 59.2211 258.585 59.2081 258.539 59.1691C258.493 59.1295 258.462 59.0892 258.447 59.0651L265.223 54.8121ZM257.776 51.1132C255.278 51.1132 252.428 51.7555 250.562 54.1499L256.873 59.0671C256.741 59.2365 256.62 59.2689 256.698 59.2404C256.81 59.1991 257.134 59.1132 257.776 59.1132V51.1132ZM250.558 54.1556C248.961 56.2126 248.572 58.9423 248.572 61.444H256.572C256.572 60.5337 256.651 59.8967 256.751 59.4776C256.851 59.0537 256.942 58.9784 256.877 59.0614L250.558 54.1556ZM248.572 61.444C248.572 63.9719 248.983 66.7144 250.621 68.7827L256.892 63.815C256.948 63.8855 256.855 63.8044 256.754 63.3893C256.653 62.976 256.572 62.3462 256.572 61.444H248.572ZM250.641 68.8075C252.537 71.1629 255.393 71.7942 257.912 71.7942V63.7942C257.244 63.7942 256.891 63.7068 256.752 63.6566C256.644 63.618 256.747 63.6348 256.872 63.7902L250.641 68.8075ZM257.912 71.7942C260.693 71.7942 263.66 70.8947 265.417 68.0952L258.641 63.8423C258.661 63.8114 258.696 63.7674 258.744 63.7265C258.79 63.6866 258.819 63.6752 258.806 63.6812C258.765 63.699 258.514 63.7942 257.912 63.7942V71.7942ZM265.406 68.1133C265.484 67.9906 265.441 68.1051 265.208 68.2547C264.939 68.4281 264.594 68.5317 264.262 68.5317V60.5317C261.618 60.5317 259.755 62.0889 258.653 63.8242L265.406 68.1133ZM264.262 68.5317H267.156V60.5317H264.262V68.5317ZM267.156 68.5317C266.882 68.5317 266.516 68.4846 266.117 68.3213C265.71 68.1548 265.367 67.9077 265.102 67.6277L270.919 62.1348C269.87 61.0245 268.495 60.5317 267.156 60.5317V68.5317ZM265.264 67.7893C265 67.54 264.754 67.2075 264.583 66.7996C264.414 66.3961 264.36 66.017 264.36 65.7163H272.36C272.36 64.3411 271.834 62.9904 270.757 61.9732L265.264 67.7893ZM264.36 65.7163C264.36 66.5175 264.152 66.8961 263.432 67.3212L267.501 74.2096C270.639 72.3561 272.36 69.3686 272.36 65.7163H264.36ZM263.422 67.3273C262.4 67.935 260.462 68.4743 257.135 68.4743V76.4743C261.085 76.4743 264.701 75.8744 267.511 74.2035L263.422 67.3273Z" fill="black" mask="url(#path-2-outside-1_761_133)"/>
</svg>
