<svg width="295" height="80" viewBox="0 0 295 80" fill="none" xmlns="http://www.w3.org/2000/svg">
<rect x="2" y="2" width="291" height="76" rx="38" fill="white" stroke="black" stroke-width="4"/>
<mask id="path-2-outside-1_762_204" maskUnits="userSpaceOnUse" x="106" y="28" width="81" height="25" fill="black">
<rect fill="white" x="106" y="28" width="81" height="25"/>
<path d="M126.18 47.2656C124.586 48.6641 122.242 49.3633 119.148 49.3633C116.062 49.3633 113.719 48.6641 112.117 47.2656C110.516 45.8594 109.715 43.6367 109.715 40.5977C109.715 37.5586 110.516 35.3398 112.117 33.9414C113.719 32.543 116.062 31.8438 119.148 31.8438C122.242 31.8438 124.586 32.543 126.18 33.9414C127.781 35.3398 128.582 37.5586 128.582 40.5977C128.582 43.6367 127.781 45.8594 126.18 47.2656ZM122.98 36.4141C122.191 35.4766 120.914 35.0078 119.148 35.0078C117.391 35.0078 116.113 35.4766 115.316 36.4141C114.527 37.3516 114.133 38.75 114.133 40.6094C114.133 42.4609 114.527 43.8555 115.316 44.793C116.113 45.7227 117.391 46.1875 119.148 46.1875C120.914 46.1875 122.191 45.7227 122.98 44.793C123.77 43.8555 124.164 42.4609 124.164 40.6094C124.164 38.75 123.77 37.3516 122.98 36.4141ZM139.176 48.2852V36.8828C139.176 36.6719 139.242 36.5 139.375 36.3672C139.516 36.2266 139.688 36.1562 139.891 36.1562H142.516C142.727 36.1562 142.898 36.2266 143.031 36.3672C143.164 36.5 143.23 36.6719 143.23 36.8828V41.0781H148.363V36.8828C148.363 36.6719 148.43 36.5 148.562 36.3672C148.703 36.2266 148.879 36.1562 149.09 36.1562H151.703C151.914 36.1562 152.086 36.2266 152.219 36.3672C152.352 36.5 152.418 36.6719 152.418 36.8828V48.2852C152.418 48.4961 152.352 48.668 152.219 48.8008C152.086 48.9336 151.914 49 151.703 49H149.09C148.879 49 148.703 48.9336 148.562 48.8008C148.43 48.6602 148.363 48.4883 148.363 48.2852V43.9141H143.23V48.2852C143.23 48.4961 143.16 48.668 143.02 48.8008C142.887 48.9336 142.719 49 142.516 49H139.891C139.68 49 139.508 48.9336 139.375 48.8008C139.242 48.668 139.176 48.4961 139.176 48.2852ZM156.121 48.1562C155.09 47.4375 154.574 46.4219 154.574 45.1094C154.574 43.7969 155.09 42.7891 156.121 42.0859C157.16 41.3828 158.496 41.0312 160.129 41.0312H164.008C164.008 40.1172 163.816 39.4805 163.434 39.1211C163.051 38.7617 162.379 38.582 161.418 38.582C160.465 38.582 159.793 38.8203 159.402 39.2969C159.02 39.7656 158.547 40 157.984 40H156.238C156.027 40 155.852 39.9336 155.711 39.8008C155.578 39.6602 155.512 39.4883 155.512 39.2852C155.512 37.043 157.641 35.9219 161.898 35.9219C163.758 35.9219 165.25 36.3398 166.375 37.1758C167.5 38.0039 168.062 39.2891 168.062 41.0312V48.2852C168.062 48.4961 167.996 48.668 167.863 48.8008C167.73 48.9336 167.559 49 167.348 49H165.086C164.875 49 164.703 48.9336 164.57 48.8008C164.438 48.6602 164.371 48.4883 164.371 48.2852V47.9219C163.137 48.8047 161.711 49.2422 160.094 49.2344C158.484 49.2344 157.16 48.875 156.121 48.1562ZM160.41 43.6914C159.863 43.6914 159.43 43.8242 159.109 44.0898C158.797 44.3555 158.641 44.6992 158.641 45.1211C158.641 45.543 158.805 45.8906 159.133 46.1641C159.461 46.4375 159.926 46.5742 160.527 46.5742C161.73 46.5742 162.891 46.2227 164.008 45.5195V43.6914H160.41ZM177.168 49.2344C174.98 49.2344 173.277 48.6719 172.059 47.5469C170.84 46.4219 170.23 44.7695 170.23 42.5898C170.23 40.4023 170.836 38.7461 172.047 37.6211C173.258 36.4883 174.941 35.9219 177.098 35.9219C179.262 35.9219 180.922 36.2656 182.078 36.9531C183.242 37.6406 183.824 38.6562 183.824 40C183.824 40.2109 183.754 40.3828 183.613 40.5156C183.48 40.6484 183.309 40.7148 183.098 40.7148H181.352C180.82 40.7148 180.371 40.4297 180.004 39.8594C179.543 39.125 178.727 38.7578 177.555 38.7578C176.391 38.7578 175.574 39.0586 175.105 39.6602C174.645 40.2539 174.414 41.2266 174.414 42.5781C174.414 43.9297 174.652 44.9062 175.129 45.5078C175.613 46.1094 176.449 46.4102 177.637 46.4102C178.832 46.4102 179.66 46.043 180.121 45.3086C180.488 44.7305 180.938 44.4414 181.469 44.4414H183.215C183.426 44.4414 183.598 44.5117 183.73 44.6523C183.871 44.7852 183.941 44.9531 183.941 45.1562C183.941 46.5 183.359 47.5156 182.195 48.2031C181.039 48.8906 179.363 49.2344 177.168 49.2344Z"/>
</mask>
<path d="M126.18 47.2656C124.586 48.6641 122.242 49.3633 119.148 49.3633C116.062 49.3633 113.719 48.6641 112.117 47.2656C110.516 45.8594 109.715 43.6367 109.715 40.5977C109.715 37.5586 110.516 35.3398 112.117 33.9414C113.719 32.543 116.062 31.8438 119.148 31.8438C122.242 31.8438 124.586 32.543 126.18 33.9414C127.781 35.3398 128.582 37.5586 128.582 40.5977C128.582 43.6367 127.781 45.8594 126.18 47.2656ZM122.98 36.4141C122.191 35.4766 120.914 35.0078 119.148 35.0078C117.391 35.0078 116.113 35.4766 115.316 36.4141C114.527 37.3516 114.133 38.75 114.133 40.6094C114.133 42.4609 114.527 43.8555 115.316 44.793C116.113 45.7227 117.391 46.1875 119.148 46.1875C120.914 46.1875 122.191 45.7227 122.98 44.793C123.77 43.8555 124.164 42.4609 124.164 40.6094C124.164 38.75 123.77 37.3516 122.98 36.4141ZM139.176 48.2852V36.8828C139.176 36.6719 139.242 36.5 139.375 36.3672C139.516 36.2266 139.688 36.1562 139.891 36.1562H142.516C142.727 36.1562 142.898 36.2266 143.031 36.3672C143.164 36.5 143.23 36.6719 143.23 36.8828V41.0781H148.363V36.8828C148.363 36.6719 148.43 36.5 148.562 36.3672C148.703 36.2266 148.879 36.1562 149.09 36.1562H151.703C151.914 36.1562 152.086 36.2266 152.219 36.3672C152.352 36.5 152.418 36.6719 152.418 36.8828V48.2852C152.418 48.4961 152.352 48.668 152.219 48.8008C152.086 48.9336 151.914 49 151.703 49H149.09C148.879 49 148.703 48.9336 148.562 48.8008C148.43 48.6602 148.363 48.4883 148.363 48.2852V43.9141H143.23V48.2852C143.23 48.4961 143.16 48.668 143.02 48.8008C142.887 48.9336 142.719 49 142.516 49H139.891C139.68 49 139.508 48.9336 139.375 48.8008C139.242 48.668 139.176 48.4961 139.176 48.2852ZM156.121 48.1562C155.09 47.4375 154.574 46.4219 154.574 45.1094C154.574 43.7969 155.09 42.7891 156.121 42.0859C157.16 41.3828 158.496 41.0312 160.129 41.0312H164.008C164.008 40.1172 163.816 39.4805 163.434 39.1211C163.051 38.7617 162.379 38.582 161.418 38.582C160.465 38.582 159.793 38.8203 159.402 39.2969C159.02 39.7656 158.547 40 157.984 40H156.238C156.027 40 155.852 39.9336 155.711 39.8008C155.578 39.6602 155.512 39.4883 155.512 39.2852C155.512 37.043 157.641 35.9219 161.898 35.9219C163.758 35.9219 165.25 36.3398 166.375 37.1758C167.5 38.0039 168.062 39.2891 168.062 41.0312V48.2852C168.062 48.4961 167.996 48.668 167.863 48.8008C167.73 48.9336 167.559 49 167.348 49H165.086C164.875 49 164.703 48.9336 164.57 48.8008C164.438 48.6602 164.371 48.4883 164.371 48.2852V47.9219C163.137 48.8047 161.711 49.2422 160.094 49.2344C158.484 49.2344 157.16 48.875 156.121 48.1562ZM160.41 43.6914C159.863 43.6914 159.43 43.8242 159.109 44.0898C158.797 44.3555 158.641 44.6992 158.641 45.1211C158.641 45.543 158.805 45.8906 159.133 46.1641C159.461 46.4375 159.926 46.5742 160.527 46.5742C161.73 46.5742 162.891 46.2227 164.008 45.5195V43.6914H160.41ZM177.168 49.2344C174.98 49.2344 173.277 48.6719 172.059 47.5469C170.84 46.4219 170.23 44.7695 170.23 42.5898C170.23 40.4023 170.836 38.7461 172.047 37.6211C173.258 36.4883 174.941 35.9219 177.098 35.9219C179.262 35.9219 180.922 36.2656 182.078 36.9531C183.242 37.6406 183.824 38.6562 183.824 40C183.824 40.2109 183.754 40.3828 183.613 40.5156C183.48 40.6484 183.309 40.7148 183.098 40.7148H181.352C180.82 40.7148 180.371 40.4297 180.004 39.8594C179.543 39.125 178.727 38.7578 177.555 38.7578C176.391 38.7578 175.574 39.0586 175.105 39.6602C174.645 40.2539 174.414 41.2266 174.414 42.5781C174.414 43.9297 174.652 44.9062 175.129 45.5078C175.613 46.1094 176.449 46.4102 177.637 46.4102C178.832 46.4102 179.66 46.043 180.121 45.3086C180.488 44.7305 180.938 44.4414 181.469 44.4414H183.215C183.426 44.4414 183.598 44.5117 183.73 44.6523C183.871 44.7852 183.941 44.9531 183.941 45.1562C183.941 46.5 183.359 47.5156 182.195 48.2031C181.039 48.8906 179.363 49.2344 177.168 49.2344Z" fill="white"/>
<path d="M126.18 47.2656L128.158 49.5206L128.159 49.5199L126.18 47.2656ZM112.117 47.2656L110.138 49.52L110.144 49.5254L112.117 47.2656ZM126.18 33.9414L124.201 36.1964L124.207 36.2012L126.18 33.9414ZM115.316 36.4141L113.031 34.4711L113.026 34.4767L113.021 34.4822L115.316 36.4141ZM115.316 44.793L113.021 46.7248L113.03 46.7351L113.039 46.7453L115.316 44.793ZM122.98 44.793L125.268 46.7343L125.276 46.7248L122.98 44.793ZM124.201 45.0106C123.359 45.7496 121.842 46.3633 119.148 46.3633V52.3633C122.643 52.3633 125.813 51.5785 128.158 49.5206L124.201 45.0106ZM119.148 46.3633C116.467 46.3633 114.944 45.7512 114.09 45.0058L110.144 49.5254C112.494 51.5769 115.658 52.3633 119.148 52.3633V46.3633ZM114.097 45.0113C113.382 44.3841 112.715 43.1518 112.715 40.5977H106.715C106.715 44.1216 107.649 47.3347 110.138 49.5199L114.097 45.0113ZM112.715 40.5977C112.715 38.042 113.383 36.819 114.09 36.2012L110.144 31.6816C107.648 33.8607 106.715 37.0752 106.715 40.5977H112.715ZM114.09 36.2012C114.944 35.4558 116.467 34.8438 119.148 34.8438V28.8438C115.658 28.8438 112.494 29.6301 110.144 31.6816L114.09 36.2012ZM119.148 34.8438C121.842 34.8438 123.359 35.4574 124.201 36.1964L128.158 31.6864C125.813 29.6285 122.643 28.8438 119.148 28.8438V34.8438ZM124.207 36.2012C124.914 36.819 125.582 38.042 125.582 40.5977H131.582C131.582 37.0752 130.648 33.8607 128.153 31.6816L124.207 36.2012ZM125.582 40.5977C125.582 43.1518 124.915 44.3841 124.2 45.0113L128.159 49.5199C130.648 47.3347 131.582 44.1216 131.582 40.5977H125.582ZM125.276 34.4822C123.7 32.6102 121.396 32.0078 119.148 32.0078V38.0078C120.432 38.0078 120.683 38.3429 120.685 38.3459L125.276 34.4822ZM119.148 32.0078C116.901 32.0078 114.609 32.6139 113.031 34.4711L117.602 38.357C117.617 38.3392 117.881 38.0078 119.148 38.0078V32.0078ZM113.021 34.4822C111.593 36.1791 111.133 38.3942 111.133 40.6094H117.133C117.133 39.1058 117.462 38.524 117.612 38.3459L113.021 34.4822ZM111.133 40.6094C111.133 42.8205 111.595 45.0298 113.021 46.7248L117.612 42.8612C117.46 42.6811 117.133 42.1014 117.133 40.6094H111.133ZM113.039 46.7453C114.619 48.5895 116.908 49.1875 119.148 49.1875V43.1875C117.873 43.1875 117.607 42.8558 117.594 42.8406L113.039 46.7453ZM119.148 49.1875C121.389 49.1875 123.69 48.5932 125.268 46.7342L120.693 42.8517C120.693 42.8521 120.439 43.1875 119.148 43.1875V49.1875ZM125.276 46.7248C126.702 45.0298 127.164 42.8205 127.164 40.6094H121.164C121.164 42.1014 120.837 42.6811 120.685 42.8612L125.276 46.7248ZM127.164 40.6094C127.164 38.3942 126.704 36.1791 125.276 34.4822L120.685 38.3459C120.835 38.524 121.164 39.1058 121.164 40.6094H127.164ZM143.031 36.3672L140.85 38.4271L140.88 38.4582L140.91 38.4885L143.031 36.3672ZM143.23 41.0781H140.23V44.0781H143.23V41.0781ZM148.363 41.0781V44.0781H151.363V41.0781H148.363ZM152.219 36.3672L150.038 38.4271L150.067 38.4582L150.097 38.4885L152.219 36.3672ZM148.562 48.8008L146.381 50.8607L146.44 50.923L146.503 50.9818L148.562 48.8008ZM148.363 43.9141H151.363V40.9141H148.363V43.9141ZM143.23 43.9141V40.9141H140.23V43.9141H143.23ZM143.02 48.8008L140.96 46.6197L140.929 46.6492L140.898 46.6795L143.02 48.8008ZM142.176 48.2852V36.8828H136.176V48.2852H142.176ZM142.176 36.8828C142.176 37.0941 142.142 37.3718 142.024 37.6769C141.903 37.9888 141.72 38.2651 141.496 38.4885L137.254 34.2459C136.487 35.0126 136.176 35.9831 136.176 36.8828H142.176ZM141.496 38.4885C141.305 38.6797 141.054 38.8595 140.745 38.9856C140.438 39.1113 140.142 39.1562 139.891 39.1562V33.1562C138.911 33.1562 137.97 33.5293 137.254 34.2459L141.496 38.4885ZM139.891 39.1562H142.516V33.1562H139.891V39.1562ZM142.516 39.1562C142.284 39.1562 141.987 39.1167 141.667 38.9856C141.341 38.8523 141.065 38.6541 140.85 38.4271L145.212 34.3073C144.458 33.5088 143.469 33.1562 142.516 33.1562V39.1562ZM140.91 38.4885C140.687 38.2651 140.503 37.9888 140.382 37.6769C140.264 37.3718 140.23 37.0941 140.23 36.8828H146.23C146.23 35.9831 145.919 35.0126 145.153 34.2459L140.91 38.4885ZM140.23 36.8828V41.0781H146.23V36.8828H140.23ZM143.23 44.0781H148.363V38.0781H143.23V44.0781ZM151.363 41.0781V36.8828H145.363V41.0781H151.363ZM151.363 36.8828C151.363 37.0941 151.329 37.3718 151.211 37.6769C151.091 37.9888 150.907 38.2651 150.684 38.4885L146.441 34.2459C145.674 35.0126 145.363 35.9831 145.363 36.8828H151.363ZM150.684 38.4885C150.482 38.6907 150.222 38.8711 149.914 38.9944C149.609 39.1163 149.323 39.1562 149.09 39.1562V33.1562C148.137 33.1562 147.181 33.5059 146.441 34.2459L150.684 38.4885ZM149.09 39.1562H151.703V33.1562H149.09V39.1562ZM151.703 39.1562C151.472 39.1562 151.175 39.1167 150.854 38.9856C150.528 38.8523 150.252 38.6541 150.038 38.4271L154.4 34.3073C153.646 33.5088 152.656 33.1562 151.703 33.1562V39.1562ZM150.097 38.4885C149.874 38.2651 149.69 37.9888 149.57 37.6769C149.452 37.3718 149.418 37.0941 149.418 36.8828H155.418C155.418 35.9831 155.107 35.0126 154.34 34.2459L150.097 38.4885ZM149.418 36.8828V48.2852H155.418V36.8828H149.418ZM149.418 48.2852C149.418 48.0738 149.452 47.7962 149.57 47.4911C149.69 47.1792 149.874 46.9029 150.097 46.6795L154.34 50.9221C155.107 50.1553 155.418 49.1848 155.418 48.2852H149.418ZM150.097 46.6795C150.321 46.456 150.597 46.2723 150.909 46.1518C151.214 46.0339 151.492 46 151.703 46V52C152.603 52 153.573 51.6889 154.34 50.9221L150.097 46.6795ZM151.703 46H149.09V52H151.703V46ZM149.09 46C149.302 46 149.57 46.0343 149.86 46.1438C150.154 46.255 150.413 46.4218 150.622 46.6197L146.503 50.9818C147.253 51.6904 148.189 52 149.09 52V46ZM150.744 46.7409C150.931 46.9394 151.097 47.19 151.211 47.4852C151.325 47.7778 151.363 48.0548 151.363 48.2852H145.363C145.363 49.2119 145.694 50.1331 146.381 50.8607L150.744 46.7409ZM151.363 48.2852V43.9141H145.363V48.2852H151.363ZM148.363 40.9141H143.23V46.9141H148.363V40.9141ZM140.23 43.9141V48.2852H146.23V43.9141H140.23ZM140.23 48.2852C140.23 48.0537 140.27 47.7567 140.401 47.4364C140.534 47.1103 140.733 46.8342 140.96 46.6197L145.079 50.9818C145.878 50.2277 146.23 49.2384 146.23 48.2852H140.23ZM140.898 46.6795C141.11 46.4675 141.378 46.284 141.691 46.1603C141.999 46.0385 142.286 46 142.516 46V52C143.443 52 144.397 51.6662 145.141 50.9221L140.898 46.6795ZM142.516 46H139.891V52H142.516V46ZM139.891 46C140.102 46 140.38 46.0339 140.685 46.1518C140.997 46.2723 141.273 46.456 141.496 46.6795L137.254 50.9221C138.02 51.6889 138.991 52 139.891 52V46ZM141.496 46.6795C141.72 46.9029 141.903 47.1792 142.024 47.4911C142.142 47.7962 142.176 48.0738 142.176 48.2852H136.176C136.176 49.1848 136.487 50.1553 137.254 50.9221L141.496 46.6795ZM156.121 48.1562L154.406 50.6175L154.414 50.6235L156.121 48.1562ZM156.121 42.0859L154.44 39.6013L154.431 39.6073L156.121 42.0859ZM164.008 41.0312V44.0312H167.008V41.0312H164.008ZM159.402 39.2969L157.082 37.3951L157.079 37.3993L159.402 39.2969ZM155.711 39.8008L153.53 41.8607L153.589 41.923L153.651 41.9818L155.711 39.8008ZM166.375 37.1758L164.586 39.5838L164.597 39.5918L166.375 37.1758ZM164.57 48.8008L162.389 50.8607L162.419 50.8918L162.449 50.9221L164.57 48.8008ZM164.371 47.9219H167.371V42.088L162.626 45.4817L164.371 47.9219ZM160.094 49.2344L160.108 46.2344L160.101 46.2344H160.094V49.2344ZM159.109 44.0898L157.194 41.7806L157.18 41.7922L157.166 41.804L159.109 44.0898ZM164.008 45.5195L165.606 48.0585L167.008 47.1761V45.5195H164.008ZM164.008 43.6914H167.008V40.6914H164.008V43.6914ZM157.836 45.6951C157.684 45.5887 157.647 45.5196 157.636 45.4974C157.622 45.4703 157.574 45.3658 157.574 45.1094H151.574C151.574 47.3516 152.528 49.3089 154.406 50.6174L157.836 45.6951ZM157.574 45.1094C157.574 44.8524 157.622 44.7538 157.632 44.7356C157.638 44.7232 157.667 44.663 157.811 44.5646L154.431 39.6073C152.531 40.9026 151.574 42.8657 151.574 45.1094H157.574ZM157.802 44.5705C158.215 44.2912 158.917 44.0312 160.129 44.0312V38.0312C158.076 38.0312 156.105 38.4744 154.44 39.6013L157.802 44.5705ZM160.129 44.0312H164.008V38.0312H160.129V44.0312ZM167.008 41.0312C167.008 39.8634 166.793 38.1603 165.487 36.9339L161.38 41.3083C161.097 41.0424 161.008 40.7866 160.991 40.7318C160.978 40.6873 161.008 40.7655 161.008 41.0312H167.008ZM165.487 36.9339C164.239 35.7624 162.573 35.582 161.418 35.582V41.582C161.566 41.582 161.678 41.5891 161.756 41.5977C161.836 41.6065 161.87 41.6155 161.867 41.6149C161.866 41.6144 161.813 41.6003 161.727 41.5566C161.639 41.5118 161.514 41.4342 161.38 41.3083L165.487 36.9339ZM161.418 35.582C160.061 35.582 158.296 35.9144 157.082 37.3951L161.723 41.1987C161.628 41.3144 161.523 41.4057 161.423 41.4732C161.325 41.5392 161.245 41.573 161.202 41.5882C161.128 41.6145 161.175 41.582 161.418 41.582V35.582ZM157.079 37.3993C157.118 37.3513 157.229 37.2351 157.428 37.1365C157.633 37.0348 157.835 37 157.984 37V43C159.523 43 160.823 42.3003 161.726 41.1945L157.079 37.3993ZM157.984 37H156.238V43H157.984V37ZM156.238 37C156.451 37 156.719 37.0343 157.008 37.1438C157.303 37.255 157.561 37.4218 157.771 37.6197L153.651 41.9818C154.401 42.6904 155.337 43 156.238 43V37ZM157.892 37.7409C158.079 37.9394 158.246 38.19 158.36 38.4852C158.473 38.7778 158.512 39.0548 158.512 39.2852H152.512C152.512 40.2119 152.843 41.1331 153.53 41.8607L157.892 37.7409ZM158.512 39.2852C158.512 39.2187 158.521 39.2997 158.446 39.4182C158.378 39.5254 158.341 39.5039 158.506 39.4171C158.925 39.1969 159.935 38.9219 161.898 38.9219V32.9219C159.604 32.9219 157.421 33.2074 155.711 34.1083C154.811 34.582 153.976 35.2613 153.376 36.2092C152.769 37.1685 152.512 38.2305 152.512 39.2852H158.512ZM161.898 38.9219C163.322 38.9219 164.124 39.2407 164.586 39.5838L168.164 34.7678C166.376 33.439 164.193 32.9219 161.898 32.9219V38.9219ZM164.597 39.5918C164.764 39.7151 165.062 39.9802 165.062 41.0312H171.062C171.062 38.5979 170.236 36.2927 168.153 34.7598L164.597 39.5918ZM165.062 41.0312V48.2852H171.062V41.0312H165.062ZM165.062 48.2852C165.062 48.0738 165.096 47.7962 165.214 47.4911C165.335 47.1792 165.519 46.9029 165.742 46.6795L169.985 50.9221C170.751 50.1553 171.062 49.1848 171.062 48.2852H165.062ZM165.742 46.6795C165.965 46.456 166.242 46.2723 166.554 46.1518C166.859 46.0339 167.136 46 167.348 46V52C168.247 52 169.218 51.6889 169.985 50.9221L165.742 46.6795ZM167.348 46H165.086V52H167.348V46ZM165.086 46C165.297 46 165.575 46.0339 165.88 46.1518C166.192 46.2723 166.468 46.456 166.692 46.6795L162.449 50.9221C163.216 51.6889 164.186 52 165.086 52V46ZM166.751 46.7409C166.939 46.9394 167.105 47.19 167.219 47.4852C167.332 47.7778 167.371 48.0548 167.371 48.2852H161.371C161.371 49.2119 161.702 50.1331 162.389 50.8607L166.751 46.7409ZM167.371 48.2852V47.9219H161.371V48.2852H167.371ZM162.626 45.4817C161.939 45.9728 161.139 46.2394 160.108 46.2344L160.079 52.2343C162.283 52.245 164.334 51.6366 166.116 50.362L162.626 45.4817ZM160.094 46.2344C158.927 46.2344 158.244 45.9767 157.828 45.689L154.414 50.6235C156.077 51.7733 158.041 52.2344 160.094 52.2344V46.2344ZM160.41 40.6914C159.386 40.6914 158.202 40.9448 157.194 41.7806L161.024 46.3991C160.657 46.7037 160.341 46.6914 160.41 46.6914V40.6914ZM157.166 41.804C156.162 42.6581 155.641 43.8481 155.641 45.1211H161.641C161.641 45.288 161.608 45.5268 161.489 45.7883C161.369 46.052 161.203 46.2476 161.052 46.3757L157.166 41.804ZM155.641 45.1211C155.641 46.4461 156.21 47.6335 157.212 48.4687L161.053 43.8594C161.187 43.971 161.353 44.1547 161.477 44.4179C161.601 44.6822 161.641 44.933 161.641 45.1211H155.641ZM157.212 48.4687C158.263 49.3442 159.507 49.5742 160.527 49.5742V43.5742C160.345 43.5742 160.659 43.5308 161.053 43.8594L157.212 48.4687ZM160.527 49.5742C162.35 49.5742 164.058 49.0325 165.606 48.0585L162.41 42.9805C161.723 43.4128 161.111 43.5742 160.527 43.5742V49.5742ZM167.008 45.5195V43.6914H161.008V45.5195H167.008ZM164.008 40.6914H160.41V46.6914H164.008V40.6914ZM172.047 37.6211L174.089 39.819L174.096 39.8119L172.047 37.6211ZM182.078 36.9531L180.545 39.5317L180.553 39.5362L182.078 36.9531ZM183.613 40.5156L181.553 38.3346L181.522 38.364L181.492 38.3943L183.613 40.5156ZM180.004 39.8594L177.463 41.4542L177.472 41.4689L177.481 41.4834L180.004 39.8594ZM175.105 39.6602L172.739 37.8162L172.736 37.8205L175.105 39.6602ZM175.129 45.5078L172.777 47.3707L172.785 47.38L172.792 47.3893L175.129 45.5078ZM180.121 45.3086L177.589 43.7002L177.584 43.7069L177.58 43.7137L180.121 45.3086ZM183.73 44.6523L181.549 46.7122L181.608 46.7745L181.671 46.8334L183.73 44.6523ZM182.195 48.2031L180.67 45.62L180.662 45.6245L182.195 48.2031ZM177.168 46.2344C175.488 46.2344 174.6 45.8103 174.093 45.3425L170.024 49.7513C171.954 51.5335 174.473 52.2344 177.168 52.2344V46.2344ZM174.093 45.3425C173.667 44.9492 173.23 44.2089 173.23 42.5898H167.23C167.23 45.3302 168.012 47.8945 170.024 49.7513L174.093 45.3425ZM173.23 42.5898C173.23 40.9536 173.669 40.209 174.089 39.819L170.005 35.4232C168.003 37.2832 167.23 39.8511 167.23 42.5898H173.23ZM174.096 39.8119C174.6 39.3404 175.467 38.9219 177.098 38.9219V32.9219C174.416 32.9219 171.915 33.6362 169.997 35.4303L174.096 39.8119ZM177.098 38.9219C179.018 38.9219 180.054 39.2399 180.545 39.5317L183.611 34.3745C181.79 33.2913 179.505 32.9219 177.098 32.9219V38.9219ZM180.553 39.5362C180.659 39.5992 180.718 39.6493 180.747 39.6779C180.775 39.7048 180.783 39.7193 180.785 39.7221C180.786 39.7249 180.794 39.7378 180.802 39.7722C180.811 39.8087 180.824 39.881 180.824 40H186.824C186.824 37.5871 185.675 35.5931 183.604 34.37L180.553 39.5362ZM180.824 40C180.824 39.7685 180.864 39.4715 180.995 39.1512C181.128 38.8252 181.326 38.549 181.553 38.3346L185.673 42.6967C186.472 41.9425 186.824 40.9533 186.824 40H180.824ZM181.492 38.3943C181.715 38.1709 181.992 37.9871 182.304 37.8666C182.609 37.7488 182.886 37.7148 183.098 37.7148V43.7148C183.997 43.7148 184.968 43.4037 185.735 42.6369L181.492 38.3943ZM183.098 37.7148H181.352V43.7148H183.098V37.7148ZM181.352 37.7148C181.656 37.7148 181.969 37.8061 182.224 37.9682C182.453 38.1135 182.537 38.2519 182.526 38.2354L177.481 41.4834C178.228 42.6425 179.517 43.7148 181.352 43.7148V37.7148ZM182.545 38.2645C181.35 36.3606 179.354 35.7578 177.555 35.7578V41.7578C177.842 41.7578 177.894 41.8046 177.815 41.7692C177.772 41.7496 177.705 41.712 177.632 41.6493C177.559 41.5861 177.502 41.5169 177.463 41.4542L182.545 38.2645ZM177.555 35.7578C175.963 35.7578 174.025 36.1665 172.739 37.8162L177.472 41.5041C177.401 41.5951 177.321 41.6677 177.246 41.7206C177.173 41.7721 177.12 41.7935 177.106 41.7984C177.095 41.8028 177.121 41.7919 177.197 41.7802C177.274 41.7685 177.391 41.7578 177.555 41.7578V35.7578ZM172.736 37.8205C171.65 39.2191 171.414 41.0301 171.414 42.5781H177.414C177.414 42.0596 177.46 41.7229 177.506 41.5267C177.553 41.3269 177.58 41.3655 177.475 41.4998L172.736 37.8205ZM171.414 42.5781C171.414 44.1458 171.664 45.9655 172.777 47.3707L177.48 43.6449C177.58 43.7708 177.554 43.8058 177.507 43.6131C177.461 43.4216 177.414 43.0907 177.414 42.5781H171.414ZM172.792 47.3893C174.097 49.0098 176.036 49.4102 177.637 49.4102V43.4102C177.465 43.4102 177.339 43.3991 177.253 43.3864C177.167 43.3736 177.132 43.3607 177.135 43.3617C177.139 43.3633 177.184 43.3801 177.251 43.4258C177.32 43.4729 177.396 43.5398 177.466 43.6263L172.792 47.3893ZM177.637 49.4102C179.432 49.4102 181.456 48.8247 182.662 46.9034L177.58 43.7137C177.623 43.646 177.683 43.5739 177.758 43.5098C177.832 43.4465 177.898 43.4101 177.938 43.3923C178.009 43.3611 177.943 43.4102 177.637 43.4102V49.4102ZM182.653 46.917C182.667 46.8952 182.586 47.0337 182.357 47.181C182.1 47.3462 181.782 47.4414 181.469 47.4414V41.4414C179.615 41.4414 178.326 42.5391 177.589 43.7002L182.653 46.917ZM181.469 47.4414H183.215V41.4414H181.469V47.4414ZM183.215 47.4414C182.983 47.4414 182.686 47.4018 182.366 47.2708C182.04 47.1374 181.764 46.9393 181.549 46.7122L185.912 42.5925C185.157 41.794 184.168 41.4414 183.215 41.4414V47.4414ZM181.671 46.8334C181.456 46.6303 181.258 46.3627 181.121 46.0363C180.986 45.7133 180.941 45.4065 180.941 45.1562H186.941C186.941 44.1742 186.564 43.202 185.79 42.4713L181.671 46.8334ZM180.941 45.1562C180.941 45.2753 180.929 45.3475 180.92 45.384C180.911 45.4184 180.904 45.4313 180.902 45.4341C180.9 45.437 180.892 45.4514 180.864 45.4784C180.835 45.5069 180.776 45.557 180.67 45.62L183.721 50.7862C185.792 49.5631 186.941 47.5692 186.941 45.1562H180.941ZM180.662 45.6245C180.176 45.9133 179.13 46.2344 177.168 46.2344V52.2344C179.597 52.2344 181.902 51.8679 183.729 50.7817L180.662 45.6245Z" fill="black" mask="url(#path-2-outside-1_762_204)"/>
</svg>
